<svg version="1.1" id="logo" xmlns="http://www.w3.org/2000/svg" xmlns:xlink="http://www.w3.org/1999/xlink" x="0px" y="0px"
	 viewBox="0 0 24 24" enable-background="new 0 0 24 24" xml:space="preserve">
<ellipse id="DropShadw" opacity="0.29" fill="#492A04" cx="12" cy="19.34" rx="11" ry="2.66"/>
<g id="Logo_x5F_circuits">
	<g id="Main_x5F_path_x5F_6_x5F_Last">
		
			<radialGradient id="path_x5F_4_13_" cx="14.3988" cy="17.2148" r="3.1697" gradientTransform="matrix(-0.2725 0.9902 -1.0057 -0.2968 28.9877 2.4605)" gradientUnits="userSpaceOnUse">
			<stop  offset="0" style="stop-color:#FFDE94"/>
			<stop  offset="0.1612" style="stop-color:#FFCC77"/>
			<stop  offset="0.4129" style="stop-color:#FFB351"/>
			<stop  offset="0.6449" style="stop-color:#FFA235"/>
			<stop  offset="0.848" style="stop-color:#FF9724"/>
			<stop  offset="1" style="stop-color:#FF931E"/>
		</radialGradient>
		<path id="path_x5F_4" fill="url(#path_x5F_4_13_)" d="M5.59,9.63C5.7,9.24,5.83,8.93,5.95,8.7c0.22-0.41,0.46-0.76,0.68-1
			c0.04-0.04,0.07-0.08,0.1-0.11c0.05-0.06,0.09-0.11,0.13-0.14l0.09-0.08l0.05,0.05L6.9,7.51C6.86,7.54,6.82,7.59,6.77,7.64
			c-0.03,0.03-0.06,0.07-0.1,0.11C6.46,7.99,6.22,8.34,6.01,8.74c-0.17,0.34-0.39,0.9-0.49,1.61c-0.09,0.64-0.04,1.31,0.13,1.94
			c0.17,0.63,0.46,1.24,0.85,1.77c0.36,0.49,0.79,0.9,1.24,1.2c0.08,0.06,0.16,0.11,0.24,0.16c0.02,0.01,0.04,0.03,0.07,0.04
			c0.04,0.02,0.07,0.04,0.11,0.06c0.06,0.04,0.12,0.07,0.18,0.1c0.07,0.03,0.13,0.06,0.19,0.09c0.11,0.05,0.2,0.1,0.29,0.13
			l0.44,0.15l-0.02,0.07l-0.44-0.15c-0.09-0.03-0.19-0.08-0.3-0.13c-0.06-0.03-0.13-0.06-0.19-0.09c-0.06-0.03-0.12-0.07-0.19-0.1
			c-0.03-0.02-0.07-0.04-0.1-0.06c-0.02-0.01-0.04-0.03-0.07-0.04c-0.08-0.05-0.17-0.1-0.25-0.16c-0.45-0.3-0.89-0.72-1.25-1.21
			c-0.4-0.53-0.7-1.15-0.86-1.79c-0.17-0.64-0.22-1.32-0.13-1.96C5.48,10.08,5.53,9.84,5.59,9.63z"/>
		<g id="sub_x5F_path_x5F_4_2_">
			
				<radialGradient id="path_x5F_4_14_" cx="17.7932" cy="16.2879" r="0.5834" gradientTransform="matrix(-0.2725 0.9902 -1.0057 -0.2968 28.9877 2.4605)" gradientUnits="userSpaceOnUse">
				<stop  offset="0" style="stop-color:#FFDE94"/>
				<stop  offset="0.1612" style="stop-color:#FFCC77"/>
				<stop  offset="0.4129" style="stop-color:#FFB351"/>
				<stop  offset="0.6449" style="stop-color:#FFA235"/>
				<stop  offset="0.848" style="stop-color:#FF9724"/>
				<stop  offset="1" style="stop-color:#FF931E"/>
			</radialGradient>
			<path id="path_x5F_4_4_" fill="url(#path_x5F_4_14_)" d="M7.04,14.91l0.18-0.2l0.29,0.25l0.31,0.23
				c0.05,0.04,0.11,0.08,0.17,0.11l0.28,0.16c0.04,0.03,0.08,0.05,0.12,0.06l0.09,0.04l-0.11,0.25l-0.09-0.04
				c-0.04-0.02-0.09-0.04-0.15-0.08l-0.27-0.16c-0.06-0.04-0.13-0.08-0.2-0.13l-0.37-0.27L7.04,14.91z"/>
			
				<radialGradient id="path_x5F_4_15_" cx="16.5512" cy="18.2632" r="0.6179" gradientTransform="matrix(-0.2725 0.9902 -1.0057 -0.2968 28.9877 2.4605)" gradientUnits="userSpaceOnUse">
				<stop  offset="0" style="stop-color:#FFDE94"/>
				<stop  offset="0.1612" style="stop-color:#FFCC77"/>
				<stop  offset="0.4129" style="stop-color:#FFB351"/>
				<stop  offset="0.6449" style="stop-color:#FFA235"/>
				<stop  offset="0.848" style="stop-color:#FF9724"/>
				<stop  offset="1" style="stop-color:#FF931E"/>
			</radialGradient>
			<path id="path_x5F_4_3_" fill="url(#path_x5F_4_15_)" d="M5.63,12.79l0.26-0.1l0.09,0.23c0.03,0.09,0.09,0.2,0.14,0.31
				c0.03,0.05,0.06,0.11,0.08,0.16c0.03,0.06,0.07,0.12,0.1,0.18l0.17,0.26c0.02,0.04,0.05,0.07,0.07,0.1
				c0.01,0.01,0.02,0.03,0.03,0.04l0.04,0.05l-0.22,0.17l-0.04-0.05c-0.01-0.01-0.02-0.02-0.03-0.03c-0.02-0.03-0.06-0.07-0.09-0.13
				l-0.16-0.26c-0.04-0.06-0.09-0.13-0.12-0.21c-0.02-0.05-0.05-0.1-0.08-0.15C5.81,13.23,5.75,13.11,5.71,13L5.63,12.79z"/>
			
				<radialGradient id="path_x5F_4_16_" cx="14.5285" cy="19.4266" r="0.5809" gradientTransform="matrix(-0.2725 0.9902 -1.0057 -0.2968 28.9877 2.4605)" gradientUnits="userSpaceOnUse">
				<stop  offset="0" style="stop-color:#FFDE94"/>
				<stop  offset="0.1612" style="stop-color:#FFCC77"/>
				<stop  offset="0.4129" style="stop-color:#FFB351"/>
				<stop  offset="0.6449" style="stop-color:#FFA235"/>
				<stop  offset="0.848" style="stop-color:#FF9724"/>
				<stop  offset="1" style="stop-color:#FF931E"/>
			</radialGradient>
			<path id="path_x5F_4_2_" fill="url(#path_x5F_4_16_)" d="M5.35,10.28l0.28,0.04L5.6,10.56c-0.02,0.09-0.02,0.2-0.02,0.32
				c0,0.06,0,0.13,0,0.2c0,0.07,0,0.14,0.01,0.22l0.03,0.3c0,0.06,0.01,0.1,0.02,0.14l0.02,0.09l-0.27,0.04l-0.02-0.09
				c-0.01-0.04-0.02-0.1-0.02-0.17l-0.03-0.29c-0.01-0.08-0.02-0.16-0.01-0.25c0-0.06,0-0.12,0-0.18c0-0.13,0-0.25,0.02-0.36
				L5.35,10.28z"/>
			
				<radialGradient id="path_x5F_4_17_" cx="12.1495" cy="19.5149" r="0.5672" gradientTransform="matrix(-0.2725 0.9902 -1.0057 -0.2968 28.9877 2.4605)" gradientUnits="userSpaceOnUse">
				<stop  offset="0" style="stop-color:#FFDE94"/>
				<stop  offset="0.1612" style="stop-color:#FFCC77"/>
				<stop  offset="0.4129" style="stop-color:#FFB351"/>
				<stop  offset="0.6449" style="stop-color:#FFA235"/>
				<stop  offset="0.848" style="stop-color:#FF9724"/>
				<stop  offset="1" style="stop-color:#FF931E"/>
			</radialGradient>
			<path id="path_x5F_4_1_" fill="url(#path_x5F_4_17_)" d="M5.57,9.35l0.08-0.23c0.04-0.1,0.09-0.21,0.14-0.33l0.08-0.18
				C5.9,8.56,5.94,8.5,5.97,8.44c0.06-0.1,0.12-0.2,0.17-0.28l0.14-0.2l0.23,0.17L6.37,8.32c-0.04,0.07-0.1,0.16-0.16,0.26
				C6.18,8.64,6.15,8.7,6.12,8.76L6.04,8.91c-0.05,0.11-0.1,0.22-0.14,0.31L5.83,9.44L5.57,9.35z"/>
		</g>
		
			<radialGradient id="SVGID_1_" cx="9.4411" cy="14.7312" r="3.1721" gradientTransform="matrix(-0.2725 0.9902 -1.0057 -0.2968 28.9877 2.4605)" gradientUnits="userSpaceOnUse">
			<stop  offset="0" style="stop-color:#FFDE94"/>
			<stop  offset="0.1612" style="stop-color:#FFCC77"/>
			<stop  offset="0.4129" style="stop-color:#FFB351"/>
			<stop  offset="0.6449" style="stop-color:#FFA235"/>
			<stop  offset="0.848" style="stop-color:#FF9724"/>
			<stop  offset="1" style="stop-color:#FF931E"/>
		</radialGradient>
		<path fill="url(#SVGID_1_)" d="M6.94,7.37L7.2,7.14l0.39-0.29l0.4-0.25c0.07-0.04,0.14-0.07,0.21-0.1
			c0.04-0.02,0.08-0.04,0.12-0.06c0.37-0.17,0.95-0.38,1.66-0.45c0.65-0.06,1.33,0,1.98,0.19c0.64,0.19,1.26,0.51,1.78,0.92
			c0.57,0.44,0.96,0.94,1.18,1.28c0.02,0.04,0.05,0.08,0.07,0.11c0.04,0.07,0.08,0.13,0.12,0.2l0.23,0.47l0.16,0.41l0.1,0.35
			l-0.07,0.02l-0.1-0.34l-0.18-0.45l-0.21-0.42C15,8.67,14.96,8.6,14.92,8.54c-0.02-0.04-0.05-0.07-0.07-0.11
			c-0.22-0.34-0.61-0.83-1.17-1.27c-0.51-0.4-1.12-0.72-1.75-0.9C11.29,6.07,10.62,6,9.98,6.06C9.28,6.13,8.7,6.34,8.34,6.5
			C8.3,6.52,8.26,6.54,8.22,6.56c-0.07,0.03-0.14,0.07-0.2,0.1L7.59,6.93L7.24,7.19L6.98,7.43L6.94,7.37z"/>
		<g id="sub_x5F_path_x5F_4_1_">
			
				<radialGradient id="path_x5F_4_18_" cx="9.4926" cy="17.9912" r="0.6172" gradientTransform="matrix(-0.2725 0.9902 -1.0057 -0.2968 28.9877 2.4605)" gradientUnits="userSpaceOnUse">
				<stop  offset="0" style="stop-color:#FFDE94"/>
				<stop  offset="0.1612" style="stop-color:#FFCC77"/>
				<stop  offset="0.4129" style="stop-color:#FFB351"/>
				<stop  offset="0.6449" style="stop-color:#FFA235"/>
				<stop  offset="0.848" style="stop-color:#FF9724"/>
				<stop  offset="1" style="stop-color:#FF931E"/>
			</radialGradient>
			<path id="path_x5F_4_8_" fill="url(#path_x5F_4_18_)" d="M7.55,6.74l0.27-0.16c0.05-0.03,0.09-0.06,0.15-0.09l0.26-0.13
				C8.36,6.29,8.51,6.24,8.62,6.2c0.04-0.01,0.07-0.03,0.1-0.04C8.76,6.15,8.78,6.14,8.8,6.13C8.84,6.12,8.88,6.1,8.91,6.1
				l0.06-0.02l0.08,0.27L8.99,6.36C8.96,6.37,8.94,6.38,8.9,6.39C8.88,6.4,8.86,6.41,8.83,6.42C8.8,6.43,8.76,6.44,8.73,6.46
				C8.61,6.5,8.48,6.55,8.36,6.61L8.1,6.73C8.06,6.76,8.02,6.79,7.97,6.81L7.7,6.98L7.55,6.74z"/>
			
				<radialGradient id="path_x5F_4_19_" cx="8.4086" cy="15.9258" r="0.5688" gradientTransform="matrix(-0.2725 0.9902 -1.0057 -0.2968 28.9877 2.4605)" gradientUnits="userSpaceOnUse">
				<stop  offset="0" style="stop-color:#FFDE94"/>
				<stop  offset="0.1612" style="stop-color:#FFCC77"/>
				<stop  offset="0.4129" style="stop-color:#FFB351"/>
				<stop  offset="0.6449" style="stop-color:#FFA235"/>
				<stop  offset="0.848" style="stop-color:#FF9724"/>
				<stop  offset="1" style="stop-color:#FF931E"/>
			</radialGradient>
			<path id="path_x5F_4_7_" fill="url(#path_x5F_4_19_)" d="M9.92,5.89l0.24-0.01c0.03,0,0.05,0,0.08,0c0.05,0,0.11-0.01,0.18-0.01
				l0.29,0.01c0.16,0,0.32,0.02,0.45,0.04l0.27,0.04c0.06,0.01,0.09,0.02,0.09,0.02l-0.07,0.27c0,0-0.02-0.01-0.05-0.01l-0.17-0.02
				c-0.03,0-0.06-0.01-0.1-0.01c-0.13-0.02-0.27-0.04-0.41-0.04l-0.29-0.01c-0.05,0-0.1,0-0.15,0.01c-0.03,0-0.06,0-0.08,0
				L9.94,6.17L9.92,5.89z"/>
			
				<radialGradient id="path_x5F_4_20_" cx="8.4086" cy="13.5367" r="0.5689" gradientTransform="matrix(-0.2725 0.9902 -1.0057 -0.2968 28.9877 2.4605)" gradientUnits="userSpaceOnUse">
				<stop  offset="0" style="stop-color:#FFDE94"/>
				<stop  offset="0.1612" style="stop-color:#FFCC77"/>
				<stop  offset="0.4129" style="stop-color:#FFB351"/>
				<stop  offset="0.6449" style="stop-color:#FFA235"/>
				<stop  offset="0.848" style="stop-color:#FF9724"/>
				<stop  offset="1" style="stop-color:#FF931E"/>
			</radialGradient>
			<path id="path_x5F_4_6_" fill="url(#path_x5F_4_20_)" d="M12.34,6.51l0.08-0.26c0,0,0.03,0.01,0.08,0.03l0.26,0.12
				c0.12,0.05,0.27,0.12,0.41,0.21l0.24,0.14c0.06,0.04,0.11,0.07,0.15,0.11c0.02,0.02,0.04,0.03,0.06,0.05l0.2,0.15l-0.16,0.22
				l-0.2-0.14c-0.02-0.01-0.04-0.03-0.07-0.05c-0.04-0.03-0.08-0.06-0.13-0.09l-0.24-0.14c-0.13-0.08-0.26-0.14-0.38-0.2
				c-0.03-0.01-0.06-0.03-0.09-0.04l-0.16-0.07C12.37,6.52,12.35,6.51,12.34,6.51z"/>
			
				<radialGradient id="path_x5F_4_21_" cx="9.4926" cy="11.471" r="0.6172" gradientTransform="matrix(-0.2725 0.9902 -1.0057 -0.2968 28.9877 2.4605)" gradientUnits="userSpaceOnUse">
				<stop  offset="0" style="stop-color:#FFDE94"/>
				<stop  offset="0.1612" style="stop-color:#FFCC77"/>
				<stop  offset="0.4129" style="stop-color:#FFB351"/>
				<stop  offset="0.6449" style="stop-color:#FFA235"/>
				<stop  offset="0.848" style="stop-color:#FF9724"/>
				<stop  offset="1" style="stop-color:#FF931E"/>
			</radialGradient>
			<path id="path_x5F_4_5_" fill="url(#path_x5F_4_21_)" d="M14.32,7.9l0.2-0.19l0.05,0.05c0.02,0.02,0.05,0.05,0.07,0.09
				c0.01,0.02,0.03,0.04,0.04,0.06c0.02,0.03,0.05,0.06,0.07,0.09c0.08,0.1,0.18,0.22,0.25,0.36l0.15,0.24
				c0.03,0.06,0.06,0.11,0.08,0.16l0.15,0.29l-0.25,0.12L15,8.89c-0.02-0.05-0.05-0.09-0.08-0.14l-0.15-0.23
				c-0.07-0.12-0.16-0.23-0.23-0.33c-0.03-0.03-0.05-0.06-0.07-0.09c-0.01-0.02-0.03-0.04-0.05-0.06c-0.02-0.03-0.04-0.05-0.05-0.07
				L14.32,7.9z"/>
		</g>
		
			<radialGradient id="SVGID_2_" cx="14.3988" cy="12.2476" r="3.1697" gradientTransform="matrix(-0.2725 0.9902 -1.0057 -0.2968 28.9877 2.4605)" gradientUnits="userSpaceOnUse">
			<stop  offset="0" style="stop-color:#FFDE94"/>
			<stop  offset="0.1612" style="stop-color:#FFCC77"/>
			<stop  offset="0.4129" style="stop-color:#FFB351"/>
			<stop  offset="0.6449" style="stop-color:#FFA235"/>
			<stop  offset="0.848" style="stop-color:#FF9724"/>
			<stop  offset="1" style="stop-color:#FF931E"/>
		</radialGradient>
		<path fill="url(#SVGID_2_)" d="M9.25,15.97l0.45,0.11c0.09,0.02,0.19,0.03,0.31,0.05c0.07,0.01,0.14,0.02,0.21,0.03
			c0.06,0.01,0.13,0.01,0.2,0.01c0.04,0,0.08,0,0.12,0c0.02,0,0.05,0,0.08,0c0.09,0,0.19,0.01,0.28,0c0.53-0.01,1.11-0.13,1.66-0.34
			c0.6-0.23,1.16-0.59,1.62-1.03c0.46-0.44,0.84-0.99,1.09-1.57c0.28-0.66,0.37-1.25,0.4-1.63c0.02-0.46,0-0.88-0.06-1.2
			c-0.01-0.05-0.02-0.1-0.03-0.15c-0.01-0.08-0.03-0.14-0.04-0.19l-0.03-0.11l0.07-0.02l0.03,0.12c0.01,0.05,0.02,0.11,0.04,0.19
			c0.01,0.04,0.02,0.09,0.03,0.15c0.06,0.32,0.09,0.75,0.07,1.22c-0.03,0.39-0.12,0.99-0.41,1.66c-0.26,0.6-0.64,1.15-1.11,1.6
			c-0.47,0.45-1.04,0.81-1.64,1.05c-0.56,0.22-1.14,0.34-1.68,0.35c-0.1,0.01-0.19,0.01-0.29,0c-0.03,0-0.05,0-0.08,0
			c-0.04,0-0.08,0-0.12,0c-0.07,0-0.14,0-0.21-0.01c-0.07-0.01-0.14-0.02-0.21-0.03c-0.12-0.02-0.23-0.03-0.32-0.05l-0.45-0.11
			L9.25,15.97z"/>
		<g id="sub_x5F_path_x5F_4">
			
				<radialGradient id="path_x5F_4_22_" cx="12.1495" cy="9.9474" r="0.5671" gradientTransform="matrix(-0.2725 0.9902 -1.0057 -0.2968 28.9877 2.4605)" gradientUnits="userSpaceOnUse">
				<stop  offset="0" style="stop-color:#FFDE94"/>
				<stop  offset="0.1612" style="stop-color:#FFCC77"/>
				<stop  offset="0.4129" style="stop-color:#FFB351"/>
				<stop  offset="0.6449" style="stop-color:#FFA235"/>
				<stop  offset="0.848" style="stop-color:#FF9724"/>
				<stop  offset="1" style="stop-color:#FF931E"/>
			</radialGradient>
			<path id="path_x5F_4_12_" fill="url(#path_x5F_4_22_)" d="M15.57,10.8l0.28-0.02l0.02,0.24c0,0.1,0,0.22,0,0.34
				c0,0.07,0,0.14,0,0.2l0,0.01l-0.02,0.18c-0.01,0.13-0.03,0.25-0.04,0.34l-0.05,0.24l-0.27-0.07l0.05-0.23
				c0.01-0.08,0.02-0.2,0.04-0.33l0.02-0.18c0-0.07,0-0.13,0-0.2c0-0.12,0-0.23,0-0.32L15.57,10.8z"/>
			
				<radialGradient id="path_x5F_4_23_" cx="14.5285" cy="10.0358" r="0.5808" gradientTransform="matrix(-0.2725 0.9902 -1.0057 -0.2968 28.9877 2.4605)" gradientUnits="userSpaceOnUse">
				<stop  offset="0" style="stop-color:#FFDE94"/>
				<stop  offset="0.1612" style="stop-color:#FFCC77"/>
				<stop  offset="0.4129" style="stop-color:#FFB351"/>
				<stop  offset="0.6449" style="stop-color:#FFA235"/>
				<stop  offset="0.848" style="stop-color:#FF9724"/>
				<stop  offset="1" style="stop-color:#FF931E"/>
			</radialGradient>
			<path id="path_x5F_4_11_" fill="url(#path_x5F_4_23_)" d="M14.43,14.4l0.06-0.07c0.03-0.03,0.05-0.06,0.08-0.1l0.18-0.24
				c0.04-0.06,0.08-0.12,0.12-0.18c0.03-0.06,0.07-0.12,0.1-0.17c0.06-0.1,0.12-0.2,0.15-0.27l0.1-0.22l0.26,0.12l-0.1,0.22
				c-0.03,0.09-0.1,0.2-0.16,0.31c-0.03,0.05-0.06,0.11-0.09,0.16c-0.04,0.08-0.09,0.15-0.14,0.21l-0.17,0.24
				c-0.04,0.05-0.07,0.1-0.1,0.13l-0.06,0.07L14.43,14.4z"/>
			
				<radialGradient id="path_x5F_4_24_" cx="16.5513" cy="11.199" r="0.6179" gradientTransform="matrix(-0.2725 0.9902 -1.0057 -0.2968 28.9877 2.4605)" gradientUnits="userSpaceOnUse">
				<stop  offset="0" style="stop-color:#FFDE94"/>
				<stop  offset="0.1612" style="stop-color:#FFCC77"/>
				<stop  offset="0.4129" style="stop-color:#FFB351"/>
				<stop  offset="0.6449" style="stop-color:#FFA235"/>
				<stop  offset="0.848" style="stop-color:#FF9724"/>
				<stop  offset="1" style="stop-color:#FF931E"/>
			</radialGradient>
			<path id="path_x5F_4_10_" fill="url(#path_x5F_4_24_)" d="M12.49,15.75l0.06-0.02c0.01,0,0.02-0.01,0.04-0.01
				c0.03-0.01,0.07-0.02,0.1-0.04l0.28-0.14c0.06-0.03,0.12-0.06,0.18-0.09c0.05-0.03,0.1-0.06,0.16-0.09
				c0.11-0.06,0.21-0.12,0.27-0.18l0.2-0.15l0.17,0.22l-0.19,0.14c-0.08,0.07-0.19,0.13-0.3,0.2c-0.05,0.03-0.1,0.06-0.15,0.09
				c-0.07,0.04-0.14,0.08-0.21,0.11l-0.28,0.13c-0.05,0.03-0.1,0.04-0.14,0.06c-0.01,0-0.02,0.01-0.03,0.01l-0.07,0.02L12.49,15.75z
				"/>
			
				<radialGradient id="path_x5F_4_25_" cx="17.7933" cy="13.1745" r="0.5834" gradientTransform="matrix(-0.2725 0.9902 -1.0057 -0.2968 28.9877 2.4605)" gradientUnits="userSpaceOnUse">
				<stop  offset="0" style="stop-color:#FFDE94"/>
				<stop  offset="0.1612" style="stop-color:#FFCC77"/>
				<stop  offset="0.4129" style="stop-color:#FFB351"/>
				<stop  offset="0.6449" style="stop-color:#FFA235"/>
				<stop  offset="0.848" style="stop-color:#FF9724"/>
				<stop  offset="1" style="stop-color:#FF931E"/>
			</radialGradient>
			<path id="path_x5F_4_9_" fill="url(#path_x5F_4_25_)" d="M10.12,16.04l0.1,0.01c0.04,0.01,0.08,0.01,0.12,0.01l0.25,0.01
				c0.02,0,0.05,0,0.07,0c0.07,0,0.13,0.01,0.19,0l0.42-0.03L11.62,16l0.05,0.27l-0.5,0.07l-0.28,0.02c-0.08,0.01-0.16,0-0.23,0
				l-0.32-0.01c-0.06,0-0.12-0.01-0.16-0.01l-0.1-0.01L10.12,16.04z"/>
		</g>
	</g>
	<g id="Main_x5F_path_x5F_5">
		
			<linearGradient id="path_x5F_6_4_" gradientUnits="userSpaceOnUse" x1="49.6093" y1="-2.2132" x2="-21.1427" y2="34.432" gradientTransform="matrix(0.3062 0.952 -0.952 0.3062 18.9352 -7.4296)">
			<stop  offset="0" style="stop-color:#FFFFFF"/>
			<stop  offset="0.0851" style="stop-color:#FFEDD8"/>
			<stop  offset="0.2082" style="stop-color:#FFD5A7"/>
			<stop  offset="0.3345" style="stop-color:#FFC17D"/>
			<stop  offset="0.462" style="stop-color:#FFB05B"/>
			<stop  offset="0.591" style="stop-color:#FFA340"/>
			<stop  offset="0.7222" style="stop-color:#FF9A2D"/>
			<stop  offset="0.8568" style="stop-color:#FF9522"/>
			<stop  offset="1" style="stop-color:#FF931E"/>
		</linearGradient>
		<path id="path_x5F_6_3_" fill="url(#path_x5F_6_4_)" d="M4.39,12.75c-0.18-0.6-0.27-1.18-0.28-1.71c0-0.09,0-0.19,0.01-0.28
			c0-0.05,0.01-0.1,0.01-0.15l0.01-0.21l0.03-0.21c0.01-0.05,0.01-0.1,0.02-0.15c0.01-0.09,0.02-0.18,0.05-0.27l0.1-0.4
			c0.18-0.6,0.39-1.07,0.63-1.46c0.08-0.16,0.19-0.3,0.29-0.44c0.04-0.06,0.08-0.11,0.12-0.17c0.05-0.07,0.1-0.12,0.15-0.18
			C5.54,7.1,5.57,7.07,5.6,7.04c0.03-0.03,0.06-0.06,0.08-0.09c0.05-0.06,0.1-0.11,0.15-0.16c0.72-0.72,1.4-1.08,1.75-1.23
			l0.16-0.08C7.77,5.46,7.8,5.45,7.83,5.43l0.49-0.18l0.05,0.14L7.89,5.57C7.86,5.58,7.82,5.6,7.79,5.61L7.63,5.69
			c-0.33,0.15-1,0.5-1.7,1.2c-0.05,0.05-0.09,0.1-0.14,0.15C5.76,7.08,5.74,7.11,5.71,7.14C5.69,7.17,5.66,7.2,5.63,7.23
			C5.58,7.29,5.53,7.34,5.49,7.4C5.45,7.45,5.41,7.51,5.37,7.57c-0.1,0.13-0.2,0.27-0.28,0.42C4.85,8.37,4.65,8.83,4.47,9.41
			L4.37,9.8c-0.02,0.08-0.03,0.16-0.04,0.25c-0.01,0.05-0.01,0.1-0.02,0.15l-0.03,0.21l-0.01,0.2c0,0.05,0,0.1-0.01,0.15
			c0,0.09-0.01,0.18-0.01,0.27c0.01,0.52,0.1,1.08,0.27,1.67c0.2,0.57,0.46,1.08,0.75,1.51c0.05,0.07,0.11,0.14,0.16,0.21
			c0.03,0.04,0.06,0.08,0.1,0.12l0.13,0.16l0.14,0.15c0.04,0.04,0.07,0.07,0.11,0.11c0.06,0.06,0.12,0.13,0.18,0.18l0.31,0.27
			c0.48,0.37,0.91,0.63,1.32,0.79c0.16,0.08,0.32,0.13,0.48,0.18c0.07,0.02,0.13,0.04,0.2,0.07c0.07,0.02,0.14,0.04,0.21,0.05
			c0.04,0.01,0.08,0.02,0.12,0.03c0.04,0.01,0.08,0.02,0.12,0.03c0.07,0.02,0.14,0.03,0.2,0.04c0.99,0.16,1.73,0.06,2.08-0.01
			l0.18-0.03c0.03-0.01,0.06-0.02,0.09-0.02l0.5-0.13l0.04,0.14l-0.5,0.13c-0.03,0.01-0.07,0.02-0.11,0.03l-0.18,0.03
			c-0.36,0.08-1.13,0.18-2.14,0.01c-0.07-0.01-0.14-0.03-0.21-0.05c-0.04-0.01-0.08-0.02-0.12-0.03c-0.04-0.01-0.08-0.02-0.12-0.03
			c-0.07-0.02-0.15-0.03-0.23-0.06c-0.06-0.02-0.13-0.04-0.2-0.07c-0.16-0.05-0.33-0.11-0.5-0.19c-0.42-0.17-0.86-0.43-1.36-0.81
			L6,15.27c-0.07-0.06-0.13-0.13-0.19-0.19C5.77,15.04,5.74,15,5.7,14.97l-0.15-0.15l-0.14-0.17c-0.03-0.04-0.06-0.08-0.09-0.12
			c-0.06-0.07-0.12-0.14-0.17-0.22C4.85,13.87,4.59,13.34,4.39,12.75z"/>
		
			<linearGradient id="path_x5F_6_5_" gradientUnits="userSpaceOnUse" x1="50.7732" y1="0.2949" x2="-19.8191" y2="36.8574" gradientTransform="matrix(0.3062 0.952 -0.952 0.3062 18.9352 -7.4296)">
			<stop  offset="0" style="stop-color:#FFFFFF"/>
			<stop  offset="0.0851" style="stop-color:#FFEDD8"/>
			<stop  offset="0.2082" style="stop-color:#FFD5A7"/>
			<stop  offset="0.3345" style="stop-color:#FFC17D"/>
			<stop  offset="0.462" style="stop-color:#FFB05B"/>
			<stop  offset="0.591" style="stop-color:#FFA340"/>
			<stop  offset="0.7222" style="stop-color:#FF9A2D"/>
			<stop  offset="0.8568" style="stop-color:#FF9522"/>
			<stop  offset="1" style="stop-color:#FF931E"/>
		</linearGradient>
		<path id="path_x5F_6_2_" fill="url(#path_x5F_6_5_)" d="M3.96,12.89l0-0.01c-0.12-0.44-0.27-1.01-0.28-1.57
			c0-0.04,0-0.08-0.01-0.12c-0.01-0.08-0.01-0.17-0.01-0.26l0.02-0.35c0-0.17,0.03-0.33,0.05-0.48c0.01-0.06,0.02-0.11,0.02-0.17
			l0.02-0.15C3.78,9.74,3.79,9.7,3.8,9.67l0.16-0.59l0.16-0.46l0.57,0.19l-0.2,0.58L4.38,9.81C4.38,9.83,4.37,9.85,4.37,9.87
			l-0.02,0.13c-0.01,0.05-0.02,0.12-0.03,0.18c-0.02,0.13-0.04,0.27-0.04,0.4l-0.02,0.36c0,0.06,0,0.13,0.01,0.2
			c0,0.05,0.01,0.09,0.01,0.14c0.01,0.49,0.15,1.02,0.26,1.42c0.14,0.39,0.34,0.9,0.62,1.3c0.03,0.04,0.05,0.08,0.08,0.12
			c0.04,0.06,0.07,0.12,0.11,0.17l0.21,0.27c0.09,0.12,0.18,0.22,0.28,0.31c0.05,0.05,0.09,0.09,0.13,0.14l0.1,0.1
			c0.01,0.01,0.03,0.02,0.04,0.04l0.39,0.33l0.44,0.31l-0.35,0.49l-0.47-0.33l-0.4-0.34c-0.03-0.02-0.06-0.05-0.08-0.07l-0.11-0.11
			c-0.04-0.05-0.08-0.09-0.12-0.13c-0.1-0.11-0.22-0.23-0.33-0.37l-0.21-0.26c-0.06-0.07-0.1-0.15-0.15-0.22
			c-0.02-0.03-0.04-0.07-0.06-0.1C4.34,13.87,4.12,13.32,3.96,12.89L3.96,12.89z"/>
		
			<linearGradient id="path_x5F_6_6_" gradientUnits="userSpaceOnUse" x1="48.1143" y1="-5.1518" x2="-22.6376" y2="31.4933" gradientTransform="matrix(0.3062 0.952 -0.952 0.3062 18.9352 -7.4296)">
			<stop  offset="0" style="stop-color:#FFFFFF"/>
			<stop  offset="0.0851" style="stop-color:#FFEDD8"/>
			<stop  offset="0.2082" style="stop-color:#FFD5A7"/>
			<stop  offset="0.3345" style="stop-color:#FFC17D"/>
			<stop  offset="0.462" style="stop-color:#FFB05B"/>
			<stop  offset="0.591" style="stop-color:#FFA340"/>
			<stop  offset="0.7222" style="stop-color:#FF9A2D"/>
			<stop  offset="0.8568" style="stop-color:#FF9522"/>
			<stop  offset="1" style="stop-color:#FF931E"/>
		</linearGradient>
		<path id="path_x5F_6_1_" fill="url(#path_x5F_6_6_)" d="M11.92,16.42l0.49-0.18c0.03-0.01,0.06-0.02,0.09-0.04l0.16-0.08
			c0.33-0.15,1-0.5,1.7-1.2c0.05-0.05,0.09-0.1,0.14-0.15c0.03-0.03,0.05-0.06,0.08-0.09c0.02-0.03,0.05-0.06,0.08-0.09
			c0.05-0.06,0.1-0.11,0.14-0.17c0.04-0.06,0.08-0.11,0.12-0.17c0.1-0.13,0.2-0.27,0.28-0.42c0.24-0.38,0.44-0.84,0.62-1.42
			l0.1-0.39c0.02-0.08,0.03-0.17,0.04-0.25c0.01-0.05,0.01-0.1,0.02-0.15l0.03-0.21l0.01-0.2c0-0.05,0-0.1,0.01-0.15
			c0-0.09,0.01-0.18,0.01-0.27c-0.01-0.52-0.1-1.08-0.27-1.67c-0.2-0.57-0.46-1.08-0.75-1.51c-0.05-0.07-0.11-0.14-0.16-0.21
			c-0.03-0.04-0.06-0.08-0.1-0.12l-0.13-0.16l-0.14-0.15c-0.04-0.03-0.07-0.07-0.11-0.11c-0.06-0.06-0.12-0.13-0.18-0.18l-0.31-0.27
			c-0.48-0.37-0.91-0.63-1.32-0.79c-0.16-0.08-0.32-0.13-0.48-0.18c-0.07-0.02-0.13-0.04-0.2-0.07c-0.07-0.02-0.14-0.04-0.21-0.05
			c-0.04-0.01-0.08-0.02-0.12-0.03c-0.04-0.01-0.08-0.02-0.12-0.03c-0.07-0.02-0.14-0.03-0.2-0.04C10.24,5.03,9.5,5.13,9.14,5.2
			L8.96,5.23C8.93,5.24,8.9,5.25,8.87,5.26l-0.5,0.13L8.33,5.25l0.5-0.13C8.86,5.11,8.9,5.1,8.93,5.09l0.18-0.03
			c0.36-0.08,1.13-0.18,2.14-0.01c0.07,0.01,0.14,0.03,0.21,0.05c0.04,0.01,0.08,0.02,0.12,0.03c0.04,0.01,0.08,0.02,0.12,0.03
			c0.07,0.02,0.15,0.03,0.23,0.06c0.06,0.02,0.13,0.04,0.2,0.07c0.16,0.05,0.33,0.11,0.5,0.19c0.42,0.17,0.86,0.43,1.36,0.81
			l0.32,0.27c0.07,0.06,0.13,0.13,0.19,0.19c0.03,0.04,0.07,0.07,0.1,0.11l0.15,0.15l0.14,0.17c0.03,0.04,0.06,0.08,0.09,0.12
			c0.06,0.07,0.12,0.14,0.17,0.22c0.31,0.44,0.57,0.96,0.77,1.55c0.18,0.6,0.27,1.18,0.28,1.71c0,0.09,0,0.19-0.01,0.28
			c0,0.05-0.01,0.1-0.01,0.15l-0.01,0.21l-0.03,0.21c-0.01,0.05-0.01,0.1-0.02,0.15c-0.01,0.09-0.02,0.18-0.05,0.27l-0.1,0.4
			c-0.18,0.6-0.39,1.07-0.63,1.46c-0.08,0.16-0.19,0.3-0.29,0.44c-0.04,0.06-0.08,0.11-0.12,0.17c-0.05,0.07-0.1,0.12-0.15,0.18
			c-0.03,0.03-0.05,0.06-0.08,0.09c-0.03,0.03-0.06,0.06-0.08,0.09c-0.05,0.06-0.1,0.11-0.15,0.16c-0.72,0.72-1.4,1.08-1.75,1.23
			l-0.16,0.08c-0.04,0.02-0.07,0.03-0.11,0.04l-0.49,0.18L11.92,16.42z"/>
		
			<linearGradient id="path_x5F_6_7_" gradientUnits="userSpaceOnUse" x1="46.7967" y1="-7.5804" x2="-23.7961" y2="28.9823" gradientTransform="matrix(0.3062 0.952 -0.952 0.3062 18.9352 -7.4296)">
			<stop  offset="0" style="stop-color:#FFFFFF"/>
			<stop  offset="0.0851" style="stop-color:#FFEDD8"/>
			<stop  offset="0.2082" style="stop-color:#FFD5A7"/>
			<stop  offset="0.3345" style="stop-color:#FFC17D"/>
			<stop  offset="0.462" style="stop-color:#FFB05B"/>
			<stop  offset="0.591" style="stop-color:#FFA340"/>
			<stop  offset="0.7222" style="stop-color:#FF9A2D"/>
			<stop  offset="0.8568" style="stop-color:#FF9522"/>
			<stop  offset="1" style="stop-color:#FF931E"/>
		</linearGradient>
		<path id="path_x5F_6" fill="url(#path_x5F_6_7_)" d="M15.61,13l0.2-0.58L15.91,12c0.01-0.02,0.01-0.04,0.02-0.07l0.02-0.13
			c0.01-0.05,0.02-0.12,0.03-0.18c0.02-0.13,0.04-0.27,0.04-0.4l0.02-0.36c0-0.06,0-0.13-0.01-0.2c0-0.05-0.01-0.09-0.01-0.14
			c-0.01-0.49-0.15-1.02-0.26-1.42c-0.14-0.39-0.34-0.9-0.62-1.3c-0.03-0.04-0.05-0.08-0.08-0.12c-0.04-0.06-0.07-0.12-0.11-0.17
			l-0.21-0.27c-0.09-0.12-0.18-0.22-0.28-0.31c-0.05-0.05-0.09-0.09-0.13-0.14l-0.1-0.1c-0.01-0.01-0.03-0.02-0.04-0.04L13.8,6.33
			l-0.44-0.31l0.35-0.49l0.47,0.33l0.4,0.34c0.03,0.02,0.06,0.05,0.08,0.07l0.11,0.11c0.04,0.05,0.08,0.09,0.12,0.13
			c0.1,0.11,0.22,0.23,0.33,0.37l0.21,0.26c0.06,0.07,0.1,0.15,0.15,0.22c0.02,0.03,0.04,0.07,0.06,0.1
			c0.31,0.46,0.53,1.01,0.69,1.44l0,0.01l0,0.01c0.12,0.44,0.27,1.01,0.28,1.57c0,0.04,0,0.08,0.01,0.12
			c0.01,0.08,0.01,0.17,0.01,0.26l-0.02,0.35c0,0.17-0.03,0.33-0.05,0.48c-0.01,0.06-0.02,0.11-0.02,0.17l-0.02,0.15
			c-0.01,0.05-0.02,0.08-0.03,0.12l-0.16,0.59l-0.16,0.46L15.61,13z"/>
	</g>
	<g id="Main_x5F_path_x5F_4">
		<polygon id="path_x5F_3_15_" fill="#B3B3B3" stroke="#B3B3B3" stroke-width="0.01" stroke-miterlimit="10" points="3.8,14.38 
			3.87,14.34 4,14.6 3.94,14.63 		"/>
		<path id="path_x5F_3_14_" fill="#B3B3B3" stroke="#B3B3B3" stroke-width="0.01" stroke-miterlimit="10" d="M3.36,13.38l0.07-0.03
			c0,0.01,0.01,0.03,0.02,0.04l0.13,0.34l-0.07,0.03l-0.13-0.33C3.37,13.41,3.37,13.4,3.36,13.38z M3.62,14.02l0.06-0.03l0.06,0.12
			l-0.06,0.03L3.62,14.02z"/>
		<path id="path_x5F_3_13_" fill="#B3B3B3" stroke="#B3B3B3" stroke-width="0.01" stroke-miterlimit="10" d="M5.99,5.22l0.04,0.06
			L5.97,5.32C5.95,5.33,5.93,5.35,5.91,5.36C5.86,5.39,5.8,5.43,5.74,5.48C5.73,5.49,5.72,5.5,5.7,5.51L5.66,5.46
			C5.67,5.45,5.68,5.44,5.7,5.43C5.76,5.37,5.82,5.33,5.87,5.3c0.02-0.02,0.04-0.03,0.06-0.04L5.99,5.22z M5.45,5.63L5.5,5.69
			c-0.03,0.03-0.07,0.06-0.1,0.09L5.35,5.72C5.38,5.69,5.42,5.66,5.45,5.63z M5.15,5.9l0.05,0.05c-0.07,0.07-0.14,0.14-0.2,0.2
			C4.94,6.22,4.88,6.28,4.82,6.34L4.77,6.29c0.06-0.06,0.12-0.13,0.17-0.19C5.01,6.04,5.07,5.97,5.15,5.9z M4.64,6.45l0.05,0.05
			C4.6,6.59,4.52,6.7,4.44,6.81L4.38,6.77C4.46,6.66,4.55,6.55,4.64,6.45z M4.22,6.99l0.06,0.04C4.26,7.07,4.23,7.1,4.21,7.14
			L4.15,7.1C4.17,7.06,4.2,7.02,4.22,6.99z M4,7.33l0.06,0.04C3.97,7.52,3.88,7.68,3.8,7.84L3.73,7.81C3.82,7.65,3.91,7.49,4,7.33z
			 M3.64,7.99l0.06,0.03C3.65,8.14,3.59,8.27,3.54,8.39L3.48,8.36C3.53,8.24,3.58,8.11,3.64,7.99z M3.38,8.62l0.07,0.02
			C3.44,8.68,3.42,8.72,3.41,8.76l0,0.01L3.34,8.75l0-0.01C3.36,8.7,3.37,8.66,3.38,8.62z M3.26,9.01l0.07,0.02
			C3.27,9.22,3.22,9.39,3.19,9.56L3.12,9.54C3.15,9.37,3.2,9.2,3.26,9.01z M3.09,9.74l0.07,0.01L3.11,9.97l-0.02,0.19l-0.07-0.01
			l0.03-0.23L3.09,9.74z M2.99,10.42l0.07,0.01c-0.01,0.04-0.01,0.09-0.01,0.13l-0.07-0.01C2.98,10.51,2.99,10.47,2.99,10.42z
			 M2.97,10.83l0.07,0c0,0.05,0,0.09,0,0.14c0,0.05,0,0.1,0,0.15l0,0.18c0,0.02,0,0.05,0.01,0.07l-0.07,0.01
			c0-0.02,0-0.05-0.01-0.08l0-0.18c0-0.05,0-0.1,0-0.15C2.97,10.93,2.97,10.88,2.97,10.83z M2.99,11.59l0.07-0.01l0.02,0.22
			c0,0.06,0.01,0.12,0.02,0.18l-0.07,0.01c-0.01-0.07-0.02-0.13-0.02-0.19L2.99,11.59z M3.08,12.26l0.07-0.01
			c0.01,0.04,0.02,0.08,0.02,0.12l0,0.01L3.1,12.4l0-0.01C3.09,12.34,3.08,12.31,3.08,12.26z M3.15,12.67l0.07-0.02
			c0.01,0.06,0.03,0.11,0.04,0.15l0.11,0.37L3.3,13.19l-0.11-0.37C3.18,12.78,3.17,12.73,3.15,12.67z"/>
		<polygon id="path_x5F_3_12_" fill="#B3B3B3" stroke="#B3B3B3" stroke-width="0.01" stroke-miterlimit="10" points="6.33,4.99 
			6.37,5.05 6.13,5.21 6.1,5.15 		"/>
		<polygon id="path_x5F_3_11_" fill="#B3B3B3" stroke="#B3B3B3" stroke-width="0.01" stroke-miterlimit="10" points="6.33,4.99 
			6.58,4.85 6.61,4.92 6.37,5.05 		"/>
		<path id="path_x5F_3_10_" fill="#B3B3B3" stroke="#B3B3B3" stroke-width="0.01" stroke-miterlimit="10" d="M6.82,4.72l0.12-0.06
			l0.03,0.06L6.85,4.79L6.82,4.72z M7.18,4.55l0.33-0.14C7.53,4.41,7.54,4.41,7.56,4.4l0.03,0.07C7.57,4.47,7.56,4.48,7.54,4.48
			L7.21,4.62L7.18,4.55z"/>
		<path id="path_x5F_3_9_" fill="#B3B3B3" stroke="#B3B3B3" stroke-width="0.01" stroke-miterlimit="10" d="M7.74,4.34l0.37-0.11
			C8.15,4.22,8.2,4.2,8.26,4.19l0.02,0.07C8.22,4.27,8.17,4.28,8.13,4.3L7.76,4.41L7.74,4.34z M8.52,4.13l0.01,0
			c0.04-0.01,0.08-0.01,0.12-0.02l0.01,0.07C8.63,4.19,8.59,4.2,8.55,4.2l-0.01,0L8.52,4.13z M8.92,4.06
			C8.99,4.05,9.05,4.04,9.1,4.04l0.22-0.02l0.01,0.07L9.11,4.11c-0.06,0-0.11,0.01-0.18,0.02L8.92,4.06z M9.52,4
			C9.55,4,9.57,4,9.6,4l0.18,0c0.05,0,0.1,0,0.15,0c0.05,0,0.09,0,0.14,0l0,0.07c-0.05,0-0.09,0-0.14,0c-0.05,0-0.1,0-0.15,0
			l-0.18,0c-0.02,0-0.05,0-0.07,0.01L9.52,4z M10.33,4.01c0.04,0,0.09,0.01,0.13,0.01L10.46,4.1c-0.04-0.01-0.09-0.01-0.13-0.01
			L10.33,4.01z M10.73,4.06l0.23,0.03l0.17,0.04l-0.01,0.07l-0.21-0.04l-0.18-0.02L10.73,4.06z M11.33,4.16
			c0.17,0.03,0.34,0.08,0.52,0.14l-0.02,0.07c-0.18-0.06-0.34-0.11-0.51-0.14L11.33,4.16z M12.1,4.38l0.01,0
			c0.04,0.01,0.08,0.03,0.11,0.04l-0.02,0.07c-0.04-0.01-0.07-0.03-0.11-0.04l-0.01,0L12.1,4.38z M12.48,4.52
			c0.12,0.05,0.25,0.11,0.37,0.17l-0.03,0.07c-0.12-0.06-0.24-0.12-0.36-0.17L12.48,4.52z M13.03,4.78
			c0.16,0.08,0.31,0.17,0.47,0.27l-0.04,0.06c-0.15-0.1-0.31-0.19-0.46-0.27L13.03,4.78z M13.73,5.2c0.04,0.03,0.07,0.05,0.11,0.08
			L13.8,5.34c-0.04-0.03-0.07-0.05-0.11-0.08L13.73,5.2z M14.05,5.44c0.11,0.08,0.21,0.17,0.31,0.26l-0.05,0.05
			c-0.1-0.09-0.2-0.17-0.31-0.26L14.05,5.44z M14.52,5.84c0.06,0.06,0.12,0.12,0.18,0.18c0.07,0.06,0.14,0.13,0.2,0.21l-0.05,0.05
			c-0.07-0.07-0.13-0.14-0.2-0.2c-0.06-0.06-0.12-0.12-0.18-0.18L14.52,5.84z M15.08,6.42c0.03,0.04,0.06,0.07,0.09,0.11l-0.05,0.05
			c-0.03-0.03-0.06-0.07-0.09-0.1L15.08,6.42z M15.34,6.74c0.01,0.01,0.02,0.03,0.03,0.04c0.05,0.07,0.09,0.13,0.12,0.17
			c0.02,0.02,0.03,0.05,0.04,0.06l0.04,0.06l-0.06,0.04l-0.04-0.06c-0.01-0.02-0.03-0.04-0.04-0.07c-0.03-0.05-0.07-0.11-0.12-0.17
			c-0.01-0.01-0.02-0.02-0.03-0.04L15.34,6.74z"/>
		<polygon id="path_x5F_3_8_" fill="#B3B3B3" stroke="#B3B3B3" stroke-width="0.01" stroke-miterlimit="10" points="15.64,7.19 
			15.8,7.42 15.74,7.46 15.58,7.23 		"/>
		<polygon id="path_x5F_3_7_" fill="#B3B3B3" stroke="#B3B3B3" stroke-width="0.01" stroke-miterlimit="10" points="15.74,7.46 
			15.8,7.43 15.93,7.68 15.87,7.71 		"/>
		<path id="path_x5F_3_6_" fill="#B3B3B3" stroke="#B3B3B3" stroke-width="0.01" stroke-miterlimit="10" d="M15.99,7.95l0.06-0.03
			l0.06,0.12l-0.06,0.03L15.99,7.95z M16.16,8.32l0.07-0.03l0.13,0.33c0.01,0.02,0.01,0.03,0.02,0.04L16.31,8.7
			c0-0.01-0.01-0.03-0.02-0.04L16.16,8.32z"/>
		<path id="path_x5F_3_5_" fill="#B3B3B3" stroke="#B3B3B3" stroke-width="0.01" stroke-miterlimit="10" d="M16.37,8.89l0.07-0.02
			l0.11,0.37c0.01,0.04,0.03,0.09,0.04,0.15l-0.07,0.02c-0.01-0.06-0.03-0.11-0.04-0.15L16.37,8.89z M16.57,9.67l0.07-0.01l0,0.01
			c0.01,0.04,0.01,0.08,0.02,0.12l-0.07,0.01c-0.01-0.04-0.02-0.08-0.02-0.12L16.57,9.67z M16.64,10.07l0.07-0.01
			c0.01,0.07,0.02,0.13,0.02,0.19l0.02,0.22l-0.07,0.01l-0.02-0.22C16.65,10.2,16.65,10.14,16.64,10.07z M16.69,10.68l0.07-0.01
			c0,0.03,0,0.05,0.01,0.08l0,0.18c0,0.05,0,0.1,0,0.15c0,0.05,0,0.09,0,0.14l-0.07,0c0-0.05,0-0.09,0-0.14c0-0.05,0-0.1,0-0.15
			l0-0.18C16.7,10.73,16.7,10.71,16.69,10.68z M16.69,11.49l0.07,0.01c0,0.05-0.01,0.09-0.01,0.14l-0.07-0.01
			C16.68,11.58,16.68,11.54,16.69,11.49z M16.64,11.9l0.07,0.01l-0.03,0.23l-0.03,0.17l-0.07-0.01l0.04-0.21L16.64,11.9z
			 M16.54,12.5l0.07,0.01c-0.03,0.18-0.08,0.35-0.14,0.53l-0.07-0.02C16.47,12.84,16.52,12.67,16.54,12.5z M16.33,13.29l0.07,0.02
			l0,0.01c-0.01,0.04-0.03,0.08-0.04,0.12l-0.07-0.02c0.01-0.04,0.03-0.08,0.04-0.11L16.33,13.29z M16.19,13.67l0.07,0.03
			c-0.05,0.13-0.11,0.25-0.17,0.38l-0.06-0.03C16.09,13.92,16.14,13.79,16.19,13.67z M15.94,14.22L16,14.25
			c-0.08,0.16-0.17,0.32-0.27,0.48l-0.06-0.04C15.77,14.54,15.86,14.38,15.94,14.22z M15.53,14.92l0.06,0.04
			c-0.03,0.04-0.05,0.08-0.08,0.11l-0.06-0.04C15.48,14.99,15.51,14.96,15.53,14.92z M15.3,15.25l0.06,0.04
			c-0.08,0.11-0.17,0.22-0.25,0.32l-0.05-0.05C15.13,15.46,15.22,15.36,15.3,15.25z M14.91,15.72l0.05,0.05
			c-0.06,0.06-0.12,0.13-0.17,0.19c-0.06,0.07-0.13,0.14-0.2,0.21l-0.05-0.05c0.07-0.07,0.14-0.14,0.2-0.2
			C14.8,15.84,14.86,15.78,14.91,15.72z M14.34,16.29l0.05,0.06c-0.04,0.03-0.07,0.06-0.1,0.09l-0.04-0.06
			C14.27,16.34,14.31,16.32,14.34,16.29z M14.03,16.55l0.05,0.06c-0.01,0.01-0.02,0.02-0.04,0.03c-0.06,0.05-0.12,0.09-0.17,0.12
			c-0.02,0.02-0.04,0.03-0.06,0.04l-0.06,0.04l-0.04-0.06l0.06-0.04c0.02-0.01,0.04-0.03,0.06-0.04c0.05-0.03,0.1-0.07,0.16-0.12
			C14.01,16.57,14.02,16.56,14.03,16.55z"/>
		<polygon id="path_x5F_3_4_" fill="#B3B3B3" stroke="#B3B3B3" stroke-width="0.01" stroke-miterlimit="10" points="13.6,16.85 
			13.64,16.91 13.41,17.07 13.37,17.01 		"/>
		<polygon id="path_x5F_3_2_" fill="#B3B3B3" stroke="#B3B3B3" stroke-width="0.01" stroke-miterlimit="10" points="13.12,17.14 
			13.37,17.01 13.4,17.07 13.16,17.21 		"/>
		<path id="path_x5F_3_3_" fill="#B3B3B3" stroke="#B3B3B3" stroke-width="0.01" stroke-miterlimit="10" d="M12.15,17.59
			c0.01-0.01,0.03-0.01,0.04-0.02l0.33-0.14l0.03,0.07l-0.33,0.14c-0.02,0.01-0.03,0.01-0.04,0.02L12.15,17.59z M12.77,17.33
			l0.12-0.06l0.03,0.06L12.8,17.4L12.77,17.33z"/>
		<path id="path_x5F_3_1_" fill="#B3B3B3" stroke="#B3B3B3" stroke-width="0.01" stroke-miterlimit="10" d="M4.22,14.94L4.26,15
			c0.01,0.02,0.03,0.04,0.04,0.07c0.03,0.05,0.07,0.11,0.12,0.17c0.01,0.01,0.02,0.02,0.03,0.04L4.4,15.32
			c-0.01-0.01-0.02-0.03-0.03-0.04c-0.05-0.07-0.09-0.13-0.12-0.17c-0.02-0.02-0.03-0.05-0.04-0.06l-0.04-0.06L4.22,14.94z
			 M4.62,15.48c0.03,0.03,0.06,0.07,0.08,0.1l-0.05,0.05c-0.03-0.04-0.06-0.07-0.09-0.11L4.62,15.48z M4.88,15.79
			c0.07,0.07,0.13,0.14,0.2,0.2c0.06,0.06,0.12,0.12,0.18,0.18l-0.05,0.05c-0.06-0.06-0.12-0.12-0.18-0.18
			c-0.07-0.06-0.14-0.13-0.2-0.21L4.88,15.79z M5.42,16.3c0.1,0.09,0.2,0.17,0.31,0.26l-0.04,0.06c-0.11-0.08-0.21-0.17-0.31-0.26
			L5.42,16.3z M5.94,16.72c0.04,0.03,0.07,0.05,0.11,0.08l-0.04,0.06c-0.04-0.03-0.07-0.05-0.11-0.08L5.94,16.72z M6.27,16.95
			c0.15,0.1,0.31,0.19,0.46,0.27L6.7,17.28c-0.16-0.08-0.31-0.17-0.47-0.27L6.27,16.95z M6.91,17.31c0.12,0.06,0.24,0.12,0.36,0.17
			l-0.03,0.07C7.13,17.49,7,17.43,6.88,17.37L6.91,17.31z M7.53,17.57c0.04,0.01,0.07,0.03,0.11,0.04l0.01,0l-0.02,0.07l-0.01,0
			c-0.04-0.01-0.08-0.03-0.11-0.04L7.53,17.57z M7.91,17.69c0.18,0.06,0.34,0.11,0.51,0.14L8.41,17.9
			c-0.17-0.03-0.34-0.08-0.52-0.14L7.91,17.69z M8.62,17.87l0.21,0.04l0.18,0.02L9.01,18l-0.23-0.03l-0.17-0.03L8.62,17.87z
			 M9.28,17.96c0.04,0.01,0.09,0.01,0.13,0.01l0,0.07c-0.04,0-0.09-0.01-0.14-0.01L9.28,17.96z M9.68,17.98c0.05,0,0.09,0,0.14,0
			c0.05,0,0.1,0,0.15,0l0.18,0c0.02,0,0.05,0,0.07-0.01l0.01,0.07c-0.02,0-0.05,0-0.07,0.01l-0.18,0c-0.05,0-0.1,0-0.15,0
			c-0.05,0-0.09,0-0.14,0L9.68,17.98z M10.41,17.96l0.22-0.02c0.06,0,0.11-0.01,0.18-0.02L10.82,18c-0.07,0.01-0.13,0.02-0.18,0.02
			l-0.22,0.02L10.41,17.96z M11.07,17.88c0.04-0.01,0.08-0.02,0.12-0.02l0.01,0l0.01,0.07l-0.01,0c-0.04,0.01-0.08,0.01-0.12,0.02
			L11.07,17.88z M11.46,17.8c0.06-0.01,0.1-0.03,0.15-0.04l0.37-0.11l0.02,0.07l-0.37,0.11c-0.04,0.01-0.09,0.03-0.15,0.04
			L11.46,17.8z"/>
		<polygon id="path_x5F_3" fill="#B3B3B3" stroke="#B3B3B3" stroke-width="0.01" stroke-miterlimit="10" points="4,14.59 
			4.15,14.83 4.09,14.87 3.94,14.63 		"/>
	</g>
	<g id="Main_x5F_path_x5F_3">
		
			<radialGradient id="path_x5F_5_6_" cx="19.0247" cy="15.5536" r="4.7165" gradientTransform="matrix(-0.312 1.0032 -1.0068 -0.3311 29.3979 1.57)" gradientUnits="userSpaceOnUse">
			<stop  offset="0" style="stop-color:#FFDE94"/>
			<stop  offset="0.1612" style="stop-color:#FFCC77"/>
			<stop  offset="0.4129" style="stop-color:#FFB351"/>
			<stop  offset="0.6449" style="stop-color:#FFA235"/>
			<stop  offset="0.848" style="stop-color:#FF9724"/>
			<stop  offset="1" style="stop-color:#FF931E"/>
		</radialGradient>
		<path id="path_x5F_5_5_" fill="url(#path_x5F_5_6_)" d="M3.42,14.74c-0.3-0.53-0.49-1.01-0.61-1.37c-0.2-0.67-0.33-1.31-0.36-1.79
			c0-0.08-0.01-0.16-0.01-0.22c-0.01-0.12-0.01-0.21-0.02-0.29l0.01-0.18l0.12,0.01l-0.01,0.18c0,0.07,0.01,0.16,0.02,0.28
			c0,0.07,0.01,0.14,0.01,0.22c0.02,0.47,0.15,1.1,0.35,1.76c0.18,0.55,0.54,1.39,1.19,2.25c0.58,0.78,1.33,1.46,2.16,1.96
			c0.83,0.5,1.77,0.86,2.72,1.01c0.88,0.15,1.75,0.15,2.52,0c0.15-0.02,0.28-0.05,0.41-0.08l0.11-0.03
			c0.06-0.02,0.12-0.03,0.17-0.04c0.1-0.02,0.2-0.05,0.28-0.08l0.4-0.14c0.04-0.02,0.08-0.03,0.12-0.04
			c0.08-0.03,0.15-0.05,0.21-0.08l0.62-0.3l0.05,0.11l-0.61,0.3c-0.07,0.04-0.14,0.06-0.22,0.09c-0.04,0.01-0.08,0.03-0.12,0.04
			l-0.4,0.14c-0.09,0.03-0.19,0.06-0.3,0.08c-0.06,0.01-0.11,0.03-0.17,0.04l-0.11,0.03c-0.13,0.03-0.27,0.07-0.42,0.09
			c-0.78,0.15-1.66,0.15-2.56,0C8,18.52,7.05,18.16,6.21,17.65c-0.85-0.51-1.6-1.2-2.19-1.99C3.78,15.35,3.58,15.04,3.42,14.74z"/>
		
			<radialGradient id="path_x5F_5_7_" cx="20.9245" cy="16.2814" r="2.4272" gradientTransform="matrix(-0.312 1.0032 -1.0068 -0.3311 29.3979 1.57)" gradientUnits="userSpaceOnUse">
			<stop  offset="0" style="stop-color:#FFDE94"/>
			<stop  offset="0.1612" style="stop-color:#FFCC77"/>
			<stop  offset="0.4129" style="stop-color:#FFB351"/>
			<stop  offset="0.6449" style="stop-color:#FFA235"/>
			<stop  offset="0.848" style="stop-color:#FF9724"/>
			<stop  offset="1" style="stop-color:#FF931E"/>
		</radialGradient>
		<path id="path_x5F_5_4_" fill="url(#path_x5F_5_7_)" d="M3.4,15.39l0.4-0.25l0.04,0.07c0.01,0.01,0.02,0.03,0.03,0.06
			c0.02,0.03,0.05,0.08,0.08,0.12c0.04,0.04,0.08,0.11,0.14,0.18c0.1,0.13,0.22,0.28,0.35,0.45c0.51,0.58,1.17,1.14,1.82,1.53
			l0.34,0.19c0.07,0.04,0.15,0.08,0.21,0.11l0.59,0.27l0.72,0.25l0.34,0.08c0.25,0.07,0.47,0.1,0.65,0.13l0.34,0.05
			c0.03,0.01,0.05,0.01,0.06,0.01l-0.01,0.47c0,0-0.04,0-0.11-0.01l-0.34-0.05c-0.18-0.03-0.43-0.06-0.71-0.14l-0.44-0.11
			l-0.69-0.24l-0.59-0.27c-0.09-0.04-0.18-0.09-0.27-0.14l-0.34-0.2c-0.69-0.42-1.4-1.01-1.94-1.63c-0.15-0.18-0.27-0.34-0.37-0.47
			c-0.05-0.07-0.1-0.13-0.14-0.18c-0.05-0.07-0.08-0.12-0.11-0.16c-0.01-0.02-0.02-0.03-0.03-0.05L3.4,15.39z"/>
		
			<radialGradient id="path_x5F_5_8_" cx="11.7572" cy="17.5243" r="4.5844" gradientTransform="matrix(-0.312 1.0032 -1.0068 -0.3311 29.3979 1.57)" gradientUnits="userSpaceOnUse">
			<stop  offset="0" style="stop-color:#FFDE94"/>
			<stop  offset="0.1612" style="stop-color:#FFCC77"/>
			<stop  offset="0.4129" style="stop-color:#FFB351"/>
			<stop  offset="0.6449" style="stop-color:#FFA235"/>
			<stop  offset="0.848" style="stop-color:#FF9724"/>
			<stop  offset="1" style="stop-color:#FF931E"/>
		</radialGradient>
		<path id="path_x5F_5_3_" fill="url(#path_x5F_5_8_)" d="M2.43,10.89l0.02-0.53l0.09-0.72c0.01-0.05,0.02-0.1,0.03-0.14l0.12-0.55
			c0.03-0.11,0.07-0.21,0.1-0.32c0.02-0.06,0.04-0.13,0.06-0.19c0.2-0.57,0.58-1.41,1.23-2.23c0.6-0.75,1.37-1.4,2.23-1.87
			C7.18,3.85,8.14,3.55,9.1,3.45c1.05-0.12,1.97,0.01,2.56,0.15c0.07,0.02,0.13,0.03,0.2,0.05c0.11,0.03,0.22,0.05,0.33,0.08
			l0.54,0.19c0.05,0.02,0.09,0.03,0.13,0.05l0.7,0.32L14,4.54l-0.06,0.1l-0.46-0.27l-0.66-0.3c-0.04-0.01-0.08-0.03-0.13-0.05
			l-0.54-0.19c-0.1-0.03-0.21-0.05-0.32-0.08c-0.07-0.02-0.13-0.03-0.2-0.05c-0.58-0.13-1.49-0.26-2.52-0.14
			c-0.95,0.1-1.9,0.4-2.74,0.87c-0.85,0.46-1.6,1.1-2.19,1.84c-0.65,0.8-1.02,1.64-1.21,2.2C2.95,8.53,2.93,8.6,2.9,8.66
			C2.87,8.77,2.83,8.87,2.8,8.97L2.68,9.52C2.67,9.57,2.66,9.61,2.65,9.65L2.56,10.4l-0.02,0.5L2.43,10.89z"/>
		
			<radialGradient id="path_x5F_5_9_" cx="9.7364" cy="19.612" r="2.4441" gradientTransform="matrix(-0.312 1.0032 -1.0068 -0.3311 29.3979 1.57)" gradientUnits="userSpaceOnUse">
			<stop  offset="0" style="stop-color:#FFDE94"/>
			<stop  offset="0.1612" style="stop-color:#FFCC77"/>
			<stop  offset="0.4129" style="stop-color:#FFB351"/>
			<stop  offset="0.6449" style="stop-color:#FFA235"/>
			<stop  offset="0.848" style="stop-color:#FF9724"/>
			<stop  offset="1" style="stop-color:#FF931E"/>
		</radialGradient>
		<path id="path_x5F_5_2_" fill="url(#path_x5F_5_9_)" d="M3.48,6.44l0.2-0.29c0.02-0.03,0.05-0.07,0.08-0.1l0.42-0.49
			C4.52,5.2,5.22,4.54,6.15,4.02C7.08,3.51,8.02,3.28,8.5,3.18l0.65-0.1c0.05-0.01,0.09-0.01,0.13-0.01l0.36-0.02l0.03,0.47
			L9.36,3.55c-0.01,0-0.03,0-0.06,0c-0.03,0-0.06,0-0.09,0.01L8.58,3.65C7.83,3.8,7.02,4.09,6.38,4.44
			C5.74,4.79,5.07,5.32,4.53,5.88L4.12,6.35C4.1,6.37,4.09,6.4,4.07,6.42C4.06,6.44,4.05,6.45,4.04,6.47L3.87,6.71L3.48,6.44z"/>
		
			<radialGradient id="path_x5F_5_10_" cx="13.3047" cy="10.2539" r="4.7129" gradientTransform="matrix(-0.312 1.0032 -1.0068 -0.3311 29.3979 1.57)" gradientUnits="userSpaceOnUse">
			<stop  offset="0" style="stop-color:#FFDE94"/>
			<stop  offset="0.1612" style="stop-color:#FFCC77"/>
			<stop  offset="0.4129" style="stop-color:#FFB351"/>
			<stop  offset="0.6449" style="stop-color:#FFA235"/>
			<stop  offset="0.848" style="stop-color:#FF9724"/>
			<stop  offset="1" style="stop-color:#FF931E"/>
		</radialGradient>
		<path id="path_x5F_5_1_" fill="url(#path_x5F_5_10_)" d="M13.82,17.76l0.58-0.36c0.06-0.03,0.12-0.08,0.18-0.13
			c0.03-0.03,0.07-0.05,0.1-0.08l0.33-0.26c0.07-0.06,0.14-0.13,0.22-0.2c0.04-0.04,0.09-0.08,0.13-0.12l0.08-0.08
			c0.1-0.09,0.2-0.19,0.28-0.3c0.54-0.57,1-1.3,1.34-2.12c0.37-0.89,0.57-1.86,0.58-2.83c0.01-0.97-0.17-1.95-0.53-2.85
			c-0.4-1.01-0.93-1.75-1.3-2.19c-0.46-0.52-0.93-0.96-1.32-1.23c-0.07-0.05-0.13-0.09-0.18-0.13c-0.09-0.07-0.17-0.12-0.23-0.16
			l-0.15-0.09L14,4.54l0.16,0.09c0.07,0.04,0.14,0.1,0.24,0.17c0.06,0.04,0.12,0.08,0.18,0.13c0.4,0.28,0.88,0.72,1.34,1.25
			c0.38,0.45,0.92,1.21,1.32,2.23c0.36,0.91,0.55,1.92,0.54,2.9c-0.01,0.98-0.21,1.97-0.59,2.87c-0.35,0.83-0.82,1.58-1.36,2.15
			c-0.09,0.11-0.19,0.21-0.29,0.3l-0.08,0.08c-0.05,0.04-0.09,0.08-0.13,0.12c-0.08,0.07-0.15,0.14-0.23,0.21l-0.33,0.26
			c-0.04,0.03-0.07,0.05-0.1,0.08c-0.07,0.05-0.13,0.1-0.2,0.14l-0.58,0.36L13.82,17.76z"/>
		
			<radialGradient id="path_x5F_5_11_" cx="12.4399" cy="8.2882" r="2.4565" gradientTransform="matrix(-0.312 1.0032 -1.0068 -0.3311 29.3979 1.57)" gradientUnits="userSpaceOnUse">
			<stop  offset="0" style="stop-color:#FFDE94"/>
			<stop  offset="0.1612" style="stop-color:#FFCC77"/>
			<stop  offset="0.4129" style="stop-color:#FFB351"/>
			<stop  offset="0.6449" style="stop-color:#FFA235"/>
			<stop  offset="0.848" style="stop-color:#FF9724"/>
			<stop  offset="1" style="stop-color:#FF931E"/>
		</radialGradient>
		<path id="path_x5F_5" fill="url(#path_x5F_5_11_)" d="M16.85,14.81l0.01-0.21c0,0,0.01-0.02,0.02-0.05l0.14-0.32
			c0.07-0.16,0.16-0.36,0.23-0.61l0.15-0.5l0.13-0.57l0.08-0.63c0.01-0.08,0.02-0.16,0.02-0.25l0.01-0.39
			c0.01-0.75-0.12-1.6-0.34-2.34c-0.07-0.2-0.14-0.37-0.2-0.53c-0.03-0.08-0.06-0.15-0.08-0.22c-0.02-0.04-0.04-0.09-0.06-0.12
			c-0.01-0.02-0.02-0.05-0.03-0.06l-0.03-0.07l0.42-0.2l0.04,0.07c0.01,0.02,0.02,0.04,0.03,0.05c0.02,0.04,0.05,0.1,0.08,0.16
			c0.03,0.07,0.05,0.14,0.08,0.22c0.06,0.15,0.13,0.34,0.2,0.55c0.24,0.79,0.38,1.7,0.37,2.5l-0.01,0.4c0,0.1-0.01,0.2-0.02,0.3
			L18,12.66l-0.21,0.87l-0.08,0.25c-0.08,0.27-0.18,0.49-0.25,0.66l-0.14,0.31c-0.02,0.05-0.04,0.08-0.04,0.09l-0.21-0.11
			L16.85,14.81z"/>
	</g>
	<g id="Main_x5F_path_x5F_2">
		
			<linearGradient id="path_x5F_2_4_" gradientUnits="userSpaceOnUse" x1="60.2048" y1="-7.797" x2="-9.7179" y2="38.4019" gradientTransform="matrix(-0.8589 0.5122 -0.5122 -0.8589 29.4537 17.0649)">
			<stop  offset="0" style="stop-color:#FFFFFF"/>
			<stop  offset="0.1396" style="stop-color:#FAFAFA"/>
			<stop  offset="0.3023" style="stop-color:#ECECEC"/>
			<stop  offset="0.4765" style="stop-color:#D5D5D6"/>
			<stop  offset="0.6589" style="stop-color:#B4B5B6"/>
			<stop  offset="0.8457" style="stop-color:#8A8C8D"/>
			<stop  offset="1" style="stop-color:#626466"/>
		</linearGradient>
		<path id="path_x5F_2_3_" fill="url(#path_x5F_2_4_)" d="M5.43,3.88l0.04,0.07L5.22,4.12L5.18,4.05L5.43,3.88z M4.92,4.23
			l0.04,0.07L4.94,4.31L4.72,4.49L4.67,4.43L4.92,4.23z M4.43,4.63l0.05,0.06L4.37,4.78C4.34,4.81,4.3,4.85,4.25,4.9L4.19,4.84
			c0.05-0.05,0.09-0.09,0.13-0.12L4.43,4.63z M3.97,5.07l0.06,0.06L3.81,5.35L3.75,5.3L3.97,5.07z M3.55,5.54l0.06,0.05l-0.2,0.24
			L3.35,5.78L3.55,5.54z M3.15,6.04l0.06,0.05C3.19,6.11,3.17,6.15,3.15,6.19C3.13,6.21,3.11,6.24,3.1,6.27L3.05,6.34L2.98,6.3
			l0.05-0.08C3.05,6.2,3.07,6.17,3.08,6.14C3.11,6.11,3.13,6.07,3.15,6.04z M2.81,6.57l0.06,0.04L2.79,6.75
			C2.76,6.79,2.74,6.83,2.71,6.88L2.65,6.84C2.67,6.79,2.69,6.75,2.72,6.7L2.81,6.57z M2.5,7.12l0.07,0.04
			C2.52,7.25,2.48,7.35,2.43,7.44L2.36,7.41C2.41,7.31,2.45,7.22,2.5,7.12z M2.23,7.7l0.07,0.03c-0.04,0.1-0.08,0.19-0.12,0.29
			L2.12,7.99C2.15,7.9,2.19,7.8,2.23,7.7z M2.01,8.29l0.07,0.03c-0.03,0.1-0.07,0.2-0.1,0.3L1.91,8.6C1.94,8.49,1.97,8.39,2.01,8.29
			z M1.82,8.9L1.9,8.92L1.88,8.97C1.86,9.06,1.85,9.14,1.83,9.23L1.75,9.21c0.02-0.09,0.04-0.17,0.06-0.26L1.82,8.9z M1.69,9.53
			l0.08,0.01c-0.02,0.1-0.03,0.21-0.05,0.31L1.65,9.84C1.66,9.74,1.68,9.63,1.69,9.53z M1.61,10.16l0.08,0.01
			c-0.01,0.11-0.02,0.21-0.03,0.32l-0.08-0.01C1.59,10.37,1.6,10.27,1.61,10.16z M1.56,10.8l0.08,0c0,0.11-0.01,0.21-0.01,0.32
			l-0.08,0C1.56,11.01,1.56,10.9,1.56,10.8z M1.57,11.44l0.08-0.01l0.03,0.32l-0.08,0.01L1.57,11.44z M1.62,12.07l0.08-0.01
			c0,0.05,0.01,0.1,0.02,0.15l0.03,0.16l-0.08,0.01l-0.03-0.16C1.63,12.17,1.63,12.12,1.62,12.07z M1.73,12.7l0.08-0.01l0.06,0.31
			l-0.07,0.02l-0.01-0.05L1.73,12.7z M1.87,13.32l0.07-0.02l0.04,0.15c0.02,0.05,0.03,0.1,0.05,0.16l-0.08,0.02
			c-0.01-0.05-0.03-0.1-0.04-0.15L1.87,13.32z M2.06,13.93l0.07-0.03l0.12,0.29l-0.07,0.03L2.06,13.93z M2.3,14.52l0.07-0.03
			l0.03,0.08l0.11,0.2L2.44,14.8L2.33,14.6L2.3,14.52z M2.58,15.08l0.07-0.04l0.15,0.28l-0.07,0.04L2.58,15.08z"/>
		
			<linearGradient id="path_x5F_2_5_" gradientUnits="userSpaceOnUse" x1="56.7039" y1="-11.6036" x2="-12.1923" y2="33.9172" gradientTransform="matrix(-0.8589 0.5122 -0.5122 -0.8589 29.4537 17.0649)">
			<stop  offset="0" style="stop-color:#FFFFFF"/>
			<stop  offset="0.1396" style="stop-color:#FAFAFA"/>
			<stop  offset="0.3023" style="stop-color:#ECECEC"/>
			<stop  offset="0.4765" style="stop-color:#D5D5D6"/>
			<stop  offset="0.6589" style="stop-color:#B4B5B6"/>
			<stop  offset="0.8457" style="stop-color:#8A8C8D"/>
			<stop  offset="1" style="stop-color:#626466"/>
		</linearGradient>
		<path id="path_x5F_2_2_" fill="url(#path_x5F_2_5_)" d="M5.61,3.76l0.28-0.15l0.04,0.07L5.65,3.83L5.61,3.76z M6.16,3.46l0.2-0.11
			l0.08-0.03l0.03,0.07L6.4,3.42L6.2,3.53L6.16,3.46z M6.74,3.2l0.29-0.12l0.03,0.07L6.76,3.27L6.74,3.2z M7.32,2.97
			c0.05-0.01,0.1-0.03,0.15-0.05l0.15-0.04l0.02,0.08L7.5,3C7.45,3.02,7.4,3.04,7.34,3.05L7.32,2.97z M7.92,2.8l0.05-0.01l0.26-0.05
			l0.01,0.08l-0.3,0.06L7.92,2.8z M8.54,2.68L8.7,2.65c0.05-0.01,0.1-0.01,0.15-0.02l0.01,0.08c-0.05,0-0.1,0.01-0.15,0.02
			L8.55,2.75L8.54,2.68z M9.16,2.6l0.31-0.03l0.01,0.08L9.17,2.68L9.16,2.6z M9.79,2.56c0.1,0,0.21,0,0.31,0.01l0,0.08
			c-0.1,0-0.21-0.01-0.31-0.01L9.79,2.56z M10.41,2.59c0.1,0.01,0.21,0.02,0.31,0.03l-0.01,0.08c-0.1-0.01-0.21-0.02-0.31-0.03
			L10.41,2.59z M11.03,2.65c0.1,0.01,0.21,0.03,0.31,0.05l-0.01,0.08c-0.1-0.02-0.2-0.03-0.31-0.05L11.03,2.65z M11.65,2.76
			c0.09,0.02,0.17,0.04,0.26,0.06l0.05,0.01l-0.02,0.08L11.89,2.9c-0.08-0.02-0.17-0.04-0.25-0.06L11.65,2.76z M12.26,2.92
			c0.1,0.03,0.2,0.07,0.3,0.1L12.53,3.1c-0.1-0.03-0.2-0.07-0.29-0.1L12.26,2.92z M12.85,3.13c0.1,0.04,0.19,0.08,0.29,0.12
			l-0.03,0.07c-0.09-0.04-0.19-0.08-0.29-0.12L12.85,3.13z M13.42,3.38c0.1,0.05,0.19,0.09,0.28,0.14l-0.04,0.07
			c-0.09-0.05-0.18-0.09-0.28-0.14L13.42,3.38z M13.98,3.67c0.04,0.03,0.09,0.05,0.13,0.08l0.14,0.09L14.21,3.9l-0.13-0.09
			c-0.04-0.02-0.09-0.05-0.13-0.07L13.98,3.67z M14.51,4.01l0.07,0.05c0.03,0.02,0.05,0.04,0.08,0.05c0.04,0.02,0.07,0.05,0.11,0.07
			l-0.04,0.07c-0.03-0.02-0.07-0.05-0.1-0.07c-0.03-0.02-0.05-0.04-0.08-0.06l-0.07-0.05L14.51,4.01z M15.02,4.39l-0.03,0.03
			L15.02,4.39l0.24,0.2l-0.05,0.06l-0.24-0.2L15.02,4.39z M15.5,4.8l0.22,0.22l-0.05,0.06l-0.22-0.22L15.5,4.8z M15.94,5.25
			c0.05,0.05,0.09,0.09,0.12,0.14l0.09,0.11l-0.06,0.05L16,5.43c-0.03-0.04-0.07-0.08-0.12-0.13L15.94,5.25z M16.35,5.73l0.2,0.25
			l-0.06,0.04l-0.01-0.02l-0.18-0.23L16.35,5.73z M16.72,6.25l0.17,0.26l-0.06,0.04l-0.17-0.26L16.72,6.25z"/>
		
			<linearGradient id="path_x5F_2_6_" gradientUnits="userSpaceOnUse" x1="53.2004" y1="-18.5583" x2="-16.7215" y2="27.6401" gradientTransform="matrix(-0.8589 0.5122 -0.5122 -0.8589 29.4537 17.0649)">
			<stop  offset="0" style="stop-color:#FFFFFF"/>
			<stop  offset="0.1396" style="stop-color:#FAFAFA"/>
			<stop  offset="0.3023" style="stop-color:#ECECEC"/>
			<stop  offset="0.4765" style="stop-color:#D5D5D6"/>
			<stop  offset="0.6589" style="stop-color:#B4B5B6"/>
			<stop  offset="0.8457" style="stop-color:#8A8C8D"/>
			<stop  offset="1" style="stop-color:#626466"/>
		</linearGradient>
		<path id="path_x5F_2_1_" fill="url(#path_x5F_2_6_)" d="M16.94,6.73l0.07-0.04l0.15,0.28l-0.07,0.04L16.94,6.73z M17.23,7.29
			l0.07-0.04l0.11,0.21l0.03,0.08l-0.07,0.03l-0.03-0.08L17.23,7.29z M17.49,7.87l0.07-0.03l0.12,0.29L17.6,8.16L17.49,7.87z
			 M17.7,8.46l0.07-0.02c0.01,0.05,0.03,0.1,0.04,0.15l0.04,0.15l-0.07,0.02l-0.04-0.15C17.73,8.56,17.72,8.51,17.7,8.46z
			 M17.88,9.07l0.07-0.02l0.01,0.05l0.05,0.26l-0.08,0.01L17.88,9.07z M17.99,9.69l0.08-0.01l0.03,0.16
			c0.01,0.05,0.01,0.1,0.02,0.16L18.04,10c0-0.05-0.01-0.1-0.02-0.15L17.99,9.69z M18.07,10.31l0.08-0.01l0.03,0.32l-0.08,0.01
			L18.07,10.31z M18.1,10.94l0.08,0c0,0.11,0,0.21-0.01,0.32l-0.08,0C18.1,11.15,18.1,11.05,18.1,10.94z M18.08,11.58l0.08,0.01
			c-0.01,0.11-0.02,0.21-0.03,0.32l-0.08-0.01C18.06,11.79,18.07,11.68,18.08,11.58z M18.01,12.2l0.08,0.01
			c-0.01,0.11-0.03,0.21-0.05,0.32l-0.08-0.01C17.98,12.41,18,12.31,18.01,12.2z M17.91,12.83l0.08,0.02
			c-0.02,0.09-0.04,0.17-0.06,0.26l-0.01,0.05l-0.08-0.02l0.01-0.05C17.87,13,17.89,12.91,17.91,12.83z M17.75,13.44l0.07,0.02
			c-0.03,0.1-0.06,0.2-0.1,0.3l-0.07-0.03C17.69,13.64,17.72,13.54,17.75,13.44z M17.55,14.03l0.07,0.03
			c-0.04,0.1-0.08,0.2-0.12,0.3l-0.07-0.03C17.47,14.23,17.51,14.13,17.55,14.03z M17.3,14.62l0.07,0.03
			c-0.04,0.1-0.09,0.19-0.14,0.29l-0.07-0.04C17.21,14.81,17.26,14.71,17.3,14.62z M17.02,15.18l0.07,0.04
			c-0.02,0.05-0.05,0.09-0.07,0.14l-0.09,0.14l-0.06-0.04l0.09-0.14C16.97,15.27,17,15.23,17.02,15.18z M16.69,15.71l0.07,0.04
			l-0.05,0.08c-0.02,0.03-0.04,0.05-0.05,0.08c-0.02,0.04-0.05,0.07-0.07,0.11l-0.06-0.05c0.02-0.03,0.05-0.07,0.07-0.11
			c0.02-0.03,0.04-0.06,0.05-0.08L16.69,15.71z M16.32,16.23l0.06,0.05l-0.2,0.25l-0.06-0.05L16.32,16.23z M15.93,16.71l0.06,0.06
			l-0.22,0.23l-0.06-0.06L15.93,16.71z M15.49,17.16l0.05,0.06c-0.05,0.05-0.09,0.09-0.13,0.12l-0.1,0.09l-0.05-0.06l0.11-0.09
			C15.4,17.24,15.44,17.21,15.49,17.16z M15.02,17.57l0.05,0.06l-0.24,0.2l-0.04-0.07l0.02-0.01L15.02,17.57z M14.52,17.94
			l0.04,0.07l-0.26,0.18l-0.04-0.07L14.52,17.94z"/>
		
			<linearGradient id="path_x5F_2_7_" gradientUnits="userSpaceOnUse" x1="55.4403" y1="-13.9187" x2="-13.4566" y2="31.6025" gradientTransform="matrix(-0.8589 0.5122 -0.5122 -0.8589 29.4537 17.0649)">
			<stop  offset="0" style="stop-color:#FFFFFF"/>
			<stop  offset="0.1396" style="stop-color:#FAFAFA"/>
			<stop  offset="0.3023" style="stop-color:#ECECEC"/>
			<stop  offset="0.4765" style="stop-color:#D5D5D6"/>
			<stop  offset="0.6589" style="stop-color:#B4B5B6"/>
			<stop  offset="0.8457" style="stop-color:#8A8C8D"/>
			<stop  offset="1" style="stop-color:#626466"/>
		</linearGradient>
		<path id="path_x5F_2" fill="url(#path_x5F_2_7_)" d="M2.91,15.5l0.17,0.26l-0.06,0.04l-0.17-0.26L2.91,15.5z M3.26,16.03
			l0.01,0.02l0.18,0.23l-0.06,0.05l-0.2-0.25L3.26,16.03z M3.65,16.52l0.09,0.11c0.03,0.04,0.07,0.08,0.12,0.13L3.8,16.81
			c-0.05-0.05-0.09-0.09-0.12-0.14l-0.09-0.11L3.65,16.52z M4.07,16.98L4.3,17.2l-0.06,0.06l-0.22-0.22L4.07,16.98z M4.53,17.41
			l0.24,0.2l-0.05,0.06l0.03-0.03l-0.03,0.03l-0.24-0.2L4.53,17.41z M5.01,17.8c0.03,0.02,0.07,0.05,0.1,0.07
			c0.03,0.02,0.05,0.04,0.08,0.06l0.07,0.05l-0.04,0.07l-0.07-0.05c-0.03-0.02-0.05-0.04-0.08-0.05C5.04,17.92,5,17.89,4.97,17.87
			L5.01,17.8z M5.53,18.15l0.13,0.09c0.04,0.02,0.09,0.05,0.13,0.07l-0.04,0.07c-0.04-0.02-0.09-0.05-0.13-0.08l-0.14-0.09
			L5.53,18.15z M6.07,18.46c0.09,0.05,0.18,0.09,0.28,0.14l-0.03,0.07c-0.1-0.05-0.19-0.09-0.28-0.14L6.07,18.46z M6.63,18.73
			c0.09,0.04,0.19,0.08,0.29,0.12l-0.03,0.07c-0.1-0.04-0.19-0.08-0.29-0.12L6.63,18.73z M7.21,18.96c0.1,0.03,0.2,0.07,0.29,0.1
			l-0.02,0.08c-0.1-0.03-0.2-0.07-0.3-0.1L7.21,18.96z M7.8,19.15l0.05,0.01c0.08,0.02,0.17,0.04,0.25,0.06L8.09,19.3
			C8,19.28,7.92,19.26,7.83,19.24l-0.05-0.01L7.8,19.15z M8.41,19.28c0.1,0.02,0.2,0.03,0.31,0.05L8.7,19.41
			c-0.1-0.01-0.21-0.03-0.31-0.05L8.41,19.28z M9.02,19.36c0.1,0.01,0.21,0.02,0.31,0.03l-0.01,0.08c-0.1-0.01-0.21-0.02-0.31-0.03
			L9.02,19.36z M9.64,19.41c0.1,0,0.21,0.01,0.31,0.01l0,0.08c-0.1,0-0.21,0-0.31-0.01L9.64,19.41z M10.26,19.41l0.31-0.03
			l0.01,0.08l-0.31,0.03L10.26,19.41z M10.88,19.35c0.05,0,0.1-0.01,0.15-0.02l0.16-0.03l0.01,0.08l-0.16,0.03
			c-0.05,0.01-0.1,0.01-0.15,0.02L10.88,19.35z M11.49,19.25l0.3-0.06l0.02,0.08l-0.05,0.01l-0.26,0.05L11.49,19.25z M12.09,19.1
			l0.15-0.04c0.05-0.02,0.1-0.03,0.15-0.05l0.02,0.08c-0.05,0.01-0.1,0.03-0.15,0.05l-0.15,0.04L12.09,19.1z M12.68,18.91l0.29-0.12
			L13,18.86l-0.29,0.12L12.68,18.91z M13.26,18.67l0.08-0.03l0.2-0.11l0.04,0.07l-0.2,0.11l-0.08,0.03L13.26,18.67z M13.81,18.38
			l0.28-0.15l0.04,0.07l-0.28,0.15L13.81,18.38z"/>
	</g>
	<g id="Main_x5F_path_x5F_1_x5F_First">
		
			<radialGradient id="path_x5F_1_4_" cx="21.8102" cy="17.7651" r="1.9994" gradientTransform="matrix(-0.8979 0.5455 -0.5355 -0.9146 30.7471 16.7444)" gradientUnits="userSpaceOnUse">
			<stop  offset="0" style="stop-color:#FFFFFF"/>
			<stop  offset="0.0851" style="stop-color:#FFEDD8"/>
			<stop  offset="0.2082" style="stop-color:#FFD5A7"/>
			<stop  offset="0.3345" style="stop-color:#FFC17D"/>
			<stop  offset="0.462" style="stop-color:#FFB05B"/>
			<stop  offset="0.591" style="stop-color:#FFA340"/>
			<stop  offset="0.7222" style="stop-color:#FF9A2D"/>
			<stop  offset="0.8568" style="stop-color:#FF9522"/>
			<stop  offset="1" style="stop-color:#FF931E"/>
		</radialGradient>
		<path id="path_x5F_1_2_" fill="url(#path_x5F_1_4_)" d="M1.15,9.45C1.17,9.44,1.18,9.43,1.2,9.44c0.02,0,0.03,0.01,0.04,0.03
			c0.01,0.01,0.01,0.03,0.01,0.05L1.23,9.57c0,0.01,0,0.02-0.01,0.04c0,0.02-0.01,0.04-0.01,0.07c0,0.03-0.04,0.05-0.07,0.05
			C1.11,9.72,1.09,9.69,1.09,9.66c0-0.03,0.01-0.05,0.01-0.08c0-0.01,0-0.02,0.01-0.03l0.01-0.07C1.13,9.47,1.14,9.45,1.15,9.45z
			 M1.03,10.86L1.03,10.86c0.01-0.01,0.02-0.01,0.03-0.01c0.01,0,0.03,0.01,0.04,0.02c0.01,0.01,0.02,0.03,0.02,0.04
			c0,0.03-0.03,0.06-0.06,0.06C1.03,10.97,1,10.94,1,10.91c0,0,0,0,0,0C1,10.88,1.01,10.87,1.03,10.86z M1.13,12.37
			c0.01,0,0.01-0.01,0.02-0.01c0.02,0,0.03,0,0.04,0.01c0.01,0.01,0.02,0.02,0.03,0.04c0,0.02,0.01,0.03,0.01,0.05l0.1,0.55
			c0.01,0.08,0.04,0.16,0.06,0.25l0,0.01c0.02,0.08,0.05,0.16,0.07,0.24l0.01,0.02c0.02,0.06,0.04,0.12,0.05,0.18
			c0.03,0.1,0.06,0.2,0.09,0.29c0.04,0.1,0.08,0.2,0.12,0.29l0.06,0.15c0.05,0.12,0.09,0.23,0.13,0.33
			c0.03,0.06,0.06,0.12,0.09,0.17c0.02,0.03,0.03,0.06,0.04,0.08c0.07,0.15,0.12,0.23,0.12,0.23c0.01,0.03,0.01,0.06-0.02,0.08l0,0
			c-0.03,0.02-0.06,0-0.08-0.02c0,0-0.05-0.09-0.12-0.23c-0.01-0.03-0.03-0.05-0.04-0.08c-0.03-0.05-0.06-0.11-0.09-0.18l0,0
			c-0.03-0.07-0.06-0.15-0.09-0.23L1.5,14.05c-0.04-0.1-0.06-0.2-0.09-0.31c-0.02-0.06-0.03-0.12-0.05-0.17
			c-0.01-0.05-0.03-0.09-0.04-0.14l-0.04-0.13c-0.03-0.08-0.05-0.17-0.06-0.26c-0.02-0.13-0.05-0.26-0.07-0.4l-0.03-0.15
			c0-0.02-0.01-0.03-0.01-0.05C1.1,12.41,1.11,12.38,1.13,12.37z"/>
		
			<radialGradient id="path_x5F_1_5_" cx="13.174" cy="19.4207" r="5.8064" gradientTransform="matrix(-0.8979 0.5455 -0.5355 -0.9146 30.7471 16.7444)" gradientUnits="userSpaceOnUse">
			<stop  offset="0" style="stop-color:#FFFFFF"/>
			<stop  offset="0.0851" style="stop-color:#FFEDD8"/>
			<stop  offset="0.2082" style="stop-color:#FFD5A7"/>
			<stop  offset="0.3345" style="stop-color:#FFC17D"/>
			<stop  offset="0.462" style="stop-color:#FFB05B"/>
			<stop  offset="0.591" style="stop-color:#FFA340"/>
			<stop  offset="0.7222" style="stop-color:#FF9A2D"/>
			<stop  offset="0.8568" style="stop-color:#FF9522"/>
			<stop  offset="1" style="stop-color:#FF931E"/>
		</radialGradient>
		<path id="path_x5F_1_3_" fill="url(#path_x5F_1_5_)" d="M5.33,3.27C6,2.86,6.73,2.54,7.49,2.32c0.01,0,0.03,0,0.04,0.01
			c0.01,0.01,0.02,0.02,0.03,0.04C7.57,2.4,7.55,2.43,7.52,2.44C6.78,2.65,6.06,2.97,5.39,3.37L5.38,3.38
			c-0.16,0.1-0.32,0.2-0.47,0.31L4.9,3.69C4.88,3.7,4.87,3.71,4.85,3.72C4.82,3.74,4.79,3.74,4.77,3.71
			C4.76,3.7,4.76,3.68,4.76,3.67c0-0.01,0.01-0.03,0.02-0.04C4.8,3.61,4.82,3.6,4.84,3.59l0,0C5,3.48,5.16,3.37,5.33,3.27z
			 M4.57,3.79C4.59,3.77,4.63,3.78,4.65,3.8c0.02,0.03,0.01,0.06-0.01,0.08l0,0C4.61,3.91,4.57,3.9,4.55,3.87
			C4.53,3.85,4.54,3.81,4.57,3.79C4.56,3.79,4.57,3.79,4.57,3.79z M3.64,4.6C3.67,4.58,3.7,4.59,3.71,4.61
			c0.01,0.01,0.02,0.03,0.02,0.04c0,0.02-0.01,0.03-0.02,0.04c-0.02,0.02-0.06,0.02-0.08,0c-0.02-0.02-0.02-0.06,0-0.08L3.64,4.6
			C3.64,4.6,3.64,4.6,3.64,4.6z M2.67,5.75c0.02-0.01,0.04-0.01,0.06,0c0.01,0.01,0.02,0.02,0.02,0.04c0,0.02,0,0.03-0.01,0.04
			C2.72,5.88,2.7,5.92,2.67,5.95C2.16,6.68,1.88,7.38,1.68,7.89l-0.04,0.1l0,0C1.58,8.15,1.53,8.3,1.5,8.43
			C1.49,8.47,1.47,8.51,1.46,8.55c0,0,0,0,0,0C1.45,8.58,1.42,8.6,1.39,8.59C1.36,8.58,1.34,8.54,1.35,8.51
			c0.01-0.04,0.02-0.08,0.04-0.12c0.04-0.12,0.08-0.28,0.14-0.45l0,0c0.01-0.03,0.03-0.07,0.04-0.1c0.21-0.51,0.49-1.22,1.01-1.95
			C2.6,5.85,2.63,5.81,2.66,5.77C2.66,5.76,2.67,5.76,2.67,5.75z M8.94,2.05c0.01,0,0.02-0.01,0.02-0.01c0.02,0,0.03,0,0.04,0.01
			c0.01,0.01,0.02,0.02,0.02,0.04c0,0.03-0.02,0.06-0.05,0.07c-0.02,0-0.03,0-0.04-0.01C8.92,2.14,8.92,2.12,8.91,2.11
			C8.91,2.08,8.92,2.06,8.94,2.05z M10.16,2.01C10.17,2,10.18,2,10.2,2c0.03,0,0.06,0.03,0.06,0.06c0,0.03-0.03,0.06-0.06,0.06
			c-0.03,0-0.06-0.03-0.06-0.06C10.14,2.04,10.15,2.02,10.16,2.01z M10.43,2.02c0.01-0.01,0.02-0.01,0.03-0.01
			c0.48,0.03,0.95,0.11,1.41,0.21c0.51,0.12,1.01,0.29,1.5,0.5c0.01,0.01,0.03,0.02,0.03,0.03c0.01,0.02,0.01,0.03,0,0.05
			c-0.01,0.03-0.05,0.04-0.08,0.03c-0.48-0.21-0.98-0.38-1.48-0.5c-0.45-0.11-0.92-0.18-1.39-0.21c-0.02,0-0.03-0.01-0.04-0.02
			c-0.01-0.01-0.02-0.03-0.01-0.04C10.41,2.05,10.42,2.03,10.43,2.02z M1.3,8.74L1.3,8.74c0.01-0.01,0.03-0.01,0.05-0.01
			c0.03,0.01,0.05,0.04,0.04,0.07C1.38,8.84,1.34,8.86,1.31,8.85C1.28,8.84,1.26,8.81,1.27,8.78c0,0,0,0,0,0
			C1.28,8.76,1.29,8.75,1.3,8.74z M14.64,3.45c0.02-0.01,0.04-0.01,0.06,0c0.03,0.02,0.03,0.06,0.02,0.08
			c-0.02,0.03-0.05,0.03-0.08,0.02c-0.03-0.02-0.03-0.06-0.02-0.08C14.62,3.46,14.63,3.46,14.64,3.45z M15.62,4.2
			c0.02-0.01,0.05-0.01,0.07,0.01c0.01,0.01,0.02,0.02,0.02,0.04c0,0.02,0,0.03-0.01,0.04c-0.02,0.02-0.06,0.03-0.08,0.01
			c0,0,0,0,0,0c-0.01-0.01-0.02-0.02-0.02-0.04c0-0.02,0-0.03,0.01-0.05C15.61,4.2,15.61,4.2,15.62,4.2z M15.82,4.38
			c0.02-0.01,0.05-0.01,0.07,0.01c0.07,0.07,0.13,0.13,0.19,0.19l0.13,0.13c0.02,0.02,0.03,0.04,0.05,0.05
			c0.1,0.1,0.19,0.19,0.26,0.29l0.4,0.5c0.05,0.06,0.09,0.11,0.1,0.14l0.01,0.02c0.01,0.02,0.02,0.02,0.02,0.03l0,0
			c0.01,0.01,0.01,0.03,0.01,0.05c0,0.01-0.01,0.03-0.03,0.04c-0.03,0.02-0.06,0.01-0.08-0.02c0,0-0.01-0.02-0.03-0.05
			c-0.02-0.03-0.05-0.07-0.1-0.13c-0.08-0.09-0.18-0.22-0.31-0.39l-0.09-0.11c-0.07-0.09-0.16-0.19-0.26-0.28l-0.11-0.11
			c-0.08-0.08-0.16-0.17-0.25-0.26c0,0,0,0,0,0c-0.02-0.02-0.02-0.06,0-0.08C15.81,4.39,15.82,4.38,15.82,4.38z"/>
		
			<radialGradient id="path_x5F_1_6_" cx="6.9961" cy="11.9116" r="1.9994" gradientTransform="matrix(-0.8979 0.5455 -0.5355 -0.9146 30.7471 16.7444)" gradientUnits="userSpaceOnUse">
			<stop  offset="0" style="stop-color:#FFFFFF"/>
			<stop  offset="0.0851" style="stop-color:#FFEDD8"/>
			<stop  offset="0.2082" style="stop-color:#FFD5A7"/>
			<stop  offset="0.3345" style="stop-color:#FFC17D"/>
			<stop  offset="0.462" style="stop-color:#FFB05B"/>
			<stop  offset="0.591" style="stop-color:#FFA340"/>
			<stop  offset="0.7222" style="stop-color:#FF9A2D"/>
			<stop  offset="0.8568" style="stop-color:#FF9522"/>
			<stop  offset="1" style="stop-color:#FF931E"/>
		</radialGradient>
		<path id="path_x5F_1_1_" fill="url(#path_x5F_1_6_)" d="M17.59,6.72C17.59,6.72,17.59,6.72,17.59,6.72
			c0.03-0.02,0.07-0.01,0.08,0.02l0,0c0,0,0,0.01,0.01,0.02l0.11,0.21c0.01,0.03,0.03,0.05,0.04,0.08c0.03,0.05,0.06,0.11,0.09,0.18
			l0,0c0.04,0.11,0.09,0.22,0.14,0.36c0.03,0.07,0.06,0.14,0.09,0.22l0.08,0.2c0.04,0.1,0.06,0.21,0.1,0.31
			c0.02,0.06,0.03,0.12,0.05,0.17c0.02,0.09,0.05,0.17,0.07,0.26l0,0.01c0.02,0.08,0.05,0.17,0.06,0.26l0.1,0.54
			c0,0.02,0.01,0.03,0.01,0.05c0.01,0.03-0.02,0.06-0.05,0.07c-0.03,0.01-0.06-0.01-0.07-0.05c0-0.02-0.01-0.03-0.01-0.05
			l-0.01-0.03c-0.03-0.17-0.06-0.35-0.1-0.52c-0.01-0.08-0.04-0.17-0.06-0.25l0,0c-0.01-0.05-0.03-0.09-0.04-0.14l-0.03-0.12
			c-0.02-0.06-0.04-0.12-0.05-0.18c-0.03-0.11-0.06-0.2-0.09-0.3l-0.18-0.44c-0.05-0.12-0.09-0.23-0.13-0.33
			c-0.03-0.06-0.06-0.12-0.09-0.17c-0.02-0.03-0.03-0.06-0.04-0.08c-0.07-0.14-0.12-0.22-0.12-0.23
			C17.56,6.77,17.57,6.74,17.59,6.72z M18.65,11.1c0.01-0.01,0.02-0.01,0.03-0.01c0.02,0,0.03,0.01,0.04,0.02
			c0.01,0.01,0.02,0.03,0.02,0.04c0,0.03-0.03,0.06-0.06,0.06c-0.01,0-0.03-0.01-0.04-0.02c-0.01-0.01-0.02-0.03-0.02-0.04
			C18.62,11.13,18.63,11.11,18.65,11.1z M18.56,12.34c0.01-0.01,0.03-0.01,0.04-0.01c0.03,0.01,0.05,0.04,0.05,0.07
			c0,0.03-0.01,0.05-0.01,0.07c0,0.01-0.01,0.02-0.01,0.03l-0.01,0.07c-0.01,0.03-0.04,0.05-0.07,0.05
			c-0.03-0.01-0.05-0.04-0.04-0.07l0.01-0.07c0-0.01,0-0.02,0.01-0.04c0-0.02,0.01-0.04,0.01-0.07
			C18.53,12.37,18.54,12.35,18.56,12.34z"/>
		
			<radialGradient id="path_x5F_1_7_" cx="15.6319" cy="10.2556" r="5.8069" gradientTransform="matrix(-0.8979 0.5455 -0.5355 -0.9146 30.7471 16.7444)" gradientUnits="userSpaceOnUse">
			<stop  offset="0" style="stop-color:#FFFFFF"/>
			<stop  offset="0.0851" style="stop-color:#FFEDD8"/>
			<stop  offset="0.2082" style="stop-color:#FFD5A7"/>
			<stop  offset="0.3345" style="stop-color:#FFC17D"/>
			<stop  offset="0.462" style="stop-color:#FFB05B"/>
			<stop  offset="0.591" style="stop-color:#FFA340"/>
			<stop  offset="0.7222" style="stop-color:#FF9A2D"/>
			<stop  offset="0.8568" style="stop-color:#FF9522"/>
			<stop  offset="1" style="stop-color:#FF931E"/>
		</radialGradient>
		<path id="path_x5F_1" fill="url(#path_x5F_1_7_)" d="M2.69,16.23c0.03-0.02,0.06-0.01,0.08,0.02c0,0,0.01,0.02,0.03,0.05
			c0.02,0.03,0.04,0.07,0.1,0.13c0.09,0.12,0.23,0.28,0.4,0.5c0.07,0.09,0.16,0.18,0.25,0.28c0.02,0.02,0.03,0.03,0.05,0.05
			c0.1,0.1,0.21,0.21,0.32,0.32c0.01,0.01,0.02,0.03,0.02,0.04c0,0.02-0.01,0.03-0.02,0.04c-0.02,0.02-0.06,0.02-0.08,0l-0.02-0.02
			c-0.1-0.11-0.2-0.21-0.3-0.3c-0.02-0.02-0.04-0.04-0.05-0.06c-0.1-0.1-0.19-0.19-0.26-0.28l-0.4-0.5
			c-0.05-0.06-0.09-0.11-0.1-0.14l-0.02-0.02c-0.01-0.01-0.01-0.02-0.02-0.03c0,0,0,0,0,0C2.66,16.29,2.66,16.25,2.69,16.23
			L2.69,16.23z M4.06,17.76c0.02-0.01,0.05-0.01,0.07,0.01c0.01,0.01,0.02,0.02,0.02,0.04c0,0.02,0,0.03-0.01,0.04
			c-0.02,0.02-0.06,0.03-0.08,0.01c-0.02-0.02-0.03-0.06-0.01-0.08C4.05,17.77,4.05,17.76,4.06,17.76z M5.04,18.5
			c0.02-0.01,0.04-0.01,0.06,0c0.01,0.01,0.02,0.02,0.03,0.04c0,0.02,0,0.03-0.01,0.04c-0.02,0.03-0.05,0.03-0.08,0.02
			c-0.01-0.01-0.02-0.02-0.03-0.04c0-0.01,0-0.03,0.01-0.04C5.02,18.52,5.03,18.51,5.04,18.5z M6.35,19.22
			c0.02-0.01,0.04-0.01,0.05,0c0.48,0.21,0.98,0.38,1.48,0.49c0.45,0.11,0.92,0.18,1.39,0.21c0.03,0,0.06,0.03,0.05,0.06
			c0,0.03-0.03,0.06-0.06,0.06c-0.48-0.03-0.96-0.11-1.41-0.21c-0.51-0.12-1.01-0.29-1.5-0.5c-0.03-0.01-0.04-0.05-0.03-0.08
			C6.33,19.24,6.34,19.23,6.35,19.22z M18.38,13.21c0.01-0.01,0.03-0.01,0.05-0.01c0.01,0,0.03,0.02,0.03,0.03
			c0.01,0.01,0.01,0.03,0,0.05c0,0,0,0,0,0c-0.01,0.03-0.04,0.05-0.07,0.04c-0.03-0.01-0.05-0.04-0.04-0.07
			C18.36,13.23,18.37,13.22,18.38,13.21z M18.3,13.48c0.01-0.01,0.03-0.01,0.05-0.01c0.03,0.01,0.05,0.04,0.04,0.07
			c-0.01,0.04-0.02,0.08-0.04,0.13c-0.04,0.12-0.08,0.27-0.14,0.44l0,0c-0.01,0.03-0.03,0.07-0.04,0.1c-0.2,0.51-0.49,1.22-1,1.95
			c-0.03,0.04-0.05,0.08-0.08,0.12c-0.02,0.03-0.06,0.03-0.08,0.01c-0.03-0.02-0.03-0.06-0.01-0.08c0.03-0.04,0.05-0.08,0.08-0.12
			c0.51-0.72,0.79-1.42,0.99-1.93l0.04-0.1c0.06-0.17,0.1-0.32,0.14-0.45c0.01-0.04,0.03-0.08,0.04-0.12c0,0,0,0,0,0
			C18.28,13.5,18.29,13.49,18.3,13.48z M9.52,19.95c0.01-0.01,0.02-0.01,0.03-0.01c0.03,0,0.06,0.03,0.06,0.06
			c0,0.03-0.03,0.06-0.06,0.06c-0.03,0-0.06-0.03-0.06-0.06C9.49,19.98,9.5,19.96,9.52,19.95z M10.73,19.91
			c0.01,0,0.02-0.01,0.02-0.01c0.02,0,0.03,0,0.04,0.01c0.01,0.01,0.02,0.02,0.02,0.04c0,0.03-0.02,0.06-0.05,0.07c0,0,0,0,0,0
			c-0.01,0-0.03,0-0.04-0.01c-0.01-0.01-0.02-0.02-0.02-0.04C10.7,19.94,10.72,19.92,10.73,19.91z M12.2,19.63c0,0,0.01,0,0.01-0.01
			c0.93-0.26,1.81-0.68,2.62-1.25c0.02-0.01,0.04-0.03,0.06-0.04c0.03-0.02,0.06-0.01,0.08,0.02c0.02,0.03,0.01,0.06-0.01,0.08
			c-0.01,0.01-0.02,0.01-0.03,0.02c-0.01,0.01-0.02,0.01-0.03,0.02c-0.81,0.57-1.71,1-2.65,1.26c-0.03,0.01-0.06-0.01-0.07-0.04
			C12.17,19.67,12.18,19.64,12.2,19.63z M16.04,17.36c0.02-0.01,0.05-0.01,0.07,0.01c0.02,0.02,0.02,0.06,0,0.08
			c-0.02,0.02-0.06,0.02-0.08,0c-0.02-0.02-0.02-0.06,0-0.08C16.03,17.36,16.03,17.36,16.04,17.36z M15.11,18.17
			c0.03-0.02,0.06-0.01,0.08,0.02c0.02,0.03,0.01,0.06-0.01,0.08c-0.02,0.02-0.06,0.01-0.08-0.01
			C15.07,18.23,15.08,18.19,15.11,18.17C15.11,18.17,15.11,18.17,15.11,18.17z"/>
	</g>
</g>
<g>
	<g opacity="0.52">
		<path d="M9.32,20.12l0.16-1.37l0.41-4.74l0.2-3.12c0.82,0.01,1.46,0.01,1.92,0.01c0.39,0,0.98,0,1.77-0.01
			c0.06,0.39,0.11,0.68,0.14,0.88c0.04,0.2,0.14,0.59,0.29,1.18c0.16,0.58,0.28,1.09,0.38,1.51s0.24,1.15,0.43,2.19
			c0.19-0.71,0.37-1.32,0.53-1.83c0.16-0.51,0.36-1.09,0.6-1.74c0.24-0.65,0.39-1.07,0.46-1.27c0.06-0.2,0.15-0.51,0.26-0.92
			c0.66,0.01,1.31,0.01,1.95,0.01c0.43,0,1.04,0,1.8-0.01c-0.08,1.52-0.14,2.82-0.17,3.91c-0.06,2.14-0.09,3.61-0.09,4.41
			c0,0.17,0,0.47,0.01,0.91c-0.58-0.01-0.99-0.01-1.23-0.01c-0.34,0-0.76,0-1.25,0.01c0.04-0.41,0.08-1.37,0.13-2.9
			s0.08-2.5,0.08-2.92c0-0.18,0-0.44-0.01-0.77l-0.87,2.75L16,20.12c-0.58-0.01-0.97-0.01-1.19-0.01c-0.27,0-0.69,0-1.26,0.01
			l-0.82-3.72l-0.48-1.98c-0.02-0.08-0.04-0.17-0.06-0.28c-0.02-0.11-0.06-0.31-0.11-0.59l-0.17,1.87l-0.22,3.84l-0.02,0.87
			c-0.61-0.01-1-0.01-1.17-0.01C10.29,20.11,9.89,20.11,9.32,20.12z"/>
	</g>
	<g>
		<g>
			<path d="M8.82,19.52l0.16-1.37l0.41-4.74l0.2-3.12c0.82,0.01,1.46,0.01,1.92,0.01c0.39,0,0.98,0,1.77-0.01
				c0.06,0.39,0.11,0.68,0.14,0.88c0.04,0.2,0.14,0.59,0.29,1.18c0.16,0.58,0.28,1.09,0.38,1.51s0.24,1.15,0.43,2.19
				c0.19-0.71,0.37-1.32,0.53-1.83c0.16-0.51,0.36-1.09,0.6-1.74c0.24-0.65,0.39-1.07,0.46-1.27c0.06-0.2,0.15-0.51,0.26-0.92
				c0.66,0.01,1.31,0.01,1.95,0.01c0.43,0,1.04,0,1.8-0.01c-0.08,1.52-0.14,2.82-0.17,3.91c-0.06,2.14-0.09,3.61-0.09,4.41
				c0,0.17,0,0.47,0.01,0.91c-0.58-0.01-0.99-0.01-1.23-0.01c-0.34,0-0.76,0-1.25,0.01c0.04-0.41,0.08-1.37,0.13-2.9
				s0.08-2.5,0.08-2.92c0-0.18,0-0.44-0.01-0.77l-0.87,2.75l-1.25,3.84c-0.58-0.01-0.97-0.01-1.19-0.01c-0.27,0-0.69,0-1.26,0.01
				l-0.82-3.72l-0.48-1.98c-0.02-0.08-0.04-0.17-0.06-0.28c-0.02-0.11-0.06-0.31-0.11-0.59l-0.17,1.87l-0.22,3.84l-0.02,0.87
				c-0.61-0.01-1-0.01-1.17-0.01C9.79,19.51,9.39,19.51,8.82,19.52z"/>
		</g>
	</g>
</g>
<g>
	<g opacity="0.52">
		<path d="M3,20.05c-0.05-0.89-0.1-1.76-0.18-2.6c0.58,0.22,1.04,0.37,1.4,0.45s0.69,0.12,0.99,0.12c0.34,0,0.65-0.06,0.92-0.19
			c0.2-0.1,0.36-0.23,0.48-0.38c0.16-0.22,0.27-0.47,0.32-0.76c0.1-0.53,0.17-1.44,0.22-2.74c0.05-1.3,0.08-2.43,0.08-3.38V9.65
			C8.05,9.66,8.6,9.66,8.87,9.66c0.34,0,0.91,0,1.73-0.02l-0.23,3.45c-0.06,1.02-0.1,2.1-0.12,3.25c-0.02,0.88-0.06,1.49-0.13,1.82
			c-0.06,0.3-0.15,0.55-0.26,0.75c-0.1,0.19-0.23,0.36-0.38,0.51c-0.19,0.18-0.42,0.34-0.68,0.48c-0.36,0.19-0.74,0.33-1.14,0.42
			c-0.44,0.1-0.92,0.16-1.42,0.16C5.29,20.48,4.21,20.34,3,20.05z"/>
	</g>
	<g>
		<g>
			<path fill="#EAA244" d="M2.5,19.45c-0.05-0.89-0.1-1.76-0.18-2.6c0.58,0.22,1.04,0.37,1.4,0.45s0.69,0.12,0.99,0.12
				c0.34,0,0.65-0.06,0.92-0.19C5.84,17.13,6,17,6.11,16.85c0.16-0.22,0.27-0.47,0.32-0.76c0.1-0.53,0.17-1.44,0.22-2.74
				c0.05-1.3,0.08-2.43,0.08-3.38V9.05C7.55,9.06,8.1,9.06,8.37,9.06c0.34,0,0.91,0,1.73-0.02L9.86,12.5
				c-0.06,1.02-0.1,2.1-0.12,3.25c-0.02,0.88-0.06,1.49-0.13,1.82c-0.06,0.3-0.15,0.55-0.26,0.75c-0.1,0.19-0.23,0.36-0.38,0.51
				c-0.19,0.18-0.42,0.34-0.68,0.48c-0.36,0.19-0.74,0.33-1.14,0.42c-0.44,0.1-0.92,0.16-1.42,0.16C4.79,19.88,3.71,19.74,2.5,19.45
				z"/>
		</g>
	</g>
</g>
</svg>
