<?xml version="1.0" encoding="utf-8"?>
<!-- Generator: Adobe Illustrator 25.0.0, SVG Export Plug-In . SVG Version: 6.00 Build 0)  -->
<svg version="1.1" id="Layer_1" xmlns="http://www.w3.org/2000/svg" xmlns:xlink="http://www.w3.org/1999/xlink" x="0px" y="0px"
	 viewBox="0 0 1920 1080" enable-background="new 0 0 1920 1080" xml:space="preserve">
<g id="Logo_x5F_circuits">
	<g id="Main_x5F_path_x5F_7_x5F_Last_1_">
		
			<radialGradient id="path_x5F_4_13_" cx="1000.3243" cy="651.9116" r="197.591" gradientTransform="matrix(-0.7203 0.7718 -0.7577 -0.7337 2062.2766 195.3792)" gradientUnits="userSpaceOnUse">
			<stop  offset="0" style="stop-color:#FFDE94"/>
			<stop  offset="0.1612" style="stop-color:#FFCC77"/>
			<stop  offset="0.4129" style="stop-color:#FFB351"/>
			<stop  offset="0.6449" style="stop-color:#FFA235"/>
			<stop  offset="0.848" style="stop-color:#FF9724"/>
			<stop  offset="1" style="stop-color:#FF931E"/>
		</radialGradient>
		<path id="path_x5F_4" fill="url(#path_x5F_4_13_)" d="M786.73,315.08c17.56-18.82,34.42-32.68,47.35-42.08
			c24.39-16.72,48.38-29.84,67.65-36.98c3.16-1.2,6.08-2.34,8.74-3.38c4.58-1.78,8.39-3.27,11.36-4.27l7.42-2.05l1.15,4.29
			l-7.32,2.01c-2.82,0.97-6.54,2.41-11.06,4.18c-2.67,1.03-5.6,2.16-8.8,3.39c-18.95,7.03-42.6,19.97-66.66,36.47
			c-19.75,14.35-48.93,39.37-75.47,76.8c-23.85,33.55-41.43,72.64-50.85,113.09c-9.56,40.24-11.42,83.23-5.37,124.31
			c5.59,37.91,17.01,73.64,33.05,103.3c2.54,5.79,5.69,10.87,8.74,15.78c0.86,1.38,1.71,2.75,2.53,4.12
			c1.38,2.15,2.71,4.35,4.01,6.52c2.32,3.88,4.51,7.53,6.96,10.78c2.89,3.68,5.6,7.28,8.16,10.71c4.55,6.07,8.47,11.33,12.4,15.63
			l19.94,21.37l-3.17,3.07l-19.97-21.38c-4.08-4.5-8.26-10.08-12.68-15.99c-2.53-3.4-5.23-6.97-8.11-10.67
			c-2.61-3.47-4.87-7.21-7.25-11.19c-1.28-2.13-2.58-4.29-3.98-6.46c-0.84-1.4-1.68-2.76-2.54-4.12
			c-3.13-5.04-6.37-10.26-8.95-16.18c-16.2-29.96-27.81-66.18-33.45-104.63c-6.13-41.63-4.26-85.2,5.43-126
			c9.55-40.99,27.39-80.65,51.56-114.65C767.13,337.38,777.03,325.48,786.73,315.08z"/>
		<g id="sub_x5F_path_x5F_4_2_">
			
				<radialGradient id="path_x5F_4_14_" cx="1211.9227" cy="594.1307" r="36.3697" gradientTransform="matrix(-0.7203 0.7718 -0.7577 -0.7337 2062.2766 195.3792)" gradientUnits="userSpaceOnUse">
				<stop  offset="0" style="stop-color:#FFDE94"/>
				<stop  offset="0.1612" style="stop-color:#FFCC77"/>
				<stop  offset="0.4129" style="stop-color:#FFB351"/>
				<stop  offset="0.6449" style="stop-color:#FFA235"/>
				<stop  offset="0.848" style="stop-color:#FF9724"/>
				<stop  offset="1" style="stop-color:#FF931E"/>
			</radialGradient>
			<path id="path_x5F_4_4_" fill="url(#path_x5F_4_14_)" d="M709.36,655.21l16.36-6.3l8.52,22.53l10.6,21.85
				c1.72,3.96,3.85,7.41,6.13,11.04l10.62,17.28c1.62,2.86,3.22,4.95,4.65,6.78l3.76,4.94l-13.81,10.94l-3.71-4.87
				c-1.59-2.09-3.8-4.94-5.89-8.63l-10.38-16.91c-2.4-3.83-5.1-8.2-7.2-13.02l-12.33-25.96L709.36,655.21z"/>
			
				<radialGradient id="path_x5F_4_15_" cx="1134.5004" cy="717.2704" r="38.5193" gradientTransform="matrix(-0.7203 0.7718 -0.7577 -0.7337 2062.2766 195.3792)" gradientUnits="userSpaceOnUse">
				<stop  offset="0" style="stop-color:#FFDE94"/>
				<stop  offset="0.1612" style="stop-color:#FFCC77"/>
				<stop  offset="0.4129" style="stop-color:#FFB351"/>
				<stop  offset="0.6449" style="stop-color:#FFA235"/>
				<stop  offset="0.848" style="stop-color:#FF9724"/>
				<stop  offset="1" style="stop-color:#FF931E"/>
			</radialGradient>
			<path id="path_x5F_4_3_" fill="url(#path_x5F_4_15_)" d="M693.85,494.47l17.36,2.09l-1.79,15.33
				c-1.04,6.13-1.15,13.67-1.26,21.65c-0.06,3.8-0.12,7.67-0.26,11.55c-0.27,4.4,0.07,8.86,0.4,13.16l1.41,19.73
				c0.1,2.94,0.53,5.34,0.91,7.44c0.21,1.13,0.38,2.18,0.51,3.1l0.66,3.88l-17.23,3l-0.71-4.2c-0.12-0.98-0.28-1.73-0.43-2.57
				c-0.43-2.45-1.05-5.79-1.17-9.7l-1.4-19.3c-0.35-4.7-0.76-10.02-0.41-15.47c0.13-3.5,0.18-7.24,0.23-10.89
				c0.13-8.72,0.26-16.95,1.45-23.97L693.85,494.47z"/>
			
				<radialGradient id="path_x5F_4_16_" cx="1008.412" cy="789.7914" r="36.2113" gradientTransform="matrix(-0.7203 0.7718 -0.7577 -0.7337 2062.2766 195.3792)" gradientUnits="userSpaceOnUse">
				<stop  offset="0" style="stop-color:#FFDE94"/>
				<stop  offset="0.1612" style="stop-color:#FFCC77"/>
				<stop  offset="0.4129" style="stop-color:#FFB351"/>
				<stop  offset="0.6449" style="stop-color:#FFA235"/>
				<stop  offset="0.848" style="stop-color:#FF9724"/>
				<stop  offset="1" style="stop-color:#FF931E"/>
			</radialGradient>
			<path id="path_x5F_4_2_" fill="url(#path_x5F_4_16_)" d="M753.7,344.83l14.36,10.18l-8.67,12.67c-3.62,4.69-6.98,11-10.55,17.68
				c-1.93,3.62-3.91,7.32-6,10.97c-2.38,3.94-4.19,8.27-5.96,12.46l-7.43,17.45c-1.49,3.2-2.36,5.98-3.04,8.22l-1.72,5.47
				l-16.66-5.41l1.7-5.42c0.81-2.61,1.91-6.19,3.81-10.23l7.27-17.09c1.91-4.55,4.09-9.71,7.03-14.6c1.91-3.33,3.79-6.87,5.64-10.32
				c3.94-7.37,7.64-14.32,11.88-19.78L753.7,344.83z"/>
			
				<radialGradient id="path_x5F_4_17_" cx="860.104" cy="795.2967" r="35.3577" gradientTransform="matrix(-0.7203 0.7718 -0.7577 -0.7337 2062.2766 195.3792)" gradientUnits="userSpaceOnUse">
				<stop  offset="0" style="stop-color:#FFDE94"/>
				<stop  offset="0.1612" style="stop-color:#FFCC77"/>
				<stop  offset="0.4129" style="stop-color:#FFB351"/>
				<stop  offset="0.6449" style="stop-color:#FFA235"/>
				<stop  offset="0.848" style="stop-color:#FF9724"/>
				<stop  offset="1" style="stop-color:#FF931E"/>
			</radialGradient>
			<path id="path_x5F_4_1_" fill="url(#path_x5F_4_17_)" d="M793.79,298.51l10.99-10.65c5.38-4.46,11.42-9.21,17.82-14.24l9.91-7.75
				c3.68-2.31,7.34-4.66,10.88-6.93c6.48-4.16,12.56-8.06,17.69-11.08l14.09-7.13l7.75,15.97l-13.58,6.85
				c-4.46,2.65-10.35,6.44-16.62,10.45c-3.46,2.22-7.04,4.51-10.62,6.78l-8.8,6.93c-6.3,4.96-12.24,9.62-17,13.54l-10.44,10.14
				L793.79,298.51z"/>
		</g>
		
			<radialGradient id="SVGID_1_" cx="691.2691" cy="497.0896" r="197.7436" gradientTransform="matrix(-0.7203 0.7718 -0.7577 -0.7337 2062.2766 195.3792)" gradientUnits="userSpaceOnUse">
			<stop  offset="0" style="stop-color:#FFDE94"/>
			<stop  offset="0.1612" style="stop-color:#FFCC77"/>
			<stop  offset="0.4129" style="stop-color:#FFB351"/>
			<stop  offset="0.6449" style="stop-color:#FFA235"/>
			<stop  offset="0.848" style="stop-color:#FF9724"/>
			<stop  offset="1" style="stop-color:#FF931E"/>
		</radialGradient>
		<path fill="url(#SVGID_1_)" d="M929.26,226.33l21.65-5.97l30.26-5.28l29.89-2.27c4.78-0.1,9.6,0.03,14.56,0.16
			c2.72,0.09,5.49,0.15,8.3,0.19c25.45,1.1,64.44,5.9,105.93,22.55c38.18,15.1,74.32,38.54,104.51,67.77
			c30.19,29.23,55,64.81,71.74,102.9c18.41,41.36,25.1,80.78,27.46,106.55c0.19,2.92,0.38,5.74,0.61,8.5
			c0.38,5.04,0.75,9.94,0.9,14.69l-1.04,33.34l-3.24,27.84l-4.83,22.83l-4.27-0.94l4.76-22.33l3.54-30.61l0.7-30.11
			c-0.14-4.57-0.5-9.4-0.88-14.37c-0.22-2.78-0.43-5.61-0.61-8.49c-2.33-25.37-8.93-64.26-27.09-105.07
			c-16.51-37.58-40.98-72.67-70.76-101.5c-29.78-28.84-65.42-51.96-103.08-66.86c-40.95-16.42-79.41-21.16-104.47-22.23
			c-2.76-0.05-5.55-0.12-8.28-0.2c-4.9-0.13-9.65-0.26-14.25-0.16l-31.99,2.68l-27.13,4.7l-21.73,5.98L929.26,226.33z"/>
		<g id="sub_x5F_path_x5F_4_1_">
			
				<radialGradient id="path_x5F_4_18_" cx="694.478" cy="700.3161" r="38.4756" gradientTransform="matrix(-0.7203 0.7718 -0.7577 -0.7337 2062.2766 195.3792)" gradientUnits="userSpaceOnUse">
				<stop  offset="0" style="stop-color:#FFDE94"/>
				<stop  offset="0.1612" style="stop-color:#FFCC77"/>
				<stop  offset="0.4129" style="stop-color:#FFB351"/>
				<stop  offset="0.6449" style="stop-color:#FFA235"/>
				<stop  offset="0.848" style="stop-color:#FF9724"/>
				<stop  offset="1" style="stop-color:#FF931E"/>
			</radialGradient>
			<path id="path_x5F_4_8_" fill="url(#path_x5F_4_18_)" d="M982.62,208.23l20.09-1.49c3.37-0.26,7.02-0.55,10.84-0.7l18.33,0.4
				c9.44-0.19,19.13,1.05,26.91,2.03c2.48,0.32,4.83,0.62,7,0.86c1.8,0.23,3.28,0.4,4.65,0.56c2.86,0.32,5.31,0.62,7.21,1.04
				l4.05,0.9l-3.7,17.4l-4.08-0.91c-1.42-0.31-3.25-0.5-5.4-0.74c-1.48-0.17-3.06-0.35-4.76-0.57c-2.05-0.22-4.52-0.53-7.14-0.86
				c-7.6-0.97-16.22-2.07-24.76-1.91l-18.17-0.41c-3.04,0.13-6.46,0.4-9.62,0.66L983.9,226L982.62,208.23z"/>
			
				<radialGradient id="path_x5F_4_19_" cx="626.9033" cy="571.5616" r="35.4554" gradientTransform="matrix(-0.7203 0.7718 -0.7577 -0.7337 2062.2766 195.3792)" gradientUnits="userSpaceOnUse">
				<stop  offset="0" style="stop-color:#FFDE94"/>
				<stop  offset="0.1612" style="stop-color:#FFCC77"/>
				<stop  offset="0.4129" style="stop-color:#FFB351"/>
				<stop  offset="0.6449" style="stop-color:#FFA235"/>
				<stop  offset="0.848" style="stop-color:#FF9724"/>
				<stop  offset="1" style="stop-color:#FF931E"/>
			</radialGradient>
			<path id="path_x5F_4_7_" fill="url(#path_x5F_4_19_)" d="M1140.04,228.52l13.91,6.14c1.49,0.7,2.99,1.34,4.55,2.01
				c3.15,1.37,6.55,2.85,10.03,4.59l15.96,9.05c8.83,4.51,17.12,10.46,23.78,15.25l14,9.95c2.87,2.24,4.2,3.53,4.2,3.53
				l-11.98,12.97c-0.11-0.11-1-0.92-2.56-2.14l-8.68-6.15c-1.55-1.07-3.26-2.31-5.05-3.61c-6.52-4.67-13.91-9.97-21.9-14.06
				l-15.89-9.02c-2.77-1.37-5.88-2.72-8.77-3.96c-1.65-0.74-3.26-1.42-4.75-2.11l-13.8-6.1L1140.04,228.52z"/>
			
				<radialGradient id="path_x5F_4_20_" cx="626.9033" cy="422.6271" r="35.4654" gradientTransform="matrix(-0.7203 0.7718 -0.7577 -0.7337 2062.2766 195.3792)" gradientUnits="userSpaceOnUse">
				<stop  offset="0" style="stop-color:#FFDE94"/>
				<stop  offset="0.1612" style="stop-color:#FFCC77"/>
				<stop  offset="0.4129" style="stop-color:#FFB351"/>
				<stop  offset="0.6449" style="stop-color:#FFA235"/>
				<stop  offset="0.848" style="stop-color:#FF9724"/>
				<stop  offset="1" style="stop-color:#FF931E"/>
			</radialGradient>
			<path id="path_x5F_4_6_" fill="url(#path_x5F_4_20_)" d="M1257.1,333.27l12.13-12.81c0,0,1.33,1.29,3.4,3.76l10.73,14.08
				c5.04,6.53,11.3,14.66,16.36,23.74l9.25,15.06c2.11,3.84,3.75,7.24,5.25,10.39c0.74,1.53,1.44,3.02,2.13,4.4l6.78,13.95
				l-15.67,7.9l-6.73-13.84c-0.69-1.37-1.45-2.95-2.23-4.6c-1.38-2.87-2.86-5.98-4.58-9.14l-9.22-14.99
				c-4.61-8.25-10.18-15.49-15.08-21.89c-1.37-1.76-2.67-3.43-3.84-5.03l-6.69-8.78C1258.07,334.26,1257.23,333.39,1257.1,333.27z"
				/>
			
				<radialGradient id="path_x5F_4_21_" cx="694.478" cy="293.8572" r="38.4726" gradientTransform="matrix(-0.7203 0.7718 -0.7577 -0.7337 2062.2766 195.3792)" gradientUnits="userSpaceOnUse">
				<stop  offset="0" style="stop-color:#FFDE94"/>
				<stop  offset="0.1612" style="stop-color:#FFCC77"/>
				<stop  offset="0.4129" style="stop-color:#FFB351"/>
				<stop  offset="0.6449" style="stop-color:#FFA235"/>
				<stop  offset="0.848" style="stop-color:#FF9724"/>
				<stop  offset="1" style="stop-color:#FF931E"/>
			</radialGradient>
			<path id="path_x5F_4_5_" fill="url(#path_x5F_4_21_)" d="M1325.57,468.99l16.87-4.67l1.1,4.09c0.51,1.89,0.92,4.35,1.39,7.25
				c0.22,1.39,0.45,2.9,0.76,4.49c0.38,2.43,0.78,4.8,1.21,7.31c1.36,7.87,3.07,17.67,3.38,27.65l1.28,17.72
				c0.06,4.43-0.02,8.13-0.12,11.59l-0.45,20.52l-17.48-0.41l0.45-20.59c0.1-3.23,0.19-6.72,0.13-10.35l-1.27-17.57
				c-0.29-9.06-1.8-17.79-3.14-25.48c-0.44-2.64-0.88-5.12-1.22-7.42c-0.27-1.49-0.53-3.11-0.77-4.61c-0.34-2.16-0.62-4.01-1-5.42
				L1325.57,468.99z"/>
		</g>
		
			<radialGradient id="SVGID_2_" cx="1000.3243" cy="342.2661" r="197.5916" gradientTransform="matrix(-0.7203 0.7718 -0.7577 -0.7337 2062.2766 195.3792)" gradientUnits="userSpaceOnUse">
			<stop  offset="0" style="stop-color:#FFDE94"/>
			<stop  offset="0.1612" style="stop-color:#FFCC77"/>
			<stop  offset="0.4129" style="stop-color:#FFB351"/>
			<stop  offset="0.6449" style="stop-color:#FFA235"/>
			<stop  offset="0.848" style="stop-color:#FF9724"/>
			<stop  offset="1" style="stop-color:#FF931E"/>
		</radialGradient>
		<path fill="url(#SVGID_2_)" d="M800.5,778.93l21.98,19.22c4.4,3.76,9.76,7.48,15.94,11.81c3.48,2.43,7.15,5,10.95,7.77
			c3.27,2.3,6.97,4.35,10.88,6.51c2.19,1.21,4.42,2.45,6.65,3.78c1.33,0.74,2.71,1.53,4.11,2.34c4.97,2.85,10.1,5.79,15.73,8.02
			c30.07,14.88,65.68,24.7,103.13,28.47c40.58,4.07,82.64,0.01,121.59-11.75c39.18-11.64,76.63-31.49,108.31-57.46
			c35.35-28.92,58.4-59.85,71.52-80.72c14.93-25.25,26.41-49.97,32.34-69.58c1.04-3.34,2-6.38,2.88-9.14
			c1.5-4.69,2.73-8.55,3.56-11.59l1.58-7.42l4.27,0.95l-1.6,7.53c-0.85,3.2-2.12,7.14-3.63,11.9c-0.88,2.76-1.85,5.79-2.87,9.08
			c-6.02,19.94-17.67,45.02-32.81,70.62c-13.32,21.2-36.67,52.57-72.51,81.85c-32.11,26.32-70.09,46.47-109.8,58.26
			c-39.51,11.92-82.13,16.03-123.25,11.91c-37.99-3.8-74.09-13.78-104.45-28.83c-5.77-2.25-11.05-5.28-16.15-8.21
			c-1.38-0.8-2.75-1.59-4.11-2.35c-2.25-1.33-4.43-2.55-6.59-3.74c-4.02-2.22-7.81-4.34-11.32-6.79c-3.8-2.78-7.43-5.34-10.9-7.74
			c-6.02-4.2-11.7-8.17-16.3-12.07l-22-19.25L800.5,778.93z"/>
		<g id="sub_x5F_path_x5F_4">
			
				<radialGradient id="path_x5F_4_22_" cx="860.1097" cy="198.8763" r="35.3533" gradientTransform="matrix(-0.7203 0.7718 -0.7577 -0.7337 2062.2766 195.3792)" gradientUnits="userSpaceOnUse">
				<stop  offset="0" style="stop-color:#FFDE94"/>
				<stop  offset="0.1612" style="stop-color:#FFCC77"/>
				<stop  offset="0.4129" style="stop-color:#FFB351"/>
				<stop  offset="0.6449" style="stop-color:#FFA235"/>
				<stop  offset="0.848" style="stop-color:#FF9724"/>
				<stop  offset="1" style="stop-color:#FF931E"/>
			</radialGradient>
			<path id="path_x5F_4_12_" fill="url(#path_x5F_4_22_)" d="M1308.5,668.84l16.05,7.07l-6.03,14.16
				c-2.94,5.88-6.46,12.27-10.2,19.06c-2.05,3.72-4.17,7.57-6.26,11.43l-0.49,0.81l-6.6,9.67c-4.61,6.77-8.96,13.16-12.62,18.28
				l-10.32,12.28L1258.77,750l9.86-11.69c3.15-4.48,7.44-10.76,11.96-17.41l6.37-9.32c2.03-3.77,4.11-7.53,6.11-11.16
				c3.62-6.57,7.03-12.75,9.65-17.95L1308.5,668.84z"/>
			
				<radialGradient id="path_x5F_4_23_" cx="1008.412" cy="204.3903" r="36.2066" gradientTransform="matrix(-0.7203 0.7718 -0.7577 -0.7337 2062.2766 195.3792)" gradientUnits="userSpaceOnUse">
				<stop  offset="0" style="stop-color:#FFDE94"/>
				<stop  offset="0.1612" style="stop-color:#FFCC77"/>
				<stop  offset="0.4129" style="stop-color:#FFB351"/>
				<stop  offset="0.6449" style="stop-color:#FFA235"/>
				<stop  offset="0.848" style="stop-color:#FF9724"/>
				<stop  offset="1" style="stop-color:#FF931E"/>
			</radialGradient>
			<path id="path_x5F_4_11_" fill="url(#path_x5F_4_23_)" d="M1136.83,839.09l5.32-2.05c2.27-0.87,4.83-1.84,7.62-3.37l17-8.58
				c4.02-2.01,8.18-4.08,11.78-6.59c3.61-2.41,7.14-4.61,10.59-6.76c6.36-3.96,12.38-7.72,16.4-11.29l12.38-9.8l10.72,14.09
				l-11.99,9.46c-4.74,4.24-11.37,8.37-18.39,12.75c-3.28,2.04-6.67,4.15-9.97,6.35c-4.51,3.15-9.46,5.61-13.84,7.8l-16.66,8.4
				c-3.56,1.97-7.02,3.28-9.55,4.23l-5.22,2.01L1136.83,839.09z"/>
			
				<radialGradient id="path_x5F_4_24_" cx="1134.5059" cy="276.9026" r="38.5194" gradientTransform="matrix(-0.7203 0.7718 -0.7577 -0.7337 2062.2766 195.3792)" gradientUnits="userSpaceOnUse">
				<stop  offset="0" style="stop-color:#FFDE94"/>
				<stop  offset="0.1612" style="stop-color:#FFCC77"/>
				<stop  offset="0.4129" style="stop-color:#FFB351"/>
				<stop  offset="0.6449" style="stop-color:#FFA235"/>
				<stop  offset="0.848" style="stop-color:#FF9724"/>
				<stop  offset="1" style="stop-color:#FF931E"/>
			</radialGradient>
			<path id="path_x5F_4_10_" fill="url(#path_x5F_4_24_)" d="M988.04,859.89l4.11,0.49c0.61,0.06,1.64,0.19,2.75,0.35
				c2.09,0.28,4.46,0.59,7.02,0.55l19.78,0.44c4.23,0.12,8.61,0.24,12.69-0.24c4-0.37,7.79-0.63,11.48-0.86
				c7.84-0.53,15.24-1.03,20.72-2.3l15.43-2.69l2.93,17.56l-14.95,2.59c-6.37,1.5-14.44,2.03-23,2.61
				c-3.56,0.23-7.21,0.47-10.85,0.8c-5.09,0.61-10.32,0.45-14.94,0.33l-19.36-0.45c-3.51,0.06-6.83-0.37-9.24-0.7
				c-0.83-0.11-1.58-0.22-2.25-0.28l-4.45-0.53L988.04,859.89z"/>
			
				<radialGradient id="path_x5F_4_25_" cx="1211.9286" cy="400.0499" r="36.367" gradientTransform="matrix(-0.7203 0.7718 -0.7577 -0.7337 2062.2766 195.3792)" gradientUnits="userSpaceOnUse">
				<stop  offset="0" style="stop-color:#FFDE94"/>
				<stop  offset="0.1612" style="stop-color:#FFCC77"/>
				<stop  offset="0.4129" style="stop-color:#FFB351"/>
				<stop  offset="0.6449" style="stop-color:#FFA235"/>
				<stop  offset="0.848" style="stop-color:#FF9724"/>
				<stop  offset="1" style="stop-color:#FF931E"/>
			</radialGradient>
			<path id="path_x5F_4_9_" fill="url(#path_x5F_4_25_)" d="M846.89,807.82l5.04,3.59c1.86,1.35,3.99,2.88,6.59,4.21l13.86,7.87
				c1.23,0.68,2.58,1.45,3.94,2.24c3.67,2.11,7.13,4.11,10.73,5.52l24.19,10.62l20.67,6.74l-5.35,16.94l-29.71-10.57l-16.4-7.25
				c-4.47-1.73-8.87-4.25-12.74-6.5l-17.42-9.89c-3.42-1.77-6.33-3.86-8.45-5.39l-4.98-3.52L846.89,807.82z"/>
		</g>
	</g>
	<g id="Main_x5F_path_x5F_6_1_">
		
			<linearGradient id="path_x5F_6_4_" gradientUnits="userSpaceOnUse" x1="2955.0447" y1="-419.2928" x2="-1216.887" y2="1741.5133" gradientTransform="matrix(-0.9986 0.0535 -0.0535 -0.9986 1948.2994 1029.0228)">
			<stop  offset="0" style="stop-color:#FFFFFF"/>
			<stop  offset="0.0851" style="stop-color:#FFEDD8"/>
			<stop  offset="0.2082" style="stop-color:#FFD5A7"/>
			<stop  offset="0.3345" style="stop-color:#FFC17D"/>
			<stop  offset="0.462" style="stop-color:#FFB05B"/>
			<stop  offset="0.591" style="stop-color:#FFA340"/>
			<stop  offset="0.7222" style="stop-color:#FF9A2D"/>
			<stop  offset="0.8568" style="stop-color:#FF9522"/>
			<stop  offset="1" style="stop-color:#FF931E"/>
		</linearGradient>
		<path id="path_x5F_6_3_" fill="url(#path_x5F_6_4_)" d="M1001.82,186.19c37.08-1.1,71.3,2.17,101.92,9.71
			c5.33,1.23,10.59,2.93,15.67,4.57c2.81,0.91,5.62,1.81,8.43,2.64l11.92,3.74l11.76,5c2.72,1.22,5.42,2.34,8.1,3.44
			c4.85,2,9.85,4.06,14.62,6.62l21.23,11.6c31.34,19.32,55.33,38.21,73.5,57.86c7.67,7.06,14.25,15.21,20.61,23.09
			c2.56,3.18,5.11,6.33,7.71,9.39c3.1,3.58,5.63,7.48,8.07,11.24c1.29,1.98,2.55,3.94,3.9,5.83c1.4,2.15,2.75,4.11,4.08,6.06
			c2.44,3.58,4.85,7.11,6.98,10.75c30.36,52.11,40.67,96.33,44.11,118.05l2.12,10.3c0.37,2.46,0.57,4.6,0.78,6.65l3.13,30.42
			l-8.71,0.93l-3.12-30.49c-0.2-1.9-0.37-3.89-0.68-5.94l-2.1-10.26c-3.37-21.3-13.41-64.28-43.03-115.11
			c-2.02-3.47-4.32-6.83-6.65-10.23c-1.36-2-2.72-4.01-4.06-6.07c-1.32-1.84-2.67-3.91-4.03-6c-2.37-3.67-4.63-7.14-7.34-10.29
			c-2.68-3.14-5.28-6.35-7.9-9.61c-6.15-7.63-12.51-15.52-19.96-22.38c-17.88-19.3-41.24-37.7-71.7-56.48l-21.01-11.46
			c-4.34-2.33-8.93-4.22-13.79-6.23c-2.77-1.14-5.55-2.29-8.28-3.52l-11.29-4.81l-11.45-3.57c-2.8-0.83-5.67-1.75-8.55-2.68
			c-4.92-1.59-10.01-3.22-15.04-4.4c-29.91-7.36-63.35-10.55-99.44-9.49c-35.8,2.86-68.71,9.67-97.61,20.23
			c-4.96,1.73-9.83,3.91-14.56,6.03c-2.78,1.24-5.53,2.47-8.31,3.62l-11.31,4.95l-10.4,5.86c-2.53,1.48-5.16,2.92-7.78,4.36
			c-4.62,2.52-9,4.91-13.12,7.72l-19.82,13.8c-28.12,21.85-49.42,42.69-64.96,63.55c-6.91,7.91-12.41,16.45-17.73,24.7
			c-2.27,3.52-4.51,7-6.81,10.38c-2.4,3.46-4.26,7.15-6.26,11.06c-1.12,2.22-2.24,4.43-3.45,6.57c-1.03,2.03-2.19,4.18-3.33,6.31
			c-1.95,3.64-3.89,7.23-5.54,10.9c-24.11,53.76-29.57,97.58-30.67,118.92l-1.06,10.89c-0.06,1.82-0.05,3.82-0.03,5.73l0.1,30.65
			l-8.76,0.02l-0.07-30.59c-0.03-2.05-0.06-4.21,0.04-6.44l1.06-10.92c1.12-21.77,6.72-66.86,31.45-121.97
			c1.74-3.86,3.77-7.63,5.82-11.46c1.11-2.08,2.23-4.18,3.33-6.31c1.22-2.19,2.29-4.28,3.35-6.39c2.04-4,4.13-8.15,6.87-12.08
			c2.23-3.3,4.44-6.71,6.66-10.15c5.5-8.53,11.17-17.35,18.3-25.48c15.79-21.24,37.63-42.63,66.58-65.12l20.06-13.96
			c4.51-3.08,9.28-5.68,13.87-8.19c2.55-1.39,5.1-2.79,7.62-4.26l10.85-6.1l11.76-5.18c2.79-1.16,5.48-2.36,8.18-3.57
			c4.89-2.19,9.95-4.44,15.17-6.27C931.36,196.1,965.04,189.12,1001.82,186.19z"/>
		
			<linearGradient id="path_x5F_6_5_" gradientUnits="userSpaceOnUse" x1="3023.6707" y1="-271.3982" x2="-1138.8417" y2="1884.5292" gradientTransform="matrix(-0.9986 0.0535 -0.0535 -0.9986 1948.2994 1029.0228)">
			<stop  offset="0" style="stop-color:#FFFFFF"/>
			<stop  offset="0.0851" style="stop-color:#FFEDD8"/>
			<stop  offset="0.2082" style="stop-color:#FFD5A7"/>
			<stop  offset="0.3345" style="stop-color:#FFC17D"/>
			<stop  offset="0.462" style="stop-color:#FFB05B"/>
			<stop  offset="0.591" style="stop-color:#FFA340"/>
			<stop  offset="0.7222" style="stop-color:#FF9A2D"/>
			<stop  offset="0.8568" style="stop-color:#FF9522"/>
			<stop  offset="1" style="stop-color:#FF931E"/>
		</linearGradient>
		<path id="path_x5F_6_2_" fill="url(#path_x5F_6_5_)" d="M1000.54,160.04l0.63-0.01c26.8-0.5,61.69-0.11,93.82,7.41
			c2.16,0.49,4.51,0.94,6.82,1.38c4.81,0.94,9.79,1.91,14.9,3.44l19.56,6.11c9.5,2.49,18.61,6.47,26.66,9.98
			c3.14,1.37,6.22,2.72,9.26,3.93l8.16,3.46c2.51,1.16,4.39,2.19,6.25,3.22l31.51,17.78l23.76,16.15l-19.42,29.63l-30.03-19.92
			l-22.56-12.36c-1.15-0.64-2.3-1.3-3.52-1.87l-7.25-3.06c-3.03-1.2-6.45-2.7-9.95-4.23c-7.22-3.15-14.69-6.42-22.36-8.45
			l-20.13-6.26c-3.29-0.98-7.2-1.76-11.38-2.56c-2.65-0.51-5.29-1.03-7.95-1.62c-28.33-6.63-60.14-7-84.87-6.55
			c-24.61,2.25-56.22,6.07-83.55,15.7c-2.74,0.94-5.3,1.73-7.87,2.53c-4.07,1.26-7.91,2.45-11.24,3.86l-18.47,8.05
			c-8.12,3.14-15.21,7.2-22.07,11.12c-3.31,1.91-6.56,3.76-9.77,5.46l-7.09,3.96c-0.61,0.39-1.72,1.19-2.79,1.95l-24.78,17.3
			l-24.09,20.5l-22.43-27.35l26.01-22.02l25.32-17.68c1.76-1.24,3.53-2.48,5.43-3.63l7.93-4.45c3.22-1.72,6.14-3.39,9.14-5.1
			c7.6-4.37,16.24-9.31,26.14-13.11l17.94-7.84c5.09-2.16,9.94-3.66,14.64-5.12c2.25-0.7,4.51-1.4,6.76-2.16
			c30.99-10.93,65.65-15.11,92.37-17.53L1000.54,160.04z"/>
		
			<linearGradient id="path_x5F_6_6_" gradientUnits="userSpaceOnUse" x1="2866.8882" y1="-592.5714" x2="-1305.04" y2="1568.2328" gradientTransform="matrix(-0.9986 0.0535 -0.0535 -0.9986 1948.2994 1029.0228)">
			<stop  offset="0" style="stop-color:#FFFFFF"/>
			<stop  offset="0.0851" style="stop-color:#FFEDD8"/>
			<stop  offset="0.2082" style="stop-color:#FFD5A7"/>
			<stop  offset="0.3345" style="stop-color:#FFC17D"/>
			<stop  offset="0.462" style="stop-color:#FFB05B"/>
			<stop  offset="0.591" style="stop-color:#FFA340"/>
			<stop  offset="0.7222" style="stop-color:#FF9A2D"/>
			<stop  offset="0.8568" style="stop-color:#FF9522"/>
			<stop  offset="1" style="stop-color:#FF931E"/>
		</linearGradient>
		<path id="path_x5F_6_1_" fill="url(#path_x5F_6_6_)" d="M679.61,560.86l3.12,30.48c0.18,1.91,0.38,3.89,0.68,5.95l2.12,10.25
			c3.37,21.3,13.4,64.28,43.01,115.12c2.03,3.46,4.33,6.83,6.65,10.23c1.36,2,2.74,4.01,4.08,6.06c1.32,1.84,2.67,3.92,4.01,6
			c2.4,3.66,4.63,7.13,7.36,10.28c2.67,3.14,5.26,6.35,7.89,9.6c6.16,7.63,12.52,15.52,19.97,22.38
			c17.89,19.31,41.26,37.71,71.69,56.49l21.01,11.47c4.35,2.33,8.96,4.22,13.81,6.23c2.76,1.14,5.52,2.29,8.27,3.51l11.29,4.81
			l11.43,3.57c2.8,0.82,5.67,1.75,8.57,2.68c4.92,1.58,9.99,3.23,15.03,4.4c29.92,7.36,63.35,10.55,99.46,9.49
			c35.78-2.86,68.7-9.67,97.62-20.23c4.93-1.73,9.82-3.92,14.54-6.03c2.77-1.23,5.52-2.47,8.32-3.62l11.28-4.97l10.42-5.86
			c2.52-1.48,5.16-2.92,7.79-4.35c4.62-2.53,8.99-4.91,13.09-7.72l19.85-13.81c28.12-21.85,49.42-42.69,64.95-63.55
			c6.91-7.91,12.41-16.45,17.72-24.71c2.27-3.52,4.51-7,6.82-10.39c2.39-3.45,4.27-7.15,6.24-11.05c1.13-2.22,2.26-4.43,3.46-6.57
			c1.03-2.03,2.17-4.18,3.32-6.31c1.97-3.64,3.9-7.24,5.55-10.9c24.11-53.76,29.58-97.59,30.68-118.93l1.05-10.88
			c0.07-1.83,0.04-3.82,0.03-5.74l-0.1-30.65l8.76-0.02l0.08,30.58c0.01,2.06,0.03,4.21-0.06,6.45l-1.05,10.93
			c-1.13,21.77-6.73,66.86-31.45,121.96c-1.74,3.86-3.77,7.65-5.82,11.47c-1.11,2.08-2.25,4.18-3.32,6.3
			c-1.24,2.19-2.29,4.28-3.36,6.39c-2.03,4.01-4.13,8.15-6.87,12.08c-2.24,3.29-4.45,6.71-6.66,10.15
			c-5.5,8.53-11.19,17.36-18.3,25.48c-15.78,21.24-37.65,42.63-66.59,65.11l-20.05,13.97c-4.51,3.07-9.27,5.67-13.87,8.19
			c-2.55,1.39-5.11,2.79-7.62,4.26l-10.87,6.1l-11.74,5.18c-2.79,1.16-5.49,2.36-8.19,3.57c-4.87,2.18-9.93,4.44-15.16,6.27
			c-29.59,10.8-63.27,17.79-100.04,20.72c-37.09,1.1-71.31-2.18-101.92-9.72c-5.34-1.23-10.61-2.93-15.69-4.56
			c-2.81-0.91-5.61-1.81-8.42-2.64l-11.91-3.74l-11.76-4.99c-2.74-1.23-5.43-2.34-8.11-3.44c-4.83-2.01-9.85-4.07-14.62-6.61
			l-21.24-11.61c-31.34-19.32-55.3-38.21-73.48-57.86c-7.68-7.05-14.25-15.2-20.61-23.09c-2.57-3.18-5.12-6.34-7.7-9.39
			c-3.12-3.59-5.63-7.48-8.08-11.24c-1.28-1.98-2.55-3.94-3.9-5.83c-1.42-2.16-2.75-4.12-4.08-6.06c-2.44-3.58-4.85-7.12-6.98-10.75
			c-30.38-52.11-40.68-96.33-44.1-118.05l-2.13-10.31c-0.38-2.46-0.57-4.6-0.76-6.65l-3.14-30.41L679.61,560.86z"/>
		
			<linearGradient id="path_x5F_6_7_" gradientUnits="userSpaceOnUse" x1="2789.1953" y1="-735.7742" x2="-1373.3486" y2="1420.1696" gradientTransform="matrix(-0.9986 0.0535 -0.0535 -0.9986 1948.2994 1029.0228)">
			<stop  offset="0" style="stop-color:#FFFFFF"/>
			<stop  offset="0.0851" style="stop-color:#FFEDD8"/>
			<stop  offset="0.2082" style="stop-color:#FFD5A7"/>
			<stop  offset="0.3345" style="stop-color:#FFC17D"/>
			<stop  offset="0.462" style="stop-color:#FFB05B"/>
			<stop  offset="0.591" style="stop-color:#FFA340"/>
			<stop  offset="0.7222" style="stop-color:#FF9A2D"/>
			<stop  offset="0.8568" style="stop-color:#FF9522"/>
			<stop  offset="1" style="stop-color:#FF931E"/>
		</linearGradient>
		<path id="path_x5F_6" fill="url(#path_x5F_6_7_)" d="M818.9,822.42l30.05,19.92l22.55,12.36c1.15,0.63,2.31,1.3,3.53,1.87
			l7.22,3.06c3.03,1.21,6.45,2.7,9.95,4.23c7.23,3.15,14.7,6.41,22.37,8.44l20.13,6.26c3.27,0.99,7.21,1.75,11.37,2.56
			c2.65,0.51,5.29,1.03,7.95,1.62c28.34,6.63,60.17,7,84.87,6.56c24.64-2.24,56.24-6.08,83.57-15.71c2.71-0.93,5.29-1.73,7.85-2.53
			c4.07-1.26,7.91-2.45,11.24-3.86l18.45-8.05c8.13-3.14,15.22-7.2,22.07-11.13c3.32-1.9,6.57-3.75,9.79-5.46l7.08-3.96
			c0.63-0.4,1.73-1.19,2.81-1.96l24.77-17.3l24.09-20.49l22.43,27.34l-26,22.02l-25.33,17.69c-1.75,1.23-3.53,2.49-5.43,3.62
			l-7.93,4.45c-3.23,1.72-6.15,3.4-9.13,5.11c-7.62,4.36-16.26,9.3-26.14,13.11l-17.94,7.84c-5.1,2.15-9.95,3.66-14.64,5.11
			c-2.26,0.7-4.52,1.4-6.78,2.17c-30.99,10.92-65.64,15.1-92.34,17.52l-0.62,0.06l-0.6,0.01c-26.8,0.5-61.7,0.12-93.82-7.41
			c-2.18-0.48-4.51-0.94-6.82-1.38c-4.82-0.93-9.79-1.91-14.91-3.44l-19.57-6.11c-9.49-2.49-18.61-6.46-26.63-9.97
			c-3.15-1.38-6.23-2.73-9.27-3.94L861,889.2c-2.51-1.16-4.39-2.19-6.24-3.22l-31.52-17.78l-23.77-16.15L818.9,822.42z"/>
	</g>
	<g id="Main_x5F_path_x5F_5">
		<polygon id="path_x5F_3_15_" fill="#B3B3B3" stroke="#B3B3B3" stroke-width="0.01" stroke-miterlimit="10" points="680.48,730.31 
			683.99,728.42 691.39,742.62 687.87,744.52 		"/>
		<path id="path_x5F_3_14_" fill="#B3B3B3" stroke="#B3B3B3" stroke-width="0.01" stroke-miterlimit="10" d="M655.6,674.55
			l3.71-1.47c0.28,0.73,0.61,1.53,0.97,2.39l7.52,18.83l-3.68,1.52l-7.5-18.77C656.26,676.19,655.89,675.34,655.6,674.55z
			 M669.98,710.14l3.51-1.91l3.52,6.76l-3.5,1.9L669.98,710.14z"/>
		<path id="path_x5F_3_13_" fill="#B3B3B3" stroke="#B3B3B3" stroke-width="0.01" stroke-miterlimit="10" d="M803.02,216.57
			l2.23,3.36l-3.33,2.27c-0.96,0.71-2.21,1.53-3.59,2.44c-2.59,1.69-5.81,3.8-9.19,6.64c-0.64,0.56-1.34,1.18-2.06,1.8l-2.58-3.09
			c0.72-0.61,1.4-1.21,2.07-1.81c3.61-3.02,6.93-5.19,9.6-6.95c1.32-0.87,2.5-1.64,3.48-2.36L803.02,216.57z M772.89,239.61
			l2.52,3.13c-1.87,1.56-3.8,3.16-5.78,4.86l-2.55-3.12C769.08,242.8,771.01,241.16,772.89,239.61z M755.74,254.7l2.72,2.96
			c-4.02,3.84-7.67,7.59-11.18,11.48c-3.23,3.31-6.45,6.73-9.68,10.33l-2.93-2.74c3.25-3.63,6.51-7.1,9.71-10.38
			C747.92,262.43,751.64,258.6,755.74,254.7z M727.16,285.37l3.02,2.64c-4.79,5.68-9.51,11.65-14.07,17.76l-3.16-2.46
			C717.54,297.15,722.33,291.11,727.16,285.37z M704.03,315.71l3.24,2.34c-1.42,2.06-2.84,4.16-4.24,6.27l-3.3-2.27
			C701.15,319.92,702.59,317.8,704.03,315.71z M691.51,334.95l3.39,2.13c-5.32,8.69-10.31,17.57-14.85,26.43l-3.53-1.88
			C681.11,352.69,686.16,343.71,691.51,334.95z M671.45,371.93l3.58,1.77c-3.27,6.84-6.34,13.85-9.15,20.82l-3.69-1.52
			C665.03,385.94,668.13,378.86,671.45,371.93z M656.78,407.38l3.75,1.35c-0.74,2.12-1.46,4.25-2.17,6.39l-0.2,0.74l-3.83-1.12
			l0.23-0.83C655.31,411.65,656.03,409.52,656.78,407.38z M649.96,429.32l3.78,1.21c-3.18,10.36-5.94,19.71-7.45,29.3l-3.94-0.63
			C643.92,449.34,646.72,439.84,649.96,429.32z M640.16,470.36l3.9,0.8l-2.37,11.93l-1.1,10.53l-3.95-0.43l1.59-13.15L640.16,470.36
			z M634.95,508.37l3.96,0.47c-0.29,2.51-0.52,5.02-0.69,7.52l-3.97-0.29C634.43,513.51,634.66,510.95,634.95,508.37z
			 M633.69,531.48l3.98,0.04c-0.03,2.66-0.03,5.29-0.06,7.9c0,2.85-0.01,5.67-0.05,8.47l-0.09,10.04c0.06,1.26,0.18,2.61,0.29,3.96
			l-3.96,0.36c-0.13-1.4-0.23-2.81-0.29-4.24l0.07-10.17c0.03-2.79,0.06-5.6,0.07-8.45C633.64,536.79,633.65,534.15,633.69,531.48z
			 M634.8,573.69l3.97-0.37l1.09,12.6c0.15,3.23,0.47,6.52,0.99,10.13l-3.94,0.58c-0.53-3.75-0.85-7.16-1-10.45L634.8,573.69z
			 M639.65,611.79l3.9-0.78c0.45,2.3,0.87,4.55,1.22,6.74l0.14,0.81l-3.91,0.71l-0.15-0.8C640.5,616.26,640.08,614.06,639.65,611.79
			z M643.91,634.38l3.88-0.9c0.73,3.28,1.47,5.99,2.25,8.29l6.06,20.97l-3.82,1.14l-6.03-20.87
			C645.46,640.66,644.68,637.81,643.91,634.38z"/>
		<polygon id="path_x5F_3_12_" fill="#B3B3B3" stroke="#B3B3B3" stroke-width="0.01" stroke-miterlimit="10" points="822.14,203.58 
			824.36,206.94 811.22,215.88 809.01,212.51 		"/>
		<polygon id="path_x5F_3_11_" fill="#B3B3B3" stroke="#B3B3B3" stroke-width="0.01" stroke-miterlimit="10" points="822.33,203.47 
			836.28,195.95 838.13,199.53 824.18,207.06 		"/>
		<path id="path_x5F_3_10_" fill="#B3B3B3" stroke="#B3B3B3" stroke-width="0.01" stroke-miterlimit="10" d="M849.44,188.85
			l6.63-3.59l1.87,3.57l-6.65,3.59L849.44,188.85z M870.12,179.3l18.43-7.64c0.85-0.39,1.69-0.74,2.46-1.05l1.44,3.78
			c-0.73,0.29-1.5,0.62-2.34,0.99l-18.48,7.66L870.12,179.3z"/>
		<path id="path_x5F_3_9_" fill="#B3B3B3" stroke="#B3B3B3" stroke-width="0.01" stroke-miterlimit="10" d="M901.47,167.23
			l20.49-6.14c2.31-0.83,5.1-1.61,8.49-2.4l0.88,3.95c-3.22,0.75-5.9,1.51-8.15,2.3l-20.58,6.17L901.47,167.23z M945.26,155.73
			l0.79-0.15c2.17-0.37,4.34-0.8,6.55-1.23l0.77,3.97c-2.27,0.45-4.46,0.88-6.62,1.24l-0.79,0.15L945.26,155.73z M967.48,151.58
			c3.67-0.54,7.02-0.88,10.26-1.04l12.28-1.12l0.35,4.04l-12.36,1.12c-3.2,0.15-6.43,0.48-9.95,1L967.48,151.58z M1001.22,148.4
			c1.4-0.13,2.78-0.24,4.17-0.31l9.98,0.09c2.74,0.04,5.51,0.04,8.3,0.05c2.56,0.02,5.16,0.03,7.78,0.06l-0.04,4.04
			c-2.6-0.02-5.19-0.03-7.76-0.05c-2.79-0.01-5.57-0.01-8.31-0.05l-9.86-0.09c-1.23,0.06-2.57,0.18-3.88,0.29L1001.22,148.4z
			 M1046.58,148.85c2.52,0.18,5.03,0.42,7.57,0.73l-0.46,4.01c-2.47-0.29-4.93-0.53-7.38-0.7L1046.58,148.85z M1069.04,151.29
			l12.92,1.62l9.5,1.97l-0.79,3.97l-11.72-2.42l-10.33-1.12L1069.04,151.29z M1102.42,157.12c9.69,1.59,19.02,4.44,29.33,7.74
			l-1.18,3.86c-10.16-3.24-19.35-6.05-28.77-7.6L1102.42,157.12z M1146.05,169.32l0.84,0.23c2.19,0.76,4.31,1.5,6.4,2.27l-1.32,3.81
			c-2.09-0.75-4.17-1.5-6.27-2.21l-0.74-0.21L1146.05,169.32z M1167.4,177.33c6.93,2.89,13.89,6.06,20.7,9.41l-1.75,3.65
			c-6.72-3.33-13.6-6.46-20.45-9.32L1167.4,177.33z M1198.2,191.93c8.78,4.67,17.59,9.81,26.2,15.26l-2.09,3.45
			c-8.54-5.41-17.26-10.5-25.96-15.11L1198.2,191.93z M1237.06,215.57c2.1,1.44,4.16,2.9,6.21,4.37l-2.29,3.31
			c-2.02-1.46-4.08-2.9-6.15-4.32L1237.06,215.57z M1255.45,229.02c6.06,4.68,11.98,9.56,17.63,14.49l-2.59,3.08
			c-5.59-4.87-11.45-9.69-17.45-14.34L1255.45,229.02z M1281.55,251.16c3.56,3.33,6.97,6.63,10.19,9.91
			c3.83,3.58,7.6,7.38,11.43,11.54l-2.91,2.77c-3.76-4.09-7.45-7.81-11.27-11.38c-3.24-3.3-6.6-6.57-10.13-9.85L1281.55,251.16z
			 M1313.18,284.16c1.68,2.03,3.27,4.01,4.8,5.92l-3.08,2.55c-1.52-1.89-3.1-3.86-4.77-5.87L1313.18,284.16z M1327.44,301.91
			c0.59,0.73,1.19,1.43,1.77,2.1c2.96,3.69,5.1,7.07,6.82,9.79c0.86,1.35,1.61,2.55,2.32,3.54l2.26,3.47l-3.31,2.23l-2.21-3.38
			c-0.7-0.98-1.5-2.23-2.4-3.66c-1.65-2.63-3.73-5.9-6.5-9.36c-0.55-0.64-1.17-1.35-1.77-2.11L1327.44,301.91z"/>
		<polygon id="path_x5F_3_8_" fill="#B3B3B3" stroke="#B3B3B3" stroke-width="0.01" stroke-miterlimit="10" points="1344.59,326.87 
			1353.36,340.25 1350.06,342.5 1341.28,329.13 		"/>
		<polygon id="path_x5F_3_7_" fill="#B3B3B3" stroke="#B3B3B3" stroke-width="0.01" stroke-miterlimit="10" points="1349.96,342.32 
			1353.47,340.43 1360.85,354.64 1357.33,356.54 		"/>
		<path id="path_x5F_3_6_" fill="#B3B3B3" stroke="#B3B3B3" stroke-width="0.01" stroke-miterlimit="10" d="M1364.31,369.96
			l3.52-1.9l3.53,6.75l-3.5,1.9L1364.31,369.96z M1373.51,390.65l3.7-1.52l7.5,18.77c0.38,0.85,0.71,1.71,1.01,2.5l-3.7,1.47
			c-0.28-0.74-0.61-1.53-0.98-2.39L1373.51,390.65z"/>
		<path id="path_x5F_3_5_" fill="#B3B3B3" stroke="#B3B3B3" stroke-width="0.01" stroke-miterlimit="10" d="M1385.23,422.2
			l3.81-1.14l6.02,20.88c0.81,2.34,1.58,5.2,2.35,8.63l-3.88,0.9c-0.74-3.28-1.47-6-2.25-8.29L1385.23,422.2z M1396.42,466.39
			l3.92-0.72l0.15,0.81c0.36,2.21,0.78,4.41,1.21,6.68l-3.91,0.78c-0.43-2.31-0.85-4.56-1.22-6.74L1396.42,466.39z M1400.47,488.89
			l3.95-0.58c0.53,3.74,0.86,7.15,1.01,10.44l1.09,12.51l-3.95,0.36l-1.11-12.58C1401.31,495.79,1400.99,492.51,1400.47,488.89z
			 M1403.57,523.04l3.96-0.36c0.12,1.41,0.24,2.81,0.3,4.23l-0.09,10.18c-0.03,2.79-0.05,5.61-0.05,8.44
			c-0.02,2.63-0.03,5.27-0.06,7.93l-3.97-0.05c0.02-2.65,0.04-5.28,0.05-7.9c0.01-2.86,0.02-5.68,0.05-8.47l0.09-10.05
			C1403.79,525.75,1403.69,524.38,1403.57,523.04z M1403.12,568.59l3.96,0.29c-0.17,2.55-0.4,5.12-0.71,7.71l-3.95-0.48
			C1402.72,573.59,1402.94,571.09,1403.12,568.59z M1400.74,591.32l3.95,0.44l-1.6,13.15l-1.92,9.68l-3.9-0.8l2.38-11.93
			L1400.74,591.32z M1395.05,625.11l3.92,0.65c-1.55,9.85-4.36,19.35-7.6,29.87l-3.79-1.21
			C1390.76,644.06,1393.53,634.7,1395.05,625.11z M1383.17,669.09l3.83,1.12l-0.23,0.83c-0.74,2.25-1.48,4.4-2.22,6.53l-3.75-1.36
			c0.74-2.12,1.46-4.24,2.16-6.38L1383.17,669.09z M1375.45,690.42l3.69,1.53c-2.84,7.06-5.95,14.15-9.26,21.07l-3.57-1.78
			C1369.58,704.4,1372.65,697.39,1375.45,690.42z M1361.26,721.44l3.54,1.88c-4.59,8.94-9.63,17.91-14.99,26.69l-3.38-2.15
			C1351.75,739.18,1356.74,730.29,1361.26,721.44z M1338.3,760.62l3.28,2.28c-1.41,2.13-2.84,4.24-4.28,6.32l-3.26-2.34
			C1335.48,764.84,1336.89,762.75,1338.3,760.62z M1325.22,779.18l3.17,2.45c-4.62,6.17-9.4,12.2-14.24,17.95l-3.01-2.65
			C1315.93,791.26,1320.67,785.28,1325.22,779.18z M1303.71,805.49l2.95,2.73c-3.27,3.64-6.52,7.11-9.73,10.39
			c-3.51,3.91-7.24,7.73-11.33,11.64l-2.72-2.96c4.02-3.84,7.68-7.59,11.19-11.48C1297.28,812.51,1300.5,809.08,1303.71,805.49z
			 M1271.7,837.34l2.55,3.11c-1.99,1.7-3.94,3.33-5.81,4.88l-2.51-3.14C1267.78,840.65,1269.7,839.04,1271.7,837.34z
			 M1254.26,851.87l2.56,3.1c-0.71,0.6-1.39,1.21-2.05,1.8c-3.62,3.02-6.95,5.2-9.62,6.96c-1.31,0.86-2.49,1.63-3.47,2.36l-3.38,2.3
			l-2.22-3.36l3.33-2.27c0.96-0.72,2.2-1.52,3.59-2.45c2.57-1.68,5.78-3.79,9.18-6.63C1252.81,853.12,1253.53,852.5,1254.26,851.87z
			"/>
		<polygon id="path_x5F_3_4_" fill="#B3B3B3" stroke="#B3B3B3" stroke-width="0.01" stroke-miterlimit="10" points="1230.11,869.07 
			1232.33,872.44 1219.19,881.36 1216.98,878 		"/>
		<polygon id="path_x5F_3_2_" fill="#B3B3B3" stroke="#B3B3B3" stroke-width="0.01" stroke-miterlimit="10" points="1203.2,885.42 
			1217.16,877.89 1219.01,881.47 1205.06,889.01 		"/>
		<path id="path_x5F_3_3_" fill="#B3B3B3" stroke="#B3B3B3" stroke-width="0.01" stroke-miterlimit="10" d="M1148.87,910.56
			c0.73-0.29,1.52-0.62,2.35-0.99l18.5-7.66l1.48,3.76l-18.42,7.64c-0.85,0.38-1.69,0.73-2.46,1.05L1148.87,910.56z M1183.4,896.11
			l6.63-3.58l1.87,3.58l-6.64,3.58L1183.4,896.11z"/>
		<path id="path_x5F_3_1_" fill="#B3B3B3" stroke="#B3B3B3" stroke-width="0.01" stroke-miterlimit="10" d="M704.02,761.93
			l2.22,3.37c0.7,0.98,1.5,2.24,2.39,3.67c1.67,2.62,3.74,5.91,6.51,9.35c0.56,0.64,1.16,1.36,1.78,2.1l-3.04,2.62
			c-0.6-0.73-1.18-1.43-1.77-2.1c-2.97-3.68-5.1-7.07-6.83-9.78c-0.85-1.36-1.6-2.55-2.31-3.55l-2.27-3.45L704.02,761.93z
			 M726.43,792.31c1.52,1.9,3.1,3.87,4.77,5.88l-3.05,2.6c-1.67-2.03-3.27-4.01-4.79-5.92L726.43,792.31z M741.06,809.57
			c3.76,4.1,7.44,7.82,11.27,11.39c3.25,3.29,6.61,6.56,10.13,9.84l-2.69,2.99c-3.57-3.32-6.97-6.63-10.19-9.9
			c-3.83-3.58-7.59-7.37-11.43-11.54L741.06,809.57z M770.86,838.37c5.57,4.88,11.44,9.7,17.42,14.35l-2.41,3.23
			c-6.04-4.7-11.98-9.57-17.61-14.5L770.86,838.37z M800.35,861.7c2.02,1.45,4.07,2.89,6.14,4.33l-2.22,3.35
			c-2.11-1.44-4.17-2.89-6.23-4.36L800.35,861.7z M819.03,874.31c8.51,5.41,17.25,10.5,25.94,15.12l-1.84,3.59
			c-8.78-4.67-17.6-9.8-26.21-15.26L819.03,874.31z M854.97,894.56c6.73,3.32,13.6,6.45,20.46,9.31l-1.51,3.75
			c-6.93-2.89-13.89-6.06-20.67-9.42L854.97,894.56z M889.37,909.32c2.08,0.75,4.18,1.49,6.28,2.2l0.73,0.21l-1.11,3.9l-0.82-0.24
			c-2.21-0.74-4.31-1.5-6.42-2.26L889.37,909.32z M910.77,916.23c10.16,3.24,19.35,6.05,28.78,7.6l-0.65,4
			c-9.68-1.59-19.01-4.44-29.33-7.73L910.77,916.23z M950.65,926.1l11.72,2.41l10.34,1.12l-0.43,4.03l-12.9-1.64l-9.51-1.96
			L950.65,926.1z M987.64,931.35c2.47,0.3,4.94,0.52,7.39,0.71l-0.28,4.04c-2.52-0.18-5.04-0.41-7.57-0.72L987.64,931.35z
			 M1009.92,932.62c2.61,0.03,5.19,0.04,7.76,0.05c2.8,0.01,5.57,0.03,8.31,0.06l9.86,0.09c1.23-0.07,2.56-0.17,3.89-0.3l0.35,4.04
			c-1.37,0.12-2.76,0.23-4.16,0.31l-9.99-0.08c-2.74-0.04-5.5-0.05-8.28-0.07c-2.58,0-5.18-0.01-7.78-0.05L1009.92,932.62z
			 M1050.96,931.48l12.35-1.11c3.19-0.15,6.43-0.48,9.95-1l0.58,4c-3.67,0.55-7.03,0.89-10.27,1.04l-12.26,1.11L1050.96,931.48z
			 M1087.95,926.62c2.26-0.44,4.48-0.87,6.62-1.24l0.8-0.14l0.7,3.99l-0.8,0.14c-2.16,0.36-4.32,0.78-6.55,1.23L1087.95,926.62z
			 M1110.01,922.3c3.22-0.74,5.88-1.5,8.14-2.29l20.58-6.17l1.12,3.89l-20.49,6.14c-2.31,0.82-5.1,1.61-8.47,2.39L1110.01,922.3z"/>
		<polygon id="path_x5F_3" fill="#B3B3B3" stroke="#B3B3B3" stroke-width="0.01" stroke-miterlimit="10" points="691.28,742.45 
			700.04,755.83 696.74,758.07 687.97,744.7 		"/>
	</g>
	<g id="Main_x5F_path_x5F_3">
		
			<radialGradient id="path_x5F_5_6_" cx="1171.6986" cy="549.4258" r="264.5645" gradientTransform="matrix(-0.8979 0.5455 -0.5355 -0.9146 2112.6963 510.585)" gradientUnits="userSpaceOnUse">
			<stop  offset="0" style="stop-color:#FFDE94"/>
			<stop  offset="0.1612" style="stop-color:#FFCC77"/>
			<stop  offset="0.4129" style="stop-color:#FFB351"/>
			<stop  offset="0.6449" style="stop-color:#FFA235"/>
			<stop  offset="0.848" style="stop-color:#FF9724"/>
			<stop  offset="1" style="stop-color:#FF931E"/>
		</radialGradient>
		<path id="path_x5F_5_5_" fill="url(#path_x5F_5_6_)" d="M610.29,452.26c7.25-33.4,17.03-60.73,25.33-80.3
			c16.42-35.89,34.75-67.34,51.65-88.64c2.79-3.57,5.34-6.91,7.67-9.94c3.96-5.15,7.24-9.42,9.91-12.61l7.02-7.47l4.73,4.62
			l-6.9,7.34c-2.5,2.98-5.72,7.18-9.6,12.23c-2.34,3.05-4.9,6.4-7.72,10.01c-16.59,20.89-34.62,51.86-50.79,87.19
			c-12.67,29.82-28.86,78.2-33.82,138.8c-4.5,54.28,1.76,110.49,18.12,162.55c16.06,51.96,42.64,101.67,76.85,143.78
			c31.61,38.91,68.31,71.24,106.1,93.53c6.71,4.76,13.61,8.29,20.29,11.68l5.68,2.93c3.02,1.48,6.02,3.07,8.97,4.64
			c5.16,2.73,10.03,5.31,14.9,7.26l22.09,8.69c2.24,0.81,4.46,1.72,6.61,2.6c4.16,1.69,8.09,3.3,11.82,4.13l36.98,10.34l-1.74,6.45
			l-36.8-10.31c-4.09-0.88-8.27-2.59-12.69-4.41c-2.09-0.84-4.24-1.72-6.47-2.53l-22.16-8.73c-5.21-2.08-10.24-4.74-15.56-7.55
			c-2.89-1.53-5.83-3.09-8.86-4.59l-5.69-2.92c-6.89-3.51-14.01-7.14-20.87-12.05c-38.24-22.5-75.54-55.37-107.64-94.88
			c-34.75-42.77-61.74-93.27-78.05-146.04c-16.61-52.87-22.98-109.98-18.4-165.14C603.04,491.05,606.28,470.73,610.29,452.26z"/>
		
			<radialGradient id="path_x5F_5_7_" cx="1278.261" cy="590.2527" r="136.1475" gradientTransform="matrix(-0.8979 0.5455 -0.5355 -0.9146 2112.6963 510.585)" gradientUnits="userSpaceOnUse">
			<stop  offset="0" style="stop-color:#FFDE94"/>
			<stop  offset="0.1612" style="stop-color:#FFCC77"/>
			<stop  offset="0.4129" style="stop-color:#FFB351"/>
			<stop  offset="0.6449" style="stop-color:#FFA235"/>
			<stop  offset="0.848" style="stop-color:#FF9724"/>
			<stop  offset="1" style="stop-color:#FF931E"/>
		</radialGradient>
		<path id="path_x5F_5_4_" fill="url(#path_x5F_5_7_)" d="M585.79,478.73l25.86,4.45l-0.74,4.46c-0.11,0.77-0.33,2.1-0.59,3.61
			c-0.4,2.23-0.88,4.96-1.2,8.16c-0.16,3.21-0.46,7.62-0.81,12.55c-0.65,9.37-1.39,19.98-1.8,32.1c-0.15,43,7.06,91.2,19.78,131.84
			l6.92,20.69c1.51,4.61,2.95,8.95,4.81,12.71l14.75,33.05l21.27,37.28l11.05,15.92c8.04,12.45,16.15,21.93,22.65,29.56l12.59,14.86
			c1.22,1.5,1.93,2.24,2.13,2.46l-18.09,19.33c0,0-1.56-1.45-4.07-4.53l-12.34-14.56c-6.66-7.81-15.8-18.48-24.55-32.07
			l-14.19-20.85l-20.1-35.78l-14.78-33.14c-2.47-4.99-4.26-10.44-6-15.71l-6.97-20.85c-13.61-43.45-21.27-94.65-21.1-140.71
			c0.42-13.01,1.22-24.37,1.85-33.48c0.33-4.76,0.62-9.02,0.82-12.74c0.46-4.64,1.04-8.04,1.53-10.8c0.19-1.13,0.38-2.12,0.49-2.98
			L585.79,478.73z"/>
		
			<radialGradient id="path_x5F_5_8_" cx="764.0389" cy="659.9671" r="257.1508" gradientTransform="matrix(-0.8979 0.5455 -0.5355 -0.9146 2112.6963 510.585)" gradientUnits="userSpaceOnUse">
			<stop  offset="0" style="stop-color:#FFDE94"/>
			<stop  offset="0.1612" style="stop-color:#FFCC77"/>
			<stop  offset="0.4129" style="stop-color:#FFB351"/>
			<stop  offset="0.6449" style="stop-color:#FFA235"/>
			<stop  offset="0.848" style="stop-color:#FF9724"/>
			<stop  offset="1" style="stop-color:#FF931E"/>
		</radialGradient>
		<path id="path_x5F_5_3_" fill="url(#path_x5F_5_8_)" d="M711.87,253.31l20.42-21.76l30.63-26.89c2.22-1.72,4.38-3.26,6.57-4.83
			l25.65-18.48c5.27-3.39,10.72-6.54,16.33-9.77c3.19-1.85,6.44-3.72,9.72-5.68c29.49-16.42,76.71-38.02,134.66-48
			c53.18-9.42,109.63-8.03,163.25,4.04c53.61,12.07,105.38,35.05,149.73,66.43c48.41,33.92,82.28,73.78,102.17,101.25
			c2.21,3.26,4.38,6.36,6.52,9.4c3.75,5.34,7.4,10.53,10.68,15.71l15.7,27.93c1.35,2.36,2.66,4.69,3.87,6.99l17.39,39.67l8.88,26.58
			l-6.2,2.16l-9.53-28.5l-16.41-36.94c-1.08-2.05-2.36-4.31-3.67-6.62l-15.63-27.8c-3.14-4.94-6.73-10.04-10.41-15.31
			c-2.15-3.08-4.34-6.19-6.52-9.38c-19.54-26.99-52.9-66.25-100.57-99.65c-43.66-30.89-94.63-53.5-147.41-65.4
			c-52.79-11.87-108.36-13.25-160.73-3.98c-57.07,9.82-103.57,31.1-132.54,47.23c-3.21,1.92-6.48,3.8-9.72,5.66
			c-5.52,3.19-10.88,6.28-15.92,9.51l-25.53,18.4c-2.14,1.53-4.24,3.03-6.23,4.55l-31.38,27.81l-19.05,20.28L711.87,253.31z"/>
		
			<radialGradient id="path_x5F_5_9_" cx="650.6882" cy="777.0743" r="137.097" gradientTransform="matrix(-0.8979 0.5455 -0.5355 -0.9146 2112.6963 510.585)" gradientUnits="userSpaceOnUse">
			<stop  offset="0" style="stop-color:#FFDE94"/>
			<stop  offset="0.1612" style="stop-color:#FFCC77"/>
			<stop  offset="0.4129" style="stop-color:#FFB351"/>
			<stop  offset="0.6449" style="stop-color:#FFA235"/>
			<stop  offset="0.848" style="stop-color:#FF9724"/>
			<stop  offset="1" style="stop-color:#FF931E"/>
		</radialGradient>
		<path id="path_x5F_5_2_" fill="url(#path_x5F_5_9_)" d="M921.37,105.35l19.31-4.63c2.2-0.54,4.53-1.13,7.03-1.5l35.75-4.89
			c27.55-2.44,81.44-4.48,139.76,8.45c58.31,13.34,106.33,38.32,129.77,52.05l30.75,19.97c2.31,1.54,4.2,3.08,5.96,4.53l15.57,12.47
			l-16.21,21.02l-13.37-10.71c-0.63-0.49-1.51-1.2-2.42-1.95c-1.17-0.94-2.41-1.98-3.83-2.94l-30.05-19.54
			c-37.17-21.74-81.77-39.63-121.84-48.8c-40.05-8.87-87.91-11.79-131.22-7.98l-34.94,4.79c-1.45,0.23-2.99,0.64-4.45,1
			c-1.14,0.29-2.25,0.56-3.32,0.8l-16.25,3.91L921.37,105.35z"/>
		
			<radialGradient id="path_x5F_5_10_" cx="850.8423" cy="252.15" r="264.361" gradientTransform="matrix(-0.8979 0.5455 -0.5355 -0.9146 2112.6963 510.585)" gradientUnits="userSpaceOnUse">
			<stop  offset="0" style="stop-color:#FFDE94"/>
			<stop  offset="0.1612" style="stop-color:#FFCC77"/>
			<stop  offset="0.4129" style="stop-color:#FFB351"/>
			<stop  offset="0.6449" style="stop-color:#FFA235"/>
			<stop  offset="0.848" style="stop-color:#FF9724"/>
			<stop  offset="1" style="stop-color:#FF931E"/>
		</radialGradient>
		<path id="path_x5F_5_1_" fill="url(#path_x5F_5_10_)" d="M935.87,965.55l37.63,6.46c3.9,0.89,8.13,1.11,12.6,1.37
			c2.32,0.13,4.7,0.26,7.15,0.49l23.55,1.6c5.22,0.32,10.7,0.08,16.51-0.18c3.32-0.15,6.7-0.31,10.15-0.37l6.27-0.21
			c7.47-0.21,15.18-0.45,22.95-1.85c43.79-4.02,90.44-17.58,135.21-39.29c48.45-23.5,93.12-57.16,129.18-97.38
			c36.38-40.2,65.32-88.48,83.7-139.64c20.58-57.08,25.92-107.9,26.77-140.47c-0.04-38.9-3.58-74.72-9.97-100.76
			c-1.07-4.51-2.01-8.65-2.87-12.42c-1.42-6.25-2.6-11.44-3.69-15.38l-3.17-9.44l6.2-2.16l3.22,9.6c1.16,4.22,2.36,9.51,3.82,15.87
			c0.84,3.75,1.79,7.87,2.85,12.34c6.51,26.53,10.11,62.92,10.16,102.42c-0.87,33.17-6.29,84.77-27.17,142.69
			c-18.67,51.98-48.07,101.03-85.03,141.86c-36.61,40.84-81.98,75.04-131.19,98.91c-45.46,22.05-92.89,35.83-137.15,39.86
			c-7.98,1.46-15.94,1.7-23.63,1.93l-6.27,0.2c-3.47,0.06-6.78,0.21-10.03,0.36c-5.99,0.27-11.65,0.52-17.22,0.17l-23.64-1.61
			c-2.44-0.22-4.75-0.34-7-0.48c-4.76-0.25-9.25-0.49-13.51-1.49l-37.46-6.41L935.87,965.55z"/>
		
			<radialGradient id="path_x5F_5_11_" cx="802.3336" cy="141.8888" r="137.7911" gradientTransform="matrix(-0.8979 0.5455 -0.5355 -0.9146 2112.6963 510.585)" gradientUnits="userSpaceOnUse">
			<stop  offset="0" style="stop-color:#FFDE94"/>
			<stop  offset="0.1612" style="stop-color:#FFCC77"/>
			<stop  offset="0.4129" style="stop-color:#FFB351"/>
			<stop  offset="0.6449" style="stop-color:#FFA235"/>
			<stop  offset="0.848" style="stop-color:#FF9724"/>
			<stop  offset="1" style="stop-color:#FF931E"/>
		</radialGradient>
		<path id="path_x5F_5" fill="url(#path_x5F_5_11_)" d="M1172.51,953.91l8.05-8.28c0.22-0.08,1.21-0.46,2.81-1.23l17.75-8.16
			c9.07-4.12,20.36-9.23,32.42-16.85l25-15.38l26.72-19.24l26.66-23.29c3.6-2.93,6.68-6.22,9.94-9.72l15.08-16.06
			c28.18-31.19,54.66-71.81,72.48-111.24c4.5-10.83,8.23-20.79,11.52-29.59c1.71-4.58,3.25-8.69,4.65-12.25
			c0.81-2.43,1.5-5.12,2.06-7.32c0.38-1.47,0.73-2.77,1.05-3.87l1.07-4.01l25.3,7.07l-1.17,4.36c-0.34,1.18-0.6,2.16-0.89,3.27
			c-0.7,2.72-1.58,6.05-2.85,9.83c-1.58,4.05-3.06,8.03-4.71,12.44c-3.21,8.56-7.19,19.22-12.05,30.88
			c-19.07,42.22-47.2,85.36-77.35,118.71l-15.18,16.18c-3.74,4.01-7.6,8.15-12.27,11.93l-27.7,24.13L1259.54,935l-12.56,7.32
			c-13.19,8.35-25.91,14.12-35.17,18.31l-17.4,8.01c-2.74,1.32-4.58,1.99-4.99,2.14l-4.5-12.54L1172.51,953.91z"/>
	</g>
	<g id="Main_x5F_path_x5F_2">
		
			<linearGradient id="path_x5F_2_4_" gradientUnits="userSpaceOnUse" x1="3516.4966" y1="-782.7336" x2="-405.6748" y2="1808.7002" gradientTransform="matrix(-0.8589 0.5122 -0.5122 -0.8589 2062.1008 512.9885)">
			<stop  offset="0" style="stop-color:#FFFFFF"/>
			<stop  offset="0.1396" style="stop-color:#FAFAFA"/>
			<stop  offset="0.3023" style="stop-color:#ECECEC"/>
			<stop  offset="0.4765" style="stop-color:#D5D5D6"/>
			<stop  offset="0.6589" style="stop-color:#B4B5B6"/>
			<stop  offset="0.8457" style="stop-color:#8A8C8D"/>
			<stop  offset="1" style="stop-color:#626466"/>
		</linearGradient>
		<path id="path_x5F_2_3_" fill="url(#path_x5F_2_4_)" d="M771.93,141.23l2.43,3.7l-14.54,9.87l-2.42-3.69L771.93,141.23z
			 M742.85,161.02l2.46,3.68l-0.93,0.63l-12.47,10.49l-2.78-3.43L742.85,161.02z M715.63,183.72l2.77,3.44l-5.91,4.95
			c-2.18,1.76-4.36,3.78-7.14,6.59l-3.07-3.15c2.88-2.94,5.18-5.06,7.47-6.9L715.63,183.72z M689.99,208.23l3.1,3.14l-12.29,12.68
			l-3.1-3.14L689.99,208.23z M666.08,234.47l3.38,2.81l-10.95,13.72l-3.42-2.77L666.08,234.47z M644.05,262.34l3.58,2.55
			c-1.32,1.93-2.61,3.93-3.87,5.93c-1.01,1.55-1.99,3.12-3.03,4.66l-2.73,4.22l-3.65-2.46l2.74-4.23c1.03-1.54,2.02-3.09,2.99-4.61
			C641.39,266.34,642.69,264.31,644.05,262.34z M624.7,292.09l3.64,2.46l-4.95,7.64c-1.32,2.36-2.69,4.87-4.06,7.4l-3.83-2.14
			c1.37-2.55,2.76-5.08,4.16-7.6L624.7,292.09z M607.31,323.27l3.9,2.02c-2.61,5.24-5.15,10.56-7.62,15.95l-3.95-1.88
			C602.13,333.92,604.69,328.55,607.31,323.27z M592.46,355.7l4.04,1.74c-2.28,5.42-4.48,10.9-6.57,16.42l-4.08-1.61
			C587.97,366.68,590.19,361.16,592.46,355.7z M579.78,389.04l4.12,1.48c-1.91,5.57-3.73,11.18-5.47,16.83l-4.17-1.32
			C576.01,400.32,577.85,394.66,579.78,389.04z M569.3,423.29l4.25,1.08l-0.74,2.79c-1.12,4.77-2.18,9.6-3.17,14.44l-4.27-0.9
			c0.99-4.9,2.06-9.77,3.21-14.64L569.3,423.29z M562.08,458.27l4.32,0.75c-0.98,5.84-1.86,11.69-2.66,17.53l-4.33-0.59
			C560.21,470.06,561.1,464.16,562.08,458.27z M557.33,493.71l4.36,0.45c-0.61,5.9-1.09,11.79-1.5,17.67l-4.36-0.31
			C556.23,505.6,556.73,499.66,557.33,493.71z M554.87,529.38l4.38,0.16c-0.22,5.95-0.33,11.86-0.35,17.73l-4.38-0.01
			C554.54,541.34,554.67,535.37,554.87,529.38z M554.96,565.25l4.35-0.39l1.54,17.73l-4.34,0.4L554.96,565.25z M558.04,600.73
			l4.36-0.37c0.24,2.83,0.49,5.63,0.89,8.4l1.67,8.97l-4.3,0.83l-1.69-9.05C558.54,606.56,558.28,603.65,558.04,600.73z
			 M563.9,636.06l4.3-0.83l3.26,17.26l-4.18,1.28l-0.62-2.92L563.9,636.06z M572.17,670.85l4.2-1.25l2.39,8.34
			c0.91,2.9,1.72,5.86,2.53,8.77l-4.21,1.21c-0.79-2.86-1.58-5.76-2.5-8.67L572.17,670.85z M582.73,705.02l4.04-1.66l6.58,16.49
			l-4.05,1.68L582.73,705.02z M595.91,738.02l4.03-1.68l1.76,4.39l5.91,11.36l-3.87,2.07l-5.98-11.56L595.91,738.02z M611.92,769.93
			l3.86-2.08l8.18,15.74l-3.85,2.08L611.92,769.93z"/>
		
			<linearGradient id="path_x5F_2_5_" gradientUnits="userSpaceOnUse" x1="3320.1196" y1="-996.253" x2="-544.4745" y2="1557.1387" gradientTransform="matrix(-0.8589 0.5122 -0.5122 -0.8589 2062.1008 512.9885)">
			<stop  offset="0" style="stop-color:#FFFFFF"/>
			<stop  offset="0.1396" style="stop-color:#FAFAFA"/>
			<stop  offset="0.3023" style="stop-color:#ECECEC"/>
			<stop  offset="0.4765" style="stop-color:#D5D5D6"/>
			<stop  offset="0.6589" style="stop-color:#B4B5B6"/>
			<stop  offset="0.8457" style="stop-color:#8A8C8D"/>
			<stop  offset="1" style="stop-color:#626466"/>
		</linearGradient>
		<path id="path_x5F_2_2_" fill="url(#path_x5F_2_5_)" d="M781.92,134.46l15.45-8.34l2.04,3.93l-15.45,8.34L781.92,134.46z
			 M812.83,117.78l11.36-6.1l4.51-1.88l1.64,4.12l-4.31,1.79l-11.15,6L812.83,117.78z M844.89,103.09l16.2-6.72l1.65,4.13
			l-16.19,6.7L844.89,103.09z M877.89,90.62c2.8-0.8,5.64-1.61,8.5-2.54l8.25-2.46l1.22,4.28l-8.19,2.44
			c-2.85,0.94-5.75,1.75-8.61,2.57L877.89,90.62z M911.4,80.62l2.87-0.62l14.51-2.8l0.82,4.37l-16.93,3.32L911.4,80.62z
			 M945.97,73.89l8.88-1.71c2.89-0.45,5.75-0.71,8.62-0.95l0.37,4.44c-2.78,0.24-5.53,0.49-8.25,0.91l-8.8,1.7L945.97,73.89z
			 M980.89,69.66l17.41-1.57l0.39,4.43l-17.42,1.58L980.89,69.66z M1015.97,67.65c5.8,0.03,11.66,0.15,17.55,0.36l-0.15,4.44
			c-5.84-0.21-11.65-0.32-17.41-0.36L1015.97,67.65z M1051.06,68.97c5.81,0.42,11.65,0.92,17.49,1.54l-0.45,4.43
			c-5.79-0.61-11.58-1.12-17.34-1.54L1051.06,68.97z M1085.97,72.64c5.79,0.79,11.58,1.7,17.36,2.71l-0.75,4.39
			c-5.73-1-11.46-1.9-17.2-2.7L1085.97,72.64z M1120.58,78.7c4.79,1.01,9.59,2.1,14.37,3.27l2.72,0.74l-1.05,4.32l-2.74-0.75
			c-4.68-1.15-9.44-2.22-14.18-3.22L1120.58,78.7z M1154.61,87.75c5.6,1.78,11.17,3.65,16.68,5.62l-1.45,4.2
			c-5.47-1.95-10.98-3.81-16.53-5.57L1154.61,87.75z M1187.77,99.55c5.48,2.16,10.89,4.42,16.27,6.74l-1.72,4.1
			c-5.32-2.31-10.69-4.54-16.14-6.69L1187.77,99.55z M1220.07,113.59c5.33,2.54,10.61,5.15,15.78,7.82l-1.98,3.98
			c-5.14-2.66-10.36-5.25-15.65-7.77L1220.07,113.59z M1251.39,129.77c2.5,1.4,4.99,2.8,7.45,4.25l7.62,5.12l-2.4,3.69l-7.5-5.04
			c-2.33-1.34-4.79-2.74-7.28-4.13L1251.39,129.77z M1281.06,148.95l4.14,2.79c1.52,1.05,3.03,2.05,4.53,3.05
			c2,1.32,4,2.65,5.94,4.03l-2.52,3.65c-1.88-1.36-3.84-2.66-5.81-3.95c-1.52-1.03-3.05-2.04-4.56-3.09l-4.15-2.78L1281.06,148.95z
			 M1309.51,170.08l-1.44,1.69l1.45-1.69l13.51,11.19l-2.76,3.46l-13.47-11.15L1309.51,170.08z M1336.36,193.12l12.43,12.53
			l-3.07,3.16l-12.45-12.52L1336.36,193.12z M1361.25,218.16c2.89,2.94,4.98,5.28,6.77,7.62l4.84,5.97l-3.37,2.83l-4.87-6.02
			c-1.72-2.22-3.7-4.44-6.47-7.26L1361.25,218.16z M1383.99,245.49l11.15,13.98l-3.62,2.5l-0.61-0.94l-10.31-12.71L1383.99,245.49z
			 M1404.88,274.29l9.7,14.82l-3.63,2.47l-9.71-14.82L1404.88,274.29z"/>
		
			<linearGradient id="path_x5F_2_6_" gradientUnits="userSpaceOnUse" x1="3123.5999" y1="-1386.3674" x2="-798.5282" y2="1205.0376" gradientTransform="matrix(-0.8589 0.5122 -0.5122 -0.8589 2062.1008 512.9885)">
			<stop  offset="0" style="stop-color:#FFFFFF"/>
			<stop  offset="0.1396" style="stop-color:#FAFAFA"/>
			<stop  offset="0.3023" style="stop-color:#ECECEC"/>
			<stop  offset="0.4765" style="stop-color:#D5D5D6"/>
			<stop  offset="0.6589" style="stop-color:#B4B5B6"/>
			<stop  offset="0.8457" style="stop-color:#8A8C8D"/>
			<stop  offset="1" style="stop-color:#626466"/>
		</linearGradient>
		<path id="path_x5F_2_1_" fill="url(#path_x5F_2_6_)" d="M1417.36,301.36l3.85-2.08l8.2,15.74l-3.86,2.09L1417.36,301.36z
			 M1433.74,332.85l3.85-2.08l6,11.57l1.84,4.58l-4.05,1.7l-1.76-4.39L1433.74,332.85z M1447.97,365.1l4.04-1.67l6.59,16.5
			l-4.05,1.67L1447.97,365.1z M1460.04,398.24l4.2-1.2c0.79,2.86,1.59,5.76,2.5,8.67l2.43,8.38l-4.21,1.26l-2.4-8.34
			C1461.66,404.1,1460.84,401.15,1460.04,398.24z M1469.87,432.46l4.19-1.29l0.61,2.93l2.76,14.78l-4.31,0.83L1469.87,432.46z
			 M1476.37,467.22l4.31-0.83l1.68,9.06c0.44,2.94,0.7,5.85,0.93,8.77l-4.36,0.37c-0.23-2.83-0.48-5.64-0.89-8.4L1476.37,467.22z
			 M1480.47,502.35l4.36-0.4l1.54,17.74l-4.35,0.39L1480.47,502.35z M1482.43,537.68l4.37,0.02c-0.02,5.92-0.13,11.88-0.35,17.87
			l-4.36-0.16C1482.29,549.46,1482.41,543.54,1482.43,537.68z M1481.15,573.12l4.35,0.32c-0.39,5.92-0.91,11.86-1.49,17.81
			l-4.36-0.45C1480.25,584.89,1480.74,578.99,1481.15,573.12z M1477.57,608.41l4.33,0.6c-0.78,5.89-1.68,11.79-2.67,17.68
			l-4.31-0.75C1475.91,620.09,1476.8,614.24,1477.57,608.41z M1471.69,643.35l4.28,0.9c-1,4.89-2.07,9.76-3.21,14.63l-0.73,2.77
			l-4.25-1.07l0.74-2.8C1469.64,653.03,1470.69,648.2,1471.69,643.35z M1462.89,677.6l4.18,1.32c-1.75,5.7-3.58,11.37-5.51,16.99
			l-4.13-1.48C1459.34,688.86,1461.18,683.24,1462.89,677.6z M1451.42,711.07l4.06,1.62c-2.11,5.57-4.34,11.09-6.62,16.56
			l-4.03-1.75C1447.11,722.09,1449.3,716.61,1451.42,711.07z M1437.73,743.72l3.96,1.88c-2.49,5.44-5.04,10.8-7.68,16.09l-3.91-2.02
			C1432.73,754.42,1435.28,749.1,1437.73,743.72z M1421.99,775.35l3.82,2.15c-1.36,2.55-2.76,5.08-4.15,7.6l-5.03,7.76l-3.64-2.45
			l4.94-7.63C1419.25,780.4,1420.63,777.88,1421.99,775.35z M1403.34,805.26l3.65,2.47l-2.75,4.23c-1.04,1.55-2.01,3.08-3,4.62
			c-1.31,2.05-2.6,4.07-3.96,6.04l-3.58-2.55c1.32-1.93,2.6-3.92,3.88-5.92c0.99-1.55,1.99-3.12,3.03-4.66L1403.34,805.26z
			 M1382.81,833.94l3.42,2.78l-10.97,13.76l-3.39-2.81L1382.81,833.94z M1360.52,860.92l3.11,3.13l-12.31,12.67l-3.1-3.13
			L1360.52,860.92z M1335.97,886.26l3.08,3.15c-2.88,2.93-5.18,5.06-7.48,6.91l-5.87,4.92l-2.78-3.44l5.91-4.96
			C1331.01,891.09,1333.21,889.06,1335.97,886.26z M1309.43,909.12l2.77,3.44l-13.73,11.36l-2.45-3.68l0.91-0.62L1309.43,909.12z
			 M1281.52,930.14l2.42,3.71l-14.55,9.88l-2.42-3.7L1281.52,930.14z"/>
		
			<linearGradient id="path_x5F_2_7_" gradientUnits="userSpaceOnUse" x1="3249.2424" y1="-1126.1157" x2="-615.3918" y2="1427.3025" gradientTransform="matrix(-0.8589 0.5122 -0.5122 -0.8589 2062.1008 512.9885)">
			<stop  offset="0" style="stop-color:#FFFFFF"/>
			<stop  offset="0.1396" style="stop-color:#FAFAFA"/>
			<stop  offset="0.3023" style="stop-color:#ECECEC"/>
			<stop  offset="0.4765" style="stop-color:#D5D5D6"/>
			<stop  offset="0.6589" style="stop-color:#B4B5B6"/>
			<stop  offset="0.8457" style="stop-color:#8A8C8D"/>
			<stop  offset="1" style="stop-color:#626466"/>
		</linearGradient>
		<path id="path_x5F_2" fill="url(#path_x5F_2_7_)" d="M630.39,793.37l9.7,14.82l-3.63,2.47l-9.71-14.82L630.39,793.37z
			 M649.81,822.98l0.61,0.93l10.31,12.71l-3.37,2.83l-11.17-13.97L649.81,822.98z M671.85,850.36l4.86,6.02
			c1.73,2.22,3.71,4.45,6.46,7.27l-3.08,3.14c-2.89-2.94-4.97-5.29-6.79-7.62l-4.83-5.97L671.85,850.36z M695.62,876.14l12.45,12.53
			l-3.09,3.17l-12.43-12.53L695.62,876.14z M721.06,900.22l13.48,11.16l-2.71,3.49l1.43-1.68l-1.43,1.67l-13.52-11.18L721.06,900.22
			z M748.16,922.47c1.91,1.35,3.87,2.65,5.81,3.95c1.52,1.02,3.06,2.03,4.58,3.09l4.13,2.78l-2.41,3.71l-4.15-2.8
			c-1.52-1.06-3.03-2.05-4.54-3.05c-1.99-1.33-3.99-2.65-5.93-4.04L748.16,922.47z M777.28,942.1l7.5,5.04
			c2.32,1.34,4.78,2.75,7.26,4.14l-2.1,3.89c-2.51-1.39-4.98-2.81-7.46-4.24l-7.62-5.12L777.28,942.1z M807.45,959.56
			c5.14,2.66,10.37,5.24,15.66,7.76l-1.84,4.03c-5.35-2.53-10.61-5.15-15.79-7.82L807.45,959.56z M839.03,974.55
			c5.31,2.32,10.68,4.55,16.12,6.7l-1.58,4.15c-5.47-2.17-10.91-4.42-16.26-6.75L839.03,974.55z M871.49,987.38
			c5.46,1.96,10.97,3.81,16.52,5.57l-1.29,4.25c-5.61-1.77-11.16-3.65-16.67-5.62L871.49,987.38z M904.71,997.93l2.74,0.75
			c4.69,1.13,9.42,2.21,14.18,3.22l-0.89,4.36c-4.8-1.01-9.57-2.11-14.36-3.27l-2.73-0.73L904.71,997.93z M938.74,1005.21
			c5.74,1,11.47,1.89,17.2,2.7l-0.59,4.4c-5.77-0.8-11.57-1.71-17.36-2.71L938.74,1005.21z M973.24,1010.01
			c5.79,0.61,11.58,1.12,17.34,1.54l-0.3,4.43c-5.81-0.42-11.65-0.92-17.49-1.53L973.24,1010.01z M1007.96,1012.49
			c5.86,0.21,11.65,0.34,17.41,0.36l-0.01,4.45c-5.82-0.03-11.67-0.14-17.55-0.37L1007.96,1012.49z M1042.64,1012.43l17.42-1.57
			l0.39,4.44l-17.42,1.57L1042.64,1012.43z M1077.5,1009.28c2.77-0.24,5.53-0.49,8.24-0.9l8.8-1.7l0.82,4.37l-8.88,1.7
			c-2.9,0.46-5.75,0.72-8.63,0.96L1077.5,1009.28z M1111.72,1003.38l16.95-3.32l1.26,4.27l-2.87,0.63l-14.52,2.8L1111.72,1003.38z
			 M1145.47,995.05l8.19-2.44c2.85-0.93,5.76-1.76,8.6-2.57l1.2,4.28c-2.81,0.81-5.66,1.61-8.51,2.55l-8.24,2.45L1145.47,995.05z
			 M1178.6,984.45l16.2-6.71l1.64,4.12l-16.19,6.71L1178.6,984.45z M1210.98,971.04l4.32-1.8l11.16-6l2.04,3.94l-11.36,6.1
			l-4.49,1.88L1210.98,971.04z M1241.9,954.91l15.46-8.35l2.04,3.93l-15.45,8.34L1241.9,954.91z"/>
	</g>
	<g id="Main_x5F_path_x5F_1_x5F_First">
		
			<radialGradient id="path_x5F_1_4_" cx="1327.9449" cy="673.4752" r="112.1503" gradientTransform="matrix(-0.8979 0.5455 -0.5355 -0.9146 2112.6963 510.585)" gradientUnits="userSpaceOnUse">
			<stop  offset="0" style="stop-color:#FFFFFF"/>
			<stop  offset="0.0851" style="stop-color:#FFEDD8"/>
			<stop  offset="0.2082" style="stop-color:#FFD5A7"/>
			<stop  offset="0.3345" style="stop-color:#FFC17D"/>
			<stop  offset="0.462" style="stop-color:#FFB05B"/>
			<stop  offset="0.591" style="stop-color:#FFA340"/>
			<stop  offset="0.7222" style="stop-color:#FF9A2D"/>
			<stop  offset="0.8568" style="stop-color:#FF9522"/>
			<stop  offset="1" style="stop-color:#FF931E"/>
		</radialGradient>
		<path id="path_x5F_1_2_" fill="url(#path_x5F_1_4_)" d="M531.86,453.69c0.75-0.46,1.57-0.64,2.35-0.5
			c0.84,0.21,1.54,0.72,2.08,1.43c0.44,0.76,0.65,1.68,0.49,2.6l-0.76,3.58c-0.11,0.69-0.25,1.29-0.37,1.99
			c-0.26,1.09-0.45,2.34-0.74,3.77c-0.24,1.69-2.02,2.98-3.8,2.72c-1.71-0.31-2.89-1.97-2.63-3.79c0.28-1.62,0.56-3.04,0.79-4.22
			c0.15-0.61,0.22-1.17,0.3-1.73l0.8-3.7C530.54,454.91,531.12,454.14,531.86,453.69z M524.8,532.75L524.8,532.75
			c0.53-0.32,1.1-0.57,1.74-0.54c0.82,0.03,1.62,0.37,2.31,0.98c0.59,0.68,0.96,1.5,0.91,2.45c0.01,1.76-1.52,3.31-3.29,3.25
			c-1.8,0.05-3.2-1.48-3.26-3.31c-0.04-0.08,0.04-0.12,0.04-0.12C523.27,534.3,523.9,533.3,524.8,532.75z M530.37,617.72
			c0.3-0.19,0.71-0.33,1.07-0.44c0.85-0.1,1.77,0.06,2.47,0.57c0.71,0.5,1.23,1.23,1.41,2.05c0.15,0.94,0.38,1.85,0.6,2.95
			l5.75,30.84c0.69,4.66,2,9.15,3.36,13.93l0.2,0.5c1.35,4.57,2.58,9.11,3.85,13.52l0.3,0.86c0.98,3.44,1.99,6.88,2.93,10.25
			c1.68,5.82,3.22,11.41,5.01,16.54c2.31,5.66,4.5,11.17,6.54,16.36l3.43,8.49c2.66,6.79,5.2,13.02,7.39,18.53
			c1.67,3.54,3.4,6.85,4.95,9.65c0.87,1.65,1.68,3.22,2.46,4.73c4.15,8.15,6.57,12.8,6.57,12.8c0.83,1.58,0.3,3.45-1.21,4.36
			l-0.15,0.09c-1.62,0.89-3.52,0.27-4.37-1.39c0,0-2.55-4.87-6.66-12.75c-0.72-1.43-1.5-2.92-2.33-4.49
			c-1.62-2.96-3.44-6.42-5.3-10.27l-0.01-0.2c-1.67-4.07-3.39-8.41-5.23-13.1l-12.21-30.43c-1.98-5.64-3.55-11.43-5.29-17.53
			c-0.93-3.16-1.83-6.45-2.86-9.77c-0.7-2.58-1.46-5.13-2.17-7.7l-2.09-7.24c-1.41-4.64-2.81-9.49-3.57-14.62
			c-1.37-7.37-2.76-14.81-4.12-22.18l-1.61-8.46c-0.15-0.95-0.41-1.93-0.61-2.95C528.56,619.85,529.17,618.45,530.37,617.72z"/>
		
			<radialGradient id="path_x5F_1_5_" cx="843.5153" cy="766.3458" r="325.6974" gradientTransform="matrix(-0.8979 0.5455 -0.5355 -0.9146 2112.6963 510.585)" gradientUnits="userSpaceOnUse">
			<stop  offset="0" style="stop-color:#FFFFFF"/>
			<stop  offset="0.0851" style="stop-color:#FFEDD8"/>
			<stop  offset="0.2082" style="stop-color:#FFD5A7"/>
			<stop  offset="0.3345" style="stop-color:#FFC17D"/>
			<stop  offset="0.462" style="stop-color:#FFB05B"/>
			<stop  offset="0.591" style="stop-color:#FFA340"/>
			<stop  offset="0.7222" style="stop-color:#FF9A2D"/>
			<stop  offset="0.8568" style="stop-color:#FF9522"/>
			<stop  offset="1" style="stop-color:#FF931E"/>
		</radialGradient>
		<path id="path_x5F_1_3_" fill="url(#path_x5F_1_5_)" d="M765.8,107.3c38.07-23.13,78.91-40.99,121.51-53.07
			c0.77-0.26,1.64-0.17,2.42,0.29c0.79,0.46,1.37,1.14,1.6,2.04c0.46,1.69-0.57,3.57-2.29,4.09
			c-41.87,11.95-82.27,29.55-119.73,52.3l-0.61,0.37c-8.86,5.38-17.69,11.16-26.34,17.25l-0.48,0.4c-0.86,0.62-1.75,1.17-2.61,1.8
			c-1.6,1.08-3.55,0.71-4.58-0.85c-0.52-0.72-0.7-1.54-0.52-2.48c0.13-0.81,0.65-1.64,1.37-2.18c0.92-0.66,1.98-1.3,2.98-2.02
			l0.15-0.09C747.34,118.92,756.48,112.96,765.8,107.3z M723.28,136.24c1.5-0.91,3.39-0.5,4.38,0.87c1.05,1.44,0.77,3.57-0.72,4.69
			l-0.07,0.04c-1.33,1.02-3.43,0.73-4.48-0.7c-1.05-1.44-0.73-3.5,0.56-4.59C723.06,136.37,723.21,136.28,723.28,136.24z
			 M671.42,181.74c1.28-0.78,2.96-0.55,3.97,0.5c0.67,0.63,0.97,1.49,1,2.39c-0.03,0.85-0.36,1.67-0.97,2.35
			c-1.29,1.3-3.45,1.26-4.72-0.04c-1.26-1.31-1.18-3.43,0.09-4.72l0.08-0.05C671.06,181.96,671.2,181.87,671.42,181.74z
			 M617.03,246.51c1.12-0.68,2.51-0.59,3.57,0.22c0.71,0.5,1.15,1.27,1.33,2.09c0.11,0.87-0.07,1.81-0.56,2.52
			c-1.57,2.19-3.05,4.34-4.55,6.49c-28.68,40.54-44.33,79.72-55.77,108.34l-2.16,5.36l-0.07,0.04c-3.15,9.57-5.63,18.03-7.65,24.85
			c-0.68,2.49-1.37,4.77-2.01,6.83c0,0,0,0-0.03,0.12c-0.52,1.56-2.44,2.62-4.08,2.07c-1.73-0.51-2.66-2.43-2.15-4.2
			c0.64-2.04,1.26-4.28,1.98-6.69c2.04-6.95,4.55-15.53,7.83-25.4l0.03-0.12c0.81-1.94,1.52-3.83,2.33-5.77
			c11.54-28.79,27.34-68.25,56.38-109.22c1.52-2.27,3.02-4.43,4.57-6.61C616.32,247.05,616.65,246.74,617.03,246.51z M968.72,38.68
			c0.38-0.23,0.91-0.35,1.38-0.42c0.85-0.1,1.75,0.18,2.37,0.74c0.67,0.63,1.12,1.39,1.22,2.27c0.13,1.79-1.23,3.45-2.94,3.66
			c-0.85,0.1-1.74-0.19-2.37-0.73c-0.74-0.59-1.12-1.4-1.22-2.27C967.02,40.65,967.59,39.36,968.72,38.68z M1037.18,36.49
			c0.6-0.36,1.21-0.53,1.84-0.49c1.77,0.06,3.18,1.59,3.16,3.47c-0.12,1.73-1.65,3.28-3.41,3.22c-1.78-0.07-3.23-1.68-3.16-3.47
			C1035.63,38.06,1036.27,37.05,1037.18,36.49z M1052.41,37.3c0.6-0.36,1.21-0.53,1.93-0.54c26.9,1.8,53.55,5.94,79.2,12.03
			c28.4,6.6,56.66,16.08,83.97,28.11c0.8,0.35,1.48,0.97,1.77,1.83c0.3,0.86,0.33,1.77-0.05,2.53c-0.67,1.64-2.71,2.48-4.33,1.8
			c-26.91-11.87-54.76-21.18-82.85-27.77c-25.21-6.04-51.58-10.04-78.18-11.82c-0.86-0.1-1.68-0.44-2.2-1.15
			c-0.6-0.67-0.9-1.53-0.8-2.42C1050.95,38.81,1051.51,37.85,1052.41,37.3z M539.93,414.26L539.93,414.26
			c0.76-0.46,1.76-0.65,2.64-0.36c1.73,0.5,2.65,2.44,2.15,4.19c-0.46,1.63-2.39,2.7-4.12,2.19c-1.64-0.56-2.59-2.36-2.17-4.07
			c0,0-0.05-0.08,0.03-0.12C538.71,415.31,539.26,414.67,539.93,414.26z M1288.32,117.36c1.05-0.64,2.39-0.62,3.42,0.1
			c1.53,1.04,1.91,3.1,0.97,4.59c-0.96,1.52-3.04,1.96-4.52,0.99c-1.53-1.04-1.91-3.09-0.97-4.6
			C1287.46,117.98,1287.87,117.63,1288.32,117.36z M1343.12,159.15c1.21-0.73,2.7-0.61,3.74,0.32c0.75,0.58,1.13,1.38,1.23,2.26
			c0.11,0.87-0.19,1.77-0.73,2.41c-1.11,1.4-3.27,1.58-4.64,0.43c0,0-0.04-0.08-0.11-0.03c-0.56-0.6-1.01-1.36-1.06-2.16
			c-0.03-0.92,0.18-1.76,0.75-2.53C1342.55,159.59,1342.82,159.32,1343.12,159.15z M1354.45,169.48c1.3-0.79,2.94-0.55,4.01,0.56
			c3.67,3.68,7.19,7.25,10.62,10.66l7.4,7.43c0.98,0.96,1.87,1.97,2.85,2.93c5.47,5.5,10.61,10.67,14.74,16.15l22.54,27.89
			c3.04,3.64,4.93,6.34,5.87,7.95l0.79,1.18c0.54,0.92,0.9,1.32,1.03,1.55l0,0c0.45,0.77,0.61,1.6,0.45,2.53
			c-0.14,0.8-0.66,1.64-1.41,2.1c-1.53,1.03-3.53,0.59-4.49-0.9c0,0-0.65-0.95-1.86-2.8c-0.94-1.61-2.6-4.13-5.35-7.23
			c-4.3-5.27-10.2-12.57-17.6-21.76l-5.13-6.32c-3.75-5.19-8.95-10.42-14.54-15.96l-6.21-6.28c-4.49-4.53-9.23-9.32-14.22-14.38
			c0,0,0,0-0.04-0.07c-1.28-1.29-1.27-3.37,0-4.67C1354.04,169.83,1354.22,169.61,1354.45,169.48z"/>
		
			<radialGradient id="path_x5F_1_6_" cx="496.9782" cy="345.1364" r="112.1531" gradientTransform="matrix(-0.8979 0.5455 -0.5355 -0.9146 2112.6963 510.585)" gradientUnits="userSpaceOnUse">
			<stop  offset="0" style="stop-color:#FFFFFF"/>
			<stop  offset="0.0851" style="stop-color:#FFEDD8"/>
			<stop  offset="0.2082" style="stop-color:#FFD5A7"/>
			<stop  offset="0.3345" style="stop-color:#FFC17D"/>
			<stop  offset="0.462" style="stop-color:#FFB05B"/>
			<stop  offset="0.591" style="stop-color:#FFA340"/>
			<stop  offset="0.7222" style="stop-color:#FF9A2D"/>
			<stop  offset="0.8568" style="stop-color:#FF9522"/>
			<stop  offset="1" style="stop-color:#FF931E"/>
		</radialGradient>
		<path id="path_x5F_1_1_" fill="url(#path_x5F_1_6_)" d="M1453.89,300.7c0.07-0.04,0.07-0.04,0.14-0.09
			c1.62-0.88,3.62-0.23,4.38,1.39l0,0c0,0,0.22,0.38,0.67,1.14l5.97,11.62c0.75,1.41,1.52,2.92,2.34,4.49
			c1.68,3.03,3.44,6.42,5.28,10.27l0.02,0.2c2.36,5.93,5.04,12.59,8,19.92c1.59,3.91,3.17,8.03,4.86,12.3l4.58,11.31
			c1.99,5.63,3.58,11.51,5.33,17.61c0.93,3.17,1.84,6.45,2.82,9.69c1.36,4.77,2.73,9.54,4.14,14.39l0.17,0.62
			c1.4,4.65,2.8,9.49,3.57,14.63l5.68,30.56c0.27,0.98,0.42,1.92,0.6,2.96c0.41,1.72-0.87,3.53-2.57,3.95
			c-1.74,0.32-3.43-0.82-3.88-2.62c-0.14-0.95-0.33-1.78-0.51-2.8l-0.36-1.64c-1.85-9.77-3.62-19.58-5.47-29.35
			c-0.62-4.7-2.02-9.36-3.42-14.2l-0.13-0.23c-0.71-2.58-1.48-5.12-2.18-7.7l-1.94-6.6c-1.03-3.52-1.99-6.88-2.94-10.25
			c-1.72-5.9-3.22-11.41-5.05-16.63l-9.93-24.77c-2.72-6.75-5.19-13.03-7.43-18.62c-1.68-3.54-3.4-6.85-4.99-9.72
			c-0.86-1.65-1.64-3.15-2.42-4.65c-4.11-8.08-6.57-12.6-6.61-12.68C1451.89,303.57,1452.39,301.61,1453.89,300.7z M1513.21,546.52
			c0.52-0.31,1.05-0.43,1.65-0.48c0.91-0.03,1.76,0.39,2.31,0.98c0.67,0.63,0.97,1.49,0.99,2.4c-0.07,1.81-1.59,3.35-3.37,3.29
			c-0.82-0.01-1.64-0.35-2.31-0.98c-0.6-0.68-0.98-1.48-0.88-2.37C1511.6,548.12,1512.22,547.11,1513.21,546.52z M1507.92,616.09
			c0.68-0.41,1.49-0.58,2.28-0.44c1.72,0.3,2.93,2.05,2.67,3.86c-0.24,1.49-0.51,2.8-0.73,3.97c-0.18,0.73-0.33,1.34-0.4,1.9
			l-0.79,3.7c-0.31,1.75-2.15,2.97-3.85,2.64c-1.75-0.38-2.91-2.17-2.52-3.96l0.71-3.65c0.16-0.61,0.26-1.3,0.37-1.98
			c0.27-1.11,0.52-2.4,0.74-3.78C1506.56,617.44,1507.1,616.59,1507.92,616.09z"/>
		
			<radialGradient id="path_x5F_1_7_" cx="981.3836" cy="252.2457" r="325.7247" gradientTransform="matrix(-0.8979 0.5455 -0.5355 -0.9146 2112.6963 510.585)" gradientUnits="userSpaceOnUse">
			<stop  offset="0" style="stop-color:#FFFFFF"/>
			<stop  offset="0.0851" style="stop-color:#FFEDD8"/>
			<stop  offset="0.2082" style="stop-color:#FFD5A7"/>
			<stop  offset="0.3345" style="stop-color:#FFC17D"/>
			<stop  offset="0.462" style="stop-color:#FFB05B"/>
			<stop  offset="0.591" style="stop-color:#FFA340"/>
			<stop  offset="0.7222" style="stop-color:#FF9A2D"/>
			<stop  offset="0.8568" style="stop-color:#FF9522"/>
			<stop  offset="1" style="stop-color:#FF931E"/>
		</radialGradient>
		<path id="path_x5F_1" fill="url(#path_x5F_1_7_)" d="M618.07,834.47c1.58-0.96,3.46-0.55,4.42,0.94c0.05,0.08,0.71,1.02,1.9,2.89
			c0.85,1.45,2.48,3.89,5.35,7.23c5.22,6.47,12.89,15.92,22.71,27.99c3.7,5.11,8.82,10.2,14.15,15.67c0.93,0.88,1.91,1.85,2.87,2.82
			c5.67,5.68,11.67,11.77,17.99,18.21c0.68,0.62,0.97,1.48,0.95,2.32c0.03,0.92-0.29,1.74-0.91,2.43c-1.21,1.25-3.37,1.21-4.66,0.03
			l-1.32-1.38c-5.85-6-11.47-11.59-16.68-16.82c-1.01-1.05-2.03-2.1-3.05-3.13c-5.41-5.43-10.53-10.5-14.53-15.95l-22.53-27.89
			c-2.97-3.49-4.85-6.18-5.88-7.94l-0.84-1.26c-0.49-0.84-0.83-1.26-0.92-1.41c0,0,0,0-0.04-0.07c-0.98-1.48-0.58-3.58,0.97-4.63
			L618.07,834.47z M694.84,920.04c1.2-0.73,2.7-0.6,3.75,0.31c0.7,0.51,1.13,1.39,1.22,2.27c0.03,0.92-0.18,1.77-0.8,2.45
			c-1.04,1.36-3.26,1.56-4.56,0.38c-1.38-1.13-1.61-3.27-0.49-4.68C694.21,920.54,694.55,920.22,694.84,920.04z M749.72,961.78
			c1.04-0.63,2.38-0.61,3.41,0.1c0.78,0.47,1.27,1.3,1.45,2.13c0.22,0.9,0.01,1.76-0.48,2.47c-0.9,1.59-3.03,1.95-4.51,0.98
			c-0.79-0.45-1.24-1.22-1.46-2.12c-0.18-0.82-0.01-1.75,0.49-2.48C748.91,962.48,749.27,962.06,749.72,961.78z M823.43,1002.15
			c0.9-0.55,1.99-0.59,2.98-0.16c26.97,11.83,54.82,21.15,82.85,27.65c25.15,6.09,51.48,10.01,78.19,11.82
			c1.81,0.14,3.13,1.72,3.08,3.52c-0.16,1.85-1.72,3.32-3.54,3.18c-27.03-1.83-53.64-5.89-79.22-12.02
			c-28.39-6.6-56.64-16.09-83.96-28.11c-1.61-0.68-2.46-2.65-1.72-4.35C822.4,1002.98,822.83,1002.51,823.43,1002.15z
			 M1498.08,665.01c0.82-0.5,1.76-0.65,2.64-0.36c0.76,0.26,1.51,0.84,1.96,1.61c0.36,0.81,0.47,1.68,0.18,2.58c0,0,0,0-0.01,0.12
			c-0.52,1.56-2.45,2.62-4.08,2.07c-1.73-0.51-2.66-2.43-2.16-4.19C1496.86,666.05,1497.39,665.42,1498.08,665.01z M1493.63,679.84
			c0.74-0.45,1.74-0.65,2.64-0.35c1.76,0.59,2.72,2.39,2.15,4.19c-0.67,2.17-1.33,4.54-2.11,7.19c-2,6.81-4.49,15.28-7.7,24.9
			l-0.05,0.13c-0.71,1.89-1.47,3.7-2.29,5.64c-11.49,28.86-27.29,68.32-56.36,109.42c-1.48,2.15-3.05,4.34-4.61,6.54
			c-1,1.43-3.14,1.79-4.53,0.78c-1.45-1.09-1.83-3.13-0.77-4.61c1.56-2.2,3.06-4.35,4.5-6.57c28.69-40.55,44.38-79.64,55.75-108.22
			l2.16-5.35c3.21-9.62,5.74-18.21,7.74-25.02c0.72-2.41,1.42-4.7,2.05-6.75c-0.04-0.07-0.04-0.07-0.04-0.07
			C1492.41,680.89,1492.96,680.25,1493.63,679.84z M1000.83,1042.77c0.52-0.31,1.14-0.49,1.77-0.46c1.77,0.06,3.17,1.6,3.12,3.4
			c-0.07,1.81-1.66,3.28-3.38,3.29c-1.77-0.06-3.21-1.67-3.16-3.47C999.22,1044.37,999.86,1043.36,1000.83,1042.77z
			 M1069.24,1040.51c0.45-0.27,0.87-0.42,1.34-0.51c0.89-0.03,1.73,0.19,2.48,0.77c0.63,0.56,1.08,1.32,1.1,2.24
			c0.21,1.74-1.12,3.48-2.96,3.66c0,0,0,0-0.07,0.04c-0.78,0.06-1.66-0.24-2.28-0.79c-0.64-0.54-1.08-1.31-1.18-2.18
			C1067.5,1042.4,1068.2,1041.15,1069.24,1040.51z M1151.49,1024.66c0.22-0.14,0.56-0.24,0.79-0.38
			c52.09-14.84,101.64-38.2,146.69-69.93c1-0.71,2.08-1.47,3.09-2.18c1.49-1.11,3.57-0.71,4.58,0.85c1.04,1.44,0.69,3.63-0.77,4.61
			c-0.6,0.36-1.07,0.76-1.61,1.09c-0.56,0.44-1.07,0.75-1.55,1.15c-45.29,31.87-95.88,55.86-148.66,70.92
			c-1.76,0.45-3.56-0.53-4.01-2.33C1149.57,1026.96,1150.21,1025.44,1151.49,1024.66z M1366.57,897.53
			c1.35-0.82,2.97-0.67,4.04,0.45c1.27,1.3,1.23,3.5-0.09,4.72c-1.24,1.37-3.33,1.29-4.6-0.01c-1.26-1.31-1.26-3.38,0.02-4.68
			C1366.12,897.8,1366.36,897.66,1366.57,897.53z M1314.6,943c1.5-0.91,3.38-0.5,4.37,0.86c1.05,1.45,0.77,3.58-0.71,4.69
			c-1.37,1.14-3.51,0.79-4.6-0.73c-1.05-1.44-0.76-3.58,0.72-4.68C1314.46,943.09,1314.54,943.04,1314.6,943z"/>
	</g>
</g>
<g>
</g>
<g>
</g>
<g>
</g>
<g>
</g>
<g>
</g>
<g>
</g>
<g>
</g>
<g>
</g>
<g>
</g>
<g>
</g>
<g>
</g>
<g>
</g>
<g>
</g>
<g>
</g>
<g>
</g>
</svg>
