<?xml version="1.0" encoding="utf-8"?>
<!-- Generator: Adobe Illustrator 25.0.0, SVG Export Plug-In . SVG Version: 6.00 Build 0)  -->
<svg version="1.1" id="Layer_1" xmlns="http://www.w3.org/2000/svg" xmlns:xlink="http://www.w3.org/1999/xlink" x="0px" y="0px"
	 viewBox="0 0 500 500" enable-background="new 0 0 500 500" xml:space="preserve">
<ellipse id="DropShadw" opacity="0.29" fill="#482D13" cx="250" cy="422.59" rx="250" ry="64.12"/>
<g id="Logo_x5F_circuits">
	<g id="Main_x5F_path_x5F_7_x5F_Last_1_">
		<path id="path_x5F_4" fill="#B7BCD7" stroke="#B7BCD7" stroke-miterlimit="10" d="M162.37,342.79
			c-8.52-3.8-15.33-8.06-20.16-11.51c-8.79-6.66-16.36-13.71-21.35-19.87c-0.83-1-1.6-1.93-2.31-2.77
			c-1.21-1.45-2.22-2.66-2.96-3.62l-1.69-2.48l1.22-1.06l1.67,2.44c0.7,0.91,1.69,2.09,2.89,3.52c0.7,0.85,1.48,1.78,2.32,2.8
			c4.91,6.06,12.37,13,21.04,19.57c7.38,5.28,19.51,12.5,35.28,16.91c14.14,3.98,29.2,4.78,43.56,2.34
			c14.31-2.37,28.44-8.02,40.85-16.35c11.45-7.69,21.38-17.25,28.72-27.63c1.51-1.81,2.71-3.74,3.87-5.6
			c0.33-0.53,0.65-1.05,0.98-1.56c0.5-0.84,1.03-1.66,1.55-2.46c0.93-1.44,1.8-2.8,2.51-4.2c0.78-1.63,1.57-3.17,2.32-4.64
			c1.32-2.6,2.48-4.84,3.32-6.95l4.12-10.62l1.43,0.73l-4.12,10.64c-0.88,2.19-2.1,4.58-3.39,7.11c-0.74,1.45-1.52,2.99-2.31,4.61
			c-0.76,1.49-1.65,2.89-2.6,4.37c-0.51,0.79-1.03,1.6-1.53,2.44c-0.33,0.52-0.66,1.04-0.98,1.56c-1.19,1.92-2.42,3.9-3.97,5.74
			c-7.41,10.49-17.48,20.19-29.09,27.98c-12.57,8.45-26.89,14.18-41.4,16.58c-14.55,2.48-29.83,1.66-44.16-2.37
			C172.29,346.84,167.08,344.89,162.37,342.79z"/>
		<g id="sub_x5F_path_x5F_4_2_">
			<path id="path_x5F_4_4_" fill="#B7BCD7" stroke="#B7BCD7" stroke-miterlimit="10" d="M282.86,321.53l-4.31-5.2l6.08-6.52
				l5.57-7.2c1.04-1.23,1.85-2.54,2.71-3.92l4.1-6.53c0.7-1.03,1.15-1.94,1.54-2.74l1.07-2.14l5.45,3.56l-1.06,2.11
				c-0.45,0.91-1.07,2.15-1.96,3.48l-4.01,6.39c-0.9,1.46-1.93,3.12-3.2,4.62l-6.66,8.45L282.86,321.53z"/>
			<path id="path_x5F_4_3_" fill="#B7BCD7" stroke="#B7BCD7" stroke-miterlimit="10" d="M233.17,351.08l-1.74-6.81l5.19-1.6
				c2.12-0.52,4.57-1.59,7.16-2.73c1.23-0.54,2.49-1.09,3.76-1.61c1.46-0.55,2.85-1.33,4.19-2.09l6.17-3.44
				c0.94-0.47,1.65-0.99,2.27-1.44c0.34-0.25,0.65-0.46,0.93-0.65l1.16-0.82l3.37,6.01l-1.25,0.89c-0.3,0.19-0.52,0.36-0.77,0.54
				c-0.73,0.52-1.72,1.25-2.97,1.87l-6.03,3.38c-1.47,0.83-3.13,1.77-4.93,2.44c-1.15,0.47-2.36,1-3.54,1.52
				c-2.83,1.24-5.5,2.41-7.94,3L233.17,351.08z"/>
			<path id="path_x5F_4_2_" fill="#B7BCD7" stroke="#B7BCD7" stroke-miterlimit="10" d="M176.57,350.77l1.28-6.88l5.3,1.38
				c2.02,0.66,4.52,0.99,7.17,1.34c1.44,0.19,2.91,0.38,4.37,0.63c1.6,0.31,3.25,0.35,4.85,0.39l6.66,0.2
				c1.24,0.08,2.26,0,3.07-0.08l2-0.16l0.58,7.04l-1.99,0.16c-0.95,0.08-2.26,0.2-3.83,0.09l-6.53-0.2c-1.73-0.04-3.7-0.1-5.69-0.47
				c-1.34-0.22-2.74-0.41-4.11-0.59c-2.92-0.39-5.68-0.75-8.03-1.53L176.57,350.77z"/>
			<path id="path_x5F_4_1_" fill="#B7BCD7" stroke="#B7BCD7" stroke-miterlimit="10" d="M156.05,342.6l-4.96-2.54
				c-2.19-1.35-4.56-2.92-7.07-4.57l-3.88-2.56c-1.26-1.04-2.53-2.06-3.75-3.05c-2.24-1.81-4.35-3.51-6.04-4.99l-4.26-4.22
				l4.07-5.26l4.1,4.07c1.48,1.28,3.52,2.93,5.69,4.68c1.2,0.97,2.44,1.97,3.66,2.98l3.46,2.27c2.48,1.63,4.81,3.16,6.73,4.37
				l4.73,2.41L156.05,342.6z"/>
		</g>
		<path fill="#B7BCD7" stroke="#B7BCD7" stroke-miterlimit="10" d="M113.9,302.54l-4.94-7.22l-5.91-10.55l-4.89-10.86
			c-0.7-1.77-1.33-3.6-1.97-5.48c-0.35-1.03-0.72-2.08-1.09-3.14c-3.19-9.69-7.07-25-7.47-42.99c-0.44-16.53,2.08-33.52,7.31-49.14
			c5.23-15.62,13.25-30.17,23.2-42.06c10.78-13,22.56-21.33,30.55-26.02c0.92-0.5,1.8-0.99,2.66-1.48c1.57-0.89,3.1-1.75,4.61-2.51
			l10.9-4.54l9.43-2.9l8.04-1.56l0.29,1.74l-7.87,1.51l-10.37,3.19l-9.81,4.18c-1.46,0.73-2.96,1.58-4.51,2.45
			c-0.86,0.49-1.75,0.99-2.65,1.48c-7.86,4.62-19.49,12.83-30.12,25.66c-9.82,11.73-17.73,26.08-22.89,41.49
			c-5.16,15.41-7.65,32.17-7.21,48.47c0.41,17.76,4.23,32.86,7.37,42.4c0.37,1.04,0.73,2.09,1.09,3.13
			c0.64,1.85,1.26,3.65,1.93,5.36l5.32,11.58l5.29,9.46l4.95,7.25L113.9,302.54z"/>
		<g id="sub_x5F_path_x5F_4_1_">
			<path id="path_x5F_4_8_" fill="#B7BCD7" stroke="#B7BCD7" stroke-miterlimit="10" d="M100.64,285.23l-3.28-7.3
				c-0.55-1.22-1.16-2.55-1.73-3.96l-2.42-6.92c-1.38-3.51-2.33-7.32-3.09-10.38c-0.24-0.98-0.47-1.9-0.7-2.75
				c-0.18-0.71-0.33-1.29-0.47-1.82c-0.29-1.12-0.54-2.08-0.67-2.85L88,247.6l6.13-1.18l0.27,1.66c0.1,0.58,0.29,1.29,0.51,2.13
				c0.15,0.58,0.31,1.2,0.48,1.87c0.21,0.8,0.46,1.77,0.72,2.8c0.74,2.99,1.59,6.38,2.83,9.55l2.4,6.86
				c0.47,1.12,1.03,2.36,1.55,3.5l3.29,7.33L100.64,285.23z"/>
			<path id="path_x5F_4_7_" fill="#B7BCD7" stroke="#B7BCD7" stroke-miterlimit="10" d="M85.27,223.29l0.04-6.12
				c0.02-0.66,0.01-1.32,0.02-2c0-1.38,0.01-2.87,0.08-4.43l0.7-7.31c0.23-3.97,0.99-7.96,1.61-11.16l1.26-6.71
				c0.32-1.4,0.56-2.09,0.56-2.09l5.85,2.57c-0.02,0.06-0.16,0.51-0.34,1.27l-0.77,4.16c-0.13,0.74-0.29,1.56-0.46,2.42
				c-0.6,3.13-1.28,6.68-1.49,10.28l-0.7,7.28c-0.06,1.24-0.06,2.6-0.06,3.87c-0.01,0.73-0.01,1.43-0.02,2.09l-0.05,6.07
				L85.27,223.29z"/>
			<path id="path_x5F_4_6_" fill="#B7BCD7" stroke="#B7BCD7" stroke-miterlimit="10" d="M102.76,163.99l-5.82-2.65
				c0,0,0.23-0.69,0.74-1.83l3.05-6.1c1.4-2.85,3.16-6.4,5.38-9.63l3.57-5.69c0.95-1.36,1.81-2.47,2.62-3.5
				c0.39-0.5,0.77-0.98,1.12-1.45l3.56-4.6l4.73,4.7l-3.53,4.57c-0.35,0.46-0.75,0.98-1.17,1.51c-0.73,0.94-1.53,1.96-2.31,3.06
				l-3.55,5.67c-2.02,2.94-3.58,6.1-4.96,8.88c-0.38,0.77-0.74,1.51-1.09,2.18l-1.9,3.8C102.94,163.48,102.78,163.92,102.76,163.99z
				"/>
			<path id="path_x5F_4_5_" fill="#B7BCD7" stroke="#B7BCD7" stroke-miterlimit="10" d="M137.01,118.3l-3.85-5.63l1.17-1.02
				c0.54-0.47,1.28-0.99,2.14-1.59c0.42-0.29,0.87-0.6,1.34-0.95c0.73-0.5,1.44-1,2.19-1.53c2.35-1.67,5.27-3.76,8.45-5.35l5.54-3.1
				c1.42-0.68,2.63-1.19,3.76-1.67l6.68-2.86l2.3,6.6l-6.7,2.87c-1.06,0.44-2.19,0.92-3.36,1.48l-5.49,3.07
				c-2.88,1.45-5.49,3.3-7.78,4.94c-0.79,0.56-1.53,1.08-2.22,1.55c-0.44,0.32-0.93,0.66-1.38,0.97c-0.65,0.45-1.21,0.82-1.61,1.18
				L137.01,118.3z"/>
		</g>
		<path fill="#B7BCD7" stroke="#B7BCD7" stroke-miterlimit="10" d="M310.08,269.12l3.14-11.07c0.6-2.2,1.06-4.76,1.59-7.71
			c0.3-1.66,0.62-3.42,0.98-5.25c0.29-1.57,0.43-3.25,0.59-5.04c0.08-1,0.17-2.02,0.29-3.05c0.05-0.61,0.12-1.24,0.18-1.89
			c0.23-2.28,0.46-4.64,0.4-7.08c0.61-13.46-1.18-28.24-5.17-42.82c-4.34-15.8-11.5-30.94-20.72-43.79
			c-9.21-12.95-20.83-24.04-33.61-32.07c-14.25-8.97-27.44-13.03-36-14.86c-10.22-1.86-19.79-2.51-26.95-1.83
			c-1.22,0.1-2.34,0.19-3.35,0.27c-1.72,0.13-3.14,0.24-4.23,0.38l-2.61,0.5l-0.29-1.74l2.65-0.51c1.15-0.15,2.6-0.26,4.34-0.4
			c1.01-0.08,2.13-0.16,3.33-0.27c7.27-0.69,16.98-0.03,27.35,1.85c8.69,1.85,22.06,5.96,36.5,15.06
			c12.96,8.14,24.75,19.38,34.08,32.51c9.34,13.03,16.61,28.38,21,44.39c4.06,14.79,5.87,29.78,5.24,43.37
			c0.08,2.49-0.16,4.92-0.4,7.26c-0.07,0.64-0.13,1.26-0.19,1.89c-0.12,1.04-0.2,2.04-0.29,3.02c-0.15,1.83-0.31,3.56-0.61,5.24
			c-0.37,1.83-0.69,3.57-0.98,5.22c-0.52,2.87-1.01,5.59-1.63,7.89l-3.15,11.08L310.08,269.12z"/>
		<g id="sub_x5F_path_x5F_4">
			<path id="path_x5F_4_12_" fill="#B7BCD7" stroke="#B7BCD7" stroke-miterlimit="10" d="M203.84,95.18l0.05-7.05l5.41,0.17
				c2.31,0.23,4.86,0.61,7.57,1c1.49,0.22,3.02,0.44,4.56,0.66l0.33,0.06l4.04,1.04c2.82,0.73,5.49,1.41,7.65,2.02l5.4,2.05
				l-1.9,6.68l-5.14-1.96c-1.88-0.52-4.51-1.2-7.28-1.91l-3.89-1.01c-1.5-0.2-3-0.43-4.45-0.64c-2.62-0.38-5.09-0.75-7.13-0.96
				L203.84,95.18z"/>
			<path id="path_x5F_4_11_" fill="#B7BCD7" stroke="#B7BCD7" stroke-miterlimit="10" d="M282.66,134.31l-1.4-1.69
				c-0.59-0.72-1.27-1.54-2.15-2.36l-5.14-5.1c-1.21-1.21-2.46-2.46-3.77-3.44c-1.28-0.99-2.48-1.99-3.65-2.97
				c-2.16-1.8-4.21-3.5-5.93-4.47l-4.88-3.19l3.05-6.09l4.72,3.09c2.03,1.15,4.28,3.02,6.67,5c1.12,0.93,2.27,1.89,3.44,2.79
				c1.64,1.22,3.13,2.71,4.44,4.03l5.03,5c1.13,1.04,2.04,2.14,2.69,2.95l1.38,1.66L282.66,134.31z"/>
			<path id="path_x5F_4_10_" fill="#B7BCD7" stroke="#B7BCD7" stroke-miterlimit="10" d="M310.08,186.95l-0.41-1.61
				c-0.07-0.24-0.17-0.64-0.27-1.08c-0.2-0.82-0.43-1.76-0.8-2.71l-2.61-7.47c-0.55-1.6-1.12-3.26-1.84-4.72
				c-0.68-1.44-1.29-2.82-1.88-4.17c-1.26-2.86-2.45-5.55-3.63-7.42l-3.02-5.38l5.26-3.69l2.92,5.21c1.37,2.16,2.67,5.11,4.04,8.23
				c0.57,1.3,1.16,2.63,1.77,3.94c0.9,1.82,1.58,3.8,2.19,5.54l2.55,7.31c0.51,1.31,0.83,2.61,1.06,3.56
				c0.08,0.33,0.15,0.62,0.22,0.88l0.45,1.74L310.08,186.95z"/>
			<path id="path_x5F_4_9_" fill="#B7BCD7" stroke="#B7BCD7" stroke-miterlimit="10" d="M312.94,247.49l0.45-2.42
				c0.18-0.9,0.37-1.92,0.44-3.09l0.61-6.35c0.05-0.56,0.11-1.18,0.17-1.81c0.17-1.69,0.33-3.28,0.29-4.83l0.06-10.63l-0.7-8.73
				l6.21-0.5l0.73,12.68l-0.05,7.21c0.06,1.93-0.14,3.95-0.32,5.73l-0.76,7.98c-0.09,1.54-0.37,2.94-0.56,3.96l-0.44,2.39
				L312.94,247.49z"/>
		</g>
	</g>
	<g id="Main_x5F_path_x5F_6_1_">
		
			<linearGradient id="path_x5F_6_4_" gradientUnits="userSpaceOnUse" x1="576.8227" y1="-12.2761" x2="-91.8822" y2="429.11" gradientTransform="matrix(-0.3815 -0.9244 0.9244 -0.3815 112.0546 573.8253)">
			<stop  offset="0" style="stop-color:#FBB03C"/>
			<stop  offset="0.0993" style="stop-color:#EDA73E"/>
			<stop  offset="0.2355" style="stop-color:#D49642"/>
			<stop  offset="0.393" style="stop-color:#AF7D46"/>
			<stop  offset="0.5666" style="stop-color:#825F45"/>
			<stop  offset="0.7534" style="stop-color:#513E3D"/>
			<stop  offset="0.9484" style="stop-color:#211C2D"/>
			<stop  offset="1" style="stop-color:#111028"/>
		</linearGradient>
		<path id="path_x5F_6_3_" fill="url(#path_x5F_6_4_)" d="M85.4,289.41c-5.89-14.52-9.86-28.58-11.83-41.88
			c-0.37-2.3-0.57-4.65-0.77-6.92c-0.11-1.25-0.22-2.51-0.35-3.75l-0.49-5.3l-0.04-5.43c0.01-1.27-0.01-2.51-0.03-3.74
			c-0.04-2.23-0.07-4.53,0.09-6.82l0.81-10.21c1.95-15.42,4.85-27.85,8.88-38.1c1.27-4.13,3.09-8.01,4.84-11.75
			c0.71-1.51,1.41-3.01,2.07-4.51c0.77-1.79,1.72-3.39,2.65-4.94c0.49-0.82,0.97-1.62,1.42-2.45c0.53-0.89,1-1.73,1.47-2.56
			c0.86-1.52,1.71-3.03,2.64-4.43c13.32-20.12,26.93-31.07,33.85-35.81l3.21-2.44c0.79-0.53,1.49-0.94,2.16-1.34l9.95-5.96l1.61,3.3
			l-9.97,5.97c-0.62,0.37-1.28,0.75-1.93,1.19l-3.2,2.43c-6.79,4.64-20.01,15.29-33,34.92c-0.89,1.34-1.69,2.77-2.51,4.22
			c-0.48,0.85-0.97,1.7-1.47,2.55c-0.43,0.81-0.94,1.67-1.46,2.53c-0.9,1.51-1.75,2.94-2.43,4.51c-0.68,1.55-1.39,3.08-2.11,4.62
			c-1.7,3.62-3.45,7.37-4.69,11.38c-3.95,10.08-6.77,22.19-8.67,37.18l-0.8,10.1c-0.15,2.08-0.12,4.19-0.08,6.43
			c0.02,1.28,0.04,2.55,0.03,3.83l0.03,5.22l0.48,5.09c0.13,1.24,0.24,2.52,0.35,3.8c0.19,2.19,0.38,4.46,0.73,6.64
			c1.93,12.99,5.81,26.73,11.54,40.86c6.3,13.74,13.53,25.71,21.44,35.52c1.33,1.69,2.8,3.29,4.23,4.83
			c0.84,0.91,1.67,1.81,2.48,2.73l3.38,3.71l3.55,3.21c0.88,0.77,1.77,1.59,2.65,2.41c1.55,1.44,3.02,2.8,4.59,4l7.67,5.71
			c11.66,7.75,21.96,12.95,31.41,15.86c3.74,1.51,7.47,2.36,11.09,3.19c1.54,0.35,3.07,0.7,4.57,1.09c1.54,0.41,3.08,0.58,4.71,0.76
			c0.93,0.1,1.85,0.2,2.76,0.35c0.85,0.09,1.75,0.22,2.66,0.34c1.54,0.21,3.05,0.42,4.56,0.5c21.98,1.2,37.8-3.45,45.27-6.32
			l3.89-1.27c0.63-0.26,1.31-0.57,1.96-0.88l10.48-4.8l1.31,3.47l-10.46,4.78c-0.7,0.33-1.43,0.68-2.21,0.99l-3.9,1.28
			c-7.62,2.94-23.88,7.72-46.42,6.49c-1.58-0.09-3.17-0.31-4.79-0.53c-0.88-0.12-1.76-0.23-2.65-0.34
			c-0.93-0.15-1.81-0.24-2.68-0.33c-1.67-0.19-3.4-0.37-5.15-0.84c-1.46-0.37-2.95-0.72-4.46-1.06c-3.74-0.85-7.6-1.73-11.44-3.29
			c-9.62-2.96-20.19-8.29-32.19-16.26l-7.76-5.78c-1.73-1.31-3.32-2.79-4.87-4.22c-0.85-0.79-1.71-1.59-2.59-2.36l-3.7-3.35
			l-3.52-3.85c-0.81-0.93-1.62-1.81-2.44-2.69c-1.47-1.6-3-3.25-4.4-5.03C99.27,315.78,91.87,303.52,85.4,289.41z"/>
		
			<linearGradient id="path_x5F_6_5_" gradientUnits="userSpaceOnUse" x1="541.4662" y1="-67.001" x2="-140.4808" y2="383.1256" gradientTransform="matrix(-0.3815 -0.9244 0.9244 -0.3815 112.0546 573.8253)">
			<stop  offset="0" style="stop-color:#FBB03C"/>
			<stop  offset="0.0993" style="stop-color:#EDA73E"/>
			<stop  offset="0.2355" style="stop-color:#D49642"/>
			<stop  offset="0.393" style="stop-color:#AF7D46"/>
			<stop  offset="0.5666" style="stop-color:#825F45"/>
			<stop  offset="0.7534" style="stop-color:#513E3D"/>
			<stop  offset="0.9484" style="stop-color:#211C2D"/>
			<stop  offset="1" style="stop-color:#111028"/>
		</linearGradient>
		<path id="path_x5F_6_2_" fill="url(#path_x5F_6_5_)" d="M76.64,293.98l-0.1-0.25c-4.16-10.54-9.21-24.42-11.41-38.31
			c-0.15-0.93-0.35-1.93-0.54-2.91c-0.39-2.05-0.8-4.18-1.04-6.44l-0.82-8.69c-0.56-4.15-0.55-8.38-0.55-12.11
			c0-1.46,0.01-2.89-0.03-4.28l-0.03-3.77c0.02-1.18,0.1-2.08,0.17-2.97L63.7,199l2-11.92l13.03,3.09l-2.35,14.99l-0.88,10.86
			c-0.05,0.55-0.1,1.11-0.11,1.69l0.03,3.35c0.04,1.39,0.03,2.97,0.03,4.6c-0.01,3.35-0.01,6.82,0.43,10.17l0.85,8.95
			c0.15,1.45,0.47,3.13,0.81,4.91c0.22,1.13,0.43,2.26,0.63,3.4c1.94,12.25,6.55,24.91,10.38,34.64c4.43,9.4,10.44,21.33,17.8,30.66
			c0.73,0.94,1.38,1.83,2.03,2.72c1.04,1.42,2.02,2.75,2.99,3.85l5.5,6.06c2.28,2.73,4.72,4.9,7.09,7.02
			c1.15,1.02,2.26,2.01,3.32,3.02l2.41,2.19c0.22,0.18,0.66,0.5,1.08,0.8l9.61,7.13l10.6,6.36l-6.03,13.13l-11.41-6.88l-9.82-7.28
			c-0.69-0.5-1.37-1.01-2.05-1.59l-2.7-2.45c-1.07-1.01-2.07-1.91-3.1-2.83c-2.62-2.33-5.6-4.99-8.38-8.32l-5.35-5.89
			c-1.49-1.68-2.73-3.37-3.93-5c-0.57-0.78-1.15-1.57-1.74-2.34c-8.35-10.58-14.93-23.66-19.73-33.86L76.64,293.98z"/>
		
			<linearGradient id="path_x5F_6_6_" gradientUnits="userSpaceOnUse" x1="615.8656" y1="38.0706" x2="-52.8402" y2="479.4572" gradientTransform="matrix(-0.3815 -0.9244 0.9244 -0.3815 112.0546 573.8253)">
			<stop  offset="0" style="stop-color:#FBB03C"/>
			<stop  offset="0.0993" style="stop-color:#EDA73E"/>
			<stop  offset="0.2355" style="stop-color:#D49642"/>
			<stop  offset="0.393" style="stop-color:#AF7D46"/>
			<stop  offset="0.5666" style="stop-color:#825F45"/>
			<stop  offset="0.7534" style="stop-color:#513E3D"/>
			<stop  offset="0.9484" style="stop-color:#211C2D"/>
			<stop  offset="1" style="stop-color:#111028"/>
		</linearGradient>
		<path id="path_x5F_6_1_" fill="url(#path_x5F_6_6_)" d="M261.55,358.85l9.97-5.97c0.63-0.37,1.27-0.76,1.94-1.19l3.2-2.43
			c6.79-4.64,20.01-15.29,33.01-34.92c0.88-1.34,1.69-2.77,2.51-4.22c0.48-0.85,0.97-1.71,1.47-2.56c0.43-0.81,0.94-1.67,1.46-2.52
			c0.9-1.52,1.75-2.94,2.43-4.51c0.68-1.54,1.39-3.07,2.11-4.62c1.69-3.63,3.45-7.37,4.69-11.39c3.95-10.09,6.77-22.2,8.67-37.17
			l0.8-10.1c0.15-2.09,0.11-4.2,0.08-6.44c-0.02-1.27-0.04-2.54-0.03-3.82l-0.03-5.22l-0.48-5.08c-0.13-1.24-0.24-2.52-0.36-3.81
			c-0.19-2.19-0.38-4.46-0.73-6.64c-1.93-12.99-5.81-26.73-11.54-40.87c-6.3-13.73-13.52-25.71-21.44-35.52
			c-1.33-1.68-2.8-3.28-4.23-4.82c-0.83-0.9-1.67-1.8-2.47-2.73l-3.38-3.7l-3.56-3.22c-0.88-0.77-1.77-1.59-2.65-2.41
			c-1.55-1.44-3.02-2.8-4.59-3.99l-7.68-5.72c-11.66-7.75-21.96-12.95-31.41-15.86c-3.74-1.51-7.48-2.36-11.09-3.18
			c-1.54-0.35-3.07-0.7-4.57-1.09c-1.54-0.41-3.08-0.58-4.71-0.76c-0.93-0.1-1.85-0.2-2.76-0.35c-0.85-0.09-1.75-0.21-2.65-0.33
			c-1.54-0.21-3.06-0.42-4.56-0.51c-21.98-1.2-37.8,3.44-45.27,6.32l-3.88,1.27c-0.64,0.26-1.31,0.58-1.97,0.88l-10.48,4.8
			l-1.31-3.47l10.46-4.78c0.7-0.33,1.44-0.67,2.22-0.98l3.9-1.28c7.62-2.93,23.89-7.72,46.42-6.49c1.58,0.09,3.18,0.31,4.79,0.52
			c0.88,0.12,1.76,0.24,2.65,0.34c0.93,0.15,1.81,0.24,2.69,0.34c1.67,0.18,3.4,0.37,5.16,0.84c1.46,0.38,2.96,0.72,4.46,1.06
			c3.74,0.85,7.6,1.74,11.44,3.29c9.62,2.95,20.19,8.29,32.19,16.26l7.76,5.77c1.72,1.31,3.32,2.79,4.87,4.22
			c0.85,0.79,1.71,1.59,2.59,2.36l3.7,3.36l3.52,3.85c0.81,0.93,1.63,1.81,2.44,2.69c1.47,1.59,3,3.25,4.4,5.03
			c8.1,10.04,15.5,22.3,21.97,36.41c5.89,14.52,9.86,28.59,11.83,41.88c0.37,2.31,0.57,4.66,0.77,6.93c0.11,1.25,0.21,2.5,0.35,3.75
			l0.49,5.3l0.04,5.43c-0.01,1.28,0.01,2.52,0.03,3.75c0.03,2.23,0.07,4.53-0.09,6.82l-0.81,10.22
			c-1.95,15.42-4.85,27.84-8.88,38.09c-1.27,4.14-3.09,8.01-4.84,11.75c-0.7,1.51-1.41,3.01-2.07,4.51
			c-0.76,1.79-1.72,3.39-2.65,4.95c-0.49,0.81-0.97,1.62-1.41,2.45c-0.53,0.9-1,1.73-1.47,2.56c-0.86,1.52-1.72,3.03-2.64,4.43
			c-13.32,20.13-26.92,31.08-33.85,35.8l-3.21,2.44c-0.78,0.53-1.49,0.94-2.16,1.34l-9.94,5.97L261.55,358.85z"/>
		
			<linearGradient id="path_x5F_6_7_" gradientUnits="userSpaceOnUse" x1="663.5284" y1="84.6776" x2="-18.4187" y2="534.8043" gradientTransform="matrix(-0.3815 -0.9244 0.9244 -0.3815 112.0546 573.8253)">
			<stop  offset="0" style="stop-color:#FBB03C"/>
			<stop  offset="0.0993" style="stop-color:#EDA73E"/>
			<stop  offset="0.2355" style="stop-color:#D49642"/>
			<stop  offset="0.393" style="stop-color:#AF7D46"/>
			<stop  offset="0.5666" style="stop-color:#825F45"/>
			<stop  offset="0.7534" style="stop-color:#513E3D"/>
			<stop  offset="0.9484" style="stop-color:#211C2D"/>
			<stop  offset="1" style="stop-color:#111028"/>
		</linearGradient>
		<path id="path_x5F_6" fill="url(#path_x5F_6_7_)" d="M330.37,263.05l2.35-15l0.88-10.85c0.05-0.55,0.1-1.12,0.11-1.69l-0.03-3.34
			c-0.04-1.39-0.03-2.97-0.03-4.6c0-3.35,0.01-6.82-0.44-10.17l-0.85-8.95c-0.15-1.45-0.47-3.13-0.81-4.9
			c-0.22-1.13-0.43-2.26-0.63-3.4c-1.94-12.26-6.55-24.92-10.38-34.64c-4.43-9.41-10.44-21.33-17.8-30.66
			c-0.72-0.93-1.38-1.83-2.03-2.72c-1.04-1.42-2.01-2.75-2.99-3.85l-5.5-6.06c-2.28-2.73-4.73-4.91-7.09-7.01
			c-1.14-1.02-2.26-2.02-3.32-3.03l-2.41-2.19c-0.23-0.19-0.66-0.5-1.09-0.81l-9.6-7.12l-10.6-6.36l6.02-13.13l11.4,6.88l9.82,7.29
			c0.68,0.5,1.38,1.01,2.05,1.59l2.7,2.45c1.07,1.01,2.08,1.91,3.11,2.82c2.62,2.34,5.6,4.99,8.37,8.32l5.35,5.89
			c1.49,1.69,2.73,3.37,3.93,5c0.57,0.79,1.15,1.58,1.75,2.35c8.35,10.58,14.93,23.65,19.73,33.86l0.11,0.24l0.09,0.24
			c4.16,10.54,9.21,24.42,11.41,38.31c0.16,0.94,0.35,1.93,0.54,2.91c0.4,2.06,0.8,4.18,1.04,6.44l0.82,8.7
			c0.56,4.15,0.56,8.38,0.55,12.1c0,1.46-0.01,2.89,0.03,4.29l0.03,3.77c-0.02,1.18-0.1,2.08-0.17,2.97l-1.4,15.25l-1.99,11.92
			L330.37,263.05z"/>
	</g>
	<g id="Main_x5F_path_x5F_5">
		<polygon id="path_x5F_3_15_" fill="#B7BCD7" stroke="#B7BCD7" stroke-width="2" stroke-miterlimit="10" points="63.73,303.13 
			65.15,302.31 68.15,308.42 66.72,309.23 		"/>
		<path id="path_x5F_3_14_" fill="#B7BCD7" stroke="#B7BCD7" stroke-width="2" stroke-miterlimit="10" d="M53.65,279.19l1.5-0.63
			c0.11,0.31,0.25,0.66,0.39,1.03l3.05,8.08l-1.49,0.65l-3.04-8.06C53.91,279.89,53.77,279.52,53.65,279.19z M59.48,294.47
			l1.42-0.82l1.43,2.9l-1.42,0.81L59.48,294.47z"/>
		<path id="path_x5F_3_13_" fill="#B7BCD7" stroke="#B7BCD7" stroke-width="2" stroke-miterlimit="10" d="M113.38,82.54l0.9,1.44
			l-1.35,0.98c-0.39,0.31-0.89,0.66-1.45,1.05c-1.05,0.73-2.35,1.63-3.72,2.85c-0.26,0.24-0.54,0.51-0.83,0.77l-1.05-1.33
			c0.29-0.26,0.57-0.52,0.84-0.78c1.46-1.29,2.81-2.23,3.89-2.98c0.54-0.37,1.01-0.7,1.41-1.01L113.38,82.54z M101.17,92.43
			l1.02,1.35c-0.76,0.67-1.54,1.36-2.34,2.09l-1.03-1.34C99.63,93.8,100.41,93.1,101.17,92.43z M94.22,98.91l1.1,1.27
			c-1.63,1.65-3.11,3.26-4.53,4.93c-1.31,1.42-2.61,2.89-3.92,4.43l-1.19-1.18c1.32-1.56,2.64-3.05,3.94-4.46
			C91.05,102.23,92.56,100.58,94.22,98.91z M82.64,112.08l1.22,1.13c-1.94,2.44-3.85,5-5.7,7.62l-1.28-1.05
			C78.74,117.13,80.68,114.54,82.64,112.08z M73.27,125.11l1.31,1c-0.58,0.89-1.15,1.78-1.72,2.69l-1.34-0.97
			C72.1,126.91,72.68,126,73.27,125.11z M68.2,133.36l1.38,0.91c-2.15,3.73-4.18,7.55-6.02,11.35l-1.43-0.81
			C63.98,140.98,66.03,137.13,68.2,133.36z M60.07,149.25l1.45,0.76c-1.32,2.94-2.57,5.95-3.71,8.94l-1.49-0.65
			C57.47,155.26,58.72,152.22,60.07,149.25z M54.12,164.47l1.52,0.58c-0.3,0.91-0.59,1.82-0.88,2.74l-0.08,0.32l-1.55-0.48
			l0.09-0.36C53.53,166.3,53.82,165.38,54.12,164.47z M51.36,173.89l1.53,0.52c-1.29,4.45-2.41,8.47-3.02,12.58l-1.6-0.27
			C48.92,182.48,50.05,178.4,51.36,173.89z M47.39,191.51l1.58,0.34l-0.96,5.12l-0.44,4.52l-1.6-0.19l0.64-5.65L47.39,191.51z
			 M45.28,207.83l1.6,0.2c-0.12,1.08-0.21,2.16-0.28,3.23l-1.61-0.12C45.07,210.04,45.16,208.94,45.28,207.83z M44.77,217.75
			l1.61,0.02c-0.01,1.14-0.01,2.27-0.02,3.39c0,1.22-0.01,2.44-0.02,3.64l-0.03,4.31c0.02,0.54,0.07,1.12,0.12,1.7l-1.61,0.16
			c-0.05-0.6-0.09-1.21-0.12-1.82l0.03-4.37c0.01-1.2,0.02-2.41,0.03-3.63C44.75,220.03,44.75,218.9,44.77,217.75z M45.22,235.88
			l1.61-0.16l0.44,5.41c0.06,1.39,0.19,2.8,0.4,4.35l-1.6,0.25c-0.21-1.61-0.34-3.08-0.41-4.49L45.22,235.88z M47.18,252.24
			l1.58-0.33c0.18,0.99,0.35,1.95,0.49,2.89l0.06,0.35l-1.58,0.31l-0.06-0.35C47.53,254.16,47.36,253.21,47.18,252.24z
			 M48.91,261.94l1.57-0.38c0.3,1.41,0.6,2.57,0.91,3.56l2.46,9l-1.55,0.49l-2.44-8.96C49.54,264.63,49.22,263.41,48.91,261.94z"/>
		<polygon id="path_x5F_3_12_" fill="#B7BCD7" stroke="#B7BCD7" stroke-width="2" stroke-miterlimit="10" points="121.13,76.96 
			122.03,78.4 116.7,82.24 115.8,80.79 		"/>
		<polygon id="path_x5F_3_11_" fill="#B7BCD7" stroke="#B7BCD7" stroke-width="2" stroke-miterlimit="10" points="121.2,76.91 
			126.85,73.68 127.6,75.22 121.95,78.45 		"/>
		<path id="path_x5F_3_10_" fill="#B7BCD7" stroke="#B7BCD7" stroke-width="2" stroke-miterlimit="10" d="M132.18,70.63l2.69-1.54
			l0.76,1.53l-2.69,1.54L132.18,70.63z M140.57,66.53l7.47-3.28c0.34-0.17,0.68-0.32,1-0.45l0.58,1.62
			c-0.29,0.12-0.61,0.26-0.95,0.43l-7.49,3.29L140.57,66.53z"/>
		<path id="path_x5F_3_9_" fill="#B7BCD7" stroke="#B7BCD7" stroke-width="2" stroke-miterlimit="10" d="M153.27,61.35l8.3-2.63
			c0.94-0.35,2.07-0.69,3.44-1.03l0.36,1.7c-1.31,0.32-2.39,0.65-3.3,0.99l-8.34,2.65L153.27,61.35z M171.01,56.41l0.32-0.06
			c0.88-0.16,1.76-0.34,2.66-0.53l0.31,1.71c-0.92,0.19-1.81,0.38-2.68,0.53l-0.32,0.06L171.01,56.41z M180.01,54.63
			c1.49-0.23,2.84-0.38,4.16-0.44l4.98-0.48l0.14,1.73l-5.01,0.48c-1.3,0.07-2.61,0.21-4.03,0.43L180.01,54.63z M193.68,53.26
			c0.57-0.06,1.13-0.11,1.69-0.13l4.05,0.04c1.11,0.02,2.23,0.02,3.36,0.02c1.04,0.01,2.09,0.01,3.15,0.03l-0.02,1.74
			c-1.06-0.01-2.1-0.01-3.14-0.02c-1.13-0.01-2.26-0.01-3.37-0.02l-4-0.04c-0.5,0.03-1.04,0.08-1.57,0.12L193.68,53.26z
			 M212.06,53.46c1.02,0.08,2.04,0.18,3.07,0.31l-0.19,1.72c-1-0.13-2-0.23-2.99-0.3L212.06,53.46z M221.16,54.51l5.24,0.69
			l3.85,0.84l-0.32,1.71l-4.75-1.04l-4.18-0.48L221.16,54.51z M234.69,57.01c3.93,0.68,7.71,1.9,11.88,3.32l-0.48,1.66
			c-4.12-1.39-7.84-2.6-11.66-3.26L234.69,57.01z M252.37,62.24l0.34,0.1c0.89,0.33,1.75,0.64,2.59,0.97l-0.54,1.64
			c-0.85-0.32-1.69-0.64-2.54-0.95l-0.3-0.09L252.37,62.24z M261.02,65.68c2.81,1.24,5.63,2.6,8.39,4.04l-0.71,1.57
			c-2.72-1.43-5.51-2.77-8.28-4L261.02,65.68z M273.49,71.95c3.56,2,7.13,4.21,10.61,6.55l-0.85,1.48c-3.46-2.32-7-4.51-10.52-6.49
			L273.49,71.95z M289.24,82.1c0.85,0.62,1.69,1.25,2.52,1.88l-0.93,1.42c-0.82-0.63-1.65-1.24-2.49-1.85L289.24,82.1z
			 M296.69,87.88c2.46,2.01,4.85,4.11,7.14,6.22l-1.05,1.32c-2.27-2.09-4.64-4.16-7.07-6.16L296.69,87.88z M307.27,97.39
			c1.44,1.43,2.82,2.85,4.13,4.25c1.55,1.54,3.08,3.17,4.63,4.96l-1.18,1.19c-1.52-1.76-3.02-3.35-4.56-4.89
			c-1.31-1.42-2.67-2.82-4.11-4.23L307.27,97.39z M320.08,111.56c0.68,0.87,1.32,1.72,1.95,2.54l-1.25,1.1
			c-0.62-0.81-1.26-1.66-1.93-2.52L320.08,111.56z M325.86,119.18c0.24,0.31,0.48,0.61,0.72,0.9c1.2,1.58,2.07,3.04,2.76,4.2
			c0.35,0.58,0.65,1.09,0.94,1.52l0.92,1.49l-1.34,0.96l-0.9-1.45c-0.28-0.42-0.61-0.96-0.97-1.57c-0.67-1.13-1.51-2.54-2.63-4.02
			c-0.22-0.28-0.47-0.58-0.72-0.91L325.86,119.18z"/>
		<polygon id="path_x5F_3_8_" fill="#B7BCD7" stroke="#B7BCD7" stroke-width="2" stroke-miterlimit="10" points="332.81,129.9 
			336.36,135.64 335.02,136.61 331.47,130.87 		"/>
		<polygon id="path_x5F_3_7_" fill="#B7BCD7" stroke="#B7BCD7" stroke-width="2" stroke-miterlimit="10" points="334.98,136.53 
			336.4,135.72 339.4,141.82 337.97,142.64 		"/>
		<path id="path_x5F_3_6_" fill="#B7BCD7" stroke="#B7BCD7" stroke-width="2" stroke-miterlimit="10" d="M340.79,148.4l1.42-0.82
			l1.43,2.9l-1.42,0.81L340.79,148.4z M344.53,157.28l1.5-0.65l3.04,8.06c0.15,0.37,0.29,0.73,0.41,1.07l-1.5,0.63
			c-0.11-0.32-0.25-0.66-0.4-1.02L344.53,157.28z"/>
		<path id="path_x5F_3_5_" fill="#B7BCD7" stroke="#B7BCD7" stroke-width="2" stroke-miterlimit="10" d="M349.27,170.83l1.54-0.49
			l2.44,8.96c0.33,1.01,0.64,2.23,0.95,3.7l-1.57,0.39c-0.3-1.41-0.6-2.58-0.91-3.56L349.27,170.83z M353.8,189.8l1.59-0.31
			l0.06,0.35c0.14,0.95,0.32,1.89,0.49,2.87l-1.58,0.34c-0.17-0.99-0.34-1.96-0.49-2.89L353.8,189.8z M355.45,199.47l1.6-0.25
			c0.22,1.61,0.35,3.07,0.41,4.48l0.44,5.37l-1.6,0.15l-0.45-5.4C355.79,202.43,355.66,201.02,355.45,199.47z M356.7,214.13
			l1.61-0.16c0.05,0.6,0.1,1.2,0.12,1.82l-0.04,4.37c-0.01,1.2-0.02,2.41-0.02,3.62c-0.01,1.13-0.01,2.26-0.02,3.4l-1.61-0.02
			c0.01-1.14,0.01-2.27,0.02-3.39c0-1.23,0.01-2.44,0.02-3.64l0.04-4.32C356.79,215.29,356.75,214.71,356.7,214.13z M356.52,233.69
			l1.6,0.12c-0.07,1.1-0.16,2.2-0.29,3.31l-1.6-0.21C356.36,235.83,356.45,234.76,356.52,233.69z M355.56,243.45l1.6,0.19
			l-0.65,5.65l-0.78,4.16l-1.58-0.34l0.97-5.12L355.56,243.45z M353.25,257.95l1.59,0.28c-0.63,4.23-1.77,8.31-3.08,12.83
			l-1.54-0.52C351.51,266.09,352.64,262.07,353.25,257.95z M348.44,276.84l1.55,0.48l-0.09,0.36c-0.3,0.96-0.6,1.89-0.9,2.81
			l-1.52-0.58c0.3-0.91,0.59-1.82,0.88-2.74L348.44,276.84z M345.31,286l1.5,0.66c-1.15,3.03-2.41,6.07-3.75,9.05l-1.45-0.76
			C342.93,292,344.18,288.99,345.31,286z M339.56,299.32l1.43,0.81c-1.86,3.84-3.9,7.69-6.07,11.46l-1.37-0.92
			C335.71,306.94,337.73,303.12,339.56,299.32z M330.26,316.14l1.33,0.98c-0.57,0.92-1.15,1.82-1.73,2.71l-1.32-1
			C329.12,317.95,329.69,317.06,330.26,316.14z M324.96,324.11l1.28,1.05c-1.87,2.65-3.81,5.24-5.77,7.71l-1.22-1.14
			C321.19,329.3,323.11,326.73,324.96,324.11z M316.24,335.41l1.19,1.17c-1.32,1.56-2.64,3.05-3.94,4.46
			c-1.42,1.68-2.93,3.32-4.59,5l-1.1-1.27c1.63-1.65,3.11-3.26,4.53-4.93C313.64,338.42,314.94,336.95,316.24,335.41z
			 M303.27,349.08l1.03,1.34c-0.81,0.73-1.59,1.43-2.35,2.1l-1.02-1.35C301.69,350.51,302.47,349.82,303.27,349.08z M296.21,355.33
			l1.04,1.33c-0.29,0.26-0.56,0.52-0.83,0.77c-1.47,1.3-2.81,2.23-3.9,2.99c-0.53,0.37-1.01,0.7-1.41,1.01l-1.37,0.99l-0.9-1.44
			l1.35-0.97c0.39-0.31,0.89-0.65,1.46-1.05c1.04-0.72,2.34-1.63,3.72-2.85C295.62,355.86,295.91,355.6,296.21,355.33z"/>
		<polygon id="path_x5F_3_4_" fill="#B7BCD7" stroke="#B7BCD7" stroke-width="2" stroke-miterlimit="10" points="286.42,362.71 
			287.32,364.16 282,367.99 281.1,366.54 		"/>
		<polygon id="path_x5F_3_2_" fill="#B7BCD7" stroke="#B7BCD7" stroke-width="2" stroke-miterlimit="10" points="275.52,369.73 
			281.18,366.5 281.93,368.03 276.27,371.27 		"/>
		<path id="path_x5F_3_3_" fill="#B7BCD7" stroke="#B7BCD7" stroke-width="2" stroke-miterlimit="10" d="M253.51,380.53
			c0.3-0.12,0.62-0.27,0.95-0.43l7.49-3.29l0.6,1.61l-7.46,3.28c-0.34,0.16-0.69,0.31-1,0.45L253.51,380.53z M267.5,374.32
			l2.68-1.54l0.76,1.54l-2.69,1.54L267.5,374.32z"/>
		<path id="path_x5F_3_1_" fill="#B7BCD7" stroke="#B7BCD7" stroke-width="2" stroke-miterlimit="10" d="M73.27,316.7l0.9,1.45
			c0.28,0.42,0.61,0.96,0.97,1.57c0.68,1.12,1.51,2.54,2.64,4.02c0.23,0.28,0.47,0.58,0.72,0.9l-1.23,1.12
			c-0.25-0.31-0.48-0.61-0.72-0.9c-1.2-1.58-2.07-3.04-2.77-4.2c-0.34-0.58-0.65-1.1-0.94-1.52l-0.92-1.48L73.27,316.7z
			 M82.34,329.75c0.62,0.82,1.26,1.66,1.93,2.53l-1.24,1.12c-0.68-0.87-1.32-1.72-1.94-2.54L82.34,329.75z M88.27,337.16
			c1.52,1.76,3.02,3.36,4.57,4.89c1.32,1.41,2.68,2.82,4.1,4.23l-1.09,1.28c-1.45-1.43-2.82-2.85-4.13-4.25
			c-1.55-1.54-3.08-3.17-4.63-4.96L88.27,337.16z M100.35,349.53c2.26,2.09,4.63,4.17,7.06,6.16l-0.98,1.39
			c-2.45-2.02-4.85-4.11-7.14-6.23L100.35,349.53z M112.3,359.55c0.82,0.62,1.65,1.24,2.49,1.86l-0.9,1.44
			c-0.85-0.62-1.69-1.24-2.53-1.87L112.3,359.55z M119.87,364.96c3.45,2.32,6.99,4.51,10.51,6.49l-0.75,1.54
			c-3.56-2-7.13-4.21-10.62-6.55L119.87,364.96z M134.43,373.66c2.73,1.43,5.51,2.77,8.29,4l-0.61,1.61
			c-2.81-1.24-5.63-2.6-8.38-4.05L134.43,373.66z M148.36,379.99c0.84,0.32,1.69,0.64,2.54,0.95l0.3,0.09l-0.45,1.67l-0.33-0.1
			c-0.9-0.32-1.75-0.64-2.6-0.97L148.36,379.99z M157.04,382.96c4.12,1.39,7.84,2.6,11.66,3.26l-0.26,1.72
			c-3.92-0.68-7.7-1.91-11.88-3.32L157.04,382.96z M173.19,387.2l4.75,1.04l4.19,0.48l-0.17,1.73l-5.23-0.7l-3.85-0.84L173.19,387.2
			z M188.18,389.45c1,0.13,2,0.22,2.99,0.3l-0.11,1.73c-1.02-0.08-2.04-0.18-3.07-0.31L188.18,389.45z M197.21,390
			c1.06,0.01,2.1,0.02,3.14,0.02c1.13,0,2.26,0.01,3.37,0.03l4,0.04c0.5-0.03,1.04-0.07,1.58-0.13l0.14,1.73
			c-0.56,0.05-1.12,0.1-1.69,0.13l-4.05-0.03c-1.11-0.02-2.23-0.02-3.35-0.03c-1.04,0-2.1-0.01-3.15-0.02L197.21,390z
			 M213.84,389.51l5.01-0.48c1.29-0.06,2.61-0.21,4.03-0.43l0.24,1.72c-1.49,0.24-2.85,0.38-4.16,0.45l-4.97,0.48L213.84,389.51z
			 M228.82,387.42c0.92-0.19,1.81-0.38,2.68-0.53l0.32-0.06l0.28,1.71l-0.32,0.06c-0.87,0.15-1.75,0.34-2.66,0.53L228.82,387.42z
			 M237.76,385.56c1.3-0.32,2.38-0.64,3.3-0.98l8.34-2.65l0.45,1.67l-8.3,2.63c-0.93,0.35-2.07,0.69-3.43,1.03L237.76,385.56z"/>
		<polygon id="path_x5F_3" fill="#B7BCD7" stroke="#B7BCD7" stroke-width="2" stroke-miterlimit="10" points="68.11,308.34 
			71.65,314.08 70.32,315.05 66.76,309.31 		"/>
	</g>
	<g id="Main_x5F_path_x5F_3">
		<linearGradient id="path_x5F_5_6_" gradientUnits="userSpaceOnUse" x1="524.475" y1="-13.3381" x2="-182.4026" y2="453.2442">
			<stop  offset="0" style="stop-color:#FBB03C"/>
			<stop  offset="0.0993" style="stop-color:#EDA73E"/>
			<stop  offset="0.2355" style="stop-color:#D49642"/>
			<stop  offset="0.393" style="stop-color:#AF7D46"/>
			<stop  offset="0.5666" style="stop-color:#825F45"/>
			<stop  offset="0.7534" style="stop-color:#513E3D"/>
			<stop  offset="0.9484" style="stop-color:#211C2D"/>
			<stop  offset="1" style="stop-color:#111028"/>
		</linearGradient>
		<path id="path_x5F_5_5_" fill="url(#path_x5F_5_6_)" d="M35.29,183.74c2.94-14.34,6.9-26.08,10.26-34.48
			c6.65-15.41,14.08-28.92,20.93-38.06c1.13-1.53,2.17-2.97,3.11-4.27c1.6-2.21,2.93-4.04,4.02-5.41l2.85-3.21l1.92,1.98l-2.79,3.15
			c-1.01,1.28-2.32,3.08-3.89,5.25c-0.95,1.31-1.99,2.75-3.13,4.3c-6.72,8.97-14.03,22.27-20.58,37.44
			c-5.13,12.81-11.69,33.58-13.7,59.6c-1.82,23.31,0.72,47.44,7.34,69.8c6.51,22.31,17.27,43.66,31.14,61.74
			c12.81,16.71,27.68,30.59,42.99,40.16c2.72,2.04,5.52,3.56,8.22,5.02l2.3,1.26c1.22,0.64,2.44,1.32,3.63,1.99
			c2.09,1.17,4.06,2.28,6.04,3.12l8.95,3.73c0.91,0.35,1.81,0.74,2.68,1.12c1.69,0.73,3.28,1.42,4.79,1.77l14.98,4.44l-0.7,2.77
			l-14.91-4.43c-1.66-0.38-3.35-1.11-5.14-1.9c-0.85-0.36-1.72-0.74-2.62-1.09l-8.98-3.75c-2.11-0.89-4.15-2.03-6.31-3.24
			c-1.17-0.66-2.36-1.33-3.59-1.97l-2.31-1.25c-2.79-1.51-5.68-3.07-8.46-5.17c-15.49-9.66-30.61-23.77-43.61-40.74
			c-14.08-18.37-25.01-40.05-31.62-62.71c-6.73-22.7-9.31-47.23-7.46-70.91C32.35,200.39,33.66,191.67,35.29,183.74z"/>
		<linearGradient id="path_x5F_5_7_" gradientUnits="userSpaceOnUse" x1="524.9843" y1="-36.5857" x2="-197.555" y2="440.3343">
			<stop  offset="0" style="stop-color:#FBB03C"/>
			<stop  offset="0.0993" style="stop-color:#EDA73E"/>
			<stop  offset="0.2355" style="stop-color:#D49642"/>
			<stop  offset="0.393" style="stop-color:#AF7D46"/>
			<stop  offset="0.5666" style="stop-color:#825F45"/>
			<stop  offset="0.7534" style="stop-color:#513E3D"/>
			<stop  offset="0.9484" style="stop-color:#211C2D"/>
			<stop  offset="1" style="stop-color:#111028"/>
		</linearGradient>
		<path id="path_x5F_5_4_" fill="url(#path_x5F_5_7_)" d="M25.36,195.1l10.48,1.91l-0.3,1.92c-0.04,0.33-0.13,0.9-0.24,1.55
			c-0.16,0.96-0.36,2.13-0.49,3.5c-0.07,1.38-0.19,3.27-0.33,5.39c-0.27,4.02-0.56,8.58-0.73,13.78
			c-0.06,18.46,2.86,39.16,8.02,56.61l2.8,8.89c0.61,1.98,1.2,3.84,1.95,5.46l5.97,14.19l8.62,16.01l4.48,6.84
			c3.26,5.35,6.54,9.42,9.18,12.69l5.1,6.38c0.49,0.64,0.78,0.96,0.86,1.05l-7.33,8.3c0,0-0.63-0.62-1.65-1.95l-5-6.25
			c-2.7-3.35-6.4-7.94-9.95-13.77l-5.75-8.95l-8.14-15.36l-5.99-14.23c-1-2.14-1.73-4.48-2.43-6.75l-2.82-8.95
			c-5.51-18.65-8.62-40.64-8.55-60.42c0.17-5.59,0.49-10.46,0.75-14.38c0.14-2.05,0.25-3.87,0.33-5.47
			c0.19-1.99,0.42-3.45,0.62-4.64c0.08-0.49,0.15-0.91,0.2-1.28L25.36,195.1z"/>
		<linearGradient id="path_x5F_5_8_" gradientUnits="userSpaceOnUse" x1="478.7538" y1="-40.0778" x2="-189.9485" y2="401.3065">
			<stop  offset="0" style="stop-color:#FBB03C"/>
			<stop  offset="0.0993" style="stop-color:#EDA73E"/>
			<stop  offset="0.2355" style="stop-color:#D49642"/>
			<stop  offset="0.393" style="stop-color:#AF7D46"/>
			<stop  offset="0.5666" style="stop-color:#825F45"/>
			<stop  offset="0.7534" style="stop-color:#513E3D"/>
			<stop  offset="0.9484" style="stop-color:#211C2D"/>
			<stop  offset="1" style="stop-color:#111028"/>
		</linearGradient>
		<path id="path_x5F_5_3_" fill="url(#path_x5F_5_8_)" d="M76.45,98.31l8.27-9.34l12.41-11.55c0.9-0.74,1.77-1.4,2.66-2.07
			l10.39-7.94c2.14-1.46,4.34-2.81,6.62-4.19c1.29-0.79,2.61-1.6,3.94-2.44c11.95-7.05,31.08-16.33,54.56-20.61
			c21.55-4.04,44.42-3.45,66.14,1.74c21.72,5.18,42.7,15.05,60.67,28.52c19.61,14.57,33.34,31.68,41.4,43.48
			c0.89,1.4,1.78,2.73,2.64,4.04c1.52,2.29,3,4.52,4.33,6.75l6.36,11.99c0.55,1.02,1.08,2.01,1.57,3l7.05,17.03l3.6,11.41
			l-2.51,0.93l-3.86-12.24l-6.65-15.86c-0.44-0.88-0.96-1.85-1.49-2.84l-6.33-11.94c-1.27-2.12-2.72-4.31-4.22-6.57
			c-0.87-1.32-1.76-2.66-2.64-4.03c-7.92-11.59-21.43-28.45-40.75-42.79c-17.69-13.26-38.34-22.97-59.73-28.08
			c-21.39-5.1-43.9-5.69-65.12-1.71c-23.12,4.21-41.96,13.35-53.7,20.28c-1.3,0.82-2.63,1.63-3.94,2.43
			c-2.24,1.37-4.41,2.7-6.45,4.09l-10.34,7.9c-0.87,0.66-1.72,1.3-2.52,1.95L86.08,91.59l-7.72,8.71L76.45,98.31z"/>
		<linearGradient id="path_x5F_5_9_" gradientUnits="userSpaceOnUse" x1="450.7028" y1="-83.986" x2="-215.475" y2="355.732">
			<stop  offset="0" style="stop-color:#FBB03C"/>
			<stop  offset="0.0993" style="stop-color:#EDA73E"/>
			<stop  offset="0.2355" style="stop-color:#D49642"/>
			<stop  offset="0.393" style="stop-color:#AF7D46"/>
			<stop  offset="0.5666" style="stop-color:#825F45"/>
			<stop  offset="0.7534" style="stop-color:#513E3D"/>
			<stop  offset="0.9484" style="stop-color:#211C2D"/>
			<stop  offset="1" style="stop-color:#111028"/>
		</linearGradient>
		<path id="path_x5F_5_2_" fill="url(#path_x5F_5_9_)" d="M161.33,34.78l7.82-1.99c0.89-0.23,1.84-0.48,2.85-0.65l14.49-2.1
			c11.16-1.05,33-1.92,56.63,3.63c23.63,5.73,43.08,16.46,52.58,22.35l12.46,8.58c0.94,0.66,1.7,1.32,2.42,1.94l6.31,5.35
			l-6.57,9.02l-5.42-4.6c-0.26-0.21-0.61-0.52-0.98-0.84c-0.48-0.4-0.98-0.85-1.55-1.26l-12.17-8.39
			c-15.06-9.33-33.13-17.02-49.37-20.96c-16.23-3.81-35.62-5.06-53.17-3.43L173.5,43.5c-0.59,0.1-1.21,0.27-1.8,0.43
			c-0.46,0.12-0.91,0.24-1.35,0.34l-6.58,1.68L161.33,34.78z"/>
		<linearGradient id="path_x5F_5_10_" gradientUnits="userSpaceOnUse" x1="582.9161" y1="109.7536" x2="-104.9849" y2="563.8102">
			<stop  offset="0" style="stop-color:#FBB03C"/>
			<stop  offset="0.0993" style="stop-color:#EDA73E"/>
			<stop  offset="0.2355" style="stop-color:#D49642"/>
			<stop  offset="0.393" style="stop-color:#AF7D46"/>
			<stop  offset="0.5666" style="stop-color:#825F45"/>
			<stop  offset="0.7534" style="stop-color:#513E3D"/>
			<stop  offset="0.9484" style="stop-color:#211C2D"/>
			<stop  offset="1" style="stop-color:#111028"/>
		</linearGradient>
		<path id="path_x5F_5_1_" fill="url(#path_x5F_5_10_)" d="M167.21,404.14l15.25,2.77c1.58,0.38,3.29,0.48,5.11,0.59
			c0.94,0.05,1.91,0.11,2.9,0.21l9.54,0.69c2.11,0.14,4.34,0.03,6.69-0.08c1.34-0.07,2.71-0.13,4.11-0.16l2.54-0.09
			c3.02-0.09,6.15-0.19,9.3-0.79c17.74-1.72,36.64-7.55,54.78-16.87c19.63-10.09,37.73-24.55,52.34-41.81
			c14.74-17.26,26.47-37.99,33.91-59.96c8.34-24.51,10.5-46.33,10.85-60.32c-0.02-16.7-1.45-32.08-4.04-43.26
			c-0.43-1.94-0.82-3.71-1.16-5.33c-0.58-2.68-1.06-4.91-1.49-6.61l-1.28-4.05l2.51-0.93l1.31,4.12c0.47,1.81,0.96,4.08,1.55,6.82
			c0.34,1.61,0.72,3.38,1.15,5.3c2.64,11.39,4.1,27.02,4.12,43.98c-0.35,14.24-2.55,36.4-11.01,61.27
			c-7.57,22.32-19.48,43.38-34.45,60.91c-14.83,17.54-33.22,32.22-53.15,42.47c-18.42,9.47-37.64,15.39-55.57,17.11
			c-3.23,0.63-6.46,0.73-9.58,0.83l-2.54,0.09c-1.4,0.03-2.75,0.09-4.07,0.15c-2.43,0.12-4.72,0.23-6.98,0.07l-9.58-0.69
			c-0.99-0.09-1.93-0.15-2.84-0.2c-1.93-0.11-3.75-0.21-5.47-0.64l-15.18-2.75L167.21,404.14z"/>
		<linearGradient id="path_x5F_5_11_" gradientUnits="userSpaceOnUse" x1="607.7498" y1="152.1129" x2="-78.9955" y2="605.4066">
			<stop  offset="0" style="stop-color:#FBB03C"/>
			<stop  offset="0.0993" style="stop-color:#EDA73E"/>
			<stop  offset="0.2355" style="stop-color:#D49642"/>
			<stop  offset="0.393" style="stop-color:#AF7D46"/>
			<stop  offset="0.5666" style="stop-color:#825F45"/>
			<stop  offset="0.7534" style="stop-color:#513E3D"/>
			<stop  offset="0.9484" style="stop-color:#211C2D"/>
			<stop  offset="1" style="stop-color:#111028"/>
		</linearGradient>
		<path id="path_x5F_5" fill="url(#path_x5F_5_11_)" d="M263.09,399.14l3.26-3.56c0.09-0.03,0.49-0.2,1.14-0.53l7.19-3.51
			c3.68-1.77,8.25-3.96,13.14-7.23l10.13-6.6l10.83-8.26l10.8-10c1.46-1.26,2.71-2.67,4.03-4.18l6.11-6.9
			c11.42-13.39,22.15-30.83,29.37-47.77c1.82-4.65,3.33-8.93,4.67-12.71c0.69-1.97,1.32-3.73,1.88-5.26
			c0.33-1.05,0.61-2.2,0.84-3.15c0.16-0.63,0.29-1.19,0.43-1.66l0.43-1.72l10.25,3.03l-0.48,1.87c-0.14,0.51-0.24,0.93-0.36,1.4
			c-0.28,1.17-0.64,2.6-1.16,4.22c-0.64,1.74-1.24,3.45-1.91,5.34c-1.3,3.68-2.91,8.25-4.88,13.26
			c-7.73,18.13-19.12,36.65-31.34,50.97l-6.15,6.95c-1.52,1.72-3.08,3.5-4.97,5.12l-11.22,10.36l-16.77,12.36l-5.09,3.14
			c-5.35,3.59-10.5,6.06-14.25,7.86l-7.05,3.44c-1.11,0.57-1.86,0.86-2.02,0.92l-1.82-5.39L263.09,399.14z"/>
	</g>
	<g id="Main_x5F_path_x5F_2">
		<path id="path_x5F_2_3_" fill="#B7BCD7" stroke="#B7BCD7" stroke-width="2" stroke-miterlimit="10" d="M100.78,50.18l0.98,1.59
			l-5.89,4.24l-0.98-1.59L100.78,50.18z M89,58.68l1,1.58l-0.38,0.27l-5.05,4.5l-1.13-1.47L89,58.68z M77.97,68.43l1.12,1.48
			l-2.39,2.13c-0.88,0.76-1.77,1.62-2.89,2.83l-1.25-1.35c1.17-1.26,2.1-2.17,3.02-2.96L77.97,68.43z M67.58,78.95l1.26,1.35
			l-4.98,5.44l-1.25-1.35L67.58,78.95z M57.89,90.22l1.37,1.21l-4.44,5.89l-1.38-1.19L57.89,90.22z M48.97,102.19l1.45,1.1
			c-0.54,0.83-1.06,1.69-1.57,2.54c-0.41,0.67-0.81,1.34-1.23,2l-1.1,1.81l-1.48-1.06l1.11-1.82c0.42-0.66,0.82-1.32,1.21-1.98
			C47.89,103.91,48.42,103.03,48.97,102.19z M41.13,114.96l1.48,1.06l-2.01,3.28c-0.53,1.01-1.09,2.09-1.64,3.18l-1.55-0.92
			c0.56-1.09,1.12-2.18,1.69-3.26L41.13,114.96z M34.08,128.35l1.58,0.87c-1.06,2.25-2.08,4.53-3.09,6.85l-1.6-0.81
			C31.98,132.92,33.02,130.62,34.08,128.35z M28.07,142.28l1.64,0.75c-0.92,2.33-1.81,4.68-2.66,7.05l-1.65-0.69
			C26.25,146.99,27.14,144.62,28.07,142.28z M22.93,156.59l1.67,0.63c-0.77,2.39-1.51,4.8-2.21,7.23l-1.69-0.57
			C21.4,161.43,22.14,159,22.93,156.59z M18.68,171.3l1.72,0.46l-0.3,1.2c-0.45,2.05-0.88,4.12-1.29,6.2l-1.73-0.39
			c0.4-2.1,0.84-4.2,1.3-6.29L18.68,171.3z M15.76,186.32l1.75,0.32c-0.4,2.51-0.76,5.02-1.08,7.53l-1.75-0.26
			C15,191.38,15.36,188.85,15.76,186.32z M13.83,201.53l1.77,0.19c-0.25,2.53-0.44,5.06-0.61,7.59l-1.77-0.13
			C13.39,206.64,13.59,204.09,13.83,201.53z M12.84,216.85l1.77,0.07c-0.09,2.56-0.13,5.09-0.14,7.61l-1.77-0.01
			C12.7,221.99,12.75,219.42,12.84,216.85z M12.87,232.25l1.76-0.17l0.62,7.61l-1.76,0.17L12.87,232.25z M14.12,247.49l1.77-0.16
			c0.1,1.21,0.2,2.42,0.36,3.6l0.68,3.85l-1.74,0.36l-0.68-3.89C14.32,249.99,14.21,248.74,14.12,247.49z M16.49,262.66l1.74-0.36
			l1.32,7.41l-1.69,0.55l-0.25-1.25L16.49,262.66z M19.84,277.6l1.7-0.54l0.97,3.58c0.37,1.25,0.7,2.52,1.02,3.76l-1.71,0.52
			c-0.32-1.23-0.64-2.48-1.01-3.72L19.84,277.6z M24.12,292.27l1.64-0.71l2.67,7.08l-1.64,0.72L24.12,292.27z M29.46,306.44
			l1.63-0.72l0.71,1.89l2.39,4.88l-1.57,0.89l-2.42-4.97L29.46,306.44z M35.95,320.14l1.57-0.89l3.32,6.76l-1.56,0.89L35.95,320.14z
			"/>
		<path id="path_x5F_2_2_" fill="#B7BCD7" stroke="#B7BCD7" stroke-width="2" stroke-miterlimit="10" d="M104.83,47.28l6.26-3.58
			l0.83,1.69l-6.26,3.58L104.83,47.28z M117.35,40.11l4.6-2.62l1.83-0.81l0.67,1.77l-1.75,0.77l-4.52,2.58L117.35,40.11z
			 M130.34,33.81l6.56-2.88l0.67,1.77l-6.56,2.88L130.34,33.81z M143.71,28.45c1.13-0.34,2.29-0.69,3.44-1.09l3.34-1.06l0.5,1.84
			l-3.32,1.05c-1.16,0.4-2.33,0.75-3.49,1.1L143.71,28.45z M157.29,24.16l1.16-0.27l5.88-1.2l0.33,1.88l-6.86,1.42L157.29,24.16z
			 M171.3,21.27l3.6-0.73c1.17-0.19,2.33-0.31,3.49-0.41l0.15,1.91c-1.13,0.1-2.24,0.21-3.34,0.39l-3.57,0.73L171.3,21.27z
			 M185.45,19.45l7.05-0.67l0.16,1.9l-7.06,0.68L185.45,19.45z M199.66,18.59c2.35,0.01,4.72,0.06,7.11,0.16l-0.06,1.91
			c-2.37-0.09-4.72-0.14-7.05-0.15L199.66,18.59z M213.88,19.16c2.35,0.18,4.72,0.4,7.09,0.66l-0.18,1.9
			c-2.34-0.26-4.69-0.48-7.02-0.66L213.88,19.16z M228.02,20.73c2.35,0.34,4.69,0.73,7.04,1.16l-0.3,1.89
			c-2.32-0.43-4.64-0.82-6.97-1.16L228.02,20.73z M242.05,23.33c1.94,0.43,3.89,0.9,5.82,1.4l1.1,0.32l-0.43,1.86l-1.11-0.32
			c-1.9-0.49-3.82-0.95-5.74-1.38L242.05,23.33z M255.83,27.22c2.27,0.77,4.53,1.57,6.76,2.41l-0.59,1.8
			c-2.21-0.84-4.45-1.64-6.7-2.39L255.83,27.22z M269.27,32.29c2.22,0.93,4.41,1.9,6.59,2.9l-0.7,1.76
			c-2.16-0.99-4.33-1.95-6.54-2.87L269.27,32.29z M282.36,38.32c2.16,1.09,4.3,2.21,6.39,3.36l-0.8,1.71
			c-2.08-1.14-4.2-2.25-6.34-3.34L282.36,38.32z M295.05,45.26c1.01,0.6,2.02,1.2,3.02,1.83l3.09,2.2l-0.97,1.59l-3.04-2.16
			c-0.94-0.57-1.94-1.18-2.95-1.77L295.05,45.26z M307.07,53.5l1.68,1.2c0.62,0.45,1.23,0.88,1.83,1.31
			c0.81,0.57,1.62,1.14,2.41,1.73l-1.02,1.57c-0.76-0.58-1.56-1.14-2.35-1.69c-0.62-0.44-1.24-0.87-1.85-1.33l-1.68-1.19
			L307.07,53.5z M318.59,62.57l-0.58,0.72L318.59,62.57l5.48,4.8l-1.12,1.49l-5.46-4.79L318.59,62.57z M329.47,72.46l5.04,5.38
			l-1.24,1.36l-5.05-5.37L329.47,72.46z M339.56,83.22c1.17,1.26,2.02,2.27,2.74,3.27l1.96,2.56l-1.37,1.22l-1.97-2.58
			c-0.7-0.95-1.5-1.91-2.62-3.12L339.56,83.22z M348.77,94.95l4.52,6l-1.47,1.07l-0.25-0.41l-4.18-5.46L348.77,94.95z
			 M357.23,107.32l3.93,6.36l-1.47,1.06l-3.93-6.36L357.23,107.32z"/>
		<path id="path_x5F_2_1_" fill="#B7BCD7" stroke="#B7BCD7" stroke-width="2" stroke-miterlimit="10" d="M362.29,118.94l1.56-0.89
			l3.32,6.76l-1.56,0.9L362.29,118.94z M368.93,132.46l1.56-0.89l2.43,4.97l0.75,1.97l-1.64,0.73l-0.71-1.89L368.93,132.46z
			 M374.69,146.31l1.64-0.72l2.67,7.08l-1.64,0.72L374.69,146.31z M379.58,160.54l1.7-0.52c0.32,1.23,0.65,2.47,1.01,3.72l0.98,3.6
			l-1.7,0.54l-0.97-3.58C380.24,163.06,379.91,161.79,379.58,160.54z M383.57,175.24l1.7-0.55l0.25,1.26l1.12,6.35l-1.74,0.36
			L383.57,175.24z M386.2,190.16l1.75-0.36l0.68,3.89c0.18,1.26,0.28,2.51,0.38,3.77l-1.77,0.16c-0.1-1.21-0.19-2.42-0.36-3.61
			L386.2,190.16z M387.86,205.25l1.76-0.17l0.62,7.62l-1.76,0.17L387.86,205.25z M388.66,220.41l1.77,0.01
			c-0.01,2.54-0.05,5.1-0.14,7.67l-1.77-0.07C388.6,225.47,388.65,222.93,388.66,220.41z M388.14,235.63l1.76,0.14
			c-0.16,2.54-0.37,5.09-0.61,7.65l-1.77-0.2C387.77,240.69,387.97,238.15,388.14,235.63z M386.69,250.78l1.75,0.26
			c-0.32,2.53-0.68,5.06-1.08,7.59l-1.75-0.32C386.01,255.8,386.37,253.29,386.69,250.78z M384.3,265.79l1.73,0.39
			c-0.4,2.1-0.84,4.19-1.3,6.28l-0.3,1.19l-1.72-0.46l0.3-1.2C383.47,269.94,383.9,267.87,384.3,265.79z M380.74,280.49l1.69,0.57
			c-0.71,2.45-1.45,4.88-2.23,7.29l-1.67-0.64C379.3,285.33,380.04,282.92,380.74,280.49z M376.09,294.87l1.65,0.7
			c-0.86,2.39-1.76,4.76-2.68,7.11l-1.63-0.75C374.34,299.6,375.23,297.25,376.09,294.87z M370.55,308.88l1.61,0.81
			c-1.01,2.34-2.04,4.64-3.11,6.91l-1.58-0.87C368.52,313.48,369.55,311.19,370.55,308.88z M364.17,322.47l1.55,0.92
			c-0.55,1.1-1.12,2.18-1.68,3.26l-2.04,3.33l-1.48-1.05l2-3.28C363.06,324.64,363.62,323.55,364.17,322.47z M356.61,335.31
			l1.48,1.06l-1.11,1.81c-0.42,0.66-0.81,1.32-1.21,1.98c-0.53,0.88-1.05,1.75-1.6,2.59l-1.45-1.1c0.54-0.83,1.05-1.68,1.57-2.54
			c0.4-0.67,0.81-1.34,1.23-2L356.61,335.31z M348.29,347.63l1.38,1.19l-4.44,5.91l-1.37-1.2L348.29,347.63z M339.26,359.21
			l1.26,1.34l-4.99,5.44l-1.26-1.34L339.26,359.21z M329.31,370.09l1.25,1.35c-1.17,1.26-2.1,2.17-3.03,2.97l-2.38,2.11l-1.13-1.48
			l2.4-2.13C327.3,372.16,328.2,371.29,329.31,370.09z M318.56,379.91l1.12,1.48l-5.56,4.88l-0.99-1.58l0.37-0.27L318.56,379.91z
			 M307.25,388.93l0.98,1.59l-5.9,4.24l-0.98-1.59L307.25,388.93z"/>
		<path id="path_x5F_2" fill="#B7BCD7" stroke="#B7BCD7" stroke-width="2" stroke-miterlimit="10" d="M43.43,330.2l3.93,6.37
			l-1.47,1.06l-3.93-6.36L43.43,330.2z M51.3,342.92l0.25,0.4l4.18,5.46l-1.37,1.22l-4.53-6L51.3,342.92z M60.23,354.68l1.97,2.59
			c0.7,0.95,1.5,1.91,2.62,3.12l-1.25,1.35c-1.17-1.26-2.01-2.27-2.75-3.27l-1.96-2.56L60.23,354.68z M69.86,365.74l5.04,5.38
			l-1.25,1.36l-5.04-5.38L69.86,365.74z M80.17,376.08l5.46,4.79l-1.1,1.5l0.58-0.72l-0.58,0.72l-5.48-4.8L80.17,376.08z
			 M91.15,385.64c0.77,0.58,1.57,1.14,2.36,1.7c0.62,0.44,1.24,0.87,1.85,1.33l1.67,1.19l-0.98,1.6l-1.68-1.2
			c-0.61-0.45-1.23-0.88-1.84-1.31c-0.81-0.57-1.62-1.14-2.4-1.73L91.15,385.64z M102.95,394.07l3.04,2.16
			c0.94,0.58,1.94,1.18,2.94,1.78l-0.85,1.67c-1.02-0.6-2.02-1.21-3.02-1.82l-3.09-2.2L102.95,394.07z M115.17,401.57
			c2.08,1.14,4.2,2.25,6.34,3.33l-0.75,1.73c-2.17-1.09-4.3-2.21-6.4-3.36L115.17,401.57z M127.97,408
			c2.15,0.99,4.33,1.95,6.53,2.88l-0.64,1.78c-2.22-0.93-4.42-1.9-6.59-2.9L127.97,408z M141.12,413.51
			c2.21,0.84,4.44,1.64,6.69,2.39l-0.52,1.82c-2.27-0.76-4.52-1.57-6.75-2.41L141.12,413.51z M154.58,418.04l1.11,0.32
			c1.9,0.49,3.82,0.95,5.74,1.38l-0.36,1.87c-1.94-0.44-3.88-0.9-5.82-1.41l-1.11-0.32L154.58,418.04z M168.37,421.17
			c2.32,0.43,4.65,0.81,6.97,1.16l-0.24,1.89c-2.34-0.34-4.69-0.73-7.03-1.16L168.37,421.17z M182.34,423.23
			c2.34,0.26,4.69,0.48,7.02,0.66l-0.12,1.9c-2.35-0.18-4.72-0.4-7.08-0.66L182.34,423.23z M196.42,424.29
			c2.37,0.09,4.72,0.14,7.05,0.16l0,1.91c-2.36-0.01-4.73-0.06-7.11-0.16L196.42,424.29z M210.46,424.27l7.06-0.68l0.16,1.9
			l-7.06,0.67L210.46,424.27z M224.59,422.92c1.12-0.1,2.24-0.21,3.34-0.39l3.57-0.73l0.33,1.88l-3.6,0.73
			c-1.17,0.2-2.33,0.31-3.49,0.41L224.59,422.92z M238.46,420.38l6.87-1.43l0.51,1.83l-1.16,0.27l-5.88,1.2L238.46,420.38z
			 M252.13,416.81l3.32-1.05c1.15-0.4,2.33-0.76,3.48-1.1l0.48,1.84c-1.14,0.35-2.29,0.69-3.45,1.1l-3.34,1.05L252.13,416.81z
			 M265.55,412.25l6.56-2.88l0.67,1.77l-6.56,2.88L265.55,412.25z M278.67,406.49l1.75-0.77l4.52-2.58l0.83,1.69l-4.6,2.62
			l-1.82,0.81L278.67,406.49z M291.2,399.57l6.27-3.58l0.83,1.69l-6.26,3.58L291.2,399.57z"/>
	</g>
	<g id="Main_x5F_path_x5F_1_x5F_First">
		<path id="path_x5F_1_2_" fill="#B7BCD7" stroke="#B7BCD7" stroke-width="2" stroke-miterlimit="10" d="M3.51,184.35
			c0.3-0.2,0.63-0.28,0.95-0.21c0.34,0.09,0.62,0.31,0.84,0.62c0.18,0.33,0.26,0.72,0.2,1.12l-0.31,1.54
			c-0.04,0.29-0.1,0.55-0.15,0.85c-0.11,0.47-0.18,1.01-0.3,1.62c-0.1,0.73-0.82,1.28-1.54,1.17c-0.69-0.13-1.17-0.85-1.07-1.63
			c0.11-0.7,0.23-1.31,0.32-1.81c0.06-0.26,0.09-0.5,0.12-0.74l0.32-1.59C2.98,184.88,3.21,184.55,3.51,184.35z M0.65,218.3
			L0.65,218.3c0.21-0.14,0.45-0.24,0.7-0.23c0.33,0.01,0.66,0.16,0.94,0.42c0.24,0.29,0.39,0.64,0.37,1.05
			c0,0.75-0.62,1.42-1.33,1.39c-0.73,0.02-1.29-0.64-1.32-1.42c-0.02-0.03,0.02-0.05,0.02-0.05C0.03,218.96,0.29,218.53,0.65,218.3z
			 M2.91,254.78c0.12-0.08,0.29-0.14,0.43-0.19c0.34-0.04,0.72,0.03,1,0.24c0.29,0.22,0.5,0.53,0.57,0.88
			c0.06,0.4,0.15,0.79,0.24,1.27l2.33,13.24c0.28,2,0.81,3.93,1.36,5.98l0.08,0.22c0.55,1.96,1.04,3.91,1.56,5.8l0.12,0.37
			c0.4,1.48,0.8,2.95,1.19,4.4c0.68,2.5,1.31,4.9,2.03,7.1c0.93,2.43,1.82,4.8,2.65,7.03l1.39,3.65c1.08,2.91,2.11,5.59,2.99,7.96
			c0.68,1.52,1.38,2.94,2,4.14c0.35,0.71,0.68,1.38,1,2.03c1.68,3.5,2.66,5.5,2.66,5.5c0.33,0.68,0.12,1.48-0.49,1.87l-0.06,0.04
			c-0.66,0.38-1.43,0.12-1.77-0.6c0,0-1.03-2.09-2.7-5.47c-0.29-0.61-0.61-1.25-0.94-1.93c-0.66-1.27-1.39-2.75-2.15-4.41l0-0.09
			c-0.67-1.75-1.38-3.61-2.12-5.62l-4.95-13.07c-0.8-2.42-1.44-4.91-2.14-7.53c-0.38-1.36-0.74-2.77-1.16-4.19
			c-0.28-1.11-0.59-2.2-0.88-3.31l-0.85-3.11c-0.57-1.99-1.14-4.08-1.45-6.28c-0.55-3.16-1.12-6.36-1.67-9.52l-0.65-3.63
			c-0.06-0.41-0.17-0.83-0.25-1.27C2.17,255.7,2.42,255.1,2.91,254.78z"/>
		<path id="path_x5F_1_3_" fill="#B7BCD7" stroke="#B7BCD7" stroke-width="2" stroke-miterlimit="10" d="M98.3,35.61
			c15.43-9.93,31.97-17.6,49.23-22.79c0.31-0.11,0.66-0.07,0.98,0.12c0.32,0.2,0.56,0.49,0.65,0.87c0.19,0.72-0.23,1.53-0.93,1.75
			c-16.97,5.13-33.34,12.69-48.51,22.46l-0.25,0.16c-3.59,2.31-7.17,4.79-10.67,7.41l-0.2,0.17c-0.35,0.27-0.71,0.5-1.06,0.77
			c-0.65,0.46-1.44,0.3-1.85-0.37c-0.21-0.31-0.28-0.66-0.21-1.07c0.05-0.35,0.26-0.71,0.55-0.94c0.37-0.28,0.8-0.56,1.21-0.87
			l0.06-0.04C90.82,40.61,94.52,38.04,98.3,35.61z M81.07,48.04c0.61-0.39,1.37-0.21,1.77,0.37c0.42,0.62,0.31,1.53-0.29,2.02
			l-0.03,0.02c-0.54,0.44-1.39,0.31-1.81-0.3c-0.43-0.62-0.29-1.5,0.23-1.97C80.98,48.1,81.04,48.06,81.07,48.04z M60.06,67.58
			c0.52-0.33,1.2-0.24,1.61,0.21c0.27,0.27,0.39,0.64,0.41,1.03c-0.01,0.36-0.14,0.72-0.39,1.01c-0.52,0.56-1.4,0.54-1.91-0.02
			c-0.51-0.56-0.48-1.47,0.04-2.03l0.03-0.02C59.91,67.67,59.97,67.64,60.06,67.58z M38.02,95.39c0.45-0.29,1.02-0.25,1.45,0.09
			c0.29,0.22,0.47,0.54,0.54,0.9c0.04,0.37-0.03,0.78-0.23,1.08c-0.64,0.94-1.24,1.86-1.84,2.79
			c-11.62,17.41-17.96,34.23-22.6,46.52l-0.88,2.3l-0.03,0.02c-1.27,4.11-2.28,7.74-3.1,10.67c-0.28,1.07-0.55,2.05-0.81,2.93
			c0,0,0,0-0.01,0.05c-0.21,0.67-0.99,1.12-1.65,0.89c-0.7-0.22-1.08-1.04-0.87-1.8c0.26-0.88,0.51-1.84,0.8-2.87
			c0.83-2.98,1.84-6.67,3.17-10.91l0.01-0.05c0.33-0.83,0.62-1.64,0.94-2.48c4.68-12.36,11.08-29.3,22.84-46.9
			c0.62-0.98,1.22-1.9,1.85-2.84C37.73,95.62,37.86,95.49,38.02,95.39z M180.51,6.15c0.15-0.1,0.37-0.15,0.56-0.18
			c0.34-0.04,0.71,0.08,0.96,0.32c0.27,0.27,0.45,0.6,0.49,0.97c0.05,0.77-0.5,1.48-1.19,1.57c-0.34,0.04-0.7-0.08-0.96-0.32
			c-0.3-0.25-0.45-0.6-0.49-0.98C179.83,7,180.06,6.44,180.51,6.15z M208.25,5.21C208.5,5.06,208.74,4.98,209,5
			c0.72,0.03,1.29,0.68,1.28,1.49c-0.05,0.74-0.67,1.41-1.38,1.38c-0.72-0.03-1.31-0.72-1.28-1.49
			C207.63,5.89,207.88,5.45,208.25,5.21z M214.42,5.56c0.24-0.16,0.49-0.23,0.78-0.23c10.9,0.77,21.7,2.55,32.09,5.16
			c11.51,2.83,22.96,6.9,34.02,12.07c0.32,0.15,0.6,0.41,0.72,0.78c0.12,0.37,0.13,0.76-0.02,1.08c-0.27,0.7-1.1,1.06-1.75,0.77
			c-10.9-5.1-22.19-9.1-33.57-11.92c-10.21-2.59-20.9-4.31-31.68-5.08c-0.35-0.04-0.68-0.19-0.89-0.49
			c-0.24-0.29-0.36-0.66-0.32-1.04C213.83,6.21,214.06,5.79,214.42,5.56z M6.78,167.42L6.78,167.42c0.31-0.2,0.71-0.28,1.07-0.15
			c0.7,0.22,1.07,1.05,0.87,1.8c-0.19,0.7-0.97,1.16-1.67,0.94c-0.66-0.24-1.05-1.01-0.88-1.75c0,0-0.02-0.03,0.01-0.05
			C6.29,167.87,6.51,167.59,6.78,167.42z M310.01,39.94c0.42-0.27,0.97-0.27,1.39,0.04c0.62,0.44,0.77,1.33,0.39,1.97
			c-0.39,0.65-1.23,0.84-1.83,0.42c-0.62-0.45-0.77-1.33-0.39-1.97C309.66,40.2,309.83,40.05,310.01,39.94z M332.21,57.88
			c0.49-0.32,1.1-0.26,1.52,0.14c0.3,0.25,0.46,0.59,0.5,0.97c0.04,0.37-0.08,0.76-0.29,1.03c-0.45,0.6-1.32,0.68-1.88,0.19
			c0,0-0.02-0.03-0.05-0.01c-0.22-0.26-0.41-0.59-0.43-0.93c-0.01-0.39,0.07-0.76,0.3-1.09C331.98,58.07,332.09,57.95,332.21,57.88z
			 M336.8,62.31c0.53-0.34,1.19-0.23,1.62,0.24c1.49,1.58,2.91,3.11,4.3,4.58l3,3.19c0.4,0.41,0.76,0.85,1.15,1.26
			c2.21,2.36,4.3,4.58,5.97,6.93l9.13,11.97c1.23,1.56,2,2.72,2.38,3.41l0.32,0.51c0.22,0.4,0.36,0.57,0.42,0.66l0,0
			c0.18,0.33,0.25,0.69,0.18,1.09c-0.06,0.34-0.27,0.71-0.57,0.9c-0.62,0.44-1.43,0.25-1.82-0.39c0,0-0.26-0.41-0.75-1.2
			c-0.38-0.69-1.05-1.77-2.17-3.11c-1.74-2.26-4.13-5.4-7.13-9.34l-2.08-2.71c-1.52-2.23-3.63-4.47-5.89-6.85l-2.52-2.7
			c-1.82-1.95-3.74-4-5.76-6.18c0,0,0,0-0.02-0.03c-0.52-0.56-0.52-1.45,0-2C336.64,62.46,336.71,62.37,336.8,62.31z"/>
		<path id="path_x5F_1_1_" fill="#B7BCD7" stroke="#B7BCD7" stroke-width="2" stroke-miterlimit="10" d="M377.09,118.66
			c0.03-0.02,0.03-0.02,0.06-0.04c0.66-0.38,1.47-0.1,1.78,0.6l0,0c0,0,0.09,0.16,0.27,0.49l2.42,4.99c0.3,0.61,0.62,1.25,0.95,1.93
			c0.68,1.3,1.39,2.76,2.14,4.41l0.01,0.09c0.95,2.55,2.04,5.41,3.24,8.55c0.64,1.68,1.28,3.45,1.97,5.28l1.86,4.86
			c0.81,2.42,1.45,4.94,2.16,7.56c0.38,1.36,0.74,2.77,1.14,4.16c0.55,2.05,1.11,4.1,1.68,6.18l0.07,0.27
			c0.57,1.99,1.14,4.08,1.44,6.28l2.3,13.12c0.11,0.42,0.17,0.83,0.24,1.27c0.17,0.74-0.35,1.51-1.04,1.69
			c-0.7,0.14-1.39-0.35-1.57-1.13c-0.06-0.41-0.13-0.76-0.21-1.2l-0.14-0.71c-0.75-4.19-1.47-8.41-2.22-12.6
			c-0.25-2.02-0.82-4.02-1.39-6.1l-0.05-0.1c-0.29-1.11-0.6-2.2-0.88-3.31l-0.78-2.83c-0.42-1.51-0.81-2.96-1.19-4.4
			c-0.7-2.53-1.31-4.9-2.05-7.14l-4.02-10.64c-1.1-2.9-2.1-5.59-3.01-7.99c-0.68-1.52-1.38-2.94-2.02-4.17
			c-0.35-0.71-0.66-1.35-0.98-2c-1.67-3.47-2.66-5.41-2.68-5.44C376.28,119.89,376.48,119.05,377.09,118.66z M401.13,224.21
			c0.21-0.14,0.43-0.19,0.67-0.21c0.37-0.01,0.71,0.17,0.94,0.42c0.27,0.27,0.39,0.64,0.4,1.03c-0.03,0.78-0.65,1.44-1.36,1.41
			c-0.33,0-0.66-0.15-0.94-0.42c-0.24-0.29-0.4-0.64-0.36-1.02C400.47,224.9,400.73,224.47,401.13,224.21z M398.98,254.08
			c0.28-0.18,0.6-0.25,0.92-0.19c0.7,0.13,1.19,0.88,1.08,1.66c-0.1,0.64-0.21,1.2-0.3,1.71c-0.07,0.31-0.13,0.58-0.16,0.82
			l-0.32,1.59c-0.13,0.75-0.87,1.27-1.56,1.14c-0.71-0.16-1.18-0.93-1.02-1.7l0.29-1.57c0.06-0.26,0.11-0.56,0.15-0.85
			c0.11-0.48,0.21-1.03,0.3-1.62C398.43,254.66,398.65,254.3,398.98,254.08z"/>
		<path id="path_x5F_1" fill="#B7BCD7" stroke="#B7BCD7" stroke-width="2" stroke-miterlimit="10" d="M38.44,347.85
			c0.64-0.41,1.4-0.23,1.79,0.4c0.02,0.03,0.29,0.44,0.77,1.24c0.34,0.62,1.01,1.67,2.17,3.1c2.12,2.78,5.22,6.84,9.2,12.02
			c1.5,2.2,3.57,4.38,5.73,6.73c0.38,0.38,0.77,0.79,1.16,1.21c2.3,2.44,4.73,5.06,7.29,7.82c0.28,0.27,0.39,0.64,0.38,1
			c0.01,0.39-0.12,0.75-0.37,1.04c-0.49,0.54-1.36,0.52-1.89,0.01l-0.53-0.59c-2.37-2.57-4.65-4.98-6.76-7.22
			c-0.41-0.45-0.82-0.9-1.23-1.34c-2.19-2.33-4.27-4.51-5.89-6.85l-9.13-11.98c-1.2-1.5-1.96-2.66-2.38-3.41l-0.34-0.54
			c-0.2-0.36-0.34-0.54-0.37-0.61c0,0,0,0-0.02-0.03c-0.4-0.64-0.24-1.54,0.39-1.99L38.44,347.85z M69.55,384.6
			c0.49-0.31,1.1-0.26,1.52,0.13c0.28,0.22,0.46,0.6,0.49,0.97c0.01,0.39-0.07,0.76-0.32,1.05c-0.42,0.58-1.32,0.67-1.85,0.16
			c-0.56-0.49-0.65-1.4-0.2-2.01C69.29,384.81,69.43,384.67,69.55,384.6z M91.78,402.52c0.42-0.27,0.97-0.26,1.38,0.04
			c0.32,0.2,0.52,0.56,0.59,0.91c0.09,0.39,0,0.76-0.2,1.06c-0.37,0.68-1.23,0.84-1.83,0.42c-0.32-0.19-0.5-0.52-0.59-0.91
			c-0.07-0.35,0-0.75,0.2-1.06C91.45,402.82,91.6,402.64,91.78,402.52z M121.65,419.85c0.37-0.24,0.81-0.26,1.21-0.07
			c10.93,5.08,22.21,9.08,33.57,11.87c10.19,2.61,20.86,4.3,31.68,5.08c0.73,0.06,1.27,0.74,1.25,1.51c-0.06,0.8-0.7,1.43-1.43,1.37
			c-10.95-0.79-21.73-2.53-32.1-5.16c-11.5-2.83-22.95-6.91-34.02-12.07c-0.65-0.29-1-1.14-0.7-1.87
			C121.23,420.21,121.4,420.01,121.65,419.85z M394.99,275.09c0.33-0.21,0.71-0.28,1.07-0.15c0.31,0.11,0.61,0.36,0.79,0.69
			c0.15,0.35,0.19,0.72,0.07,1.11c0,0,0,0-0.01,0.05c-0.21,0.67-0.99,1.13-1.65,0.89c-0.7-0.22-1.08-1.04-0.88-1.8
			C394.5,275.54,394.72,275.27,394.99,275.09z M393.19,281.46c0.3-0.19,0.71-0.28,1.07-0.15c0.71,0.25,1.1,1.03,0.87,1.8
			c-0.27,0.93-0.54,1.95-0.86,3.09c-0.81,2.93-1.82,6.56-3.12,10.69l-0.02,0.06c-0.29,0.81-0.6,1.59-0.93,2.42
			c-4.65,12.39-11.06,29.34-22.84,46.98c-0.6,0.92-1.24,1.87-1.87,2.81c-0.4,0.61-1.27,0.77-1.84,0.33
			c-0.59-0.47-0.74-1.35-0.31-1.98c0.63-0.94,1.24-1.87,1.82-2.82c11.62-17.41,17.98-34.2,22.59-46.47l0.87-2.3
			c1.3-4.13,2.32-7.82,3.14-10.74c0.29-1.04,0.58-2.02,0.83-2.9c-0.02-0.03-0.02-0.03-0.02-0.03
			C392.7,281.91,392.92,281.63,393.19,281.46z M193.53,437.29c0.21-0.14,0.46-0.21,0.72-0.2c0.72,0.03,1.28,0.69,1.26,1.46
			c-0.03,0.78-0.67,1.41-1.37,1.41c-0.72-0.03-1.3-0.72-1.28-1.49C192.87,437.98,193.13,437.55,193.53,437.29z M221.24,436.32
			c0.18-0.12,0.35-0.18,0.54-0.22c0.36-0.01,0.7,0.08,1,0.33c0.26,0.24,0.44,0.57,0.45,0.96c0.08,0.75-0.45,1.49-1.2,1.57
			c0,0,0,0-0.03,0.02c-0.32,0.02-0.67-0.1-0.92-0.34c-0.26-0.23-0.44-0.56-0.48-0.94C220.54,437.13,220.82,436.6,221.24,436.32z
			 M254.57,429.52c0.09-0.06,0.23-0.1,0.32-0.16c21.1-6.37,41.18-16.4,59.43-30.03c0.41-0.3,0.84-0.63,1.25-0.94
			c0.6-0.48,1.44-0.31,1.85,0.36c0.42,0.62,0.28,1.56-0.31,1.98c-0.24,0.16-0.43,0.33-0.65,0.47c-0.23,0.19-0.44,0.32-0.63,0.49
			c-18.35,13.68-38.85,23.98-60.23,30.45c-0.71,0.19-1.44-0.23-1.63-1C253.79,430.51,254.05,429.85,254.57,429.52z M341.71,374.93
			c0.55-0.35,1.2-0.29,1.64,0.19c0.51,0.56,0.5,1.5-0.04,2.03c-0.5,0.59-1.35,0.55-1.86-0.01c-0.51-0.56-0.51-1.45,0.01-2.01
			C341.53,375.05,341.63,374.99,341.71,374.93z M320.66,394.46c0.61-0.39,1.37-0.22,1.77,0.37c0.43,0.62,0.31,1.54-0.29,2.01
			c-0.56,0.49-1.42,0.34-1.87-0.31c-0.43-0.62-0.31-1.54,0.29-2.01C320.6,394.49,320.63,394.47,320.66,394.46z"/>
	</g>
</g>
<g>
	<g opacity="0.52">
		<path d="M82.59,480.15c2.41-26.81,4.05-48.28,4.93-64.39c1.31-23.99,2.63-55.04,3.94-93.14c0.99-29.17,1.48-50.04,1.48-62.62
			v-20.64c12.74,0.35,23.74,0.53,33,0.53c8.93,0,20.64-0.26,35.12-0.79s28.1-0.79,40.84-0.79c14.59,0,27.39,0.94,38.39,2.82
			c11,1.88,21.27,5.76,30.79,11.64c9.53,5.88,17.51,13.58,23.93,23.11c6.42,9.53,11.33,20.67,14.7,33.43
			c3.38,12.76,5.07,25.9,5.07,39.43c0,13.29-1.31,26.08-3.92,38.37c-2.62,12.29-6.27,23.37-10.95,33.25
			c-4.69,9.88-10.16,18.38-16.42,25.49c-6.27,7.12-13.43,13.2-21.49,18.26c-5.99,3.76-12.04,6.7-18.14,8.82
			c-6.1,2.12-14.44,3.82-25,5.12c-11.77,1.41-25.11,2.12-40.04,2.12l-66.02-0.53C106.61,479.62,96.53,479.8,82.59,480.15z
			 M153.24,427.05c5.99,0.59,12.25,0.88,18.78,0.88c11.1,0,21.01-1.06,29.72-3.18c8.71-2.12,16.36-6.64,22.94-13.58
			c6.59-6.94,11.46-15.85,14.62-26.73c3.16-10.88,4.74-22.02,4.74-33.43c0-13.99-2.34-25.78-7.03-35.37
			c-4.69-9.58-10.92-16.26-18.71-20.02c-7.79-3.76-18.38-5.64-31.78-5.64c-7.84,0-17.1,0.35-27.78,1.06L153.24,427.05z"/>
	</g>
	<g>
		<g>
			<path fill="#FBAA20" d="M82.09,479.55c2.41-26.81,4.05-48.28,4.93-64.39c1.31-23.99,2.63-55.04,3.94-93.14
				c0.99-29.17,1.48-50.04,1.48-62.62v-20.64c12.74,0.35,23.74,0.53,33,0.53c8.93,0,20.64-0.26,35.12-0.79s28.1-0.79,40.84-0.79
				c14.59,0,27.39,0.94,38.39,2.82c11,1.88,21.27,5.76,30.79,11.64c9.53,5.88,17.51,13.58,23.93,23.11
				c6.42,9.53,11.33,20.67,14.7,33.43c3.38,12.76,5.07,25.9,5.07,39.43c0,13.29-1.31,26.08-3.92,38.37
				c-2.62,12.29-6.27,23.37-10.95,33.25c-4.69,9.88-10.16,18.38-16.42,25.49c-6.27,7.12-13.43,13.2-21.49,18.26
				c-5.99,3.76-12.04,6.7-18.14,8.82c-6.1,2.12-14.44,3.82-25,5.12c-11.77,1.41-25.11,2.12-40.04,2.12l-66.02-0.53
				C106.11,479.02,96.03,479.2,82.09,479.55z M152.74,426.45c5.99,0.59,12.25,0.88,18.78,0.88c11.1,0,21.01-1.06,29.72-3.18
				c8.71-2.12,16.36-6.64,22.94-13.58c6.59-6.94,11.46-15.85,14.62-26.73c3.16-10.88,4.74-22.02,4.74-33.43
				c0-13.99-2.34-25.78-7.03-35.37c-4.69-9.58-10.92-16.26-18.71-20.02c-7.79-3.76-18.38-5.64-31.78-5.64
				c-7.84,0-17.1,0.35-27.78,1.06L152.74,426.45z"/>
		</g>
	</g>
</g>
<g>
	<g opacity="0.52">
		<path d="M278.44,443.01c2.52-28,4.36-51.45,5.52-70.34c1.16-18.89,2.32-43.99,3.48-75.3c1.16-31.31,1.74-52.07,1.74-62.28
			l-0.15-14.33c23.72,0.22,52.42,0.33,86.1,0.33c31.06,0,58.46-0.11,82.18-0.33l-0.3,5.36c-0.1,1.3-0.35,6-0.75,14.12l-0.9,17.69
			c-0.2,3.79-0.3,7.63-0.3,11.52c-19.41-0.87-35.7-1.3-48.87-1.3c-14.48,0-24.26,0.03-29.33,0.08c-5.08,0.06-13,0.3-23.75,0.73
			l-1.83,37.45c11.87,0.33,25.7,0.49,41.49,0.49c5.63,0,20.62-0.38,44.96-1.14c-1.01,13.9-1.96,30.45-2.86,49.66
			c-17.39-0.22-30.75-0.33-40.09-0.33c-13.87,0-29.39,0.38-46.58,1.14l-1.79,39.56h17.33c5.12,0,15.73-0.16,31.8-0.49l31.2-0.81
			c4.62-0.11,12.36-0.54,23.21-1.3c-1.21,16.07-2.21,32.67-3.02,49.82c-24.53-0.22-51.43-0.33-80.69-0.33l-66.36,0.16L278.44,443.01
			z"/>
	</g>
	<g>
		<g>
			<path fill="#E8EBF6" d="M277.94,442.41c2.52-28,4.36-51.45,5.52-70.34c1.16-18.89,2.32-43.99,3.48-75.3
				c1.16-31.31,1.74-52.07,1.74-62.28l-0.15-14.33c23.72,0.22,52.42,0.33,86.1,0.33c31.06,0,58.46-0.11,82.18-0.33l-0.3,5.36
				c-0.1,1.3-0.35,6-0.75,14.12l-0.9,17.69c-0.2,3.79-0.3,7.63-0.3,11.52c-19.41-0.87-35.7-1.3-48.87-1.3
				c-14.48,0-24.26,0.03-29.33,0.08c-5.08,0.06-13,0.3-23.75,0.73l-1.83,37.45c11.87,0.33,25.7,0.49,41.49,0.49
				c5.63,0,20.62-0.38,44.96-1.14c-1.01,13.9-1.96,30.45-2.86,49.66c-17.39-0.22-30.75-0.33-40.09-0.33
				c-13.87,0-29.39,0.38-46.58,1.14l-1.79,39.56h17.33c5.12,0,15.73-0.16,31.8-0.49l31.2-0.81c4.62-0.11,12.36-0.54,23.21-1.3
				c-1.21,16.07-2.21,32.67-3.02,49.82c-24.53-0.22-51.43-0.33-80.69-0.33l-66.36,0.16L277.94,442.41z"/>
		</g>
	</g>
</g>
<g>
</g>
<g>
</g>
<g>
</g>
<g>
</g>
<g>
</g>
<g>
</g>
</svg>
