<?xml version="1.0" encoding="utf-8"?>
<!-- Generator: Adobe Illustrator 26.0.1, SVG Export Plug-In . SVG Version: 6.00 Build 0)  -->
<svg version="1.1" id="Layer_1" xmlns="http://www.w3.org/2000/svg" xmlns:xlink="http://www.w3.org/1999/xlink" x="0px"
	y="0px" viewBox="0 0 95.3 100" style="enable-background:new 0 0 95.3 100;" xml:space="preserve">
	<style type="text/css">
		.st0 {
			opacity: 0.29;
			fill: #482D13;
			enable-background: new;
		}

		.st1 {
			fill: url(#path_x5F_4_00000019665554785962836050000011671603479192146876_);
		}

		.st2 {
			fill: url(#path_x5F_4_00000062892948553314003840000006957080155731994807_);
		}

		.st3 {
			fill: url(#path_x5F_4_00000011021289154720723560000006641828254801057966_);
		}

		.st4 {
			fill: url(#path_x5F_4_00000071517767018327942780000001095926907186304657_);
		}

		.st5 {
			fill: url(#path_x5F_4_00000165192980837651374780000003199054778514674106_);
		}

		.st6 {
			fill: url(#SVGID_1_);
		}

		.st7 {
			fill: url(#path_x5F_4_00000174581195557490136620000012026394463777239696_);
		}

		.st8 {
			fill: url(#path_x5F_4_00000036958851531987789110000014951378996386186132_);
		}

		.st9 {
			fill: url(#path_x5F_4_00000031893531826423898020000017812198242114875282_);
		}

		.st10 {
			fill: url(#path_x5F_4_00000144297201934806625560000009270099828001256627_);
		}

		.st11 {
			fill: url(#SVGID_00000160179050737418690660000012303008062349778817_);
		}

		.st12 {
			fill: url(#path_x5F_4_00000044886408093759781270000017240087271408686015_);
		}

		.st13 {
			fill: url(#path_x5F_4_00000073700494198799692610000017189937765538529694_);
		}

		.st14 {
			fill: url(#path_x5F_4_00000022546829442275381110000017949435700185004728_);
		}

		.st15 {
			fill: url(#path_x5F_4_00000119831137833858151300000012989159449836792474_);
		}

		.st16 {
			fill: url(#path_x5F_6_00000001634632485636089660000012592527239131554961_);
		}

		.st17 {
			fill: url(#path_x5F_6_00000129197411336900691490000008376545555538045316_);
		}

		.st18 {
			fill: url(#path_x5F_6_00000121994498484642437270000015854077609540916625_);
		}

		.st19 {
			fill: url(#path_x5F_6_00000132769714629553000010000006606420482194160769_);
		}

		.st20 {
			fill: #B4B4B4;
			stroke: #B4B4B4;
			stroke-width: 1.000000e-02;
			stroke-miterlimit: 10;
		}

		.st21 {
			fill: url(#path_x5F_5_00000031203232570763474240000004630773831761618871_);
		}

		.st22 {
			fill: url(#path_x5F_5_00000043453674827583773840000011409820176542264764_);
		}

		.st23 {
			fill: url(#path_x5F_5_00000115478902533354695850000002519855813099341972_);
		}

		.st24 {
			fill: url(#path_x5F_5_00000004541488966592905210000010371856359737934724_);
		}

		.st25 {
			fill: url(#path_x5F_5_00000003817199646788273910000002611749854067169926_);
		}

		.st26 {
			fill: url(#path_x5F_5_00000004519845091934742150000013488052348231644065_);
		}

		.st27 {
			fill: url(#path_x5F_2_00000031906682802851037460000002212249888383188134_);
		}

		.st28 {
			fill: url(#path_x5F_2_00000109714821969116536340000012905640738318677404_);
		}

		.st29 {
			fill: url(#path_x5F_2_00000042735223684266836020000000956853349969634452_);
		}

		.st30 {
			fill: url(#path_x5F_2_00000106117835304897015860000016602942634619211709_);
		}

		.st31 {
			fill: url(#path_x5F_1_00000042720036186098706430000014032728265250013568_);
		}

		.st32 {
			fill: url(#path_x5F_1_00000033344692816162591790000003057931119181242251_);
		}

		.st33 {
			fill: url(#path_x5F_1_00000008854024382915693820000003116953081694920082_);
		}

		.st34 {
			fill: url(#path_x5F_1_00000094592783482676670020000012395590639998782594_);
		}

		.st35 {
			opacity: 0.52;
		}

		.st36 {
			fill: #010101;
		}

		.st37 {
			fill: #EAA343;
		}

	</style>
	<ellipse id="DropShadw" class="st0" cx="49.2" cy="87.5" rx="41.3" ry="10" />
	<g>
		<g id="Main_x5F_path_x5F_6_x5F_Last">

			<radialGradient id="path_x5F_4_00000077294855579594934080000012123950276708739460_" cx="-1365.4672"
				cy="-2346.5601" r="10.9133"
				gradientTransform="matrix(-0.2725 0.9902 -1.0057 -0.2968 -2694.2595 704.771)"
				gradientUnits="userSpaceOnUse">
				<stop offset="0" style="stop-color:#FFDE94" />
				<stop offset="0.1612" style="stop-color:#FFCC78" />
				<stop offset="0.4129" style="stop-color:#FBB254" />
				<stop offset="0.6449" style="stop-color:#F9A23A" />
				<stop offset="0.848" style="stop-color:#F8972B" />
				<stop offset="1" style="stop-color:#F79226" />
			</radialGradient>
			<path id="path_x5F_4" style="fill:url(#path_x5F_4_00000077294855579594934080000012123950276708739460_);" d="M30.3,42.3
			c0.4-1.3,0.8-2.4,1.2-3.2c0.8-1.4,1.6-2.6,2.3-3.4c0.1-0.1,0.2-0.3,0.3-0.4c0.2-0.2,0.3-0.4,0.4-0.5l0.3-0.3l0.2,0.2L34.8,35
			c-0.1,0.1-0.3,0.3-0.4,0.4c-0.1,0.1-0.2,0.2-0.3,0.4c-0.7,0.8-1.6,2-2.3,3.4c-0.6,1.2-1.3,3.1-1.7,5.6c-0.3,2.2-0.1,4.5,0.4,6.7
			c0.6,2.2,1.6,4.3,2.9,6.1c1.2,1.7,2.7,3.1,4.3,4.1c0.3,0.2,0.6,0.4,0.8,0.6c0.1,0,0.1,0.1,0.2,0.1c0.1,0.1,0.2,0.1,0.4,0.2
			c0.2,0.1,0.4,0.2,0.6,0.3c0.2,0.1,0.4,0.2,0.7,0.3c0.4,0.2,0.7,0.3,1,0.4l1.5,0.5l-0.1,0.2L41.4,64c-0.3-0.1-0.7-0.3-1-0.4
			c-0.2-0.1-0.4-0.2-0.7-0.3c-0.2-0.1-0.4-0.2-0.7-0.3c-0.1-0.1-0.2-0.1-0.3-0.2c-0.1,0-0.1-0.1-0.2-0.1c-0.3-0.2-0.6-0.3-0.9-0.6
			c-1.6-1-3.1-2.5-4.3-4.2c-1.4-1.8-2.4-4-3-6.2c-0.6-2.2-0.8-4.6-0.4-6.8C29.9,43.9,30.1,43,30.3,42.3z" />
			<g id="sub_x5F_path_x5F_4_2_">

				<radialGradient id="path_x5F_4_00000036231266010967692100000016567401616537388959_" cx="-1353.7802"
					cy="-2349.7402" r="2.016"
					gradientTransform="matrix(-0.2725 0.9902 -1.0057 -0.2968 -2694.2595 704.771)"
					gradientUnits="userSpaceOnUse">
					<stop offset="0" style="stop-color:#FFDE94" />
					<stop offset="0.1612" style="stop-color:#FFCC78" />
					<stop offset="0.4129" style="stop-color:#FBB254" />
					<stop offset="0.6449" style="stop-color:#F9A23A" />
					<stop offset="0.848" style="stop-color:#F8972B" />
					<stop offset="1" style="stop-color:#F79226" />
				</radialGradient>
				<path id="path_x5F_4_4_"
					style="fill:url(#path_x5F_4_00000036231266010967692100000016567401616537388959_);" d="M35.3,60.5
				l0.6-0.7l1,0.9l1.1,0.8c0.2,0.1,0.4,0.3,0.6,0.4l1,0.6c0.1,0.1,0.3,0.2,0.4,0.2l0.3,0.1l-0.4,0.9l-0.3-0.1
				c-0.1-0.1-0.3-0.1-0.5-0.3l-0.9-0.6c-0.2-0.1-0.4-0.3-0.7-0.4l-1.3-0.9L35.3,60.5z" />

				<radialGradient id="path_x5F_4_00000001627444738833084880000016172298653051870904_" cx="-1358.0621"
					cy="-2342.9324" r="2.1303"
					gradientTransform="matrix(-0.2725 0.9902 -1.0057 -0.2968 -2694.2595 704.771)"
					gradientUnits="userSpaceOnUse">
					<stop offset="0" style="stop-color:#FFDE94" />
					<stop offset="0.1612" style="stop-color:#FFCC78" />
					<stop offset="0.4129" style="stop-color:#FBB254" />
					<stop offset="0.6449" style="stop-color:#F9A23A" />
					<stop offset="0.848" style="stop-color:#F8972B" />
					<stop offset="1" style="stop-color:#F79226" />
				</radialGradient>
				<path id="path_x5F_4_3_"
					style="fill:url(#path_x5F_4_00000001627444738833084880000016172298653051870904_);" d="M30.4,53.2
				l0.9-0.3l0.3,0.8c0.1,0.3,0.3,0.7,0.5,1.1c0.1,0.2,0.2,0.4,0.3,0.6c0.1,0.2,0.2,0.4,0.3,0.6l0.6,0.9c0.1,0.1,0.2,0.2,0.2,0.3
				c0,0,0.1,0.1,0.1,0.1l0.1,0.2L33.1,58l-0.1-0.2c0,0-0.1-0.1-0.1-0.1c-0.1-0.1-0.2-0.2-0.3-0.4L32,56.4c-0.1-0.2-0.3-0.4-0.4-0.7
				c-0.1-0.2-0.2-0.3-0.3-0.5c-0.2-0.4-0.4-0.9-0.6-1.2L30.4,53.2z" />

				<radialGradient id="path_x5F_4_00000152264216520944379160000010194502685389784705_" cx="-1365.0358"
					cy="-2338.9214" r="2.0028"
					gradientTransform="matrix(-0.2725 0.9902 -1.0057 -0.2968 -2694.2595 704.771)"
					gradientUnits="userSpaceOnUse">
					<stop offset="0" style="stop-color:#FFDE94" />
					<stop offset="0.1612" style="stop-color:#FFCC78" />
					<stop offset="0.4129" style="stop-color:#FBB254" />
					<stop offset="0.6449" style="stop-color:#F9A23A" />
					<stop offset="0.848" style="stop-color:#F8972B" />
					<stop offset="1" style="stop-color:#F79226" />
				</radialGradient>
				<path id="path_x5F_4_2_"
					style="fill:url(#path_x5F_4_00000152264216520944379160000010194502685389784705_);" d="M29.5,44.5
				l1,0.1l-0.1,0.8c-0.1,0.3-0.1,0.7-0.1,1.1c0,0.2,0,0.4,0,0.7c0,0.2,0,0.5,0,0.8l0.1,1c0,0.2,0,0.3,0.1,0.5l0.1,0.3L29.6,50
				l-0.1-0.3c0-0.1-0.1-0.3-0.1-0.6l-0.1-1c0-0.3-0.1-0.6,0-0.9c0-0.2,0-0.4,0-0.6c0-0.4,0-0.9,0.1-1.2L29.5,44.5z" />

				<radialGradient id="path_x5F_4_00000034793120420308728810000003439153653340368281_" cx="-1373.2406"
					cy="-2338.6187" r="1.9573"
					gradientTransform="matrix(-0.2725 0.9902 -1.0057 -0.2968 -2694.2595 704.771)"
					gradientUnits="userSpaceOnUse">
					<stop offset="0" style="stop-color:#FFDE94" />
					<stop offset="0.1612" style="stop-color:#FFCC78" />
					<stop offset="0.4129" style="stop-color:#FBB254" />
					<stop offset="0.6449" style="stop-color:#F9A23A" />
					<stop offset="0.848" style="stop-color:#F8972B" />
					<stop offset="1" style="stop-color:#F79226" />
				</radialGradient>
				<path id="path_x5F_4_1_"
					style="fill:url(#path_x5F_4_00000034793120420308728810000003439153653340368281_);" d="M30.2,41.3
				l0.3-0.8c0.1-0.3,0.3-0.7,0.5-1.1l0.3-0.6c0.1-0.2,0.2-0.4,0.3-0.6c0.2-0.3,0.4-0.7,0.6-1l0.5-0.7l0.8,0.6L33,37.8
				c-0.1,0.2-0.3,0.6-0.6,0.9c-0.1,0.2-0.2,0.4-0.3,0.6l-0.3,0.5c-0.2,0.4-0.3,0.8-0.5,1.1l-0.2,0.8L30.2,41.3z" />
			</g>

			<radialGradient id="SVGID_1_" cx="-1382.5754" cy="-2355.1177" r="10.9379"
				gradientTransform="matrix(-0.2725 0.9902 -1.0057 -0.2968 -2694.2595 704.771)"
				gradientUnits="userSpaceOnUse">
				<stop offset="0" style="stop-color:#FFDE94" />
				<stop offset="0.1612" style="stop-color:#FFCC78" />
				<stop offset="0.4129" style="stop-color:#FBB254" />
				<stop offset="0.6449" style="stop-color:#F9A23A" />
				<stop offset="0.848" style="stop-color:#F8972B" />
				<stop offset="1" style="stop-color:#F79226" />
			</radialGradient>
			<path class="st6" d="M35,34.5l0.9-0.8l1.3-1l1.4-0.9c0.2-0.1,0.5-0.2,0.7-0.3c0.1-0.1,0.3-0.1,0.4-0.2c1.3-0.6,3.3-1.3,5.7-1.6
			c2.2-0.2,4.6,0,6.8,0.7c2.2,0.7,4.3,1.8,6.1,3.2c2,1.5,3.3,3.2,4.1,4.4c0.1,0.1,0.2,0.3,0.2,0.4c0.1,0.2,0.3,0.4,0.4,0.7l0.8,1.6
			l0.6,1.4l0.3,1.2l-0.2,0.1l-0.3-1.2l-0.6-1.6l-0.7-1.4c-0.1-0.2-0.3-0.4-0.4-0.7c-0.1-0.1-0.2-0.2-0.2-0.4c-0.8-1.2-2.1-2.9-4-4.4
			c-1.8-1.4-3.9-2.5-6-3.1C50,30,47.7,29.8,45.4,30c-2.4,0.2-4.4,1-5.7,1.5c-0.1,0.1-0.3,0.1-0.4,0.2c-0.2,0.1-0.5,0.2-0.7,0.3
			L37.2,33L36,33.9l-0.9,0.8L35,34.5z" />
			<g id="sub_x5F_path_x5F_4_1_">

				<radialGradient id="path_x5F_4_00000085208551155425130140000008126728619287206053_" cx="-1382.3979"
					cy="-2343.8682" r="2.1283"
					gradientTransform="matrix(-0.2725 0.9902 -1.0057 -0.2968 -2694.2595 704.771)"
					gradientUnits="userSpaceOnUse">
					<stop offset="0" style="stop-color:#FFDE94" />
					<stop offset="0.1612" style="stop-color:#FFCC78" />
					<stop offset="0.4129" style="stop-color:#FBB254" />
					<stop offset="0.6449" style="stop-color:#F9A23A" />
					<stop offset="0.848" style="stop-color:#F8972B" />
					<stop offset="1" style="stop-color:#F79226" />
				</radialGradient>
				<path id="path_x5F_4_8_"
					style="fill:url(#path_x5F_4_00000085208551155425130140000008126728619287206053_);" d="M37.1,32.3
				l0.9-0.6c0.2-0.1,0.3-0.2,0.5-0.3l0.9-0.4c0.4-0.2,1-0.4,1.3-0.6c0.1,0,0.2-0.1,0.3-0.1c0.1,0,0.2-0.1,0.3-0.1
				c0.1,0,0.3-0.1,0.4-0.1l0.2-0.1l0.3,0.9L42,31c-0.1,0-0.2,0.1-0.3,0.1c-0.1,0-0.1,0.1-0.2,0.1c-0.1,0-0.2,0.1-0.3,0.1
				c-0.4,0.1-0.9,0.3-1.3,0.5L39,32.3c-0.1,0.1-0.3,0.2-0.4,0.3l-0.9,0.6L37.1,32.3z" />

				<radialGradient id="path_x5F_4_00000051361835992587319610000007424687773289903274_" cx="-1386.1348"
					cy="-2350.991" r="1.9609"
					gradientTransform="matrix(-0.2725 0.9902 -1.0057 -0.2968 -2694.2595 704.771)"
					gradientUnits="userSpaceOnUse">
					<stop offset="0" style="stop-color:#FFDE94" />
					<stop offset="0.1612" style="stop-color:#FFCC78" />
					<stop offset="0.4129" style="stop-color:#FBB254" />
					<stop offset="0.6449" style="stop-color:#F9A23A" />
					<stop offset="0.848" style="stop-color:#F8972B" />
					<stop offset="1" style="stop-color:#F79226" />
				</radialGradient>
				<path id="path_x5F_4_7_"
					style="fill:url(#path_x5F_4_00000051361835992587319610000007424687773289903274_);"
					d="M45.2,29.4
				l0.8,0c0.1,0,0.2,0,0.3,0c0.2,0,0.4,0,0.6,0l1,0c0.6,0,1.1,0.1,1.6,0.1l0.9,0.1c0.2,0,0.3,0.1,0.3,0.1l-0.2,0.9c0,0-0.1,0-0.2,0
				l-0.6-0.1c-0.1,0-0.2,0-0.3,0c-0.4-0.1-0.9-0.1-1.4-0.1l-1,0c-0.2,0-0.3,0-0.5,0c-0.1,0-0.2,0-0.3,0h-0.9L45.2,29.4z" />

				<radialGradient id="path_x5F_4_00000100372836241093970260000017366016456392374958_" cx="-1386.1351"
					cy="-2359.2278" r="1.9614"
					gradientTransform="matrix(-0.2725 0.9902 -1.0057 -0.2968 -2694.2595 704.771)"
					gradientUnits="userSpaceOnUse">
					<stop offset="0" style="stop-color:#FFDE94" />
					<stop offset="0.1612" style="stop-color:#FFCC78" />
					<stop offset="0.4129" style="stop-color:#FBB254" />
					<stop offset="0.6449" style="stop-color:#F9A23A" />
					<stop offset="0.848" style="stop-color:#F8972B" />
					<stop offset="1" style="stop-color:#F79226" />
				</radialGradient>
				<path id="path_x5F_4_6_"
					style="fill:url(#path_x5F_4_00000100372836241093970260000017366016456392374958_);" d="M53.6,31.5
				l0.3-0.9c0,0,0.1,0,0.3,0.1l0.9,0.4c0.4,0.2,0.9,0.4,1.4,0.7l0.8,0.5c0.2,0.1,0.4,0.2,0.5,0.4c0.1,0.1,0.1,0.1,0.2,0.2l0.7,0.5
				l-0.6,0.8l-0.7-0.5c-0.1,0-0.1-0.1-0.2-0.2c-0.1-0.1-0.3-0.2-0.4-0.3l-0.8-0.5c-0.4-0.3-0.9-0.5-1.3-0.7c-0.1,0-0.2-0.1-0.3-0.1
				l-0.6-0.2C53.7,31.6,53.6,31.5,53.6,31.5z" />

				<radialGradient id="path_x5F_4_00000019641320541887119970000018078228507361986457_" cx="-1382.3979"
					cy="-2366.3496" r="2.1279"
					gradientTransform="matrix(-0.2725 0.9902 -1.0057 -0.2968 -2694.2595 704.771)"
					gradientUnits="userSpaceOnUse">
					<stop offset="0" style="stop-color:#FFDE94" />
					<stop offset="0.1612" style="stop-color:#FFCC78" />
					<stop offset="0.4129" style="stop-color:#FBB254" />
					<stop offset="0.6449" style="stop-color:#F9A23A" />
					<stop offset="0.848" style="stop-color:#F8972B" />
					<stop offset="1" style="stop-color:#F79226" />
				</radialGradient>
				<path id="path_x5F_4_5_"
					style="fill:url(#path_x5F_4_00000019641320541887119970000018078228507361986457_);" d="M60.4,36.3
				l0.7-0.7l0.2,0.2c0.1,0.1,0.2,0.2,0.2,0.3c0,0.1,0.1,0.1,0.1,0.2c0.1,0.1,0.2,0.2,0.2,0.3c0.3,0.3,0.6,0.8,0.9,1.2l0.5,0.8
				c0.1,0.2,0.2,0.4,0.3,0.6l0.5,1l-0.9,0.4l-0.4-1c-0.1-0.2-0.2-0.3-0.3-0.5L62,38.5c-0.2-0.4-0.6-0.8-0.8-1.1
				c-0.1-0.1-0.2-0.2-0.2-0.3c0-0.1-0.1-0.1-0.2-0.2c-0.1-0.1-0.1-0.2-0.2-0.2L60.4,36.3z" />
			</g>

			<radialGradient id="SVGID_00000181086850520699040880000007219390198419912601_" cx="-1365.4829"
				cy="-2363.6643" r="10.9314"
				gradientTransform="matrix(-0.2725 0.9902 -1.0057 -0.2968 -2694.2595 704.771)"
				gradientUnits="userSpaceOnUse">
				<stop offset="0" style="stop-color:#FFDE94" />
				<stop offset="0.1612" style="stop-color:#FFCC78" />
				<stop offset="0.4129" style="stop-color:#FBB254" />
				<stop offset="0.6449" style="stop-color:#F9A23A" />
				<stop offset="0.848" style="stop-color:#F8972B" />
				<stop offset="1" style="stop-color:#F79226" />
			</radialGradient>
			<path style="fill:url(#SVGID_00000181086850520699040880000007219390198419912601_);" d="M42.9,64.2l1.6,0.4
			c0.3,0.1,0.7,0.1,1.1,0.2c0.2,0,0.5,0.1,0.7,0.1c0.2,0,0.4,0,0.7,0c0.1,0,0.3,0,0.4,0c0.1,0,0.2,0,0.3,0c0.3,0,0.7,0,1,0
			c1.8,0,3.8-0.4,5.7-1.2c2.1-0.8,4-2,5.6-3.6c1.6-1.5,2.9-3.4,3.8-5.4c1-2.3,1.3-4.3,1.4-5.6c0.1-1.6,0-3-0.2-4.1
			c0-0.2-0.1-0.3-0.1-0.5c0-0.3-0.1-0.5-0.1-0.7l-0.1-0.4l0.2-0.1l0.1,0.4c0,0.2,0.1,0.4,0.1,0.7c0,0.1,0.1,0.3,0.1,0.5
			c0.2,1.1,0.3,2.6,0.2,4.2c-0.1,1.3-0.4,3.4-1.4,5.7c-0.9,2.1-2.2,4-3.8,5.5c-1.6,1.6-3.6,2.8-5.7,3.6c-1.9,0.8-3.9,1.2-5.8,1.2
			c-0.3,0-0.7,0-1,0c-0.1,0-0.2,0-0.3,0c-0.1,0-0.3,0-0.4,0c-0.2,0-0.5,0-0.7,0c-0.2,0-0.5-0.1-0.7-0.1c-0.4-0.1-0.8-0.1-1.1-0.2
			l-1.6-0.4L42.9,64.2z" />
			<g id="sub_x5F_path_x5F_4">

				<radialGradient id="path_x5F_4_00000072990299018976401550000006860277362479290757_" cx="-1373.2378"
					cy="-2371.6016" r="1.9559"
					gradientTransform="matrix(-0.2725 0.9902 -1.0057 -0.2968 -2694.2595 704.771)"
					gradientUnits="userSpaceOnUse">
					<stop offset="0" style="stop-color:#FFDE94" />
					<stop offset="0.1612" style="stop-color:#FFCC78" />
					<stop offset="0.4129" style="stop-color:#FBB254" />
					<stop offset="0.6449" style="stop-color:#F9A23A" />
					<stop offset="0.848" style="stop-color:#F8972B" />
					<stop offset="1" style="stop-color:#F79226" />
				</radialGradient>
				<path id="path_x5F_4_12_"
					style="fill:url(#path_x5F_4_00000072990299018976401550000006860277362479290757_);" d="M64.7,46.3
				l1-0.1l0.1,0.8c0,0.3,0,0.8,0,1.2c0,0.2,0,0.5,0,0.7v0l-0.1,0.6c0,0.4-0.1,0.9-0.1,1.2l-0.2,0.8l-0.9-0.2l0.2-0.8
				c0-0.3,0.1-0.7,0.1-1.1l0.1-0.6c0-0.2,0-0.4,0-0.7c0-0.4,0-0.8,0-1.1L64.7,46.3z" />

				<radialGradient id="path_x5F_4_00000091731941592303989800000017327414054576912547_" cx="-1365.0358"
					cy="-2371.2976" r="2.0024"
					gradientTransform="matrix(-0.2725 0.9902 -1.0057 -0.2968 -2694.2595 704.771)"
					gradientUnits="userSpaceOnUse">
					<stop offset="0" style="stop-color:#FFDE94" />
					<stop offset="0.1612" style="stop-color:#FFCC78" />
					<stop offset="0.4129" style="stop-color:#FBB254" />
					<stop offset="0.6449" style="stop-color:#F9A23A" />
					<stop offset="0.848" style="stop-color:#F8972B" />
					<stop offset="1" style="stop-color:#F79226" />
				</radialGradient>
				<path id="path_x5F_4_11_"
					style="fill:url(#path_x5F_4_00000091731941592303989800000017327414054576912547_);" d="M60.8,58.7
				l0.2-0.2c0.1-0.1,0.2-0.2,0.3-0.3l0.6-0.8c0.1-0.2,0.3-0.4,0.4-0.6c0.1-0.2,0.2-0.4,0.3-0.6c0.2-0.3,0.4-0.7,0.5-0.9l0.3-0.8
				l0.9,0.4l-0.3,0.8c-0.1,0.3-0.3,0.7-0.6,1.1c-0.1,0.2-0.2,0.4-0.3,0.6c-0.1,0.3-0.3,0.5-0.5,0.7l-0.6,0.8
				c-0.1,0.2-0.2,0.3-0.3,0.4l-0.2,0.2L60.8,58.7z" />

				<radialGradient id="path_x5F_4_00000124842761104434113850000015489507024817570452_" cx="-1358.0618"
					cy="-2367.2874" r="2.1324"
					gradientTransform="matrix(-0.2725 0.9902 -1.0057 -0.2968 -2694.2595 704.771)"
					gradientUnits="userSpaceOnUse">
					<stop offset="0" style="stop-color:#FFDE94" />
					<stop offset="0.1612" style="stop-color:#FFCC78" />
					<stop offset="0.4129" style="stop-color:#FBB254" />
					<stop offset="0.6449" style="stop-color:#F9A23A" />
					<stop offset="0.848" style="stop-color:#F8972B" />
					<stop offset="1" style="stop-color:#F79226" />
				</radialGradient>
				<path id="path_x5F_4_10_"
					style="fill:url(#path_x5F_4_00000124842761104434113850000015489507024817570452_);" d="M54.1,63.4
				l0.2-0.1c0,0,0.1,0,0.1,0c0.1,0,0.2-0.1,0.3-0.1l1-0.5c0.2-0.1,0.4-0.2,0.6-0.3c0.2-0.1,0.3-0.2,0.6-0.3c0.4-0.2,0.7-0.4,0.9-0.6
				l0.7-0.5l0.6,0.8l-0.7,0.5c-0.3,0.2-0.7,0.4-1,0.7c-0.2,0.1-0.3,0.2-0.5,0.3c-0.2,0.1-0.5,0.3-0.7,0.4l-1,0.4
				c-0.2,0.1-0.3,0.1-0.5,0.2c0,0-0.1,0-0.1,0l-0.2,0.1L54.1,63.4z" />

				<radialGradient id="path_x5F_4_00000009577946426622471340000000679591020370397846_" cx="-1353.7798"
					cy="-2360.4812" r="2.0143"
					gradientTransform="matrix(-0.2725 0.9902 -1.0057 -0.2968 -2694.2595 704.771)"
					gradientUnits="userSpaceOnUse">
					<stop offset="0" style="stop-color:#FFDE94" />
					<stop offset="0.1612" style="stop-color:#FFCC78" />
					<stop offset="0.4129" style="stop-color:#FBB254" />
					<stop offset="0.6449" style="stop-color:#F9A23A" />
					<stop offset="0.848" style="stop-color:#F8972B" />
					<stop offset="1" style="stop-color:#F79226" />
				</radialGradient>
				<path id="path_x5F_4_9_"
					style="fill:url(#path_x5F_4_00000009577946426622471340000000679591020370397846_);" d="M45.9,64.4
				l0.3,0c0.1,0,0.3,0,0.4,0l0.9,0c0.1,0,0.2,0,0.2,0c0.2,0,0.4,0,0.7,0l1.4-0.1l1.2-0.1l0.2,0.9l-1.7,0.2l-1,0.1
				c-0.3,0-0.6,0-0.8,0l-1.1,0c-0.2,0-0.4,0-0.6,0l-0.3,0L45.9,64.4z" />
			</g>
		</g>
		<g id="Main_x5F_path_x5F_5">

			<linearGradient id="path_x5F_6_00000160879550678447159570000017075961289503662217_"
				gradientUnits="userSpaceOnUse" x1="-1269.6038" y1="-238.5963" x2="-1541.7375" y2="-97.6476"
				gradientTransform="matrix(0.1071 -0.9943 0.9943 0.1071 373.1576 -1329.3348)">
				<stop offset="0" style="stop-color:#FFFFFF" />
				<stop offset="8.510000e-02" style="stop-color:#FFEDD9" />
				<stop offset="0.2082" style="stop-color:#FED5A7" />
				<stop offset="0.3345" style="stop-color:#FDC17E" />
				<stop offset="0.462" style="stop-color:#FBAF5E" />
				<stop offset="0.591" style="stop-color:#F9A343" />
				<stop offset="0.7222" style="stop-color:#F89A32" />
				<stop offset="0.8568" style="stop-color:#F8952A" />
				<stop offset="1" style="stop-color:#F79226" />
			</linearGradient>
			<path id="path_x5F_6_3_" style="fill:url(#path_x5F_6_00000160879550678447159570000017075961289503662217_);"
				d="M70.6,49.9
			c-0.3,2.4-0.9,4.6-1.7,6.4c-0.1,0.3-0.3,0.7-0.5,1c-0.1,0.2-0.2,0.3-0.3,0.5l-0.4,0.7l-0.4,0.7c-0.1,0.2-0.2,0.3-0.3,0.5
			c-0.2,0.3-0.4,0.6-0.6,0.9l-1,1.2C64,63.7,62.5,65,61,66c-0.5,0.4-1.1,0.8-1.7,1.1c-0.2,0.1-0.5,0.3-0.7,0.4
			c-0.3,0.2-0.5,0.3-0.8,0.4c-0.1,0.1-0.2,0.1-0.4,0.2s-0.3,0.1-0.4,0.2c-0.3,0.1-0.5,0.2-0.8,0.3c-3.7,1.4-6.6,1.6-8.1,1.6l-0.7,0
			c-0.1,0-0.3,0-0.4,0l-2-0.1l0-0.6l2,0.1c0.1,0,0.3,0,0.4,0l0.7,0c1.4,0,4.3-0.2,7.8-1.6c0.3-0.1,0.5-0.2,0.7-0.3
			c0.2-0.1,0.3-0.2,0.4-0.2c0.1-0.1,0.3-0.1,0.4-0.2c0.3-0.1,0.5-0.2,0.8-0.4c0.2-0.1,0.5-0.3,0.7-0.4c0.6-0.3,1.1-0.6,1.6-1
			c1.4-1,2.9-2.3,4.4-4l1-1.2c0.2-0.3,0.4-0.5,0.5-0.8c0.1-0.2,0.2-0.3,0.3-0.5l0.4-0.7l0.3-0.7c0.1-0.2,0.2-0.4,0.3-0.5
			c0.1-0.3,0.3-0.6,0.5-0.9c0.8-1.8,1.3-4,1.7-6.3c0.2-2.3,0.1-4.5-0.3-6.5c-0.1-0.3-0.2-0.7-0.2-1c0-0.2-0.1-0.4-0.2-0.6l-0.2-0.8
			L69,40.3c-0.1-0.2-0.1-0.4-0.2-0.6c-0.1-0.3-0.2-0.6-0.4-0.9l-0.7-1.4c-1.1-2.1-2.2-3.6-3.4-4.8c-0.4-0.5-0.9-1-1.4-1.4
			c-0.2-0.2-0.4-0.3-0.6-0.6c-0.2-0.2-0.4-0.4-0.7-0.5c-0.1-0.1-0.3-0.2-0.4-0.3c-0.1-0.1-0.3-0.2-0.4-0.3c-0.2-0.2-0.4-0.3-0.6-0.5
			c-3.2-2.1-6-2.9-7.3-3.2l-0.7-0.2c-0.1,0-0.2,0-0.3-0.1l-2-0.3l0.1-0.6l2,0.3c0.1,0,0.3,0,0.4,0.1l0.7,0.2
			c1.4,0.3,4.3,1.1,7.5,3.3c0.2,0.1,0.4,0.3,0.7,0.5c0.1,0.1,0.3,0.2,0.4,0.3c0.1,0.1,0.3,0.2,0.4,0.3c0.2,0.2,0.5,0.3,0.7,0.6
			c0.2,0.2,0.4,0.3,0.6,0.6c0.5,0.4,1,0.9,1.5,1.4c1.2,1.3,2.4,2.9,3.5,5l0.6,1.3c0.2,0.3,0.3,0.7,0.4,1c0.1,0.2,0.1,0.4,0.2,0.6
			l0.3,0.8l0.2,0.8c0,0.2,0.1,0.4,0.1,0.6c0.1,0.3,0.2,0.7,0.3,1C70.8,45.3,70.9,47.5,70.6,49.9z" />

			<linearGradient id="path_x5F_6_00000154403153729092016830000009921258875032457095_"
				gradientUnits="userSpaceOnUse" x1="-1265.1243" y1="-228.944" x2="-1536.6438" y2="-88.3134"
				gradientTransform="matrix(0.1071 -0.9943 0.9943 0.1071 373.1576 -1329.3348)">
				<stop offset="0" style="stop-color:#FFFFFF" />
				<stop offset="8.510000e-02" style="stop-color:#FFEDD9" />
				<stop offset="0.2082" style="stop-color:#FED5A7" />
				<stop offset="0.3345" style="stop-color:#FDC17E" />
				<stop offset="0.462" style="stop-color:#FBAF5E" />
				<stop offset="0.591" style="stop-color:#F9A343" />
				<stop offset="0.7222" style="stop-color:#F89A32" />
				<stop offset="0.8568" style="stop-color:#F8952A" />
				<stop offset="1" style="stop-color:#F79226" />
			</linearGradient>
			<path id="path_x5F_6_2_" style="fill:url(#path_x5F_6_00000154403153729092016830000009921258875032457095_);"
				d="M72.4,50.1
			L72.4,50.1c-0.3,1.8-0.6,4-1.5,6c-0.1,0.1-0.1,0.3-0.2,0.4c-0.1,0.3-0.2,0.6-0.4,0.9l-0.6,1.2c-0.3,0.6-0.6,1.1-0.9,1.6
			c-0.1,0.2-0.2,0.4-0.3,0.6l-0.3,0.5c-0.1,0.1-0.2,0.3-0.3,0.3l-1.5,1.8l-1.3,1.4l-1.7-1.6l1.6-1.7l1-1.3c0-0.1,0.1-0.1,0.1-0.2
			l0.3-0.4c0.1-0.2,0.3-0.4,0.4-0.6c0.3-0.4,0.6-0.9,0.8-1.3l0.6-1.2c0.1-0.2,0.2-0.5,0.3-0.7c0.1-0.2,0.1-0.3,0.2-0.5
			c0.7-1.7,1.1-3.8,1.3-5.4c0.1-1.6,0.2-3.7-0.1-5.5c0-0.2-0.1-0.4-0.1-0.5c0-0.3-0.1-0.5-0.1-0.8l-0.3-1.3
			c-0.1-0.6-0.3-1.1-0.5-1.5c-0.1-0.3-0.2-0.5-0.2-0.7L68.4,39c0-0.1-0.1-0.1-0.1-0.2L67.5,37l-1.1-1.8l2-1.2l1.1,1.9l0.9,1.8
			c0.1,0.1,0.1,0.3,0.2,0.4l0.2,0.6c0.1,0.2,0.1,0.4,0.2,0.6c0.2,0.5,0.4,1.2,0.6,1.8l0.3,1.2c0.1,0.3,0.1,0.7,0.2,1
			c0,0.1,0,0.3,0.1,0.4C72.6,46.1,72.5,48.3,72.4,50.1L72.4,50.1z" />

			<linearGradient id="path_x5F_6_00000097470787331780433400000012919542481343286975_"
				gradientUnits="userSpaceOnUse" x1="-1275.3329" y1="-249.8584" x2="-1547.4663" y2="-108.91"
				gradientTransform="matrix(0.1071 -0.9943 0.9943 0.1071 373.1576 -1329.3348)">
				<stop offset="0" style="stop-color:#FFFFFF" />
				<stop offset="8.510000e-02" style="stop-color:#FFEDD9" />
				<stop offset="0.2082" style="stop-color:#FED5A7" />
				<stop offset="0.3345" style="stop-color:#FDC17E" />
				<stop offset="0.462" style="stop-color:#FBAF5E" />
				<stop offset="0.591" style="stop-color:#F9A343" />
				<stop offset="0.7222" style="stop-color:#F89A32" />
				<stop offset="0.8568" style="stop-color:#F8952A" />
				<stop offset="1" style="stop-color:#F79226" />
			</linearGradient>
			<path id="path_x5F_6_1_" style="fill:url(#path_x5F_6_00000097470787331780433400000012919542481343286975_);"
				d="M49.9,25.3
			l-2-0.1c-0.1,0-0.2,0-0.4,0l-0.7,0c-1.4,0-4.3,0.2-7.8,1.6c-0.3,0.1-0.5,0.2-0.7,0.3c-0.2,0.1-0.3,0.1-0.4,0.2
			c-0.1,0.1-0.3,0.1-0.4,0.2c-0.3,0.1-0.5,0.2-0.8,0.4c-0.2,0.1-0.5,0.3-0.7,0.4c-0.6,0.3-1.1,0.6-1.6,1c-1.4,1-2.9,2.3-4.4,4
			l-1,1.2c-0.2,0.3-0.4,0.6-0.5,0.8c-0.1,0.2-0.2,0.3-0.3,0.5l-0.4,0.7l-0.3,0.7c-0.1,0.2-0.2,0.4-0.3,0.5c-0.1,0.3-0.3,0.6-0.5,0.9
			c-0.8,1.8-1.3,4-1.7,6.3c-0.2,2.3-0.1,4.5,0.3,6.5c0.1,0.3,0.2,0.7,0.2,1c0,0.2,0.1,0.4,0.2,0.6l0.2,0.8l0.3,0.7
			c0.1,0.2,0.1,0.4,0.2,0.6c0.1,0.3,0.2,0.6,0.4,0.9l0.7,1.4c1.1,2.1,2.2,3.6,3.4,4.8c0.4,0.5,0.9,1,1.4,1.4
			c0.2,0.2,0.4,0.3,0.6,0.6c0.2,0.2,0.4,0.4,0.7,0.5c0.1,0.1,0.3,0.2,0.4,0.3s0.3,0.2,0.4,0.3c0.2,0.2,0.4,0.3,0.6,0.5
			c3.2,2.2,6,3,7.3,3.4l0.7,0.2c0.1,0,0.2,0,0.4,0l2,0.3l-0.1,0.6l-2-0.3c-0.1,0-0.3,0-0.4-0.1L42,69.6c-1.4-0.3-4.3-1.1-7.5-3.3
			c-0.2-0.1-0.4-0.3-0.7-0.5c-0.1-0.1-0.3-0.2-0.4-0.3c-0.1-0.1-0.3-0.2-0.4-0.3c-0.2-0.2-0.5-0.3-0.7-0.6c-0.2-0.2-0.4-0.3-0.6-0.6
			c-0.5-0.4-1-0.9-1.5-1.4c-1.2-1.3-2.4-2.9-3.5-5l-0.7-1.4c-0.2-0.3-0.3-0.7-0.4-1c0-0.2-0.1-0.4-0.2-0.5l-0.3-0.8L25,53.1
			c0-0.2-0.1-0.4-0.1-0.6c-0.1-0.3-0.2-0.7-0.3-1c-0.4-2-0.5-4.3-0.3-6.7c0.3-2.4,0.9-4.6,1.7-6.4c0.1-0.3,0.3-0.7,0.5-1
			c0.1-0.2,0.2-0.3,0.3-0.5l0.4-0.7l0.4-0.7c0.1-0.2,0.2-0.3,0.3-0.5c0.2-0.3,0.4-0.6,0.6-0.9l1-1.2c1.6-1.8,3-3.2,4.5-4.1
			c0.5-0.4,1.1-0.8,1.7-1.1c0.2-0.1,0.5-0.3,0.7-0.4c0.3-0.2,0.5-0.3,0.8-0.4c0.2-0.1,0.3-0.1,0.4-0.2c0.2-0.1,0.3-0.1,0.4-0.2
			c0.3-0.1,0.5-0.2,0.8-0.3c3.7-1.4,6.6-1.6,8.1-1.6l0.7,0c0.2,0,0.3,0,0.4,0l2,0.1L49.9,25.3z" />

			<linearGradient id="path_x5F_6_00000157269269886530533780000001046566540540965053_"
				gradientUnits="userSpaceOnUse" x1="-1280.4264" y1="-259.249" x2="-1551.948" y2="-118.6176"
				gradientTransform="matrix(0.1071 -0.9943 0.9943 0.1071 373.1576 -1329.3348)">
				<stop offset="0" style="stop-color:#FFFFFF" />
				<stop offset="8.510000e-02" style="stop-color:#FFEDD9" />
				<stop offset="0.2082" style="stop-color:#FED5A7" />
				<stop offset="0.3345" style="stop-color:#FDC17E" />
				<stop offset="0.462" style="stop-color:#FBAF5E" />
				<stop offset="0.591" style="stop-color:#F9A343" />
				<stop offset="0.7222" style="stop-color:#F89A32" />
				<stop offset="0.8568" style="stop-color:#F8952A" />
				<stop offset="1" style="stop-color:#F79226" />
			</linearGradient>
			<path id="path_x5F_6" style="fill:url(#path_x5F_6_00000157269269886530533780000001046566540540965053_);"
				d="M31.6,31.5L30,33.2
			l-1,1.3c-0.1,0.1-0.1,0.1-0.2,0.2l-0.3,0.4c-0.1,0.2-0.3,0.4-0.4,0.6c-0.3,0.4-0.6,0.9-0.8,1.3l-0.6,1.2c-0.1,0.2-0.2,0.5-0.3,0.7
			c-0.1,0.2-0.1,0.3-0.2,0.5c-0.7,1.7-1.1,3.8-1.3,5.4c-0.1,1.6-0.2,3.7,0.1,5.5c0,0.2,0.1,0.4,0.1,0.5c0,0.3,0.1,0.5,0.1,0.8
			l0.3,1.3c0.1,0.6,0.3,1.1,0.5,1.5c0.1,0.3,0.2,0.5,0.2,0.7l0.2,0.5c0,0.1,0.1,0.1,0.1,0.2l0.9,1.7l1.1,1.8l-2,1.2l-1.1-1.9
			L24.6,57c-0.1-0.1-0.1-0.3-0.2-0.4l-0.2-0.6c-0.1-0.2-0.1-0.4-0.2-0.6c-0.2-0.5-0.4-1.2-0.6-1.8l-0.3-1.2c-0.1-0.3-0.1-0.7-0.2-1
			c0-0.1,0-0.3-0.1-0.4c-0.4-2.1-0.3-4.4-0.2-6.1l0,0l0,0c0.3-1.7,0.6-4,1.5-6c0.1-0.1,0.1-0.3,0.2-0.4c0.1-0.3,0.2-0.6,0.4-0.9
			l0.6-1.2c0.3-0.6,0.6-1.1,0.9-1.6c0.1-0.2,0.2-0.4,0.3-0.6l0.3-0.5c0.1-0.2,0.2-0.3,0.3-0.4l1.5-1.8l1.3-1.4L31.6,31.5z" />
		</g>
		<g id="Main_x5F_path_x5F_4">
			<polygon id="path_x5F_3_15_" class="st20" points="21.9,61.6 22.2,61.4 22.7,62.5 22.5,62.7 		" />
			<path id="path_x5F_3_14_" class="st20" d="M20,57.4l0.3-0.1c0,0,0,0.1,0.1,0.2l0.5,1.4L20.6,59l-0.5-1.4C20,57.5,20,57.5,20,57.4z
			 M21.1,60.1l0.3-0.1l0.3,0.5l-0.3,0.1L21.1,60.1z" />
			<path id="path_x5F_3_13_" class="st20" d="M31.1,22.9l0.2,0.3L31,23.3c-0.1,0-0.2,0.1-0.3,0.2c-0.2,0.1-0.5,0.3-0.7,0.5
			c0,0-0.1,0.1-0.2,0.1l-0.2-0.2c0,0,0.1-0.1,0.2-0.1c0.3-0.3,0.5-0.4,0.7-0.5c0.1-0.1,0.2-0.1,0.3-0.2L31.1,22.9z M28.8,24.6
			l0.2,0.3c-0.1,0.1-0.3,0.3-0.4,0.4L28.4,25C28.6,24.9,28.7,24.7,28.8,24.6z M27.6,25.8l0.2,0.2c-0.3,0.3-0.6,0.6-0.8,0.8
			c-0.3,0.3-0.5,0.5-0.8,0.8L26,27.4c0.3-0.3,0.5-0.5,0.7-0.8C27,26.3,27.2,26.1,27.6,25.8z M25.4,28.1l0.2,0.2
			c-0.4,0.4-0.7,0.8-1.1,1.3l-0.3-0.2C24.7,29,25,28.5,25.4,28.1z M23.6,30.4l0.3,0.2c-0.1,0.2-0.2,0.3-0.3,0.5l-0.3-0.2
			C23.4,30.7,23.6,30.5,23.6,30.4z M22.7,31.8L23,32c-0.4,0.6-0.8,1.3-1.1,2l-0.3-0.1C22,33.2,22.3,32.5,22.7,31.8z M21.2,34.6
			l0.3,0.1c-0.2,0.5-0.5,1.1-0.7,1.6l-0.3-0.1C20.7,35.7,20.9,35.1,21.2,34.6z M20.1,37.3l0.3,0.1c0,0.2-0.1,0.3-0.2,0.5v0l-0.3-0.1
			v0C20,37.6,20,37.4,20.1,37.3z M19.6,38.9l0.3,0.1c-0.3,0.8-0.5,1.5-0.6,2.2L19,41.1C19.1,40.4,19.3,39.7,19.6,38.9z M18.9,42
			l0.3,0L18.9,43l-0.1,0.8l-0.3,0l0.1-1L18.9,42z M18.4,44.9l0.3,0c0,0.2,0,0.4,0,0.5l-0.3,0C18.4,45.3,18.4,45.1,18.4,44.9z
			 M18.4,46.6h0.3c0,0.2,0,0.4,0,0.6s0,0.4,0,0.6v0.8c0,0.1,0,0.2,0,0.3l-0.3,0c0-0.1,0-0.2,0-0.3v-0.8c0-0.2,0-0.4,0-0.6
			C18.4,47,18.4,46.8,18.4,46.6z M18.4,49.8l0.3,0l0.1,0.9c0,0.3,0,0.5,0.1,0.8l-0.3,0c0-0.3-0.1-0.5-0.1-0.8L18.4,49.8z M18.8,52.7
			l0.3,0c0,0.2,0.1,0.3,0.1,0.5v0l-0.3,0.1v0C18.9,53,18.8,52.9,18.8,52.7z M19.1,54.4l0.3-0.1c0,0.3,0.1,0.5,0.2,0.6l0.5,1.6
			l-0.3,0.1L19.3,55C19.2,54.9,19.2,54.6,19.1,54.4z" />
			<polygon id="path_x5F_3_12_" class="st20" points="32.6,21.9 32.7,22.2 31.7,22.8 31.6,22.6 		" />
			<polygon id="path_x5F_3_11_" class="st20" points="32.6,21.9 33.6,21.3 33.8,21.6 32.7,22.2 		" />
			<path id="path_x5F_3_10_" class="st20" d="M34.6,20.8l0.5-0.3l0.1,0.3l-0.5,0.3L34.6,20.8z M36.2,20l1.4-0.6c0.1,0,0.1,0,0.2,0
			l0.1,0.3c-0.1,0-0.1,0-0.2,0l-1.4,0.6L36.2,20z" />
			<path id="path_x5F_3_9_" class="st20" d="M38.5,19.2l1.6-0.5c0.2,0,0.4-0.1,0.6-0.2l0.1,0.3c-0.3,0-0.5,0.1-0.6,0.2l-1.6,0.5
			L38.5,19.2z M41.8,18.3L41.8,18.3c0.2,0,0.4,0,0.6-0.1l0,0.3c-0.1,0-0.3,0.1-0.5,0.1h0L41.8,18.3z M43.5,18c0.3,0,0.5-0.1,0.8-0.1
			l0.9-0.1l0,0.3l-0.9,0.1c-0.3,0-0.5,0-0.8,0.1L43.5,18z M46.1,17.7c0.1,0,0.2,0,0.3,0h0.8c0.2,0,0.4,0,0.6,0s0.4,0,0.6,0V18
			c-0.2,0-0.4,0-0.6,0s-0.4,0-0.6,0h-0.8c-0.1,0-0.2,0-0.3,0L46.1,17.7z M49.5,17.8c0.2,0,0.4,0,0.5,0v0.3c-0.2,0-0.4,0-0.5,0V17.8z
			 M51.2,18l1,0.1l0.7,0.2l0,0.3l-0.9-0.2l-0.8-0.1L51.2,18L51.2,18z M53.7,18.4c0.7,0.1,1.4,0.3,2.2,0.6l-0.1,0.3
			c-0.8-0.3-1.4-0.5-2.2-0.6L53.7,18.4z M57,19.3L57,19.3c0.2,0,0.4,0.1,0.5,0.2l-0.1,0.3c-0.2,0-0.3-0.1-0.5-0.2h0L57,19.3z
			 M58.6,19.9c0.5,0.2,1.1,0.5,1.6,0.7L60,20.9c-0.5-0.3-1-0.5-1.5-0.7L58.6,19.9z M60.9,21c0.7,0.3,1.3,0.7,2,1.1l-0.2,0.3
			c-0.6-0.4-1.3-0.8-1.9-1.1L60.9,21z M63.9,22.8c0.2,0.1,0.3,0.2,0.5,0.3l-0.2,0.3c-0.2-0.1-0.3-0.2-0.5-0.3L63.9,22.8z M65.2,23.8
			c0.5,0.3,0.9,0.7,1.3,1.1l-0.2,0.2c-0.4-0.4-0.8-0.7-1.3-1.1L65.2,23.8z M67.2,25.5c0.3,0.3,0.5,0.5,0.8,0.8
			c0.3,0.3,0.6,0.5,0.8,0.9l-0.2,0.2c-0.3-0.3-0.5-0.6-0.8-0.8c-0.3-0.3-0.5-0.5-0.8-0.8L67.2,25.5z M69.6,28
			c0.1,0.2,0.3,0.3,0.4,0.5l-0.2,0.2c-0.1-0.1-0.3-0.3-0.4-0.4L69.6,28z M70.7,29.3c0,0,0.1,0.1,0.1,0.2c0.2,0.3,0.4,0.5,0.5,0.7
			c0.1,0.1,0.1,0.2,0.2,0.3l0.2,0.3l-0.3,0.2l-0.2-0.3c0-0.1-0.1-0.2-0.2-0.3c-0.1-0.2-0.3-0.5-0.5-0.7c0,0-0.1-0.1-0.1-0.2
			L70.7,29.3z" />
			<polygon id="path_x5F_3_8_" class="st20" points="71.9,31.2 72.6,32.2 72.4,32.4 71.7,31.4 		" />
			<polygon id="path_x5F_3_7_" class="st20" points="72.4,32.4 72.6,32.2 73.2,33.3 72.9,33.4 		" />
			<path id="path_x5F_3_6_" class="st20" d="M73.4,34.4l0.3-0.1l0.3,0.5l-0.3,0.1L73.4,34.4z M74.1,36l0.3-0.1l0.5,1.4
			c0,0.1,0,0.1,0.1,0.2l-0.3,0.2c0,0,0-0.1-0.1-0.2L74.1,36z" />
			<path id="path_x5F_3_5_" class="st20" d="M75,38.4l0.3-0.1l0.5,1.6c0,0.2,0.1,0.4,0.2,0.6l-0.3,0.1c0-0.3-0.1-0.5-0.2-0.6L75,38.4
			z M75.9,41.7l0.3,0v0c0,0.2,0,0.3,0.1,0.5l-0.3,0C75.9,42.1,75.9,41.9,75.9,41.7L75.9,41.7z M76.2,43.4l0.3,0
			c0,0.3,0.1,0.5,0.1,0.8l0.1,0.9l-0.3,0l-0.1-0.9C76.2,43.9,76.2,43.7,76.2,43.4z M76.4,46l0.3,0c0,0.1,0,0.2,0,0.3V47
			c0,0.2,0,0.4,0,0.6s0,0.4,0,0.6h-0.3c0-0.2,0-0.4,0-0.6s0-0.4,0-0.6v-0.8C76.4,46.2,76.4,46.1,76.4,46z M76.4,49.4l0.3,0
			c0,0.2,0,0.4,0,0.6l-0.3,0C76.3,49.8,76.3,49.6,76.4,49.4z M76.2,51.1l0.3,0l-0.1,1l-0.1,0.7l-0.3,0l0.2-0.9L76.2,51.1z
			 M75.7,53.7l0.3,0c-0.1,0.8-0.3,1.5-0.6,2.2l-0.3-0.1C75.4,55.1,75.7,54.4,75.7,53.7z M74.9,57l0.3,0.1v0c0,0.2-0.1,0.3-0.2,0.5
			l-0.3-0.1C74.7,57.4,74.8,57.2,74.9,57L74.9,57z M74.3,58.6l0.3,0.1c-0.2,0.5-0.5,1.1-0.7,1.6l-0.3-0.1
			C73.8,59.7,74.1,59.1,74.3,58.6z M73.2,60.9l0.3,0.1c-0.3,0.7-0.7,1.4-1.1,2l-0.3-0.2C72.5,62.3,72.9,61.6,73.2,60.9z M71.5,63.9
			l0.3,0.2c-0.1,0.2-0.2,0.3-0.3,0.5l-0.3-0.2C71.3,64.2,71.4,64.1,71.5,63.9z M70.5,65.3l0.3,0.2c-0.3,0.5-0.7,0.9-1.1,1.4
			l-0.2-0.2C69.8,66.2,70.2,65.8,70.5,65.3z M68.9,67.3l0.2,0.2c-0.3,0.3-0.5,0.5-0.7,0.8c-0.3,0.3-0.5,0.6-0.8,0.9L67.3,69
			c0.3-0.3,0.6-0.6,0.8-0.8C68.4,67.8,68.6,67.5,68.9,67.3z M66.4,69.7l0.2,0.3c-0.2,0.1-0.3,0.3-0.4,0.4l-0.2-0.3
			C66.1,69.9,66.3,69.8,66.4,69.7z M65.1,70.8l0.2,0.3c0,0-0.1,0.1-0.2,0.1c-0.3,0.2-0.5,0.4-0.7,0.5c-0.1,0.1-0.2,0.1-0.3,0.2
			L63.9,72l-0.2-0.3l0.3-0.2c0.1,0,0.2-0.1,0.3-0.2c0.2-0.1,0.4-0.3,0.7-0.5C65,70.9,65.1,70.8,65.1,70.8z" />
			<polygon id="path_x5F_3_4_" class="st20" points="63.3,72.1 63.5,72.3 62.5,73 62.3,72.7 		" />
			<polygon id="path_x5F_3_2_" class="st20" points="61.3,73.3 62.3,72.7 62.5,73 61.4,73.6 		" />
			<path id="path_x5F_3_3_" class="st20" d="M57.2,75.2c0,0,0.1,0,0.2-0.1l1.4-0.6l0.1,0.3l-1.4,0.6c-0.1,0-0.1,0-0.2,0.1L57.2,75.2z
			 M59.8,74.1l0.5-0.3l0.1,0.3l-0.5,0.3L59.8,74.1z" />
			<path id="path_x5F_3_1_" class="st20" d="M23.6,64l0.2,0.3c0,0.1,0.1,0.2,0.2,0.3c0.1,0.2,0.3,0.5,0.5,0.7c0,0,0.1,0.1,0.1,0.2
			l-0.2,0.2c0,0-0.1-0.1-0.1-0.2c-0.2-0.3-0.4-0.5-0.5-0.7c-0.1-0.1-0.1-0.2-0.2-0.3l-0.2-0.3L23.6,64z M25.3,66.3
			c0.1,0.1,0.3,0.3,0.3,0.4l-0.2,0.2c-0.1-0.2-0.3-0.3-0.4-0.5L25.3,66.3z M26.4,67.6c0.3,0.3,0.5,0.6,0.8,0.8
			c0.3,0.3,0.5,0.5,0.8,0.8l-0.2,0.2c-0.3-0.3-0.5-0.5-0.8-0.8c-0.3-0.3-0.6-0.5-0.8-0.9L26.4,67.6z M28.7,69.7
			c0.4,0.4,0.8,0.7,1.3,1.1l-0.2,0.3c-0.5-0.3-0.9-0.7-1.3-1.1L28.7,69.7z M30.9,71.5c0.2,0.1,0.3,0.2,0.5,0.3l-0.2,0.3
			c-0.2-0.1-0.3-0.2-0.5-0.3L30.9,71.5z M32.3,72.5c0.6,0.4,1.3,0.8,1.9,1.1l-0.1,0.3c-0.7-0.3-1.3-0.7-2-1.1L32.3,72.5z M35,74
			c0.5,0.3,1,0.5,1.5,0.7L36.4,75c-0.5-0.3-1-0.5-1.5-0.8L35,74z M37.6,75.1c0.2,0,0.3,0.1,0.5,0.2h0l-0.1,0.3h0
			c-0.2,0-0.3-0.1-0.5-0.2L37.6,75.1z M39.2,75.6c0.8,0.3,1.4,0.5,2.2,0.6l0,0.3c-0.7-0.1-1.4-0.3-2.2-0.6L39.2,75.6z M42.3,76.4
			l0.9,0.2l0.8,0.1v0.3l-1-0.1l-0.7-0.1L42.3,76.4z M45,76.8c0.2,0,0.4,0,0.5,0v0.3c-0.2,0-0.4,0-0.6,0L45,76.8z M46.7,76.8
			c0.2,0,0.4,0,0.6,0s0.4,0,0.6,0h0.8c0.1,0,0.2,0,0.3,0l0,0.3c-0.1,0-0.2,0-0.3,0H48c-0.2,0-0.4,0-0.6,0c-0.2,0-0.4,0-0.6,0
			L46.7,76.8z M49.8,76.8l0.9-0.1c0.3,0,0.5,0,0.8-0.1l0,0.3C51.3,77,51,77,50.8,77l-0.9,0.1L49.8,76.8z M52.6,76.4
			c0.2,0,0.3-0.1,0.5-0.1h0l0,0.3h0c-0.2,0-0.3,0-0.5,0.1L52.6,76.4z M54.3,76.1c0.3,0,0.4-0.1,0.6-0.2l1.6-0.5l0.1,0.3L55,76.2
			c-0.2,0-0.4,0.1-0.6,0.2L54.3,76.1z" />
			<polygon id="path_x5F_3" class="st20" points="22.7,62.5 23.3,63.5 23.1,63.7 22.5,62.7 		" />
		</g>
		<g id="Main_x5F_path_x5F_3">

			<radialGradient id="path_x5F_5_00000124147422572368974040000011455671987232753330_" cx="-2461.2485"
				cy="-952.8546" r="20.8406"
				gradientTransform="matrix(-0.5992 -0.863 0.8802 -0.5903 -597.3517 -2658.9023)"
				gradientUnits="userSpaceOnUse">
				<stop offset="0" style="stop-color:#FFDE94" />
				<stop offset="0.1612" style="stop-color:#FFCC78" />
				<stop offset="0.4129" style="stop-color:#FBB254" />
				<stop offset="0.6449" style="stop-color:#F9A23A" />
				<stop offset="0.848" style="stop-color:#F8972B" />
				<stop offset="1" style="stop-color:#F79226" />
			</radialGradient>
			<path id="path_x5F_5_5_" style="fill:url(#path_x5F_5_00000124147422572368974040000011455671987232753330_);"
				d="M53.3,14.4
			c2.7,0.4,4.9,1,6.4,1.6c2.9,1.1,5.5,2.4,7.2,3.6c0.3,0.2,0.6,0.4,0.8,0.6c0.4,0.3,0.8,0.5,1.1,0.7l0.6,0.5l-0.4,0.4l-0.6-0.5
			c-0.2-0.2-0.6-0.4-1-0.7c-0.2-0.2-0.5-0.3-0.8-0.6c-1.7-1.2-4.2-2.5-7.1-3.6c-2.4-0.9-6.3-1.9-11.1-2c-4.3-0.1-8.7,0.7-12.7,2.2
			s-7.8,3.8-10.9,6.7c-2.9,2.7-5.3,5.7-6.8,8.8c-0.3,0.6-0.6,1.1-0.8,1.6L17,34.4c-0.1,0.3-0.2,0.5-0.3,0.7
			c-0.2,0.4-0.4,0.8-0.5,1.2L15.6,38c0,0.2-0.1,0.4-0.2,0.5c-0.1,0.4-0.2,0.7-0.3,1l-0.6,3L14,42.4l0.6-2.9c0.1-0.4,0.2-0.7,0.3-1
			c0.1-0.2,0.1-0.4,0.2-0.5l0.6-1.8c0.1-0.4,0.3-0.8,0.5-1.3c0.1-0.2,0.2-0.5,0.3-0.7l0.2-0.5c0.2-0.5,0.5-1.1,0.8-1.7
			c1.6-3.1,4-6.2,7-8.9c3.2-2.9,7.1-5.3,11.1-6.8c4.1-1.6,8.5-2.3,12.9-2.2C50.2,14,51.8,14.2,53.3,14.4z" />

			<radialGradient id="path_x5F_5_00000062889546070831566820000015872390389325230775_" cx="-2452.8755"
				cy="-949.613" r="10.7317" gradientTransform="matrix(-0.5992 -0.863 0.8802 -0.5903 -597.3517 -2658.9023)"
				gradientUnits="userSpaceOnUse">
				<stop offset="0" style="stop-color:#FFDE94" />
				<stop offset="0.1612" style="stop-color:#FFCC78" />
				<stop offset="0.4129" style="stop-color:#FBB254" />
				<stop offset="0.6449" style="stop-color:#F9A23A" />
				<stop offset="0.848" style="stop-color:#F8972B" />
				<stop offset="1" style="stop-color:#F79226" />
			</radialGradient>
			<path id="path_x5F_5_4_" style="fill:url(#path_x5F_5_00000062889546070831566820000015872390389325230775_);"
				d="M51.1,12.6
			l-0.2,2.1l-0.4-0.1c-0.1,0-0.2,0-0.3-0.1c-0.2,0-0.4,0-0.6,0c-0.2,0-0.6,0-1,0c-0.7,0-1.6,0-2.5,0c-3.4,0.2-7.2,1-10.3,2.2
			l-1.6,0.7c-0.3,0.1-0.7,0.3-1,0.4l-2.5,1.3L27.9,21l-1.2,1c-0.9,0.7-1.6,1.4-2.2,1.9l-1.1,1c-0.1,0.1-0.2,0.1-0.2,0.2l-1.6-1.3
			c0,0,0.1-0.1,0.3-0.4l1.1-1c0.6-0.5,1.4-1.3,2.4-2.1L27,19l2.7-1.8l2.5-1.3c0.4-0.2,0.8-0.4,1.2-0.6l1.6-0.6
			c3.3-1.3,7.3-2.1,11-2.3c1,0,1.9,0,2.6,0c0.4,0,0.7,0,1,0c0.4,0,0.6,0,0.9,0.1c0.1,0,0.2,0,0.3,0L51.1,12.6z" />

			<radialGradient id="path_x5F_5_00000006692258724907642190000011034148238012342931_" cx="-2493.3713"
				cy="-944.1437" r="20.2606"
				gradientTransform="matrix(-0.5992 -0.863 0.8802 -0.5903 -597.3517 -2658.9023)"
				gradientUnits="userSpaceOnUse">
				<stop offset="0" style="stop-color:#FFDE94" />
				<stop offset="0.1612" style="stop-color:#FFCC78" />
				<stop offset="0.4129" style="stop-color:#FBB254" />
				<stop offset="0.6449" style="stop-color:#F9A23A" />
				<stop offset="0.848" style="stop-color:#F8972B" />
				<stop offset="1" style="stop-color:#F79226" />
			</radialGradient>
			<path id="path_x5F_5_3_" style="fill:url(#path_x5F_5_00000006692258724907642190000011034148238012342931_);"
				d="M69.4,21.5
			l1.8,1.5l2.3,2.3c0.1,0.2,0.3,0.3,0.4,0.5l1.6,1.9c0.3,0.4,0.5,0.8,0.8,1.2c0.2,0.2,0.3,0.5,0.5,0.7c1.4,2.2,3.3,5.9,4.4,10.3
			c1,4.1,1.2,8.6,0.5,12.9c-0.7,4.4-2.2,8.5-4.5,12.1c-2.4,4-5.4,6.8-7.5,8.5c-0.3,0.2-0.5,0.4-0.7,0.6c-0.4,0.3-0.8,0.6-1.2,0.9
			l-2.1,1.4c-0.2,0.1-0.3,0.2-0.5,0.3l-3,1.6L60.1,79l-0.2-0.5l2.2-0.9l2.8-1.5c0.1-0.1,0.3-0.2,0.5-0.3l2.1-1.4
			c0.4-0.3,0.7-0.6,1.1-0.9c0.3-0.2,0.5-0.4,0.7-0.6c2-1.7,5-4.5,7.3-8.4c2.2-3.6,3.8-7.7,4.4-11.9c0.7-4.2,0.5-8.6-0.5-12.6
			c-1-4.4-2.9-8-4.4-10.2c-0.2-0.2-0.3-0.5-0.5-0.8c-0.3-0.4-0.5-0.8-0.8-1.2L73.5,26c-0.1-0.2-0.3-0.3-0.4-0.5l-2.4-2.4l-1.7-1.4
			L69.4,21.5z" />

			<radialGradient id="path_x5F_5_00000145747122268816694770000008358530833262742462_" cx="-2502.3206"
				cy="-934.9135" r="10.795" gradientTransform="matrix(-0.5992 -0.863 0.8802 -0.5903 -597.3517 -2658.9023)"
				gradientUnits="userSpaceOnUse">
				<stop offset="0" style="stop-color:#FFDE94" />
				<stop offset="0.1612" style="stop-color:#FFCC78" />
				<stop offset="0.4129" style="stop-color:#FBB254" />
				<stop offset="0.6449" style="stop-color:#F9A23A" />
				<stop offset="0.848" style="stop-color:#F8972B" />
				<stop offset="1" style="stop-color:#F79226" />
			</radialGradient>
			<path id="path_x5F_5_2_" style="fill:url(#path_x5F_5_00000145747122268816694770000008358530833262742462_);"
				d="M82.1,37.2
			l0.5,1.5c0.1,0.2,0.1,0.4,0.1,0.6l0.6,2.8c0.3,2.2,0.7,6.4,0,11.1c-0.8,4.6-2.5,8.5-3.5,10.5l-1.4,2.5c-0.1,0.2-0.2,0.3-0.3,0.5
			l-0.9,1.3l-1.7-1.2l0.7-1.2c0,0,0.1-0.1,0.2-0.2c0.1-0.1,0.2-0.2,0.2-0.3l1.4-2.4c1.5-3,2.7-6.6,3.2-9.8c0.5-3.2,0.5-7,0-10.4
			l-0.5-2.7c0-0.1-0.1-0.2-0.1-0.4c0-0.1-0.1-0.2-0.1-0.2l-0.4-1.2L82.1,37.2z" />

			<radialGradient id="path_x5F_5_00000039818342662855840100000006427375584180730558_" cx="-2486.5068"
				cy="-976.2482" r="20.8062"
				gradientTransform="matrix(-0.5992 -0.863 0.8802 -0.5903 -597.3517 -2658.9023)"
				gradientUnits="userSpaceOnUse">
				<stop offset="0" style="stop-color:#FFDE94" />
				<stop offset="0.1612" style="stop-color:#FFCC78" />
				<stop offset="0.4129" style="stop-color:#FBB254" />
				<stop offset="0.6449" style="stop-color:#F9A23A" />
				<stop offset="0.848" style="stop-color:#F8972B" />
				<stop offset="1" style="stop-color:#F79226" />
			</radialGradient>
			<path id="path_x5F_5_1_" style="fill:url(#path_x5F_5_00000039818342662855840100000006427375584180730558_);"
				d="M14.5,42.5
			l-0.3,3c-0.1,0.3,0,0.6,0,1c0,0.2,0,0.4,0,0.6l0,1.9c0,0.4,0.1,0.8,0.1,1.3c0,0.2,0,0.5,0.1,0.8l0.1,0.5c0,0.6,0.1,1.2,0.3,1.8
			c0.5,3.4,1.8,7,3.7,10.4c2.1,3.7,4.9,7,8.3,9.7c3.4,2.7,7.3,4.7,11.4,5.9c4.6,1.4,8.6,1.5,11.2,1.4c3.1-0.2,5.9-0.6,7.9-1.3
			c0.4-0.1,0.7-0.2,0.9-0.3c0.5-0.1,0.9-0.3,1.2-0.4l0.7-0.3l0.1,0.5l-0.7,0.3c-0.3,0.1-0.7,0.2-1.2,0.4c-0.3,0.1-0.6,0.2-0.9,0.3
			c-2.1,0.6-4.9,1.1-8,1.3c-2.6,0.1-6.7-0.1-11.4-1.5c-4.1-1.2-8.2-3.3-11.6-6s-6.3-6.1-8.4-9.9c-1.9-3.5-3.3-7.2-3.8-10.6
			c-0.1-0.6-0.2-1.2-0.3-1.8L13.7,51c0-0.3,0-0.5-0.1-0.8c0-0.5-0.1-0.9-0.1-1.4l0-1.9c0-0.2,0-0.4,0-0.6c0-0.4,0-0.7,0.1-1.1l0.3-3
			L14.5,42.5z" />

			<radialGradient id="path_x5F_5_00000148663610102413240720000003524654682856627115_" cx="-2490.373"
				cy="-984.943" r="10.8495" gradientTransform="matrix(-0.5992 -0.863 0.8802 -0.5903 -597.3517 -2658.9023)"
				gradientUnits="userSpaceOnUse">
				<stop offset="0" style="stop-color:#FFDE94" />
				<stop offset="0.1612" style="stop-color:#FFCC78" />
				<stop offset="0.4129" style="stop-color:#FBB254" />
				<stop offset="0.6449" style="stop-color:#F9A23A" />
				<stop offset="0.848" style="stop-color:#F8972B" />
				<stop offset="1" style="stop-color:#F79226" />
			</radialGradient>
			<path id="path_x5F_5" style="fill:url(#path_x5F_5_00000148663610102413240720000003524654682856627115_);"
				d="M16.6,61.1l0.7,0.6
			c0,0,0,0.1,0.1,0.2l0.7,1.4c0.4,0.7,0.8,1.5,1.5,2.5l1.3,1.9l1.6,2l2,2c0.3,0.3,0.5,0.5,0.8,0.7l1.3,1.1c2.6,2.1,5.9,3.9,9.1,5.2
			c0.9,0.3,1.7,0.5,2.4,0.7c0.4,0.1,0.7,0.2,1,0.3c0.2,0,0.4,0.1,0.6,0.1c0.1,0,0.2,0.1,0.3,0.1l0.3,0.1l-0.4,2l-0.4-0.1
			c-0.1,0-0.2,0-0.3,0c-0.2,0-0.5-0.1-0.8-0.2c-0.3-0.1-0.6-0.2-1-0.3c-0.7-0.2-1.5-0.5-2.5-0.8c-3.4-1.3-7-3.3-9.7-5.5L24,73.9
			c-0.3-0.3-0.7-0.6-1-0.9L21,70.9l-2.5-3.1l-0.7-1c-0.7-1-1.2-2-1.6-2.7l-0.7-1.3c-0.1-0.2-0.2-0.4-0.2-0.4l1-0.4L16.6,61.1z" />
		</g>
		<g id="Main_x5F_path_x5F_2">

			<linearGradient id="path_x5F_2_00000156584215732685782120000006834374333830352519_"
				gradientUnits="userSpaceOnUse" x1="-2666.6182" y1="-2321.4058" x2="-2991.8308" y2="-2106.5332"
				gradientTransform="matrix(-0.8589 0.5122 -0.5122 -0.8589 -3562.6641 -377.9429)">
				<stop offset="0" style="stop-color:#FFFFFF" />
				<stop offset="0.1396" style="stop-color:#FAFBFC" />
				<stop offset="0.3023" style="stop-color:#ECECEC" />
				<stop offset="0.4765" style="stop-color:#D5D5D6" />
				<stop offset="0.6589" style="stop-color:#B4B5B6" />
				<stop offset="0.8457" style="stop-color:#8A8C8D" />
				<stop offset="1" style="stop-color:#636566" />
			</linearGradient>
			<path id="path_x5F_2_3_" style="fill:url(#path_x5F_2_00000156584215732685782120000006834374333830352519_);"
				d="M26.9,14.2
			l0.2,0.3l-1.2,0.8L25.7,15L26.9,14.2z M24.5,15.8l0.2,0.3l-0.1,0l-1,0.8l-0.2-0.3L24.5,15.8z M22.3,17.7l0.2,0.3L22,18.4
			c-0.1,0.1-0.3,0.3-0.6,0.6l-0.3-0.3c0.2-0.2,0.4-0.4,0.6-0.6L22.3,17.7z M20.1,19.7l0.3,0.3l-1,1l-0.3-0.2L20.1,19.7z M18.2,21.9
			l0.3,0.2l-0.9,1.1L17.2,23L18.2,21.9z M16.3,24.2l0.3,0.2c-0.1,0.1-0.2,0.3-0.3,0.5c-0.1,0.1-0.2,0.2-0.2,0.4l-0.2,0.3l-0.3-0.2
			l0.2-0.4c0.1-0.1,0.2-0.2,0.2-0.4C16.1,24.5,16.2,24.4,16.3,24.2z M14.7,26.7l0.3,0.2l-0.4,0.7c-0.1,0.2-0.2,0.4-0.4,0.6L14,27.9
			c0.1-0.2,0.2-0.4,0.3-0.7L14.7,26.7z M13.3,29.2l0.3,0.2c-0.2,0.4-0.4,0.9-0.7,1.3l-0.3-0.1C12.9,30.1,13,29.7,13.3,29.2z
			 M12,31.9l0.3,0.1c-0.2,0.5-0.4,0.9-0.6,1.3l-0.3-0.1C11.7,32.9,11.8,32.4,12,31.9z M11,34.7l0.3,0.1c-0.1,0.5-0.3,0.9-0.5,1.4
			l-0.3-0.1C10.7,35.6,10.8,35.2,11,34.7z M10.1,37.5l0.4,0.1l-0.1,0.2c-0.1,0.4-0.1,0.8-0.2,1.2L9.8,39c0.1-0.4,0.2-0.8,0.3-1.2
			L10.1,37.5z M9.5,40.5l0.4,0c-0.1,0.5-0.1,1-0.2,1.4l-0.3,0C9.4,41.4,9.5,40.9,9.5,40.5z M9.1,43.4l0.4,0c0,0.5-0.1,1-0.1,1.5
			l-0.4,0C9,44.4,9.1,43.9,9.1,43.4z M8.9,46.4h0.4c0,0.5,0,1,0,1.5H8.9C8.9,47.3,8.9,46.8,8.9,46.4z M9,49.3l0.4,0l0.1,1.5l-0.4,0
			L9,49.3z M9.2,52.3l0.4,0c0,0.2,0,0.5,0.1,0.7l0.1,0.7l-0.4,0L9.3,53C9.2,52.7,9.2,52.5,9.2,52.3z M9.7,55.2l0.4,0l0.3,1.4
			L10,56.7l0-0.2L9.7,55.2z M10.4,58.1l0.3-0.1l0.2,0.7c0.1,0.2,0.1,0.5,0.2,0.7l-0.4,0.1c0-0.2-0.1-0.5-0.2-0.7L10.4,58.1z
			 M11.2,60.9l0.3-0.1l0.6,1.3l-0.3,0.1L11.2,60.9z M12.4,63.7l0.3-0.1l0.1,0.4l0.5,0.9L13,65L12.5,64L12.4,63.7z M13.7,66.3
			l0.3-0.2l0.7,1.3l-0.3,0.2L13.7,66.3z" />

			<linearGradient id="path_x5F_2_00000039817720147359721930000009184296331808922012_"
				gradientUnits="userSpaceOnUse" x1="-2682.8972" y1="-2339.1045" x2="-3003.3354" y2="-2127.3857"
				gradientTransform="matrix(-0.8589 0.5122 -0.5122 -0.8589 -3562.6641 -377.9429)">
				<stop offset="0" style="stop-color:#FFFFFF" />
				<stop offset="0.1396" style="stop-color:#FAFBFC" />
				<stop offset="0.3023" style="stop-color:#ECECEC" />
				<stop offset="0.4765" style="stop-color:#D5D5D6" />
				<stop offset="0.6589" style="stop-color:#B4B5B6" />
				<stop offset="0.8457" style="stop-color:#8A8C8D" />
				<stop offset="1" style="stop-color:#636566" />
			</linearGradient>
			<path id="path_x5F_2_2_" style="fill:url(#path_x5F_2_00000039817720147359721930000009184296331808922012_);"
				d="M27.7,13.6
			l1.3-0.7l0.2,0.3l-1.3,0.7L27.7,13.6z M30.3,12.2l0.9-0.5l0.4-0.1l0.1,0.3L31.4,12l-0.9,0.5L30.3,12.2z M33,11l1.3-0.6l0.1,0.3
			l-1.4,0.6L33,11z M35.7,9.9c0.2,0,0.5-0.1,0.7-0.2l0.7-0.2l0.1,0.4l-0.7,0.2c-0.2,0.1-0.5,0.2-0.7,0.2L35.7,9.9z M38.5,9.2l0.2,0
			l1.2-0.2l0,0.4l-1.4,0.3L38.5,9.2z M41.4,8.6l0.7-0.1c0.2,0,0.5,0,0.7-0.1l0,0.4c-0.2,0-0.5,0-0.7,0.1l-0.7,0.1L41.4,8.6z
			 M44.3,8.2l1.4-0.1l0,0.4l-1.4,0.1L44.3,8.2z M47.2,8c0.5,0,1,0,1.4,0v0.4c-0.5,0-1,0-1.4,0V8L47.2,8z M50.1,8.2
			c0.5,0,1,0.1,1.4,0.1l0,0.4c-0.5,0-1-0.1-1.4-0.1L50.1,8.2z M53,8.5c0.5,0,1,0.1,1.4,0.2l0,0.4c-0.5-0.1-0.9-0.1-1.4-0.2L53,8.5z
			 M55.8,9c0.4,0.1,0.8,0.2,1.2,0.3l0.2,0l-0.1,0.4l-0.2,0c-0.4-0.1-0.8-0.2-1.2-0.3L55.8,9z M58.7,9.7c0.5,0.1,0.9,0.3,1.4,0.5
			l-0.1,0.4c-0.5-0.1-0.9-0.3-1.3-0.5L58.7,9.7z M61.4,10.7c0.5,0.2,0.9,0.4,1.3,0.6l-0.1,0.3c-0.4-0.2-0.9-0.4-1.3-0.6L61.4,10.7z
			 M64.1,11.8c0.5,0.2,0.9,0.4,1.3,0.7l-0.2,0.3c-0.4-0.2-0.8-0.4-1.3-0.7L64.1,11.8z M66.7,13.2c0.2,0.1,0.4,0.2,0.6,0.4l0.7,0.4
			l-0.2,0.3l-0.6-0.4c-0.2-0.1-0.4-0.2-0.6-0.3L66.7,13.2z M69.1,14.8l0.3,0.2c0.1,0.1,0.2,0.2,0.4,0.2c0.2,0.1,0.3,0.2,0.5,0.3
			l-0.2,0.3c-0.1-0.1-0.3-0.2-0.5-0.3c-0.1-0.1-0.2-0.2-0.4-0.3L69,15.1L69.1,14.8z M71.5,16.5l-0.1,0.1L71.5,16.5l1.1,0.9l-0.2,0.3
			l-1.1-0.9L71.5,16.5z M73.7,18.5l1,1l-0.2,0.3l-1-1L73.7,18.5z M75.8,20.5c0.2,0.2,0.4,0.4,0.6,0.7l0.4,0.5l-0.3,0.2l-0.4-0.6
			c-0.1-0.2-0.3-0.4-0.6-0.6L75.8,20.5z M77.7,22.8l0.9,1.2l-0.3,0.2l0-0.1L77.5,23L77.7,22.8z M79.4,25.2l0.8,1.2l-0.3,0.2
			l-0.8-1.2L79.4,25.2z" />

			<linearGradient id="path_x5F_2_00000115496236725553691850000015975237238097095311_"
				gradientUnits="userSpaceOnUse" x1="-2699.1909" y1="-2371.4492" x2="-3024.3997" y2="-2156.5791"
				gradientTransform="matrix(-0.8589 0.5122 -0.5122 -0.8589 -3562.6641 -377.9429)">
				<stop offset="0" style="stop-color:#FFFFFF" />
				<stop offset="0.1396" style="stop-color:#FAFBFC" />
				<stop offset="0.3023" style="stop-color:#ECECEC" />
				<stop offset="0.4765" style="stop-color:#D5D5D6" />
				<stop offset="0.6589" style="stop-color:#B4B5B6" />
				<stop offset="0.8457" style="stop-color:#8A8C8D" />
				<stop offset="1" style="stop-color:#636566" />
			</linearGradient>
			<path id="path_x5F_2_1_" style="fill:url(#path_x5F_2_00000115496236725553691850000015975237238097095311_);"
				d="M80.4,27.4
			l0.3-0.2l0.7,1.3l-0.3,0.2L80.4,27.4z M81.8,30l0.3-0.2l0.5,1l0.1,0.4l-0.3,0.1L82.3,31L81.8,30z M83,32.7l0.3-0.1l0.6,1.3
			l-0.4,0.1L83,32.7z M84,35.5l0.3-0.1c0,0.2,0.1,0.5,0.2,0.7l0.2,0.7l-0.3,0.1l-0.2-0.7C84.1,35.9,84.1,35.7,84,35.5z M84.8,38.3
			l0.3-0.1l0,0.2l0.2,1.2l-0.4,0L84.8,38.3z M85.3,41.2l0.4,0l0.1,0.7c0,0.2,0,0.5,0.1,0.7h-0.4c0-0.2,0-0.5-0.1-0.7L85.3,41.2z
			 M85.7,44.1l0.4,0l0.1,1.5l-0.4,0L85.7,44.1z M85.8,47h0.4c0,0.5,0,1,0,1.5h-0.4C85.8,48,85.8,47.5,85.8,47z M85.7,50l0.4,0
			c0,0.5-0.1,1-0.1,1.5l-0.4,0C85.7,51,85.7,50.5,85.7,50z M85.4,52.9l0.4,0c0,0.5-0.1,1-0.2,1.5l-0.4,0
			C85.3,53.8,85.4,53.4,85.4,52.9z M85,55.8l0.4,0.1c-0.1,0.4-0.2,0.8-0.3,1.2l0,0.2l-0.4-0.1l0-0.2C84.8,56.6,84.9,56.2,85,55.8z
			 M84.2,58.6l0.3,0.1c-0.1,0.5-0.3,0.9-0.5,1.4L83.7,60C83.9,59.6,84.1,59.1,84.2,58.6z M83.3,61.4l0.3,0.1
			c-0.2,0.5-0.4,0.9-0.6,1.4l-0.3-0.1C82.9,62.3,83.1,61.8,83.3,61.4z M82.1,64.1l0.3,0.1c-0.2,0.5-0.4,0.9-0.7,1.3l-0.3-0.2
			C81.7,65,81.9,64.5,82.1,64.1z M80.8,66.7l0.3,0.2c-0.1,0.2-0.2,0.4-0.3,0.7l-0.4,0.7L80.1,68l0.4-0.7
			C80.6,67.2,80.7,67,80.8,66.7z M79.3,69.2l0.3,0.2l-0.2,0.4c-0.1,0.1-0.2,0.2-0.2,0.4c-0.1,0.2-0.2,0.3-0.3,0.5l-0.3-0.2
			c0.1-0.1,0.2-0.3,0.3-0.5c0.1-0.1,0.2-0.3,0.2-0.4L79.3,69.2z M77.6,71.6l0.3,0.2L76.9,73l-0.3-0.2L77.6,71.6z M75.7,73.8l0.3,0.3
			l-1,1.1l-0.3-0.3L75.7,73.8z M73.7,75.9l0.2,0.3c-0.2,0.2-0.4,0.4-0.6,0.6l-0.5,0.4l-0.2-0.3l0.5-0.4
			C73.3,76.3,73.5,76.2,73.7,75.9z M71.5,77.8l0.2,0.3l-1.1,0.9l-0.2-0.3l0.1,0L71.5,77.8z M69.2,79.6l0.2,0.3l-1.2,0.8L68,80.4
			L69.2,79.6z" />

			<linearGradient id="path_x5F_2_00000129195958056677856110000001774477068467266223_"
				gradientUnits="userSpaceOnUse" x1="-2688.7825" y1="-2349.8845" x2="-3009.2239" y2="-2138.1641"
				gradientTransform="matrix(-0.8589 0.5122 -0.5122 -0.8589 -3562.6641 -377.9429)">
				<stop offset="0" style="stop-color:#FFFFFF" />
				<stop offset="0.1396" style="stop-color:#FAFBFC" />
				<stop offset="0.3023" style="stop-color:#ECECEC" />
				<stop offset="0.4765" style="stop-color:#D5D5D6" />
				<stop offset="0.6589" style="stop-color:#B4B5B6" />
				<stop offset="0.8457" style="stop-color:#8A8C8D" />
				<stop offset="1" style="stop-color:#636566" />
			</linearGradient>
			<path id="path_x5F_2" style="fill:url(#path_x5F_2_00000129195958056677856110000001774477068467266223_);" d="M15.2,68.2l0.8,1.2
			l-0.3,0.2l-0.8-1.2L15.2,68.2z M16.8,70.7L16.8,70.7l0.9,1.2l-0.3,0.2l-0.9-1.2L16.8,70.7z M18.6,73l0.4,0.5
			c0.1,0.2,0.3,0.4,0.6,0.6l-0.3,0.2c-0.2-0.2-0.4-0.4-0.6-0.7l-0.4-0.5L18.6,73z M20.6,75.1l1.1,1l-0.3,0.3l-1-1L20.6,75.1z
			 M22.7,77.1l1.1,0.9l-0.2,0.3l0.1-0.1l-0.1,0.1l-1.1-0.9L22.7,77.1z M25,78.9c0.1,0.1,0.3,0.2,0.5,0.3c0.1,0.1,0.2,0.2,0.4,0.3
			l0.3,0.2l-0.2,0.3l-0.3-0.2c-0.1-0.1-0.2-0.2-0.4-0.2c-0.1-0.1-0.3-0.3-0.5-0.4L25,78.9z M27.4,80.5L28,81
			c0.2,0.1,0.4,0.2,0.6,0.3l-0.2,0.3c-0.2-0.1-0.4-0.2-0.6-0.4l-0.7-0.4L27.4,80.5z M29.9,82c0.4,0.2,0.8,0.4,1.3,0.7L31.1,83
			c-0.5-0.2-0.9-0.4-1.3-0.7L29.9,82z M32.5,83.2c0.4,0.2,0.9,0.4,1.3,0.6l-0.1,0.3c-0.5-0.2-0.9-0.4-1.3-0.6L32.5,83.2z M35.2,84.3
			c0.5,0.1,0.9,0.3,1.3,0.5l-0.1,0.4C36,85,35.5,84.8,35,84.7L35.2,84.3z M37.9,85.2l0.2,0c0.4,0.1,0.8,0.2,1.2,0.3l0,0.4
			c-0.4-0.1-0.8-0.2-1.2-0.3l-0.2,0L37.9,85.2z M40.8,85.8c0.5,0.1,0.9,0.1,1.4,0.2l-0.1,0.4c-0.5,0-1-0.1-1.4-0.2L40.8,85.8z
			 M43.6,86.2c0.5,0,1,0.1,1.4,0.1l0,0.4c-0.5,0-1-0.1-1.4-0.1L43.6,86.2z M46.5,86.4c0.5,0,1,0,1.4,0v0.4c-0.5,0-1,0-1.4,0V86.4z
			 M49.4,86.4l1.4-0.1l0,0.4l-1.4,0.1L49.4,86.4z M52.3,86.1c0.2,0,0.5,0,0.7-0.1l0.7-0.1l0,0.4L53,86.4c-0.2,0-0.5,0-0.7,0.1
			L52.3,86.1z M55.1,85.7l1.4-0.3l0.1,0.4l-0.2,0L55.1,86L55.1,85.7z M57.9,85l0.7-0.2c0.2-0.1,0.5-0.1,0.7-0.2l0.1,0.4
			c-0.2,0-0.5,0.1-0.7,0.2L58,85.3L57.9,85z M60.6,84.1l1.3-0.6l0.1,0.3l-1.3,0.6L60.6,84.1z M63.3,83l0.4-0.1l0.9-0.5l0.2,0.3
			l-0.9,0.5l-0.4,0.1L63.3,83z M65.9,81.6l1.3-0.7l0.2,0.3l-1.3,0.7L65.9,81.6z" />
		</g>
		<g id="Main_x5F_path_x5F_1_x5F_First">

			<radialGradient id="path_x5F_1_00000097491329161683434340000007036658050667347632_" cx="-2807.2751"
				cy="-2105.51" r="10.0278" gradientTransform="matrix(-0.8979 0.5455 -0.5355 -0.9146 -3641.7983 -340.088)"
				gradientUnits="userSpaceOnUse">
				<stop offset="0" style="stop-color:#FFFFFF" />
				<stop offset="8.510000e-02" style="stop-color:#FFEDD9" />
				<stop offset="0.2082" style="stop-color:#FED5A7" />
				<stop offset="0.3345" style="stop-color:#FDC17E" />
				<stop offset="0.462" style="stop-color:#FBAF5E" />
				<stop offset="0.591" style="stop-color:#F9A343" />
				<stop offset="0.7222" style="stop-color:#F89A32" />
				<stop offset="0.8568" style="stop-color:#F8952A" />
				<stop offset="1" style="stop-color:#F79226" />
			</radialGradient>
			<path id="path_x5F_1_2_" style="fill:url(#path_x5F_1_00000097491329161683434340000007036658050667347632_);"
				d="M3.9,39.5
			C4,39.5,4,39.4,4.1,39.5c0.1,0,0.2,0.1,0.2,0.2c0.1,0.1,0.1,0.2,0.1,0.3l-0.1,0.3c0,0.1,0,0.1-0.1,0.2c0,0.1-0.1,0.2-0.1,0.3
			S4,40.9,3.8,40.9c-0.2-0.1-0.3-0.2-0.3-0.3c0-0.2,0.1-0.3,0.1-0.4c0-0.1,0-0.1,0.1-0.2l0.1-0.3C3.8,39.6,3.8,39.5,3.9,39.5z
			 M3.3,46.6L3.3,46.6c0.1-0.1,0.1-0.1,0.2-0.1c0.1,0,0.2,0.1,0.2,0.1s0.1,0.2,0.1,0.2c0,0.2-0.2,0.3-0.3,0.3
			c-0.2,0-0.3-0.2-0.3-0.3l0,0C3.1,46.7,3.2,46.6,3.3,46.6z M3.8,54.1C3.8,54.1,3.8,54.1,3.8,54.1c0.2-0.1,0.3-0.1,0.3,0
			c0.1,0.1,0.1,0.1,0.2,0.2c0,0.1,0.1,0.2,0.1,0.3l0.5,2.8c0.1,0.4,0.2,0.8,0.3,1.3v0.1c0.1,0.4,0.3,0.8,0.3,1.2L5.5,60
			c0.1,0.3,0.2,0.6,0.3,0.9c0.2,0.5,0.3,1,0.5,1.5c0.2,0.5,0.4,1,0.6,1.5l0.3,0.8c0.3,0.6,0.5,1.2,0.7,1.7C7.9,66.5,8,66.8,8.2,67
			c0.1,0.2,0.2,0.3,0.2,0.4C8.7,68.2,9,68.6,9,68.6C9,68.7,9,68.9,8.9,69l0,0c-0.2,0.1-0.3,0-0.4-0.1c0,0-0.3-0.5-0.6-1.2
			c-0.1-0.2-0.2-0.3-0.2-0.4c-0.2-0.3-0.3-0.6-0.5-0.9l0,0c-0.2-0.3-0.3-0.8-0.5-1.2l-1.2-2.7c-0.2-0.5-0.3-1-0.5-1.6
			c-0.1-0.3-0.2-0.6-0.3-0.9c-0.1-0.3-0.2-0.5-0.2-0.7l-0.2-0.7c-0.2-0.4-0.3-0.9-0.3-1.3c-0.1-0.7-0.3-1.3-0.3-2l-0.2-0.8
			c0-0.1-0.1-0.2-0.1-0.3C3.6,54.3,3.7,54.2,3.8,54.1z" />

			<radialGradient id="path_x5F_1_00000160178479678981915530000001038751363983293627_" cx="-2850.5068"
				cy="-2097.231" r="29.0686"
				gradientTransform="matrix(-0.8979 0.5455 -0.5355 -0.9146 -3641.7983 -340.088)"
				gradientUnits="userSpaceOnUse">
				<stop offset="0" style="stop-color:#FFFFFF" />
				<stop offset="8.510000e-02" style="stop-color:#FFEDD9" />
				<stop offset="0.2082" style="stop-color:#FED5A7" />
				<stop offset="0.3345" style="stop-color:#FDC17E" />
				<stop offset="0.462" style="stop-color:#FBAF5E" />
				<stop offset="0.591" style="stop-color:#F9A343" />
				<stop offset="0.7222" style="stop-color:#F89A32" />
				<stop offset="0.8568" style="stop-color:#F8952A" />
				<stop offset="1" style="stop-color:#F79226" />
			</radialGradient>
			<path id="path_x5F_1_3_" style="fill:url(#path_x5F_1_00000160178479678981915530000001038751363983293627_);"
				d="M24.8,8.6
			c3.4-2.1,7-3.7,10.8-4.8c0.1,0,0.2,0,0.2,0.1C35.9,3.9,35.9,4,36,4.1c0.1,0.2-0.1,0.3-0.2,0.3c-3.7,1.1-7.3,2.7-10.7,4.7L25,9.1
			c-0.8,0.5-1.6,1-2.4,1.6h-0.1c-0.1,0.1-0.2,0.1-0.3,0.2c-0.2,0.1-0.3,0.1-0.4-0.1c-0.1-0.1-0.1-0.2-0.1-0.2c0,0,0.1-0.2,0.1-0.2
			c0.1-0.1,0.2-0.2,0.3-0.2l0,0C23.1,9.6,23.9,9.1,24.8,8.6z M21,11.2c0.1-0.1,0.3-0.1,0.4,0.1c0.1,0.2,0.1,0.3-0.1,0.4l0,0
			c-0.2,0.2-0.3,0.1-0.5-0.1C20.8,11.5,20.8,11.3,21,11.2C20.9,11.2,21,11.2,21,11.2z M16.3,15.2c0.2-0.1,0.3-0.1,0.3,0.1
			c0.1,0.1,0.1,0.2,0.1,0.2c0,0.1-0.1,0.2-0.1,0.2c-0.1,0.1-0.3,0.1-0.4,0C16.2,15.6,16.2,15.4,16.3,15.2L16.3,15.2L16.3,15.2z
			 M11.5,21c0.1-0.1,0.2-0.1,0.3,0c0.1,0.1,0.1,0.1,0.1,0.2s0,0.2-0.1,0.2c-0.1,0.3-0.2,0.5-0.3,0.6c-2.6,3.7-4,7.2-5,9.7l-0.2,0.5
			l0,0C6,33,5.8,33.8,5.6,34.4c-0.1,0.2-0.2,0.4-0.2,0.6l0,0c-0.1,0.2-0.2,0.3-0.3,0.2c-0.2-0.1-0.3-0.3-0.2-0.4
			c0.1-0.2,0.1-0.4,0.2-0.6c0.2-0.6,0.4-1.4,0.7-2.3l0,0c0.1-0.2,0.2-0.3,0.2-0.5c1.1-2.6,2.5-6.1,5.1-9.8
			C11.1,21.5,11.3,21.3,11.5,21C11.4,21,11.5,21,11.5,21z M42.9,2.4C42.9,2.4,43,2.4,42.9,2.4c0.2-0.1,0.3-0.1,0.3,0
			c0.1,0.1,0.1,0.1,0.1,0.2c0,0.2-0.1,0.3-0.3,0.3c-0.1,0-0.2,0-0.2-0.1c-0.1-0.1-0.1-0.2-0.1-0.2C42.7,2.6,42.8,2.5,42.9,2.4z
			 M49,2.2c0.1-0.1,0.1-0.1,0.2-0.1c0.2,0,0.3,0.2,0.3,0.3s-0.2,0.3-0.3,0.3s-0.3-0.2-0.3-0.3C48.9,2.4,48.9,2.3,49,2.2z M50.3,2.3
			c0.1-0.1,0.1-0.1,0.2-0.1c2.4,0.2,4.8,0.6,7.1,1.1c2.6,0.6,5.1,1.5,7.5,2.5c0.1,0.1,0.2,0.1,0.2,0.2c0.1,0.1,0.1,0.2,0,0.3
			c-0.1,0.2-0.3,0.2-0.4,0.2c-2.4-1.1-4.9-1.9-7.4-2.5c-2.3-0.6-4.6-0.9-7-1.1c-0.1,0-0.2-0.1-0.2-0.1c-0.1-0.1-0.1-0.2-0.1-0.2
			C50.2,2.5,50.3,2.3,50.3,2.3z M4.6,36L4.6,36c0.1-0.1,0.2-0.1,0.3-0.1C5,36,5.1,36.1,5.1,36.3c-0.1,0.2-0.3,0.3-0.4,0.3
			c-0.2-0.1-0.3-0.2-0.2-0.3l0,0C4.5,36.1,4.6,36,4.6,36z M71.4,9.5c0.1-0.1,0.2-0.1,0.3,0c0.2,0.1,0.2,0.3,0.1,0.4
			C71.7,10,71.6,10,71.4,10C71.3,9.9,71.3,9.7,71.4,9.5C71.3,9.5,71.4,9.5,71.4,9.5z M76.3,13.2c0.1-0.1,0.3-0.1,0.3,0.1
			c0.1,0.1,0.1,0.1,0.1,0.2c0,0.1,0,0.2-0.1,0.2c-0.1,0.1-0.3,0.2-0.4,0.1l0,0c-0.1-0.1-0.1-0.1-0.1-0.2S76.2,13.4,76.3,13.2
			C76.3,13.2,76.3,13.2,76.3,13.2z M77.3,14.1c0.1-0.1,0.3-0.1,0.3,0.1c0.3,0.3,0.7,0.7,1,1l0.7,0.7c0.1,0.1,0.2,0.2,0.3,0.3
			c0.5,0.5,1,1,1.3,1.5l2,2.5c0.3,0.3,0.5,0.6,0.5,0.7l0.1,0.1c0.1,0.1,0.1,0.1,0.1,0.2l0,0c0.1,0.1,0.1,0.2,0.1,0.3
			c0,0.1-0.1,0.2-0.2,0.2c-0.2,0.1-0.3,0.1-0.4-0.1c0,0-0.1-0.1-0.2-0.3c-0.1-0.2-0.3-0.3-0.5-0.7c-0.4-0.5-0.9-1.1-1.6-2l-0.5-0.6
			c-0.3-0.5-0.8-1-1.3-1.4l-0.6-0.6c-0.4-0.4-0.8-0.9-1.3-1.3l0,0c-0.1-0.1-0.1-0.3,0-0.4C77.3,14.2,77.3,14.1,77.3,14.1z" />

			<radialGradient id="path_x5F_1_00000177442526122055978910000007972984190674352556_" cx="-2881.4795"
				cy="-2134.8484" r="10.0157"
				gradientTransform="matrix(-0.8979 0.5455 -0.5355 -0.9146 -3641.7983 -340.088)"
				gradientUnits="userSpaceOnUse">
				<stop offset="0" style="stop-color:#FFFFFF" />
				<stop offset="8.510000e-02" style="stop-color:#FFEDD9" />
				<stop offset="0.2082" style="stop-color:#FED5A7" />
				<stop offset="0.3345" style="stop-color:#FDC17E" />
				<stop offset="0.462" style="stop-color:#FBAF5E" />
				<stop offset="0.591" style="stop-color:#F9A343" />
				<stop offset="0.7222" style="stop-color:#F89A32" />
				<stop offset="0.8568" style="stop-color:#F8952A" />
				<stop offset="1" style="stop-color:#F79226" />
			</radialGradient>
			<path id="path_x5F_1_1_" style="fill:url(#path_x5F_1_00000177442526122055978910000007972984190674352556_);"
				d="M86.2,25.8
			L86.2,25.8c0.2-0.1,0.3-0.1,0.4,0.1l0,0c0,0,0,0.1,0.1,0.1l0.6,1.1c0.1,0.2,0.2,0.3,0.2,0.4c0.2,0.3,0.3,0.6,0.5,0.9l0,0
			c0.2,0.6,0.5,1.1,0.7,1.8c0.2,0.3,0.3,0.7,0.5,1.1l0.4,1c0.2,0.5,0.3,1.1,0.5,1.6c0.1,0.3,0.2,0.6,0.3,0.9
			c0.1,0.5,0.3,0.9,0.3,1.3v0.1c0.1,0.4,0.3,0.9,0.3,1.3l0.5,2.7c0,0.1,0.1,0.2,0.1,0.3c0.1,0.2-0.1,0.3-0.3,0.3
			c-0.2,0.1-0.3-0.1-0.3-0.3c0-0.1-0.1-0.2-0.1-0.3L90.7,40c-0.2-0.9-0.3-1.8-0.5-2.6c-0.1-0.4-0.2-0.9-0.3-1.3l0,0
			c-0.1-0.3-0.2-0.5-0.2-0.7l-0.2-0.6c-0.1-0.3-0.2-0.6-0.3-0.9c-0.2-0.6-0.3-1-0.5-1.5l-0.9-2.2c-0.3-0.6-0.5-1.2-0.7-1.7
			c-0.2-0.3-0.3-0.6-0.5-0.9c-0.1-0.2-0.2-0.3-0.2-0.4c-0.3-0.7-0.6-1.1-0.6-1.2C86.1,26.1,86.1,25.9,86.2,25.8z M91.5,47.8
			c0.1-0.1,0.1-0.1,0.2-0.1c0.1,0,0.2,0.1,0.2,0.1C91.9,47.9,92,48,92,48c0,0.2-0.2,0.3-0.3,0.3c-0.1,0-0.2-0.1-0.2-0.1
			c-0.1-0.1-0.1-0.2-0.1-0.2C91.4,47.9,91.4,47.8,91.5,47.8z M91.1,54c0.1-0.1,0.2-0.1,0.2-0.1c0.2,0.1,0.3,0.2,0.3,0.3
			c0,0.2-0.1,0.3-0.1,0.3c0,0.1-0.1,0.1-0.1,0.2l-0.1,0.3c-0.1,0.2-0.2,0.3-0.3,0.3c-0.2-0.1-0.3-0.2-0.2-0.3l0.1-0.3
			c0-0.1,0-0.1,0.1-0.2c0-0.1,0.1-0.2,0.1-0.3C90.9,54.1,91,54,91.1,54z" />

			<radialGradient id="path_x5F_1_00000021097773413145686840000004322285682893298836_" cx="-2838.2378"
				cy="-2143.1333" r="29.0941"
				gradientTransform="matrix(-0.8979 0.5455 -0.5355 -0.9146 -3641.7983 -340.088)"
				gradientUnits="userSpaceOnUse">
				<stop offset="0" style="stop-color:#FFFFFF" />
				<stop offset="8.510000e-02" style="stop-color:#FFEDD9" />
				<stop offset="0.2082" style="stop-color:#FED5A7" />
				<stop offset="0.3345" style="stop-color:#FDC17E" />
				<stop offset="0.462" style="stop-color:#FBAF5E" />
				<stop offset="0.591" style="stop-color:#F9A343" />
				<stop offset="0.7222" style="stop-color:#F89A32" />
				<stop offset="0.8568" style="stop-color:#F8952A" />
				<stop offset="1" style="stop-color:#F79226" />
			</radialGradient>
			<path id="path_x5F_1" style="fill:url(#path_x5F_1_00000021097773413145686840000004322285682893298836_);"
				d="M11.6,73.5
			c0.2-0.1,0.3-0.1,0.4,0.1c0,0,0.1,0.1,0.2,0.3c0.1,0.2,0.2,0.3,0.5,0.7c0.5,0.6,1.2,1.4,2,2.5c0.3,0.5,0.8,0.9,1.3,1.4
			c0.1,0.1,0.2,0.2,0.3,0.3c0.5,0.5,1.1,1.1,1.6,1.6c0.1,0.1,0.1,0.2,0.1,0.2c0,0.1-0.1,0.2-0.1,0.2c-0.1,0.1-0.3,0.1-0.4,0
			l-0.1-0.1c-0.5-0.6-1-1.1-1.5-1.5c-0.1-0.1-0.2-0.2-0.3-0.3c-0.5-0.5-1-1-1.3-1.4l-2-2.5c-0.3-0.3-0.5-0.6-0.5-0.7L11.6,74
			c-0.1-0.1-0.1-0.1-0.1-0.2l0,0C11.4,73.8,11.4,73.6,11.6,73.5L11.6,73.5z M18.4,81.1c0.1-0.1,0.3-0.1,0.3,0.1
			c0.1,0.1,0.1,0.1,0.1,0.2c0,0.1,0,0.2-0.1,0.2c-0.1,0.1-0.3,0.2-0.4,0.1C18.3,81.5,18.3,81.3,18.4,81.1
			C18.4,81.2,18.4,81.1,18.4,81.1z M23.3,84.8c0.1-0.1,0.2-0.1,0.3,0c0.1,0.1,0.1,0.1,0.2,0.2c0,0.1,0,0.2-0.1,0.2
			c-0.1,0.2-0.3,0.2-0.4,0.1c-0.1-0.1-0.1-0.1-0.2-0.2C23.2,85.1,23.2,85,23.3,84.8C23.2,84.9,23.3,84.9,23.3,84.8z M29.9,88.5
			c0.1-0.1,0.2-0.1,0.3,0c2.4,1.1,4.9,1.9,7.4,2.5c2.3,0.6,4.6,0.9,7,1.1c0.2,0,0.3,0.2,0.3,0.3c0,0.2-0.2,0.3-0.3,0.3
			c-2.4-0.2-4.8-0.6-7.1-1.1c-2.6-0.6-5.1-1.5-7.5-2.5c-0.2-0.1-0.2-0.3-0.2-0.4C29.8,88.6,29.9,88.5,29.9,88.5z M90.2,58.4
			c0.1-0.1,0.2-0.1,0.3-0.1c0.1,0,0.2,0.1,0.2,0.2c0.1,0.1,0.1,0.2,0,0.3l0,0c-0.1,0.2-0.2,0.3-0.3,0.2c-0.2-0.1-0.3-0.2-0.2-0.3
			C90.1,58.5,90.1,58.4,90.2,58.4z M89.8,59.7c0.1-0.1,0.2-0.1,0.3-0.1c0.2,0.1,0.3,0.2,0.2,0.3c-0.1,0.2-0.1,0.4-0.2,0.7
			c-0.2,0.6-0.4,1.4-0.7,2.2l0,0c-0.1,0.2-0.2,0.3-0.2,0.5c-1,2.6-2.5,6.1-5,9.8c-0.2,0.2-0.3,0.4-0.4,0.6c-0.1,0.2-0.3,0.2-0.4,0.1
			c-0.2-0.1-0.2-0.3-0.1-0.4c0.2-0.2,0.3-0.4,0.4-0.6c2.6-3.6,4-7.1,5-9.7l0.2-0.5c0.3-0.9,0.5-1.6,0.7-2.3
			C89.6,60.2,89.7,59.9,89.8,59.7L89.8,59.7C89.7,59.8,89.7,59.8,89.8,59.7z M45.8,92.1c0.1-0.1,0.1-0.1,0.2-0.1
			c0.2,0,0.3,0.2,0.3,0.3s-0.2,0.3-0.3,0.3s-0.3-0.2-0.3-0.3C45.6,92.3,45.7,92.2,45.8,92.1z M51.8,91.9
			C51.9,91.9,51.9,91.9,51.8,91.9c0.2-0.1,0.3-0.1,0.3,0c0.1,0.1,0.1,0.1,0.1,0.2c0,0.2-0.1,0.3-0.3,0.3l0,0c-0.1,0-0.2,0-0.2-0.1
			c0-0.1-0.1-0.1-0.1-0.2C51.7,92.1,51.8,92,51.8,91.9z M59.2,90.5C59.2,90.5,59.3,90.5,59.2,90.5c4.7-1.4,9.1-3.5,13.2-6.3
			c0.1-0.1,0.2-0.2,0.3-0.2c0.2-0.1,0.3-0.1,0.4,0.1c0.1,0.2,0.1,0.3-0.1,0.4c-0.1,0.1-0.1,0.1-0.2,0.1c-0.1,0.1-0.1,0.1-0.2,0.1
			c-4.1,2.9-8.6,5-13.3,6.3c-0.2,0.1-0.3-0.1-0.3-0.2C59.1,90.7,59.1,90.6,59.2,90.5z M78.4,79.1c0.1-0.1,0.3-0.1,0.3,0.1
			c0.1,0.1,0.1,0.3,0,0.4c-0.1,0.1-0.3,0.1-0.4,0C78.3,79.5,78.3,79.3,78.4,79.1C78.4,79.1,78.4,79.1,78.4,79.1z M73.8,83.2
			c0.2-0.1,0.3-0.1,0.4,0.1c0.1,0.2,0.1,0.3-0.1,0.4c-0.1,0.1-0.3,0.1-0.4-0.1C73.6,83.5,73.6,83.3,73.8,83.2L73.8,83.2z" />
		</g>
	</g>
	<g>
		<g class="st35">
			<path class="st36"
				d="M45.6,92.1l0.7-5.7L48,66.9L48.8,54c3.4,0,6,0,7.9,0c1.6,0,4,0,7.3,0c0.2,1.6,0.5,2.8,0.6,3.6
			c0.2,0.8,0.6,2.4,1.2,4.9c0.7,2.4,1.2,4.5,1.6,6.2c0.4,1.7,1,4.7,1.8,9c0.8-2.9,1.5-5.4,2.2-7.6c0.7-2.1,1.5-4.5,2.5-7.2
			c1-2.7,1.6-4.4,1.9-5.2c0.2-0.8,0.6-2.1,1.1-3.8c2.7,0,5.4,0,8,0c1.8,0,4.3,0,7.4,0c-0.3,6.3-0.6,11.6-0.7,16.1
			c-0.2,8.8-0.4,14.9-0.4,18.2c0,0.7,0,1.9,0,3.8c-2.4,0-4.1,0-5.1,0c-1.4,0-3.1,0-5.2,0c0.2-1.7,0.3-5.7,0.5-12
			c0.2-6.3,0.3-10.3,0.3-12c0-0.7,0-1.8,0-3.2l-3.6,11.3l-5,15.8c-2.4,0-4,0-4.9,0c-1.1,0-2.8,0-5.2,0l-3.4-15.4l-2-8.2
			c-0.1-0.3-0.2-0.7-0.2-1.2c-0.1-0.5-0.2-1.3-0.5-2.4l-0.7,7.7l-0.9,15.8l-0.1,3.6c-2.5,0-4.1,0-4.8,0C49.6,92,48,92,45.6,92.1z" />
		</g>
		<g>
			<g>
				<path class="st36" d="M43.6,89.6l0.7-5.7l1.7-19.6l0.8-12.9c3.4,0,6,0,7.9,0c1.6,0,4,0,7.3,0c0.2,1.6,0.5,2.8,0.6,3.6
				c0.2,0.8,0.6,2.4,1.2,4.9c0.7,2.4,1.2,4.5,1.6,6.2c0.4,1.7,1,4.7,1.8,9c0.8-2.9,1.5-5.4,2.2-7.6c0.7-2.1,1.5-4.5,2.5-7.2
				c1-2.7,1.6-4.4,1.9-5.2c0.2-0.8,0.6-2.1,1.1-3.8c2.7,0,5.4,0,8,0c1.8,0,4.3,0,7.4,0c-0.3,6.3-0.6,11.6-0.7,16.1
				c-0.2,8.8-0.4,14.9-0.4,18.2c0,0.7,0,1.9,0,3.8c-2.4,0-4.1,0-5.1,0c-1.4,0-3.1,0-5.2,0c0.2-1.7,0.3-5.7,0.5-12
				c0.2-6.3,0.3-10.3,0.3-12c0-0.7,0-1.8,0-3.2l-3.6,11.3L71,89.6c-2.4,0-4,0-4.9,0c-1.1,0-2.8,0-5.2,0l-3.4-15.4l-2-8.2
				c-0.1-0.3-0.2-0.7-0.2-1.2c-0.1-0.5-0.2-1.3-0.5-2.4l-0.7,7.7L53.2,86l-0.1,3.6c-2.5,0-4.1,0-4.8,0
				C47.6,89.6,45.9,89.6,43.6,89.6z" />
			</g>
		</g>
	</g>
	<g>
		<g class="st35">
			<path class="st36" d="M15.2,94.8c-0.2-3.9-0.4-7.8-0.8-11.5c2.6,1,4.6,1.6,6.2,2c1.6,0.4,3.1,0.5,4.4,0.5c1.5,0,2.9-0.3,4.1-0.8
			c0.9-0.4,1.6-1,2.1-1.7c0.7-1,1.2-2.1,1.4-3.4c0.4-2.4,0.8-6.4,1-12.1c0.2-5.8,0.4-10.8,0.4-15v-4.1c3.6,0,6.1,0,7.3,0
			c1.5,0,4,0,7.7-0.1l-1,15.3c-0.3,4.5-0.4,9.3-0.5,14.4c-0.1,3.9-0.3,6.6-0.6,8.1c-0.3,1.3-0.7,2.4-1.2,3.3c-0.4,0.8-1,1.6-1.7,2.3
			c-0.8,0.8-1.9,1.5-3,2.1c-1.6,0.8-3.3,1.5-5.1,1.9c-2,0.4-4.1,0.7-6.3,0.7C25.3,96.7,20.5,96.1,15.2,94.8z" />
		</g>
		<g>
			<g>
				<path class="st37"
					d="M13,92.2c-0.2-3.9-0.4-7.8-0.8-11.5c2.6,1,4.6,1.6,6.2,2c1.6,0.4,3.1,0.5,4.4,0.5c1.5,0,2.9-0.3,4.1-0.8
				c0.9-0.4,1.6-1,2.1-1.7c0.7-1,1.2-2.1,1.4-3.4c0.4-2.4,0.8-6.4,1-12.1c0.2-5.8,0.4-10.8,0.4-15v-4.1c3.6,0,6.1,0,7.3,0
				c1.5,0,4,0,7.7-0.1l-1.1,15.3c-0.3,4.5-0.4,9.3-0.5,14.4c-0.1,3.9-0.3,6.6-0.6,8.1c-0.3,1.3-0.7,2.4-1.2,3.3
				c-0.4,0.8-1,1.6-1.7,2.3c-0.8,0.8-1.9,1.5-3,2.1c-1.6,0.8-3.3,1.5-5.1,1.9c-2,0.4-4.1,0.7-6.3,0.7C23.1,94.1,18.3,93.5,13,92.2z" />
			</g>
		</g>
	</g>
</svg>
