<svg xmlns="http://www.w3.org/2000/svg" xmlns:xlink="http://www.w3.org/1999/xlink" width="1039" height="1039" viewBox="0 0 1039 1039">
  <defs>
    <filter id="Ellipse_120" x="0" y="0" width="1039" height="1039" filterUnits="userSpaceOnUse">
      <feOffset dy="3" input="SourceAlpha"/>
      <feGaussianBlur stdDeviation="9.5" result="blur"/>
      <feFlood flood-opacity="0.251"/>
      <feComposite operator="in" in2="blur"/>
      <feComposite in="SourceGraphic"/>
    </filter>
    <filter id="Ellipse_120-2" x="0" y="0" width="1039" height="1039" filterUnits="userSpaceOnUse">
      <feOffset dy="17" input="SourceAlpha"/>
      <feGaussianBlur stdDeviation="4.5" result="blur-2"/>
      <feFlood flood-opacity="0.259" result="color"/>
      <feComposite operator="out" in="SourceGraphic" in2="blur-2"/>
      <feComposite operator="in" in="color"/>
      <feComposite operator="in" in2="SourceGraphic"/>
    </filter>
  </defs>
  <g id="illustration_about" data-name="illustration about" transform="translate(-1037.5 -4740.5)">
    <g id="Group_179" data-name="Group 179" transform="translate(-87 -1)">
      <g data-type="innerShadowGroup">
        <g transform="matrix(1, 0, 0, 1, 1124.5, 4741.5)" filter="url(#Ellipse_120)">
          <circle id="Ellipse_120-3" data-name="Ellipse 120" cx="350" cy="350" r="350" transform="translate(169.5 166.5)" fill="#313130" opacity="0.25"/>
        </g>
        <g transform="matrix(1, 0, 0, 1, 1124.5, 4741.5)" filter="url(#Ellipse_120-2)">
          <circle id="Ellipse_120-4" data-name="Ellipse 120" cx="350" cy="350" r="350" transform="translate(169.5 166.5)" fill="#fff" opacity="0.25"/>
        </g>
      </g>
      <g id="Group_60" data-name="Group 60" transform="translate(1311.298 5037.284)">
        <circle id="Ellipse_121" data-name="Ellipse 121" cx="216.869" cy="216.869" r="216.869" transform="translate(119.543)" fill="#e5dfc6"/>
        <path id="Path_258" data-name="Path 258" d="M367.274,143.269l1.542,32.139c6.39,8.523,13.284,18.276,20.088,28.906l.971-49.031.536.343a95.7,95.7,0,0,0-23.673-12.654Z" transform="translate(-201.01 -101.125)" fill="#eaa244"/>
        <path id="Path_259" data-name="Path 259" d="M348.416,171.467l-1.493-31.132c-8.763-2.988-17.265-3.98-25.037-2.594-.4.072-.8.155-1.2.239C322.663,140.1,334.171,152.611,348.416,171.467Z" transform="translate(-181.734 -98.679)" fill="#eaa244"/>
        <path id="Path_260" data-name="Path 260" d="M474.973,254.106l.517.494q-3.186-5.992-6.754-11.651L454.245,299.97l-.245-.216q1.572,3.752,2.989,7.453Z" transform="translate(-237.536 -142.974)" fill="#eaa244"/>
        <path id="Path_261" data-name="Path 261" d="M433.093,189.234l.534.427a150.444,150.444,0,0,0-25.948-24.245l-.99,49.965q9.5,14.988,17.006,29.526Z" transform="translate(-217.732 -110.52)" fill="#eaa244"/>
        <path id="Path_262" data-name="Path 262" d="M271.3,233.212a125.614,125.614,0,0,0,4.964,24.827l86.417,8.913c-4.511-8.319-9.168-16.124-13.689-23.238l-77.472-9.823Z" transform="translate(-161.06 -138.899)" fill="#eaa244"/>
        <path id="Path_263" data-name="Path 263" d="M283.126,285.727l-.233-.678,87.462,7.774q-1.585-3.1-3.205-6.118l-86.736-8.946-.228-.679Q281.5,281.356,283.126,285.727Z" transform="translate(-164.78 -157.261)" fill="#eaa244"/>
        <path id="Path_264" data-name="Path 264" d="M460.848,227.189l.526.464a179.652,179.652,0,0,0-14.342-19.514l-9.525,56.425q4.952,9.722,8.97,19.171Z" transform="translate(-230.632 -128.403)" fill="#eaa244"/>
        <path id="Path_265" data-name="Path 265" d="M474.471,366.072a146.528,146.528,0,0,1,3.924,42.509c4.891-10.421,23.491-53.594,16.538-93.829Z" transform="translate(-246.105 -173.03)" fill="#eaa244"/>
        <path id="Path_266" data-name="Path 266" d="M312.838,344.256a173.8,173.8,0,0,0,15.087,17.711l-.211-.754,77.8,16.005a216.061,216.061,0,0,0-7.564-24.766Z" transform="translate(-178.448 -185.38)" fill="#eaa244"/>
        <path id="Path_267" data-name="Path 267" d="M329.741,172.686c-15.418-20.4-27.584-33.289-27.759-33.474l.2-.43c-11.7,2.656-19.961,10.617-24.506,22.139Z" transform="translate(-163.73 -99.372)" fill="#eaa244"/>
        <path id="Path_268" data-name="Path 268" d="M460.379,318.075c.287.767.579,1.536.857,2.3a214.667,214.667,0,0,1,6.8,22.347l20.268-50.833.5.5a85.108,85.108,0,0,0-6.471-20.483q-1.793-3.839-3.755-7.562Z" transform="translate(-240.206 -151.929)" fill="#eaa244"/>
        <path id="Path_269" data-name="Path 269" d="M347.8,219.126c-6.734-10.5-13.55-20.14-19.867-28.563L274.67,178.529l-.181-.672c-3.325,8.756-4.541,19.512-3.534,31.526Z" transform="translate(-160.773 -115.728)" fill="#eaa244"/>
        <path id="Path_270" data-name="Path 270" d="M417.176,391.806l-77.231-15.888c32.485,33.347,77.933,58.922,80.834,60.538C422.133,421.764,420.6,406.673,417.176,391.806Z" transform="translate(-189.794 -198.633)" fill="#eaa244"/>
        <path id="Path_271" data-name="Path 271" d="M386.035,329.683l.017-.051a291.612,291.612,0,0,0-12.7-28.707l-87.677-7.793q2.233,5.913,5.047,11.952a104.487,104.487,0,0,0,9.71,16.357Z" transform="translate(-167.08 -163.98)" fill="#eaa244"/>
        <path id="Path_272" data-name="Path 272" d="M634.07,329.259l-19.311,25.736c-.514,10.64-1.426,22.549-2.965,35.075l32.021-37.143.194.606a95.7,95.7,0,0,0-10.162-24.845Z" transform="translate(-303.585 -178.863)" fill="#eaa244"/>
        <path id="Path_273" data-name="Path 273" d="M617.042,339.424l18.706-24.93c-4.843-7.891-10.759-14.077-17.629-17.967-.357-.2-.716-.392-1.076-.58C617.214,298.839,618.1,315.815,617.042,339.424Z" transform="translate(-305.782 -165.158)" fill="#eaa244"/>
        <path id="Path_274" data-name="Path 274" d="M634.352,490.083l.083.71q1.368-6.646,2.229-13.281l-47.53,34.674-.051-.323q-1.183,3.892-2.452,7.647Z" transform="translate(-293.053 -241.158)" fill="#eaa244"/>
        <path id="Path_275" data-name="Path 275" d="M644.25,407.1l.139.669a150.441,150.441,0,0,0-4.52-35.223l-32.631,37.851q-2.245,17.6-5.734,33.587Z" transform="translate(-299.278 -197.22)" fill="#eaa244"/>
        <path id="Path_276" data-name="Path 276" d="M510.011,337.317A125.617,125.617,0,0,0,498,359.6l60.873,61.983c1.832-9.285,3.223-18.267,4.278-26.629l-53.4-56.978Z" transform="translate(-255.953 -182.475)" fill="#eaa244"/>
        <path id="Path_277" data-name="Path 277" d="M491.933,385.308l.253-.671,62.4,61.773q.757-3.4,1.434-6.756l-61.1-62.212.258-.669Q493.467,380.9,491.933,385.308Z" transform="translate(-253.414 -198.991)" fill="#eaa244"/>
        <path id="Path_278" data-name="Path 278" d="M638.752,457.95l.109.693a179.668,179.668,0,0,0,1.4-24.177l-43.325,37.383q-2.387,10.646-5.319,20.487Z" transform="translate(-295.14 -223.14)" fill="#eaa244"/>
        <path id="Path_279" data-name="Path 279" d="M549.492,578.626A146.529,146.529,0,0,1,525.4,613.869c10.414-4.907,52.276-26.294,72.583-61.718Z" transform="translate(-267.423 -272.401)" fill="#eaa244"/>
        <path id="Path_280" data-name="Path 280" d="M479.651,449.337a173.793,173.793,0,0,0,.324,23.263l.318-.715,49.713,61.949a216.076,216.076,0,0,0,9.97-23.9Z" transform="translate(-248.17 -229.365)" fill="#eaa244"/>
        <path id="Path_281" data-name="Path 281" d="M592.11,336.635c1.135-25.544-.013-43.232-.03-43.486l.429-.2c-10.706-5.417-22.145-4.555-33,1.421Z" transform="translate(-281.702 -162.393)" fill="#eaa244"/>
        <path id="Path_282" data-name="Path 282" d="M578.417,531.633c-.268.774-.534,1.553-.807,2.318A214.687,214.687,0,0,1,568.6,555.5l48.032-26.224.065.7a85.106,85.106,0,0,0,8.081-19.9q1.067-4.1,1.931-8.219Z" transform="translate(-285.504 -251.348)" fill="#eaa244"/>
        <path id="Path_283" data-name="Path 283" d="M572.276,377.041c1.513-12.385,2.41-24.154,2.917-34.67l-33.344-43.239.29-.633c-8.145,4.623-15.942,12.132-22.83,22.028Z" transform="translate(-264.873 -166.227)" fill="#eaa244"/>
        <path id="Path_284" data-name="Path 284" d="M529.859,552.508l-49.348-61.5c3.75,46.4,22.442,95.088,23.645,98.183C514.569,578.743,523.013,566.141,529.859,552.508Z" transform="translate(-248.633 -246.809)" fill="#eaa244"/>
        <path id="Path_285" data-name="Path 285" d="M540.681,484.8l.046-.028a291.6,291.6,0,0,0,8.532-30.207L486.7,392.639q-2.052,5.978-3.736,12.424a104.485,104.485,0,0,0-2.954,18.791Z" transform="translate(-248.424 -205.632)" fill="#eaa244"/>
        <path id="Path_286" data-name="Path 286" d="M318.5,388.682l11.4,30.088c8.712,6.13,18.283,13.275,28.039,21.281l-14.232-46.93.616.16a95.7,95.7,0,0,0-26.425-4.717Z" transform="translate(-180.567 -203.927)" fill="#eaa244"/>
        <path id="Path_287" data-name="Path 287" d="M309.474,417.684l-11.043-29.146c-9.257-.134-17.65,1.552-24.613,5.272-.362.194-.715.4-1.066.6C275.286,395.812,290.1,404.155,309.474,417.684Z" transform="translate(-161.669 -203.912)" fill="#eaa244"/>
        <path id="Path_288" data-name="Path 288" d="M465.275,457.524l.644.31q-4.882-4.714-10.024-8.993l3.843,58.708-.3-.13q2.654,3.083,5.147,6.164Z" transform="translate(-238.329 -229.157)" fill="#eaa244"/>
        <path id="Path_289" data-name="Path 289" d="M395.983,411.833l.64.241a150.443,150.443,0,0,0-32.171-15.038l14.5,47.825q13.665,11.318,25.3,22.823Z" transform="translate(-200.052 -207.473)" fill="#eaa244"/>
        <path id="Path_290" data-name="Path 290" d="M255.027,493.79a125.618,125.618,0,0,0,12.394,22.077l84.94-18.234c-6.862-6.517-13.7-12.5-20.2-17.868l-76.714,14.6Z" transform="translate(-154.249 -242.101)" fill="#eaa244"/>
        <path id="Path_291" data-name="Path 291" d="M282.508,537.414l-.431-.573L367.659,517.2q-2.465-2.459-4.939-4.828l-85.254,18.3-.427-.575Q279.608,533.76,282.508,537.414Z" transform="translate(-163.463 -255.75)" fill="#eaa244"/>
        <path id="Path_292" data-name="Path 292" d="M439.954,437.451l.643.278A179.665,179.665,0,0,0,420.926,423.6l8.382,56.606q7.715,7.716,14.457,15.46Z" transform="translate(-223.692 -218.593)" fill="#eaa244"/>
        <path id="Path_293" data-name="Path 293" d="M500.737,562.887A146.528,146.528,0,0,1,517.608,602.1c1.43-11.423,5.775-58.23-13.274-94.346Z" transform="translate(-257.099 -253.818)" fill="#eaa244"/>
        <path id="Path_294" data-name="Path 294" d="M328.856,583.326a173.786,173.786,0,0,0,19.823,12.18l-.434-.651,78.937-8.826a216.056,216.056,0,0,0-14.849-21.215Z" transform="translate(-185.153 -277.701)" fill="#eaa244"/>
        <path id="Path_295" data-name="Path 295" d="M296.825,422.808c-20.968-14.633-36.523-23.133-36.746-23.254l.058-.471c-10.306,6.143-15.7,16.267-16.463,28.63Z" transform="translate(-149.497 -208.329)" fill="#eaa244"/>
        <path id="Path_296" data-name="Path 296" d="M473.037,522.1c.51.641,1.026,1.282,1.526,1.923a214.676,214.676,0,0,1,13.378,19.149l3.563-54.609.624.319a85.108,85.108,0,0,0-12.485-17.48q-2.892-3.1-5.908-6.031Z" transform="translate(-245.504 -236.077)" fill="#eaa244"/>
        <path id="Path_297" data-name="Path 297" d="M326.038,462.792c-9.651-7.908-19.112-14.966-27.723-21.023l-54.371,5.017-.379-.583c-.456,9.355,1.713,19.96,6.384,31.075Z" transform="translate(-149.426 -226.196)" fill="#eaa244"/>
        <path id="Path_298" data-name="Path 298" d="M442.782,603.318l-78.359,8.761c41.2,21.673,92.329,31.947,95.587,32.588C456.756,630.277,450.632,616.4,442.782,603.318Z" transform="translate(-200.04 -293.818)" fill="#eaa244"/>
        <path id="Path_299" data-name="Path 299" d="M393.964,546v-.054a291.622,291.622,0,0,0-20.947-23.377l-85.793,19.689q3.951,4.933,8.494,9.807a104.484,104.484,0,0,0,14.29,12.554Z" transform="translate(-167.727 -260.016)" fill="#eaa244"/>
        <path id="Path_300" data-name="Path 300" d="M688,688.944c0,26.01-133.8,72.1-298.849,72.1S90.3,714.954,90.3,688.944,224.1,666.85,389.149,666.85,688,662.934,688,688.944Z" transform="translate(-85.298 -320.324)" fill="#173241"/>
        <path id="Path_301" data-name="Path 301" d="M688,688.944c0,26.01-133.8,72.1-298.849,72.1S90.3,714.954,90.3,688.944,224.1,666.85,389.149,666.85,688,662.934,688,688.944Z" transform="translate(-85.298 -320.324)" fill="#264e65" opacity="0.1"/>
        <ellipse id="Ellipse_123" data-name="Ellipse 123" cx="298.849" cy="47.095" rx="298.849" ry="47.095" transform="translate(5.005 321.525)" fill="#264e65"/>
        <path id="Path_302" data-name="Path 302" d="M567.333,595.5c0,28.337-39.5,19.572-87.86,19.572S392.2,623.837,392.2,595.5,431.693,561,480.055,561,567.333,567.164,567.333,595.5Z" transform="translate(-211.667 -276.105)" opacity="0.1"/>
        <path id="Path_303" data-name="Path 303" d="M567.333,583.5c0,28.337-39.5,19.572-87.86,19.572S392.2,611.837,392.2,583.5,431.693,549,480.055,549,567.333,555.164,567.333,583.5Z" transform="translate(-211.667 -271.082)" fill="#264e65"/>
        <path id="Path_322" data-name="Path 322" d="M424.894,514.178a21.584,21.584,0,0,1-2.062,9.618,7.947,7.947,0,0,0-.807,2.119,5.721,5.721,0,0,0,1.681,4.338,17.836,17.836,0,0,0,7.626,5.306" transform="translate(-224.134 -256.506)" opacity="0.1"/>
        <path id="Path_323" data-name="Path 323" d="M509.477,509.362a4.6,4.6,0,0,0,.225,2.794,28.151,28.151,0,0,1,1.026,8.168.3.3,0,0,1-.348.356c-1.086.067-2.328.074-3.065-.727" transform="translate(-259.853 -254.49)" opacity="0.1"/>
        <ellipse id="Ellipse_124" data-name="Ellipse 124" cx="112.657" cy="24.141" rx="112.657" ry="24.141" transform="translate(227.066 362.55)" opacity="0.1"/>
        <path id="Path_337" data-name="Path 337" d="M81.7,555.659C81.7,592.879,105.046,623,133.9,623" transform="translate(-81.696 -273.869)" fill="#264e65"/>
        <path id="Path_338" data-name="Path 338" d="M171.487,622.453c0-37.638,26.057-68.094,58.259-68.094" transform="translate(-119.281 -273.325)" fill="#eaa244"/>
        <path id="Path_339" data-name="Path 339" d="M114.229,561.463c0,35.355,14.89,63.964,33.291,63.964" transform="translate(-95.314 -276.299)" fill="#eaa244"/>
        <path id="Path_340" data-name="Path 340" d="M171.487,608.836c0-48.094,30.118-87.01,67.338-87.01" transform="translate(-119.281 -259.707)" fill="#264e65"/>
        <path id="Path_341" data-name="Path 341" d="M152.6,669.413s7.4-.228,9.635-1.817,11.389-3.486,11.942-.938,11.126,12.674,2.768,12.741-19.422-1.3-21.649-2.659S152.6,669.413,152.6,669.413Z" transform="translate(-111.374 -319.81)" fill="#a8a8a8"/>
        <path id="Path_342" data-name="Path 342" d="M177.091,681.385c-8.359.067-19.422-1.3-21.649-2.659-1.7-1.033-2.372-4.74-2.6-6.45l-.247.01s.469,5.971,2.7,7.328,13.29,2.726,21.649,2.659c2.413-.019,3.246-.878,3.2-2.149C179.807,680.891,178.887,681.371,177.091,681.385Z" transform="translate(-111.374 -322.683)" opacity="0.2"/>
      </g>
      <g id="Person" transform="translate(-55.125 25.167)">
        <path id="Path_521" data-name="Path 521" d="M416.909,506.542H405.755l-5.307-43.027h16.464Z" transform="translate(1259.712 4882)" fill="#c49e7c"/>
        <path id="Path_522" data-name="Path 522" d="M717.647,708.238h-34.3V707.8a13.352,13.352,0,0,1,13.351-13.351h0l6.266-4.754,11.691,4.754h2.994Z" transform="translate(959.367 4691.94)" fill="#141110"/>
        <path id="Path_523" data-name="Path 523" d="M495.838,506.542h11.155l5.307-43.027H495.836Z" transform="translate(1259.712 4882)" fill="#c49e7c"/>
        <path id="Path_524" data-name="Path 524" d="M795.79,708.238h34.3V707.8a13.352,13.352,0,0,0-13.351-13.351h0l-6.266-4.754-11.691,4.754H795.79Z" transform="translate(959.367 4691.94)" fill="#141110"/>
        <path id="Path_525" data-name="Path 525" d="M700.3,621.956c.165-2.455,1.475-16.033,1.475-16.033l3.138-28.795,5.53-76.328.361-5,28.967-5.561,19.8-9.491,23.531,7.522,18.323,6.871s.031,2.941.173,6.495c.188,4.651.518,10.354,1.3,11.836,1.31,2.62.98,16.684.98,16.684s1.3,28.614,2.941,31.752,1.969,9.671,1.475,10.981,1.639,35.674,1.639,35.674,5.476,60.811,2.04,69.98-16.418,3.163-16.418,3.163.628-2.447-3.138-3.6-15.233-87.38-15.233-87.38-2.133-17.68-4.094-22.747-3.765-19.3-3.765-19.3-12.111-23.563-12.268-28.8c0,0-1.584-4.9-3.083.494s-5.914,18.323-5.914,18.323l-4.306,15.876-5.067,23.719-3.279,19.97s-4.91,26.5-5.695,27.649,0,25.359,0,25.359-3.8,20.621-9.162,24.222-19.58.057-19.58.057S700.137,624.411,700.3,621.956Z" transform="translate(959.367 4691.94)" fill="#141110"/>
        <path id="Path_526" data-name="Path 526" d="M412.315,236.13l6.44,19.4-7.946,9.459,3.5,3.6-2.581,5.09L405,327.032l36.9,13.993,12.425-15.578,9.8,15.578,42.694-10.432-10.888-68.037v-4.448l-3.074-8.589V231.337l8.118-54.122-24.23-8.487-11.585-9.169L461.4,172.454l-15.962-2.839-.416-9.688-12.213,11.539L422.527,174.4l-12.314,2.816-1.569,3.922,3.137-.784-.509,51.024Z" transform="translate(1259.712 4882)" fill="#1b1917"/>
        <path id="Path_527" data-name="Path 527" d="M701.631,497.164l6.2-59.982,1.636-24.686-17.344-3.137s.687,17.652-1.585,27.611c-2.242,9.828-.3,58.877-.159,60.188a8.439,8.439,0,1,0,11.256.005Z" transform="translate(959.367 4691.94)" fill="#c49e7c"/>
        <path id="Path_528" data-name="Path 528" d="M684.713,449.611l4.824,1,16.55,3.428.918.188,1.953-7.765,2.267-2.416,4.314-22.606.227-1.177,6.518-13.931,4.51-41.87-16.77,3.012c-.086.086-.165.18-.243.275-2.408,2.73-4.126,6.526-6.934,10.346-9.138,12.432-16.15,42.639-15.875,59.189.008.267-.267.557-.6.855a9.18,9.18,0,0,0-1.663,11.475Z" transform="translate(959.367 4691.94)" fill="#141110"/>
        <path id="Path_529" data-name="Path 529" d="M809.453,497.164l-6.2-59.982L801.621,412.5l17.345-3.136s-.687,17.652,1.585,27.611c2.242,9.828.3,58.877.159,60.188a8.439,8.439,0,1,1-11.256.005Z" transform="translate(959.367 4691.94)" fill="#c49e7c"/>
        <path id="Path_530" data-name="Path 530" d="M826.372,449.611l-4.824,1L805,454.035l-.918.188-1.953-7.765-2.267-2.416-4.315-22.606-.227-1.177L788.8,406.329l1.49-41.87,10.77,3.012c.086.086.165.18.243.275,2.408,2.73,4.126,6.526,6.934,10.346,9.138,12.432,16.15,42.639,15.875,59.189-.008.267.267.557.6.855A9.18,9.18,0,0,1,826.372,449.611Z" transform="translate(959.367 4691.94)" fill="#141110"/>
        <path id="Path_531" data-name="Path 531" d="M737.489,370.654l7.88-20.667,20.127-.369,6.679,21.035,24.006,134.1s-73.544,20.481-72.8-4.138c.784-25.885,4.323-60.268,4.323-60.268Z" transform="translate(959.367 4691.94)" fill="#eaa244"/>
        <circle id="Ellipse_178" data-name="Ellipse 178" cx="23.71" cy="23.71" r="23.71" transform="translate(1690.639 4988.727)" fill="#a0616a"/>
        <circle id="Ellipse_179" data-name="Ellipse 179" cx="23.71" cy="23.71" r="23.71" transform="translate(1690.639 4988.727)" fill="#a0616a"/>
        <circle id="Ellipse_180" data-name="Ellipse 180" cx="23.71" cy="23.71" r="23.71" transform="translate(1690.639 4988.727)" fill="#c49e7c"/>
        <path id="Path_532" data-name="Path 532" d="M729.874,303.3c3.86-4.2,8.688-11.892,23.312-15.121,18.07-3.991,26.609,12.334,22.052,12.6,13.325,4.035,4.765,31.611.945,29.3a1.131,1.131,0,0,1-.095-.074,18.77,18.77,0,0,1-7.5-12.807l-.725-6.525c-.1,5.309-5.53,6.012-11.074,4.056a6.955,6.955,0,0,1,4.914-4.838,23.786,23.786,0,0,1-13.971,6.079,9.511,9.511,0,0,1,4.625-6.364l-.219-.215a22.85,22.85,0,0,1-7.33,4.15c-3.056.876-6.718.4-8.812-1.99a6.5,6.5,0,0,1-1.253-2.254c.453,4.2-2.367,9-4.558,8.18C728.367,317.118,727.3,306.093,729.874,303.3Z" transform="translate(959.367 4691.94)" fill="#37373d"/>
      </g>
      <g id="Group_86" data-name="Group 86" transform="translate(1200.2 4912.592)">
        <path id="Path_387" data-name="Path 387" d="M504.9,364.832a4.689,4.689,0,0,1-3.464-1.534l-51.989-56.717a6.308,6.308,0,0,0-4.637-2.04H170.078a15.743,15.743,0,0,1-15.725-15.725V189.741a15.743,15.743,0,0,1,15.725-15.725H526.013a15.743,15.743,0,0,1,15.725,15.725v99.075a15.743,15.743,0,0,1-15.725,15.726H515.922a6.3,6.3,0,0,0-6.291,6.291V360.11a4.688,4.688,0,0,1-3.007,4.4A4.742,4.742,0,0,1,504.9,364.832Z" transform="translate(-154.353 -174.016)" fill="#fff"/>
        <circle id="Ellipse_142" data-name="Ellipse 142" cx="13.76" cy="13.76" r="13.76" transform="translate(24.812 16.183)" fill="#eaa244"/>
        <text id="I_make_things_happen_" data-name="I make things happen 🙂" transform="translate(38.573 79.792)" fill="#e5dfc6" font-size="27" font-family="Quicksand-Bold, Quicksand" font-weight="700"><tspan x="0" y="0">I make things happen </tspan><tspan y="0" font-family="SegoeUIEmoji, Segoe UI Emoji" font-weight="400">🙂</tspan></text>
      </g>
      <g id="Group_101" data-name="Group 101" transform="translate(1281.693 5177.17)">
        <path id="Path_391" data-name="Path 391" d="M713.458,685.506a4.705,4.705,0,0,1-3.216-4.4V631.833a6.528,6.528,0,0,0-6.728-6.291H692.722c-9.284-.01-16.808-7.045-16.818-15.725V510.741c.011-8.681,7.534-15.715,16.818-15.725h380.671c9.284.01,16.808,7.045,16.818,15.726v99.075c-.01,8.681-7.534,15.716-16.818,15.725H779.569a6.968,6.968,0,0,0-4.96,2.04l-55.6,56.716a5.178,5.178,0,0,1-3.705,1.534,5.379,5.379,0,0,1-1.843-.326Z" transform="translate(-675.904 -495.016)"/>
        <circle id="Ellipse_145" data-name="Ellipse 145" cx="13.76" cy="13.76" r="13.76" transform="translate(16.761 9.222)" fill="#eaa244"/>
        <text id="I_can_Create_and_solve_any_Complex_Design_" data-name="I can Create and solve any
 Complex Design 👌 " transform="translate(44.281 59.744)" fill="#e5dfc6" font-size="27" font-family="Quicksand-Bold, Quicksand" font-weight="700"><tspan x="0" y="0">I can Create and solve any</tspan><tspan x="0" y="36" xml:space="preserve"> Complex Design </tspan><tspan y="36" font-family="SegoeUIEmoji, Segoe UI Emoji" font-weight="400">👌</tspan><tspan y="36"> </tspan></text>
      </g>
    </g>
  </g>
</svg>
