<?xml version="1.0" encoding="utf-8"?>
<!-- Generator: Adobe Illustrator 25.0.0, SVG Export Plug-In . SVG Version: 6.00 Build 0)  -->
<svg version="1.1" id="Layer_1" xmlns="http://www.w3.org/2000/svg" xmlns:xlink="http://www.w3.org/1999/xlink" x="0px" y="0px"
	 viewBox="0 0 500 500" enable-background="new 0 0 500 500" xml:space="preserve">
<g id="Logo_x5F_circuits">
	<g id="Main_x5F_path_x5F_7_x5F_Last_1_">
		
			<radialGradient id="path_x5F_4_13_" cx="288.0336" cy="322.4016" r="94.1299" gradientTransform="matrix(-0.8542 0.6204 -0.604 -0.8647 616.4801 311.2109)" gradientUnits="userSpaceOnUse">
			<stop  offset="0" style="stop-color:#FFDE94"/>
			<stop  offset="0.1723" style="stop-color:#FDCA79"/>
			<stop  offset="0.4206" style="stop-color:#FBB155"/>
			<stop  offset="0.6496" style="stop-color:#F9A03B"/>
			<stop  offset="0.8501" style="stop-color:#F8962C"/>
			<stop  offset="1" style="stop-color:#F79226"/>
		</radialGradient>
		<path id="path_x5F_4" fill="url(#path_x5F_4_13_)" d="M162.97,124.19c9.92-7.21,19.07-12.16,25.96-15.38
			c12.92-5.6,25.34-9.56,34.99-11.15c1.59-0.27,3.06-0.54,4.39-0.78c2.31-0.42,4.22-0.77,5.7-0.96l3.66-0.28l0.15,2.11l-3.6,0.28
			c-1.4,0.2-3.28,0.53-5.55,0.95c-1.34,0.24-2.81,0.5-4.42,0.78c-9.5,1.57-21.74,5.47-34.49,11c-10.54,4.92-26.46,13.97-42.27,29.06
			c-14.2,13.52-25.97,30.21-34.05,48.27c-8.12,17.95-12.9,37.89-13.8,57.65c-0.83,18.24,1.27,35.98,6.08,51.31
			c0.66,2.94,1.67,5.6,2.65,8.17c0.28,0.73,0.55,1.44,0.81,2.16c0.45,1.13,0.87,2.28,1.28,3.41c0.73,2.02,1.43,3.93,2.27,5.67
			c1.02,1.98,1.96,3.91,2.84,5.75c1.58,3.25,2.93,6.07,4.38,8.44l7.38,11.8l-1.76,1.15l-7.4-11.81c-1.5-2.48-2.95-5.46-4.48-8.63
			c-0.88-1.82-1.81-3.74-2.83-5.73c-0.9-1.86-1.62-3.82-2.37-5.89c-0.4-1.11-0.82-2.24-1.27-3.38c-0.27-0.73-0.54-1.44-0.81-2.16
			c-1-2.64-2.05-5.37-2.72-8.38c-4.86-15.48-7-33.48-6.15-51.97c0.91-20.03,5.74-40.23,13.98-58.43
			c8.19-18.3,20.13-35.23,34.52-48.94C151.78,132.83,157.49,128.17,162.97,124.19z"/>
		<g id="sub_x5F_path_x5F_4_2_">
			
				<radialGradient id="path_x5F_4_14_" cx="388.8365" cy="294.8755" r="17.3261" gradientTransform="matrix(-0.8542 0.6204 -0.604 -0.8647 616.4801 311.2109)" gradientUnits="userSpaceOnUse">
				<stop  offset="0" style="stop-color:#FFDE94"/>
				<stop  offset="0.1723" style="stop-color:#FDCA79"/>
				<stop  offset="0.4206" style="stop-color:#FBB155"/>
				<stop  offset="0.6496" style="stop-color:#F9A03B"/>
				<stop  offset="0.8501" style="stop-color:#F8962C"/>
				<stop  offset="1" style="stop-color:#F79226"/>
			</radialGradient>
			<path id="path_x5F_4_4_" fill="url(#path_x5F_4_14_)" d="M95.9,276.22l8.22-1.46l1.94,11.31l2.97,11.18
				c0.45,2.01,1.13,3.81,1.86,5.72l3.4,9.05c0.5,1.49,1.06,2.61,1.56,3.59l1.31,2.65l-7.45,3.86l-1.29-2.62
				c-0.55-1.12-1.33-2.66-1.97-4.57l-3.32-8.85c-0.77-2.01-1.64-4.3-2.18-6.74l-3.41-13.26L95.9,276.22z"/>
			
				<radialGradient id="path_x5F_4_15_" cx="351.9534" cy="353.5378" r="18.3501" gradientTransform="matrix(-0.8542 0.6204 -0.604 -0.8647 616.4801 311.2109)" gradientUnits="userSpaceOnUse">
				<stop  offset="0" style="stop-color:#FFDE94"/>
				<stop  offset="0.1723" style="stop-color:#FDCA79"/>
				<stop  offset="0.4206" style="stop-color:#FBB155"/>
				<stop  offset="0.6496" style="stop-color:#F9A03B"/>
				<stop  offset="0.8501" style="stop-color:#F8962C"/>
				<stop  offset="1" style="stop-color:#F79226"/>
			</radialGradient>
			<path id="path_x5F_4_3_" fill="url(#path_x5F_4_15_)" d="M103.25,199.64l7.93,2.56l-2.23,7.01c-1.04,2.77-1.78,6.29-2.55,10.01
				c-0.37,1.77-0.75,3.58-1.17,5.38c-0.53,2.03-0.77,4.15-1.01,6.19l-1.13,9.36c-0.22,1.39-0.24,2.54-0.25,3.56
				c0,0.55-0.02,1.05-0.04,1.5l-0.05,1.87l-8.33-0.16l0.05-2.03c0.03-0.47,0.03-0.83,0.03-1.24c0.02-1.18,0.04-2.8,0.33-4.64
				l1.1-9.15c0.26-2.23,0.55-4.76,1.21-7.27c0.38-1.63,0.74-3.37,1.1-5.07c0.85-4.06,1.66-7.9,2.86-11.08L103.25,199.64z"/>
			
				<radialGradient id="path_x5F_4_16_" cx="291.8865" cy="388.0859" r="17.2506" gradientTransform="matrix(-0.8542 0.6204 -0.604 -0.8647 616.4801 311.2109)" gradientUnits="userSpaceOnUse">
				<stop  offset="0" style="stop-color:#FFDE94"/>
				<stop  offset="0.1723" style="stop-color:#FDCA79"/>
				<stop  offset="0.4206" style="stop-color:#FBB155"/>
				<stop  offset="0.6496" style="stop-color:#F9A03B"/>
				<stop  offset="0.8501" style="stop-color:#F8962C"/>
				<stop  offset="1" style="stop-color:#F79226"/>
			</radialGradient>
			<path id="path_x5F_4_2_" fill="url(#path_x5F_4_16_)" d="M144.82,135.1l5.79,6.06l-5.21,5.14c-2.12,1.87-4.26,4.51-6.54,7.31
				c-1.23,1.52-2.49,3.07-3.8,4.59c-1.47,1.62-2.71,3.49-3.92,5.29l-5.06,7.49c-0.99,1.36-1.65,2.58-2.17,3.57l-1.3,2.4l-7.3-4.04
				l1.29-2.38c0.61-1.15,1.45-2.72,2.71-4.44l4.95-7.33c1.31-1.96,2.79-4.17,4.61-6.19c1.19-1.38,2.4-2.87,3.57-4.31
				c2.51-3.09,4.87-6,7.35-8.17L144.82,135.1z"/>
			
				<radialGradient id="path_x5F_4_17_" cx="221.2344" cy="390.7086" r="16.844" gradientTransform="matrix(-0.8542 0.6204 -0.604 -0.8647 616.4801 311.2109)" gradientUnits="userSpaceOnUse">
				<stop  offset="0" style="stop-color:#FFDE94"/>
				<stop  offset="0.1723" style="stop-color:#FDCA79"/>
				<stop  offset="0.4206" style="stop-color:#FBB155"/>
				<stop  offset="0.6496" style="stop-color:#F9A03B"/>
				<stop  offset="0.8501" style="stop-color:#F8962C"/>
				<stop  offset="1" style="stop-color:#F79226"/>
			</radialGradient>
			<path id="path_x5F_4_1_" fill="url(#path_x5F_4_17_)" d="M167.78,117.08l6.11-3.98c2.92-1.6,6.18-3.27,9.63-5.04l5.34-2.73
				c1.93-0.75,3.86-1.51,5.72-2.25c3.41-1.36,6.61-2.63,9.28-3.58l7.23-2.06l2.18,8.17l-6.98,1.97c-2.33,0.83-5.43,2.07-8.72,3.38
				c-1.82,0.72-3.7,1.47-5.58,2.2l-4.74,2.44c-3.4,1.75-6.6,3.39-9.18,4.79l-5.8,3.8L167.78,117.08z"/>
		</g>
		
			<radialGradient id="SVGID_1_" cx="140.8035" cy="248.6463" r="94.2026" gradientTransform="matrix(-0.8542 0.6204 -0.604 -0.8647 616.4801 311.2109)" gradientUnits="userSpaceOnUse">
			<stop  offset="0" style="stop-color:#FFDE94"/>
			<stop  offset="0.1723" style="stop-color:#FDCA79"/>
			<stop  offset="0.4206" style="stop-color:#FBB155"/>
			<stop  offset="0.6496" style="stop-color:#F9A03B"/>
			<stop  offset="0.8501" style="stop-color:#F8962C"/>
			<stop  offset="1" style="stop-color:#F79226"/>
		</radialGradient>
		<path fill="url(#SVGID_1_)" d="M237.69,95.62l10.66-0.82l14.63,0.28l14.19,1.65c2.24,0.39,4.48,0.88,6.79,1.4
			c1.26,0.29,2.56,0.57,3.87,0.84c11.8,2.82,29.6,8.61,47.49,20.16c16.49,10.53,31.26,24.77,42.72,41.18
			c11.46,16.41,19.83,35.3,24.21,54.63c4.86,21.02,4.4,40.06,3.17,52.32c-0.18,1.38-0.34,2.72-0.49,4.03
			c-0.28,2.39-0.55,4.72-0.91,6.95l-3.51,15.5l-4.05,12.73l-4.33,10.24l-1.91-0.83l4.26-10.01l4.44-13.99l3.06-14.02
			c0.35-2.15,0.62-4.44,0.89-6.8c0.15-1.32,0.31-2.66,0.49-4.03c1.22-12.08,1.66-30.86-3.13-51.6
			c-4.31-19.07-12.57-37.7-23.88-53.89c-11.31-16.19-25.88-30.24-42.14-40.63c-17.66-11.4-35.21-17.11-46.84-19.88
			c-1.29-0.27-2.58-0.56-3.85-0.85c-2.28-0.51-4.49-1-6.65-1.37l-15.21-1.65l-13.11-0.26l-10.71,0.82L237.69,95.62z"/>
		<g id="sub_x5F_path_x5F_4_1_">
			
				<radialGradient id="path_x5F_4_18_" cx="142.3322" cy="345.461" r="18.3293" gradientTransform="matrix(-0.8542 0.6204 -0.604 -0.8647 616.4801 311.2109)" gradientUnits="userSpaceOnUse">
				<stop  offset="0" style="stop-color:#FFDE94"/>
				<stop  offset="0.1723" style="stop-color:#FDCA79"/>
				<stop  offset="0.4206" style="stop-color:#FBB155"/>
				<stop  offset="0.6496" style="stop-color:#F9A03B"/>
				<stop  offset="0.8501" style="stop-color:#F8962C"/>
				<stop  offset="1" style="stop-color:#F79226"/>
			</radialGradient>
			<path id="path_x5F_4_8_" fill="url(#path_x5F_4_18_)" d="M264.28,92l9.53,1.13c1.6,0.18,3.33,0.38,5.13,0.66l8.53,1.85
				c4.43,0.77,8.85,2.23,12.4,3.39c1.13,0.38,2.2,0.73,3.2,1.04c0.82,0.27,1.5,0.48,2.12,0.68c1.31,0.41,2.43,0.77,3.28,1.14
				l1.81,0.79l-3.31,7.8l-1.83-0.8c-0.64-0.28-1.47-0.53-2.46-0.83c-0.68-0.21-1.4-0.44-2.18-0.7c-0.94-0.29-2.06-0.66-3.26-1.05
				c-3.46-1.14-7.4-2.44-11.41-3.14l-8.46-1.84c-1.43-0.21-3.06-0.4-4.56-0.56l-9.56-1.13L264.28,92z"/>
			
				<radialGradient id="path_x5F_4_19_" cx="110.1404" cy="284.1239" r="16.8905" gradientTransform="matrix(-0.8542 0.6204 -0.604 -0.8647 616.4801 311.2109)" gradientUnits="userSpaceOnUse">
				<stop  offset="0" style="stop-color:#FFDE94"/>
				<stop  offset="0.1723" style="stop-color:#FDCA79"/>
				<stop  offset="0.4206" style="stop-color:#FBB155"/>
				<stop  offset="0.6496" style="stop-color:#F9A03B"/>
				<stop  offset="0.8501" style="stop-color:#F8962C"/>
				<stop  offset="1" style="stop-color:#F79226"/>
			</radialGradient>
			<path id="path_x5F_4_7_" fill="url(#path_x5F_4_19_)" d="M336.06,115.79l5.95,4.13c0.64,0.46,1.28,0.9,1.94,1.35
				c1.35,0.93,2.8,1.93,4.27,3.06l6.64,5.68c3.72,2.91,7.06,6.45,9.74,9.29l5.64,5.92c1.14,1.31,1.64,2.03,1.64,2.03l-6.78,4.98
				c-0.04-0.06-0.39-0.52-1-1.23l-3.5-3.66c-0.63-0.64-1.31-1.37-2.03-2.15c-2.63-2.78-5.6-5.93-8.97-8.56l-6.61-5.66
				c-1.17-0.89-2.5-1.81-3.74-2.65c-0.71-0.5-1.39-0.96-2.03-1.42l-5.9-4.11L336.06,115.79z"/>
			
				<radialGradient id="path_x5F_4_20_" cx="110.1404" cy="213.1733" r="16.8953" gradientTransform="matrix(-0.8542 0.6204 -0.604 -0.8647 616.4801 311.2109)" gradientUnits="userSpaceOnUse">
				<stop  offset="0" style="stop-color:#FFDE94"/>
				<stop  offset="0.1723" style="stop-color:#FDCA79"/>
				<stop  offset="0.4206" style="stop-color:#FBB155"/>
				<stop  offset="0.6496" style="stop-color:#F9A03B"/>
				<stop  offset="0.8501" style="stop-color:#F8962C"/>
				<stop  offset="1" style="stop-color:#F79226"/>
			</radialGradient>
			<path id="path_x5F_4_6_" fill="url(#path_x5F_4_20_)" d="M381.29,175.4l6.84-4.89c0,0,0.51,0.72,1.25,2.07l3.74,7.56
				c1.77,3.51,3.95,7.88,5.49,12.59l2.96,7.88c0.64,1.99,1.1,3.73,1.51,5.34c0.21,0.79,0.4,1.54,0.6,2.25l1.9,7.14l-8.04,2.27
				l-1.89-7.08c-0.2-0.7-0.41-1.51-0.62-2.36c-0.39-1.47-0.8-3.06-1.31-4.69l-2.95-7.85c-1.4-4.28-3.35-8.17-5.07-11.61
				c-0.48-0.95-0.94-1.85-1.34-2.7l-2.33-4.71C381.66,175.95,381.34,175.47,381.29,175.4z"/>
			
				<radialGradient id="path_x5F_4_21_" cx="142.3322" cy="151.8289" r="18.3279" gradientTransform="matrix(-0.8542 0.6204 -0.604 -0.8647 616.4801 311.2109)" gradientUnits="userSpaceOnUse">
				<stop  offset="0" style="stop-color:#FFDE94"/>
				<stop  offset="0.1723" style="stop-color:#FDCA79"/>
				<stop  offset="0.4206" style="stop-color:#FBB155"/>
				<stop  offset="0.6496" style="stop-color:#F9A03B"/>
				<stop  offset="0.8501" style="stop-color:#F8962C"/>
				<stop  offset="1" style="stop-color:#F79226"/>
			</radialGradient>
			<path id="path_x5F_4_5_" fill="url(#path_x5F_4_21_)" d="M400.99,245.09l8.31-0.65l0.14,2.01c0.07,0.93,0.04,2.12-0.01,3.51
				c-0.02,0.67-0.05,1.4-0.05,2.17c-0.04,1.17-0.07,2.31-0.1,3.53c-0.08,3.81-0.17,8.54-0.93,13.24l-1.01,8.41
				c-0.37,2.08-0.75,3.8-1.11,5.41l-2.07,9.56l-8.14-1.78l2.08-9.59c0.34-1.5,0.7-3.13,1-4.83l1-8.33c0.69-4.27,0.77-8.48,0.84-12.2
				c0.03-1.28,0.06-2.48,0.1-3.58c0.01-0.72,0.03-1.5,0.06-2.23c0.04-1.04,0.08-1.93,0.03-2.63L400.99,245.09z"/>
		</g>
		
			<radialGradient id="SVGID_2_" cx="288.0336" cy="174.8903" r="94.1302" gradientTransform="matrix(-0.8542 0.6204 -0.604 -0.8647 616.4801 311.2109)" gradientUnits="userSpaceOnUse">
			<stop  offset="0" style="stop-color:#FFDE94"/>
			<stop  offset="0.1723" style="stop-color:#FDCA79"/>
			<stop  offset="0.4206" style="stop-color:#FBB155"/>
			<stop  offset="0.6496" style="stop-color:#F9A03B"/>
			<stop  offset="0.8501" style="stop-color:#F8962C"/>
			<stop  offset="1" style="stop-color:#F79226"/>
		</radialGradient>
		<path fill="url(#SVGID_2_)" d="M127.3,342.36l8.53,10.99c1.72,2.16,3.88,4.39,6.38,6.97c1.41,1.45,2.89,2.99,4.41,4.63
			c1.32,1.37,2.86,2.67,4.5,4.03c0.92,0.76,1.84,1.55,2.77,2.37c0.55,0.47,1.13,0.96,1.71,1.47c2.07,1.78,4.2,3.63,6.63,5.18
			c12.71,9.69,28.47,17.51,45.65,22.68c18.61,5.59,38.64,7.51,57.93,5.55c19.38-1.88,38.69-7.77,55.87-17.04
			c19.16-10.31,32.75-22.69,40.78-31.26c9.27-10.45,16.89-20.97,21.44-29.6c0.79-1.47,1.52-2.8,2.18-4.01
			c1.13-2.05,2.05-3.75,2.72-5.1l1.41-3.33l1.91,0.83l-1.43,3.37c-0.69,1.42-1.64,3.15-2.78,5.23c-0.66,1.21-1.39,2.54-2.17,3.99
			c-4.63,8.78-12.35,19.45-21.75,30.05c-8.15,8.71-21.92,21.26-41.34,31.69c-17.41,9.39-37,15.37-56.64,17.27
			c-19.56,1.99-39.86,0.04-58.72-5.62c-17.42-5.23-33.4-13.17-46.23-22.96c-2.49-1.57-4.69-3.47-6.81-5.3
			c-0.57-0.5-1.14-0.99-1.71-1.47c-0.93-0.82-1.84-1.59-2.74-2.35c-1.68-1.4-3.26-2.74-4.68-4.2c-1.52-1.64-2.99-3.17-4.39-4.61
			c-2.43-2.51-4.73-4.88-6.53-7.13l-8.54-11L127.3,342.36z"/>
		<g id="sub_x5F_path_x5F_4">
			
				<radialGradient id="path_x5F_4_22_" cx="221.2371" cy="106.5812" r="16.8419" gradientTransform="matrix(-0.8542 0.6204 -0.604 -0.8647 616.4801 311.2109)" gradientUnits="userSpaceOnUse">
				<stop  offset="0" style="stop-color:#FFDE94"/>
				<stop  offset="0.1723" style="stop-color:#FDCA79"/>
				<stop  offset="0.4206" style="stop-color:#FBB155"/>
				<stop  offset="0.6496" style="stop-color:#F9A03B"/>
				<stop  offset="0.8501" style="stop-color:#F8962C"/>
				<stop  offset="1" style="stop-color:#F79226"/>
			</radialGradient>
			<path id="path_x5F_4_12_" fill="url(#path_x5F_4_22_)" d="M374.86,337l6.86,4.77l-4.11,6.08c-1.91,2.48-4.14,5.15-6.5,7.99
				c-1.3,1.56-2.64,3.16-3.97,4.78l-0.3,0.33l-3.97,3.92c-2.77,2.75-5.39,5.34-7.56,7.4l-5.94,4.81l-5.14-6.64l5.67-4.57
				c1.88-1.81,4.45-4.36,7.17-7.05l3.82-3.78c1.29-1.58,2.61-3.15,3.87-4.66c2.29-2.75,4.45-5.32,6.14-7.52L374.86,337z"/>
			
				<radialGradient id="path_x5F_4_23_" cx="291.8865" cy="109.208" r="17.2484" gradientTransform="matrix(-0.8542 0.6204 -0.604 -0.8647 616.4801 311.2109)" gradientUnits="userSpaceOnUse">
				<stop  offset="0" style="stop-color:#FFDE94"/>
				<stop  offset="0.1723" style="stop-color:#FDCA79"/>
				<stop  offset="0.4206" style="stop-color:#FBB155"/>
				<stop  offset="0.6496" style="stop-color:#F9A03B"/>
				<stop  offset="0.8501" style="stop-color:#F8962C"/>
				<stop  offset="1" style="stop-color:#F79226"/>
			</radialGradient>
			<path id="path_x5F_4_11_" fill="url(#path_x5F_4_23_)" d="M279.12,401.03l2.67-0.48c1.14-0.2,2.43-0.42,3.87-0.88l8.73-2.47
				c2.06-0.57,4.2-1.17,6.11-2.01c1.91-0.8,3.76-1.51,5.57-2.2c3.34-1.28,6.49-2.49,8.7-3.79l6.68-3.46l3.73,7.56l-6.47,3.33
				c-2.6,1.56-6.08,2.88-9.76,4.29c-1.72,0.66-3.5,1.33-5.24,2.06c-2.4,1.06-4.93,1.77-7.18,2.39l-8.55,2.42
				c-1.85,0.6-3.58,0.9-4.85,1.11l-2.62,0.47L279.12,401.03z"/>
			
				<radialGradient id="path_x5F_4_24_" cx="351.9561" cy="143.752" r="18.3502" gradientTransform="matrix(-0.8542 0.6204 -0.604 -0.8647 616.4801 311.2109)" gradientUnits="userSpaceOnUse">
				<stop  offset="0" style="stop-color:#FFDE94"/>
				<stop  offset="0.1723" style="stop-color:#FDCA79"/>
				<stop  offset="0.4206" style="stop-color:#FBB155"/>
				<stop  offset="0.6496" style="stop-color:#F9A03B"/>
				<stop  offset="0.8501" style="stop-color:#F8962C"/>
				<stop  offset="1" style="stop-color:#F79226"/>
			</radialGradient>
			<path id="path_x5F_4_10_" fill="url(#path_x5F_4_24_)" d="M207.65,397.25l1.88,0.6c0.28,0.09,0.75,0.24,1.25,0.41
				c0.95,0.32,2.03,0.68,3.24,0.89l9.21,2c1.97,0.44,4.01,0.89,5.96,1.04c1.9,0.19,3.7,0.41,5.45,0.64c3.71,0.47,7.22,0.9,9.9,0.81
				l7.46,0.14l-0.22,8.48l-7.22-0.15c-3.12,0.12-6.94-0.36-10.99-0.87c-1.68-0.21-3.41-0.44-5.15-0.61
				c-2.44-0.18-4.87-0.73-7.02-1.2l-9.01-1.97c-1.65-0.29-3.16-0.79-4.26-1.17c-0.38-0.13-0.72-0.24-1.03-0.33l-2.03-0.65
				L207.65,397.25z"/>
			
				<radialGradient id="path_x5F_4_25_" cx="388.8393" cy="202.4178" r="17.3248" gradientTransform="matrix(-0.8542 0.6204 -0.604 -0.8647 616.4801 311.2109)" gradientUnits="userSpaceOnUse">
				<stop  offset="0" style="stop-color:#FFDE94"/>
				<stop  offset="0.1723" style="stop-color:#FDCA79"/>
				<stop  offset="0.4206" style="stop-color:#FBB155"/>
				<stop  offset="0.6496" style="stop-color:#F9A03B"/>
				<stop  offset="0.8501" style="stop-color:#F8962C"/>
				<stop  offset="1" style="stop-color:#F79226"/>
			</radialGradient>
			<path id="path_x5F_4_9_" fill="url(#path_x5F_4_25_)" d="M146.37,360.08l2.03,2.13c0.75,0.8,1.6,1.71,2.7,2.57l5.77,4.94
				c0.52,0.43,1.08,0.91,1.64,1.4c1.53,1.32,2.96,2.57,4.52,3.55l10.35,7.16l9.05,5.03l-4.04,7.44l-12.93-7.64l-7.01-4.88
				c-1.93-1.22-3.76-2.79-5.37-4.2l-7.25-6.21c-1.44-1.14-2.61-2.38-3.46-3.29l-2.01-2.1L146.37,360.08z"/>
		</g>
	</g>
	<g id="Main_x5F_path_x5F_6_1_">
		
			<linearGradient id="path_x5F_6_4_" gradientUnits="userSpaceOnUse" x1="1227.9609" y1="-205.5021" x2="-759.4964" y2="823.8795" gradientTransform="matrix(-0.9905 -0.1378 0.1378 -0.9905 464.0835 533.0557)">
			<stop  offset="0" style="stop-color:#FFFFFF"/>
			<stop  offset="1.636088e-03" style="stop-color:#FFFEFD"/>
			<stop  offset="0.119" style="stop-color:#FEE2C4"/>
			<stop  offset="0.2381" style="stop-color:#FDCC9A"/>
			<stop  offset="0.3597" style="stop-color:#FCBA78"/>
			<stop  offset="0.4824" style="stop-color:#FAAB5C"/>
			<stop  offset="0.6066" style="stop-color:#F9A044"/>
			<stop  offset="0.7327" style="stop-color:#F89834"/>
			<stop  offset="0.8622" style="stop-color:#F7942A"/>
			<stop  offset="1" style="stop-color:#F79226"/>
		</linearGradient>
		<path id="path_x5F_6_3_" fill="url(#path_x5F_6_4_)" d="M275.26,83.44c17.44,2.85,33.15,7.49,46.78,13.8
			c2.38,1.06,4.69,2.33,6.91,3.56c1.23,0.68,2.46,1.35,3.7,2l5.23,2.83l5.05,3.4c1.16,0.82,2.32,1.59,3.47,2.34
			c2.08,1.37,4.24,2.79,6.23,4.42l8.87,7.35c12.9,11.88,22.4,22.89,29.12,33.73c2.95,4,5.28,8.4,7.54,12.67
			c0.91,1.72,1.81,3.43,2.75,5.09c1.13,1.96,1.95,4.01,2.75,5.99c0.42,1.04,0.84,2.08,1.29,3.08c0.46,1.13,0.91,2.17,1.36,3.21
			c0.82,1.9,1.62,3.77,2.29,5.66c9.47,27.13,10.27,48.74,9.91,59.21l0.05,5.01c-0.05,1.18-0.15,2.21-0.24,3.18l-1.3,14.51
			l-4.16-0.35l1.31-14.54c0.08-0.91,0.18-1.85,0.22-2.84l-0.05-4.99c0.36-10.27-0.43-31.28-9.67-57.74c-0.63-1.8-1.4-3.58-2.18-5.39
			c-0.45-1.06-0.91-2.12-1.35-3.21c-0.45-0.98-0.89-2.07-1.34-3.17c-0.78-1.93-1.52-3.76-2.5-5.48c-0.97-1.71-1.89-3.45-2.82-5.21
			c-2.18-4.13-4.44-8.39-7.3-12.28c-6.61-10.65-15.86-21.38-28.4-32.93l-8.78-7.27c-1.82-1.48-3.79-2.79-5.88-4.17
			c-1.19-0.79-2.39-1.57-3.55-2.4l-4.84-3.27l-5.03-2.71c-1.24-0.64-2.49-1.34-3.76-2.03c-2.16-1.19-4.39-2.42-6.64-3.42
			c-13.32-6.16-28.67-10.69-45.64-13.47c-17-1.91-33.01-1.71-47.49,0.6c-2.48,0.36-4.95,0.94-7.35,1.5
			c-1.41,0.33-2.81,0.65-4.21,0.94l-5.74,1.29l-5.4,1.8c-1.32,0.46-2.68,0.9-4.03,1.33c-2.39,0.76-4.65,1.48-6.83,2.42l-10.52,4.65
			c-15.14,7.67-26.99,15.48-36.15,23.82c-3.95,3.07-7.3,6.57-10.54,9.94c-1.38,1.44-2.75,2.86-4.13,4.24
			c-1.44,1.4-2.64,2.96-3.93,4.6c-0.72,0.94-1.45,1.87-2.21,2.76c-0.67,0.85-1.4,1.75-2.13,2.65c-1.24,1.52-2.47,3.03-3.58,4.59
			c-16.16,22.95-22.69,42.95-25.14,52.83l-1.49,5c-0.19,0.85-0.37,1.78-0.53,2.68l-2.74,14.34l-4.1-0.79l2.75-14.31
			c0.17-0.96,0.36-1.97,0.6-3.01l1.49-5.01c2.5-10.08,9.21-30.66,25.78-54.19c1.16-1.64,2.46-3.23,3.76-4.83
			c0.71-0.87,1.42-1.75,2.13-2.65c0.77-0.91,1.46-1.79,2.15-2.68c1.32-1.69,2.67-3.44,4.31-5.03c1.34-1.34,2.68-2.73,4.04-4.14
			c3.35-3.49,6.8-7.1,10.87-10.25c9.31-8.5,21.47-16.52,37.05-24.41L192,93.62c2.39-1.03,4.85-1.81,7.23-2.57
			c1.32-0.42,2.64-0.84,3.95-1.3l5.63-1.87l5.97-1.36c1.41-0.29,2.78-0.6,4.15-0.93c2.48-0.58,5.05-1.17,7.66-1.56
			C241.41,81.67,257.8,81.47,275.26,83.44z"/>
		
			<linearGradient id="path_x5F_6_5_" gradientUnits="userSpaceOnUse" x1="1260.6536" y1="-135.047" x2="-722.3166" y2="892.0106" gradientTransform="matrix(-0.9905 -0.1378 0.1378 -0.9905 464.0835 533.0557)">
			<stop  offset="0" style="stop-color:#FFFFFF"/>
			<stop  offset="1.636088e-03" style="stop-color:#FFFEFD"/>
			<stop  offset="0.119" style="stop-color:#FEE2C4"/>
			<stop  offset="0.2381" style="stop-color:#FDCC9A"/>
			<stop  offset="0.3597" style="stop-color:#FCBA78"/>
			<stop  offset="0.4824" style="stop-color:#FAAB5C"/>
			<stop  offset="0.6066" style="stop-color:#F9A044"/>
			<stop  offset="0.7327" style="stop-color:#F89834"/>
			<stop  offset="0.8622" style="stop-color:#F7942A"/>
			<stop  offset="1" style="stop-color:#F79226"/>
		</linearGradient>
		<path id="path_x5F_6_2_" fill="url(#path_x5F_6_5_)" d="M277.04,71.09l0.29,0.05c12.58,2.2,28.86,5.55,43.2,11.98
			c0.97,0.42,2.02,0.85,3.06,1.26c2.17,0.88,4.41,1.78,6.66,2.96l8.59,4.63c4.22,2.03,8.12,4.72,11.56,7.09
			c1.34,0.92,2.66,1.84,3.97,2.68l3.5,2.36c1.07,0.77,1.86,1.42,2.63,2.07l13.12,11.18l9.64,9.71l-11.77,12.1l-12.24-12.04
			l-9.43-7.83c-0.48-0.4-0.96-0.82-1.48-1.19l-3.11-2.09c-1.31-0.84-2.77-1.85-4.27-2.88c-3.09-2.13-6.29-4.34-9.69-5.98l-8.85-4.76
			c-1.45-0.76-3.21-1.48-5.09-2.23c-1.19-0.48-2.38-0.96-3.57-1.48c-12.65-5.67-27.49-8.73-39.1-10.77
			c-11.71-1.18-26.84-2.27-40.5-0.24c-1.36,0.19-2.64,0.33-3.91,0.47c-2.02,0.22-3.92,0.43-5.61,0.79l-9.37,2.09
			c-4.08,0.73-7.76,1.99-11.33,3.2c-1.72,0.59-3.41,1.16-5.07,1.67l-3.68,1.21c-0.32,0.13-0.91,0.4-1.48,0.66l-13.16,5.84
			l-13.13,7.4l-8-14.83l14.17-7.94l13.45-5.97c0.94-0.42,1.88-0.84,2.87-1.2l4.11-1.36c1.66-0.51,3.18-1.03,4.74-1.55
			c3.95-1.35,8.44-2.88,13.42-3.76l9.1-2.04c2.58-0.55,4.98-0.81,7.31-1.06c1.12-0.12,2.24-0.24,3.36-0.4
			c15.49-2.3,32.07-1.1,44.79,0.19L277.04,71.09z"/>
		
			<linearGradient id="path_x5F_6_6_" gradientUnits="userSpaceOnUse" x1="1185.9642" y1="-288.05" x2="-801.4915" y2="741.3308" gradientTransform="matrix(-0.9905 -0.1378 0.1378 -0.9905 464.0835 533.0557)">
			<stop  offset="0" style="stop-color:#FFFFFF"/>
			<stop  offset="1.636088e-03" style="stop-color:#FFFEFD"/>
			<stop  offset="0.119" style="stop-color:#FEE2C4"/>
			<stop  offset="0.2381" style="stop-color:#FDCC9A"/>
			<stop  offset="0.3597" style="stop-color:#FCBA78"/>
			<stop  offset="0.4824" style="stop-color:#FAAB5C"/>
			<stop  offset="0.6066" style="stop-color:#F9A044"/>
			<stop  offset="0.7327" style="stop-color:#F89834"/>
			<stop  offset="0.8622" style="stop-color:#F7942A"/>
			<stop  offset="1" style="stop-color:#F79226"/>
		</linearGradient>
		<path id="path_x5F_6_1_" fill="url(#path_x5F_6_6_)" d="M90.56,229.4l-1.31,14.54c-0.09,0.91-0.17,1.85-0.22,2.84l0.06,4.99
			c-0.36,10.27,0.43,31.28,9.66,57.74c0.64,1.8,1.4,3.59,2.18,5.39c0.46,1.06,0.91,2.12,1.36,3.21c0.45,0.98,0.89,2.07,1.33,3.17
			c0.79,1.93,1.52,3.76,2.51,5.48c0.96,1.71,1.88,3.45,2.82,5.21c2.19,4.13,4.45,8.4,7.31,12.28c6.61,10.65,15.87,21.38,28.4,32.93
			l8.78,7.27c1.82,1.48,3.81,2.78,5.89,4.17c1.19,0.78,2.38,1.57,3.55,2.39l4.84,3.28l5.02,2.71c1.24,0.64,2.49,1.34,3.76,2.03
			c2.16,1.19,4.38,2.42,6.63,3.42c13.32,6.16,28.67,10.69,45.65,13.47c16.99,1.91,33.01,1.72,47.49-0.6
			c2.46-0.36,4.95-0.94,7.35-1.5c1.41-0.32,2.81-0.65,4.22-0.94l5.73-1.3l5.4-1.8c1.31-0.46,2.68-0.9,4.04-1.33
			c2.39-0.76,4.65-1.48,6.82-2.42l10.54-4.65c15.14-7.67,26.99-15.48,36.14-23.82c3.95-3.07,7.3-6.57,10.53-9.95
			c1.38-1.44,2.75-2.86,4.13-4.24c1.43-1.4,2.65-2.95,3.92-4.6c0.73-0.94,1.46-1.87,2.21-2.76c0.67-0.85,1.4-1.76,2.12-2.65
			c1.25-1.52,2.48-3.03,3.59-4.59c16.16-22.95,22.69-42.95,25.15-52.83l1.48-4.99c0.2-0.85,0.36-1.78,0.54-2.68l2.74-14.34l4.1,0.79
			l-2.74,14.31c-0.18,0.97-0.37,1.97-0.62,3.01l-1.48,5.02c-2.51,10.08-9.22,30.66-25.78,54.18c-1.16,1.65-2.46,3.23-3.76,4.84
			c-0.71,0.87-1.43,1.75-2.12,2.65c-0.78,0.91-1.46,1.79-2.15,2.68c-1.31,1.69-2.67,3.44-4.31,5.03c-1.35,1.34-2.69,2.74-4.04,4.14
			c-3.35,3.49-6.81,7.1-10.87,10.25c-9.31,8.5-21.48,16.52-37.05,24.4l-10.65,4.71c-2.39,1.03-4.85,1.81-7.23,2.57
			c-1.32,0.42-2.64,0.84-3.95,1.3l-5.64,1.87l-5.96,1.35c-1.41,0.29-2.78,0.61-4.15,0.93c-2.48,0.58-5.05,1.17-7.66,1.56
			c-14.82,2.37-31.2,2.57-48.67,0.61c-17.45-2.85-33.15-7.49-46.78-13.8c-2.38-1.06-4.69-2.33-6.92-3.56c-1.23-0.68-2.46-1.35-3.7-2
			l-5.23-2.83l-5.05-3.4c-1.17-0.82-2.33-1.59-3.48-2.35c-2.08-1.38-4.24-2.8-6.23-4.42l-8.88-7.36
			c-12.9-11.88-22.39-22.89-29.11-33.73c-2.95-3.99-5.28-8.4-7.54-12.67c-0.91-1.72-1.82-3.43-2.75-5.09
			c-1.13-1.96-1.95-4.01-2.76-5.99c-0.42-1.04-0.84-2.07-1.29-3.08c-0.47-1.14-0.91-2.18-1.36-3.21c-0.82-1.9-1.62-3.77-2.29-5.66
			c-9.47-27.13-10.28-48.74-9.9-59.21l-0.06-5.01c0.05-1.18,0.15-2.2,0.25-3.18l1.29-14.51L90.56,229.4z"/>
		
			<linearGradient id="path_x5F_6_7_" gradientUnits="userSpaceOnUse" x1="1148.9523" y1="-356.27" x2="-834.0328" y2="670.7953" gradientTransform="matrix(-0.9905 -0.1378 0.1378 -0.9905 464.0835 533.0557)">
			<stop  offset="0" style="stop-color:#FFFFFF"/>
			<stop  offset="1.636088e-03" style="stop-color:#FFFEFD"/>
			<stop  offset="0.119" style="stop-color:#FEE2C4"/>
			<stop  offset="0.2381" style="stop-color:#FDCC9A"/>
			<stop  offset="0.3597" style="stop-color:#FCBA78"/>
			<stop  offset="0.4824" style="stop-color:#FAAB5C"/>
			<stop  offset="0.6066" style="stop-color:#F9A044"/>
			<stop  offset="0.7327" style="stop-color:#F89834"/>
			<stop  offset="0.8622" style="stop-color:#F7942A"/>
			<stop  offset="1" style="stop-color:#F79226"/>
		</linearGradient>
		<path id="path_x5F_6" fill="url(#path_x5F_6_7_)" d="M131.95,364.37l12.24,12.04l9.42,7.83c0.48,0.4,0.96,0.82,1.48,1.19l3.1,2.09
			c1.31,0.84,2.77,1.85,4.27,2.88c3.09,2.13,6.29,4.33,9.69,5.98l8.85,4.76c1.44,0.76,3.21,1.47,5.08,2.23
			c1.19,0.48,2.38,0.96,3.57,1.48c12.65,5.67,27.5,8.74,39.1,10.77c11.73,1.19,26.85,2.26,40.51,0.24c1.35-0.19,2.63-0.33,3.9-0.47
			c2.02-0.22,3.92-0.43,5.61-0.78l9.36-2.09c4.09-0.73,7.77-1.98,11.33-3.2c1.73-0.59,3.41-1.16,5.07-1.67l3.67-1.21
			c0.33-0.13,0.92-0.4,1.49-0.66l13.15-5.84l13.13-7.4l8,14.82l-14.16,7.94l-13.45,5.97c-0.93,0.42-1.88,0.84-2.87,1.2l-4.11,1.36
			c-1.67,0.51-3.18,1.03-4.73,1.56c-3.96,1.35-8.45,2.87-13.41,3.76l-9.1,2.04c-2.58,0.54-4.99,0.81-7.31,1.06
			c-1.12,0.12-2.24,0.24-3.37,0.4c-15.49,2.29-32.07,1.1-44.78-0.19l-0.3-0.03l-0.28-0.05c-12.58-2.2-28.86-5.55-43.2-11.98
			c-0.98-0.42-2.02-0.85-3.06-1.27c-2.17-0.88-4.41-1.78-6.66-2.96l-8.6-4.63c-4.21-2.03-8.12-4.71-11.55-7.08
			c-1.35-0.93-2.67-1.84-3.98-2.69l-3.5-2.36c-1.07-0.77-1.86-1.42-2.62-2.07l-13.13-11.18l-9.65-9.71L131.95,364.37z"/>
	</g>
	<g id="Main_x5F_path_x5F_5">
		<polygon id="path_x5F_3_15_" fill="#B4B4B4" stroke="#B4B4B4" stroke-width="0.01" stroke-miterlimit="10" points="75.58,308.72 
			77.4,308.15 79.56,315.47 77.75,316.04 		"/>
		<path id="path_x5F_3_14_" fill="#B4B4B4" stroke="#B4B4B4" stroke-width="0.01" stroke-miterlimit="10" d="M69.01,280.39
			l1.87-0.35c0.06,0.37,0.15,0.77,0.24,1.21l1.81,9.49l-1.86,0.38l-1.8-9.46C69.17,281.22,69.07,280.78,69.01,280.39z M72.5,298.34
			l1.82-0.57l1.03,3.48l-1.81,0.57L72.5,298.34z"/>
		<path id="path_x5F_3_13_" fill="#B4B4B4" stroke="#B4B4B4" stroke-width="0.01" stroke-miterlimit="10" d="M179.53,79.6l0.74,1.77
			l-1.76,0.76c-0.51,0.25-1.17,0.51-1.9,0.81c-1.37,0.56-3.06,1.25-4.9,2.27c-0.35,0.2-0.73,0.43-1.13,0.66l-0.93-1.68
			c0.39-0.22,0.76-0.44,1.13-0.66c1.96-1.08,3.71-1.8,5.12-2.38c0.7-0.29,1.32-0.54,1.84-0.79L179.53,79.6z M163.35,87.64l0.9,1.69
			c-1.02,0.56-2.06,1.13-3.14,1.75l-0.91-1.69C161.28,88.78,162.33,88.19,163.35,87.64z M153.96,93.13l1,1.63
			c-2.23,1.43-4.28,2.85-6.27,4.35c-1.81,1.25-3.63,2.56-5.46,3.95l-1.12-1.55c1.85-1.4,3.69-2.73,5.48-3.97
			C149.6,96.04,151.69,94.59,153.96,93.13z M137.81,104.88l1.17,1.51c-2.76,2.22-5.5,4.58-8.19,7.03l-1.25-1.44
			C132.24,109.52,135.03,107.13,137.81,104.88z M124.24,116.97l1.3,1.39c-0.85,0.83-1.71,1.69-2.55,2.55l-1.34-1.36
			C122.51,118.68,123.37,117.82,124.24,116.97z M116.64,124.83l1.39,1.3c-3.27,3.58-6.42,7.28-9.34,11.01l-1.48-1.2
			C110.16,132.18,113.34,128.44,116.64,124.83z M103.9,140.31l1.52,1.15c-2.15,2.9-4.22,5.9-6.17,8.91l-1.59-1.05
			C99.62,146.27,101.72,143.24,103.9,140.31z M93.82,155.55l1.63,0.97c-0.54,0.93-1.07,1.85-1.6,2.79l-0.16,0.33l-1.69-0.87
			l0.18-0.37C92.74,157.42,93.27,156.48,93.82,155.55z M88.64,165.19l1.66,0.91c-2.43,4.56-4.57,8.68-6.15,13.03l-1.78-0.65
			C84,174.01,86.17,169.82,88.64,165.19z M80.33,183.49l1.75,0.73l-2.19,5.36l-1.47,4.83l-1.81-0.56l1.94-6.01L80.33,183.49z
			 M74.44,200.8l1.81,0.58c-0.36,1.15-0.7,2.3-1.01,3.46l-1.83-0.5C73.73,203.16,74.07,201.97,74.44,200.8z M71.75,211.49l1.86,0.38
			c-0.26,1.24-0.5,2.47-0.74,3.69c-0.26,1.33-0.52,2.65-0.79,3.96l-0.95,4.69c-0.09,0.59-0.15,1.24-0.22,1.88l-1.89-0.19
			c0.07-0.67,0.15-1.34,0.25-2.01l0.95-4.75c0.27-1.3,0.53-2.61,0.8-3.94C71.25,213.97,71.49,212.74,71.75,211.49z M68.44,231.33
			l1.89,0.19l-0.63,5.99c-0.22,1.52-0.37,3.09-0.46,4.83l-1.9-0.09c0.09-1.8,0.25-3.43,0.48-4.98L68.44,231.33z M67.25,249.59
			l1.89-0.01c0,1.12-0.01,2.21-0.04,3.26l-0.01,0.39l-1.89-0.02l0-0.39C67.24,251.76,67.24,250.69,67.25,249.59z M67.19,260.54
			l1.9-0.07c0.05,1.6,0.14,2.94,0.3,4.08l0.93,10.36l-1.89,0.19l-0.93-10.31C67.34,263.62,67.24,262.21,67.19,260.54z"/>
		<polygon id="path_x5F_3_12_" fill="#B4B4B4" stroke="#B4B4B4" stroke-width="0.01" stroke-miterlimit="10" points="189.66,75.26 
			190.39,77.03 183.43,80.02 182.7,78.24 		"/>
		<polygon id="path_x5F_3_11_" fill="#B4B4B4" stroke="#B4B4B4" stroke-width="0.01" stroke-miterlimit="10" points="189.75,75.22 
			196.96,72.97 197.5,74.82 190.29,77.07 		"/>
		<path id="path_x5F_3_10_" fill="#B4B4B4" stroke="#B4B4B4" stroke-width="0.01" stroke-miterlimit="10" d="M203.76,70.84
			l3.43-1.08l0.55,1.84l-3.43,1.08L203.76,70.84z M214.3,68.26l9.31-1.9c0.43-0.1,0.86-0.19,1.24-0.27l0.33,1.9
			c-0.37,0.07-0.76,0.15-1.18,0.25l-9.34,1.9L214.3,68.26z"/>
		<path id="path_x5F_3_9_" fill="#B4B4B4" stroke="#B4B4B4" stroke-width="0.01" stroke-miterlimit="10" d="M230.06,65.46
			l10.14-1.01c1.16-0.18,2.53-0.29,4.19-0.35l0.05,1.93c-1.58,0.06-2.89,0.17-4.02,0.34l-10.19,1.02L230.06,65.46z M251.58,64.06
			l0.39,0c1.05,0.02,2.1,0.02,3.18,0.02l0,1.93c-1.1,0.01-2.17,0-3.21-0.02l-0.39,0L251.58,64.06z M262.35,64.13
			c1.76,0.08,3.36,0.22,4.89,0.45l5.85,0.59l-0.2,1.92l-5.88-0.6c-1.51-0.22-3.05-0.36-4.75-0.44L262.35,64.13z M278.41,65.71
			c0.67,0.06,1.32,0.14,1.98,0.23l4.66,0.95c1.28,0.27,2.57,0.52,3.88,0.78c1.2,0.24,2.41,0.48,3.63,0.73l-0.39,1.89
			c-1.22-0.25-2.42-0.49-3.62-0.73c-1.3-0.26-2.61-0.51-3.88-0.78l-4.6-0.94c-0.58-0.08-1.22-0.15-1.84-0.22L278.41,65.71z
			 M299.59,70.04c1.16,0.31,2.31,0.65,3.47,1.03l-0.58,1.83c-1.13-0.36-2.26-0.7-3.39-1L299.59,70.04z M309.87,73.22l5.9,1.93
			l4.26,1.78l-0.73,1.79l-5.26-2.19l-4.73-1.46L309.87,73.22z M324.95,78.98c4.39,1.62,8.49,3.8,13.01,6.28l-0.9,1.7
			c-4.46-2.44-8.5-4.59-12.76-6.17L324.95,78.98z M344.25,88.64l0.37,0.18c0.96,0.55,1.88,1.09,2.79,1.64l-0.96,1.66
			c-0.91-0.54-1.81-1.08-2.73-1.6l-0.33-0.16L344.25,88.64z M353.5,94.33c2.98,1.98,5.95,4.09,8.82,6.28l-1.15,1.55
			c-2.84-2.17-5.78-4.26-8.72-6.22L353.5,94.33z M366.58,103.95c3.68,2.98,7.34,6.18,10.87,9.52l-1.29,1.42
			c-3.5-3.3-7.12-6.48-10.77-9.42L366.58,103.95z M382.61,118.54c0.85,0.87,1.68,1.73,2.51,2.61l-1.37,1.34
			c-0.81-0.86-1.64-1.73-2.48-2.58L382.61,118.54z M389.98,126.5c2.41,2.74,4.73,5.56,6.93,8.38l-1.49,1.2
			c-2.17-2.78-4.47-5.57-6.86-8.29L389.98,126.5z M400.18,139.22c1.36,1.88,2.66,3.73,3.87,5.56c1.47,2.02,2.88,4.14,4.3,6.44
			l-1.61,1.03c-1.39-2.26-2.78-4.33-4.24-6.35c-1.22-1.84-2.49-3.67-3.85-5.53L400.18,139.22z M411.98,157.53
			c0.6,1.1,1.16,2.17,1.71,3.21l-1.67,0.91c-0.54-1.02-1.1-2.09-1.7-3.18L411.98,157.53z M417.03,167.12
			c0.21,0.4,0.43,0.78,0.64,1.14c1.05,1.99,1.74,3.77,2.3,5.2c0.28,0.71,0.52,1.34,0.76,1.86l0.74,1.83l-1.75,0.74l-0.73-1.78
			c-0.24-0.52-0.5-1.18-0.79-1.93c-0.53-1.38-1.21-3.1-2.19-4.97c-0.2-0.35-0.42-0.74-0.64-1.15L417.03,167.12z"/>
		<polygon id="path_x5F_3_8_" fill="#B4B4B4" stroke="#B4B4B4" stroke-width="0.01" stroke-miterlimit="10" points="422.79,180.35 
			425.67,187.41 423.93,188.16 421.04,181.11 		"/>
		<polygon id="path_x5F_3_7_" fill="#B4B4B4" stroke="#B4B4B4" stroke-width="0.01" stroke-miterlimit="10" points="423.89,188.06 
			425.71,187.5 427.87,194.82 426.05,195.38 		"/>
		<path id="path_x5F_3_6_" fill="#B4B4B4" stroke="#B4B4B4" stroke-width="0.01" stroke-miterlimit="10" d="M428.09,202.29
			l1.82-0.57l1.04,3.48l-1.81,0.57L428.09,202.29z M430.52,212.8l1.87-0.38l1.8,9.46c0.1,0.43,0.18,0.87,0.25,1.26l-1.86,0.35
			c-0.06-0.37-0.15-0.77-0.24-1.2L430.52,212.8z"/>
		<path id="path_x5F_3_5_" fill="#B4B4B4" stroke="#B4B4B4" stroke-width="0.01" stroke-miterlimit="10" d="M433.14,228.62
			l1.89-0.19l0.92,10.31c0.17,1.17,0.27,2.58,0.32,4.25l-1.9,0.07c-0.05-1.6-0.14-2.94-0.3-4.08L433.14,228.62z M434.36,250.3
			l1.9,0.02l-0.01,0.39c-0.03,1.07-0.04,2.13-0.04,3.23l-1.9,0.01c0.01-1.12,0.02-2.21,0.04-3.26L434.36,250.3z M434.21,261.2
			l1.9,0.09c-0.09,1.8-0.24,3.42-0.47,4.97l-0.62,5.95l-1.88-0.19l0.62-5.98C433.98,264.5,434.12,262.93,434.21,261.2z
			 M432.56,277.45l1.89,0.19c-0.07,0.67-0.14,1.33-0.24,2.01l-0.97,4.75c-0.27,1.3-0.53,2.62-0.79,3.94
			c-0.25,1.23-0.49,2.46-0.75,3.7l-1.85-0.38c0.25-1.24,0.5-2.47,0.74-3.69c0.26-1.33,0.53-2.65,0.79-3.95l0.96-4.69
			C432.41,278.73,432.49,278.09,432.56,277.45z M428.21,298.71l1.82,0.49c-0.31,1.18-0.65,2.36-1.03,3.54l-1.8-0.58
			C427.57,301.01,427.9,299.86,428.21,298.71z M425.04,309.12l1.81,0.56l-1.94,6l-1.78,4.35l-1.75-0.73l2.2-5.37L425.04,309.12z
			 M419.31,324.4l1.77,0.66c-1.62,4.47-3.8,8.66-6.27,13.28l-1.66-0.91C415.58,332.88,417.72,328.75,419.31,324.4z M409.76,343.89
			l1.69,0.87l-0.18,0.37c-0.55,0.98-1.09,1.92-1.63,2.85l-1.63-0.98c0.54-0.92,1.07-1.85,1.59-2.79L409.76,343.89z M404.21,353.17
			l1.59,1.05c-1.97,3.04-4.07,6.07-6.24,9.01l-1.51-1.16C400.19,359.17,402.27,356.17,404.21,353.17z M394.76,366.39l1.48,1.2
			c-2.96,3.77-6.13,7.5-9.43,11.12l-1.39-1.31C388.7,373.82,391.84,370.12,394.76,366.39z M380.46,382.63l1.33,1.37
			c-0.85,0.87-1.71,1.72-2.57,2.57l-1.31-1.39C378.76,384.34,379.61,383.49,380.46,382.63z M372.66,390.12l1.26,1.43
			c-2.72,2.46-5.51,4.85-8.29,7.1l-1.17-1.51C367.22,394.92,369.98,392.56,372.66,390.12z M360.21,400.47l1.13,1.54
			c-1.86,1.41-3.69,2.73-5.5,3.98c-2,1.51-4.09,2.96-6.36,4.41l-1-1.63c2.23-1.43,4.28-2.85,6.27-4.35
			C356.57,403.17,358.38,401.86,360.21,400.47z M342.35,412.46l0.91,1.69c-1.09,0.61-2.14,1.2-3.16,1.76l-0.89-1.7
			C340.22,413.65,341.26,413.07,342.35,412.46z M332.88,417.67l0.91,1.68c-0.39,0.22-0.76,0.44-1.12,0.65
			c-1.97,1.08-3.72,1.8-5.13,2.38c-0.69,0.28-1.31,0.54-1.84,0.79l-1.79,0.77l-0.73-1.77l1.76-0.76c0.51-0.25,1.16-0.51,1.9-0.82
			c1.36-0.55,3.05-1.25,4.9-2.27C332.09,418.12,332.48,417.9,332.88,417.67z"/>
		<polygon id="path_x5F_3_4_" fill="#B4B4B4" stroke="#B4B4B4" stroke-width="0.01" stroke-miterlimit="10" points="320.02,423.52 
			320.75,425.3 313.8,428.27 313.07,426.5 		"/>
		<polygon id="path_x5F_3_2_" fill="#B4B4B4" stroke="#B4B4B4" stroke-width="0.01" stroke-miterlimit="10" points="305.95,428.72 
			313.16,426.47 313.7,428.31 306.49,430.57 		"/>
		<path id="path_x5F_3_3_" fill="#B4B4B4" stroke="#B4B4B4" stroke-width="0.01" stroke-miterlimit="10" d="M278.26,435.55
			c0.37-0.07,0.77-0.15,1.19-0.25l9.35-1.9l0.35,1.89l-9.31,1.9c-0.43,0.1-0.86,0.19-1.25,0.27L278.26,435.55z M295.72,431.92
			l3.42-1.07l0.55,1.84l-3.43,1.07L295.72,431.92z"/>
		<path id="path_x5F_3_1_" fill="#B4B4B4" stroke="#B4B4B4" stroke-width="0.01" stroke-miterlimit="10" d="M83.72,325.65l0.73,1.78
			c0.24,0.52,0.5,1.18,0.79,1.93c0.54,1.38,1.21,3.1,2.19,4.96c0.2,0.35,0.42,0.74,0.64,1.15l-1.66,0.95
			c-0.22-0.39-0.42-0.77-0.64-1.14c-1.05-1.99-1.74-3.77-2.31-5.19c-0.27-0.71-0.52-1.34-0.76-1.87l-0.75-1.82L83.72,325.65z
			 M91.44,341.89c0.54,1.03,1.1,2.09,1.69,3.18l-1.66,0.94c-0.6-1.1-1.17-2.17-1.7-3.21L91.44,341.89z M96.72,351.29
			c1.39,2.26,2.77,4.33,4.24,6.35c1.22,1.83,2.5,3.67,3.84,5.52l-1.53,1.15c-1.37-1.88-2.66-3.73-3.87-5.56
			c-1.47-2.02-2.88-4.14-4.3-6.44L96.72,351.29z M108.04,367.46c2.16,2.79,4.47,5.57,6.85,8.29l-1.42,1.29
			c-2.4-2.75-4.73-5.56-6.92-8.38L108.04,367.46z M119.71,381.05c0.81,0.86,1.64,1.72,2.48,2.58l-1.34,1.36
			c-0.86-0.86-1.69-1.73-2.52-2.61L119.71,381.05z M127.3,388.65c3.49,3.3,7.11,6.48,10.76,9.43l-1.19,1.51
			c-3.68-2.98-7.34-6.18-10.87-9.52L127.3,388.65z M142.27,401.38c2.84,2.17,5.77,4.25,8.72,6.21l-1.05,1.62
			c-2.98-1.98-5.95-4.09-8.81-6.28L142.27,401.38z M157.01,411.41c0.9,0.54,1.82,1.07,2.74,1.6l0.32,0.16l-0.87,1.72l-0.36-0.19
			c-0.97-0.55-1.88-1.09-2.8-1.64L157.01,411.41z M166.4,416.58c4.46,2.44,8.5,4.59,12.77,6.17l-0.67,1.81
			c-4.38-1.62-8.49-3.8-13.01-6.28L166.4,416.58z M184.15,424.82l5.26,2.19l4.73,1.46l-0.56,1.84l-5.89-1.94l-4.27-1.78
			L184.15,424.82z M200.97,430.63c1.13,0.36,2.26,0.69,3.39,1l-0.5,1.86c-1.16-0.31-2.32-0.65-3.48-1.03L200.97,430.63z
			 M211.28,433.24c1.22,0.25,2.42,0.49,3.62,0.73c1.31,0.26,2.6,0.52,3.88,0.78l4.6,0.94c0.58,0.08,1.21,0.15,1.85,0.21l-0.2,1.92
			c-0.65-0.07-1.31-0.14-1.97-0.23l-4.67-0.94c-1.28-0.27-2.57-0.52-3.87-0.78c-1.2-0.23-2.42-0.48-3.64-0.73L211.28,433.24z
			 M230.57,436.44l5.88,0.6c1.51,0.22,3.05,0.36,4.75,0.44l-0.09,1.93c-1.77-0.08-3.37-0.22-4.9-0.45l-5.83-0.59L230.57,436.44z
			 M248.31,437.52c1.1,0,2.17,0,3.21,0.02l0.39,0l-0.04,1.93l-0.39-0.01c-1.04-0.03-2.09-0.03-3.18-0.02L248.31,437.52z
			 M259.02,437.51c1.57-0.06,2.88-0.17,4.01-0.33l10.19-1.02l0.17,1.92l-10.14,1.01c-1.15,0.17-2.53,0.29-4.18,0.35L259.02,437.51z"
			/>
		<polygon id="path_x5F_3" fill="#B4B4B4" stroke="#B4B4B4" stroke-width="0.01" stroke-miterlimit="10" points="79.53,315.38 
			82.41,322.43 80.66,323.18 77.78,316.13 		"/>
	</g>
	<g id="Main_x5F_path_x5F_3">
		
			<radialGradient id="path_x5F_5_6_" cx="374.0468" cy="267.8585" r="126.0353" gradientTransform="matrix(-0.9854 0.3643 -0.3513 -0.9999 586.0151 409.211)" gradientUnits="userSpaceOnUse">
			<stop  offset="0" style="stop-color:#FFDE94"/>
			<stop  offset="0.1723" style="stop-color:#FDCA79"/>
			<stop  offset="0.4206" style="stop-color:#FBB155"/>
			<stop  offset="0.6496" style="stop-color:#F9A03B"/>
			<stop  offset="0.8501" style="stop-color:#F8962C"/>
			<stop  offset="1" style="stop-color:#F79226"/>
		</radialGradient>
		<path id="path_x5F_5_5_" fill="url(#path_x5F_5_6_)" d="M68,172.32c6.42-14.96,13.48-26.85,19.14-35.25
			c10.94-15.29,22.37-28.34,32.2-36.76c1.63-1.42,3.13-2.75,4.49-3.95c2.32-2.05,4.24-3.75,5.78-5l3.96-2.85l1.79,2.59l-3.89,2.8
			c-1.44,1.17-3.33,2.84-5.6,4.85c-1.37,1.22-2.87,2.55-4.52,3.98c-9.66,8.26-20.9,21.11-31.67,36.16
			c-8.63,12.8-20.6,33.95-28.42,61.84c-7.03,24.98-9.21,51.83-6.28,77.66c2.79,25.76,10.71,51.42,22.89,74.22
			c11.25,21.07,25.47,39.52,41.13,53.37c2.71,2.83,5.61,5.11,8.43,7.3l2.39,1.89c1.28,0.97,2.54,1.98,3.77,2.98
			c2.17,1.75,4.21,3.39,6.31,4.75l9.54,6.07c0.97,0.58,1.93,1.21,2.86,1.82c1.79,1.17,3.48,2.28,5.15,3l16.35,8.19l-1.4,2.86
			l-16.28-8.16c-1.83-0.78-3.63-1.96-5.54-3.22c-0.9-0.58-1.82-1.19-2.8-1.77l-9.57-6.09c-2.25-1.44-4.36-3.14-6.59-4.95
			c-1.21-0.98-2.44-1.97-3.73-2.95l-2.4-1.88c-2.9-2.27-5.9-4.61-8.67-7.53c-15.84-13.99-30.3-32.75-41.72-54.14
			c-12.37-23.16-20.4-49.22-23.24-75.38c-2.97-26.24-0.76-53.52,6.39-78.9C61.09,189.8,64.45,180.59,68,172.32z"/>
		
			<radialGradient id="path_x5F_5_7_" cx="424.8118" cy="287.3079" r="64.859" gradientTransform="matrix(-0.9854 0.3643 -0.3513 -0.9999 586.0151 409.211)" gradientUnits="userSpaceOnUse">
			<stop  offset="0" style="stop-color:#FFDE94"/>
			<stop  offset="0.1723" style="stop-color:#FDCA79"/>
			<stop  offset="0.4206" style="stop-color:#FBB155"/>
			<stop  offset="0.6496" style="stop-color:#F9A03B"/>
			<stop  offset="0.8501" style="stop-color:#F8962C"/>
			<stop  offset="1" style="stop-color:#F79226"/>
		</radialGradient>
		<path id="path_x5F_5_4_" fill="url(#path_x5F_5_7_)" d="M54.14,182.47l11.69,4.43l-0.75,2.02c-0.12,0.35-0.35,0.95-0.61,1.63
			c-0.39,1.01-0.86,2.24-1.3,3.71c-0.37,1.49-0.91,3.52-1.52,5.79c-1.16,4.32-2.47,9.22-3.75,14.85
			c-3.98,20.1-4.98,43.29-2.72,63.45l1.36,10.31c0.29,2.29,0.57,4.45,1.1,6.38l3.9,16.79l6.56,19.37l3.72,8.45
			c2.63,6.55,5.56,11.72,7.91,15.88l4.54,8.09c0.43,0.81,0.7,1.22,0.77,1.34l-10.22,7.4c0,0-0.6-0.82-1.49-2.49l-4.45-7.93
			c-2.41-4.26-5.71-10.08-8.57-17.23l-4.74-11.04l-6.15-18.56l-3.9-16.84c-0.7-2.56-1.05-5.27-1.38-7.89l-1.37-10.38
			c-2.42-21.55-1.35-46.19,2.91-67.72c1.38-6.05,2.78-11.28,3.91-15.49c0.59-2.2,1.11-4.16,1.54-5.88c0.64-2.13,1.22-3.66,1.7-4.91
			c0.19-0.51,0.37-0.96,0.5-1.35L54.14,182.47z"/>
		
			<radialGradient id="path_x5F_5_8_" cx="179.8427" cy="320.519" r="122.5035" gradientTransform="matrix(-0.9854 0.3643 -0.3513 -0.9999 586.0151 409.211)" gradientUnits="userSpaceOnUse">
			<stop  offset="0" style="stop-color:#FFDE94"/>
			<stop  offset="0.1723" style="stop-color:#FDCA79"/>
			<stop  offset="0.4206" style="stop-color:#FBB155"/>
			<stop  offset="0.6496" style="stop-color:#F9A03B"/>
			<stop  offset="0.8501" style="stop-color:#F8962C"/>
			<stop  offset="1" style="stop-color:#F79226"/>
		</radialGradient>
		<path id="path_x5F_5_3_" fill="url(#path_x5F_5_8_)" d="M133.57,88.5l11.53-8.32l16.77-9.79c1.2-0.6,2.34-1.13,3.51-1.66
			l13.67-6.31c2.77-1.11,5.61-2.08,8.52-3.08c1.66-0.57,3.35-1.16,5.06-1.77c15.28-5,39.32-10.82,67.33-10.22
			c25.72,0.42,52,6.2,75.98,16.71c23.97,10.51,46.1,25.96,63.99,44.66c19.56,20.26,31.78,41.98,38.59,56.63
			c0.74,1.73,1.47,3.37,2.19,4.99c1.27,2.84,2.5,5.6,3.57,8.32l4.81,14.49c0.42,1.23,0.82,2.43,1.17,3.62l4.53,20.13l1.74,13.23
			l-3.1,0.45l-1.87-14.19l-4.32-18.77c-0.32-1.06-0.71-2.23-1.11-3.43l-4.79-14.42c-1.02-2.6-2.23-5.31-3.48-8.1
			c-0.73-1.63-1.47-3.29-2.2-4.98c-6.69-14.4-18.72-35.79-37.99-55.74c-17.61-18.41-39.4-33.61-63-43.97
			c-23.61-10.35-49.47-16.04-74.8-16.46c-27.58-0.59-51.26,5.14-66.27,10.05c-1.68,0.61-3.38,1.19-5.06,1.77
			c-2.87,0.99-5.66,1.95-8.31,3l-13.61,6.29c-1.14,0.52-2.26,1.03-3.33,1.56l-17.2,10.16l-10.75,7.75L133.57,88.5z"/>
		
			<radialGradient id="path_x5F_5_9_" cx="125.8438" cy="376.3075" r="65.3114" gradientTransform="matrix(-0.9854 0.3643 -0.3513 -0.9999 586.0151 409.211)" gradientUnits="userSpaceOnUse">
			<stop  offset="0" style="stop-color:#FFDE94"/>
			<stop  offset="0.1723" style="stop-color:#FDCA79"/>
			<stop  offset="0.4206" style="stop-color:#FBB155"/>
			<stop  offset="0.6496" style="stop-color:#F9A03B"/>
			<stop  offset="0.8501" style="stop-color:#F8962C"/>
			<stop  offset="1" style="stop-color:#F79226"/>
		</radialGradient>
		<path id="path_x5F_5_2_" fill="url(#path_x5F_5_9_)" d="M244.98,38.33l9.45-0.41c1.08-0.05,2.22-0.12,3.42-0.06l17.16,0.96
			c13.1,1.36,38.49,5.3,64.59,16.64c26.06,11.53,46.25,27.58,55.96,36.12l12.57,12.13c0.94,0.93,1.68,1.82,2.38,2.66l6.15,7.24
			l-9.49,8.36l-5.28-6.22c-0.25-0.29-0.6-0.7-0.96-1.13c-0.46-0.55-0.95-1.14-1.52-1.72l-12.28-11.87
			c-15.41-13.54-34.64-25.96-52.55-33.89c-17.92-7.78-40.04-13.5-60.64-15.65l-16.77-0.93c-0.7-0.02-1.45,0.03-2.17,0.06
			c-0.56,0.03-1.1,0.06-1.62,0.07l-7.95,0.35L244.98,38.33z"/>
		
			<radialGradient id="path_x5F_5_10_" cx="221.1947" cy="126.2399" r="125.9384" gradientTransform="matrix(-0.9854 0.3643 -0.3513 -0.9999 586.0151 409.211)" gradientUnits="userSpaceOnUse">
			<stop  offset="0" style="stop-color:#FFDE94"/>
			<stop  offset="0.1723" style="stop-color:#FDCA79"/>
			<stop  offset="0.4206" style="stop-color:#FBB155"/>
			<stop  offset="0.6496" style="stop-color:#F9A03B"/>
			<stop  offset="0.8501" style="stop-color:#F8962C"/>
			<stop  offset="1" style="stop-color:#F79226"/>
		</radialGradient>
		<path id="path_x5F_5_1_" fill="url(#path_x5F_5_10_)" d="M173.66,441.92l17.01,6.44c1.74,0.77,3.7,1.26,5.77,1.78
			c1.07,0.27,2.18,0.55,3.3,0.88l10.87,2.89c2.41,0.63,5,1.01,7.74,1.41c1.57,0.23,3.16,0.46,4.78,0.75l2.95,0.47
			c3.51,0.58,7.14,1.17,10.9,1.22c20.84,2.1,43.89-0.01,66.8-6.1c24.79-6.59,48.74-18.28,69.25-33.81
			c20.66-15.5,38.58-35.45,51.82-57.7c14.81-24.82,21.92-48.11,25.27-63.26c3.51-18.19,5.11-35.27,4.49-48.03
			c-0.09-2.21-0.16-4.23-0.21-6.07c-0.1-3.05-0.18-5.59-0.33-7.53l-0.62-4.7l3.1-0.45l0.63,4.78c0.16,2.08,0.24,4.66,0.35,7.77
			c0.05,1.83,0.12,3.84,0.21,6.03c0.63,13-0.98,30.34-4.55,48.82c-3.42,15.43-10.64,39.07-25.66,64.26
			c-13.45,22.61-31.65,42.88-52.64,58.62c-20.83,15.78-45.15,27.65-70.33,34.34c-23.26,6.18-46.69,8.32-67.76,6.19
			c-3.86-0.04-7.61-0.65-11.23-1.25l-2.95-0.47c-1.63-0.29-3.19-0.52-4.72-0.74c-2.83-0.42-5.5-0.81-8.07-1.48l-10.91-2.9
			c-1.12-0.32-2.19-0.59-3.23-0.86c-2.21-0.55-4.28-1.07-6.18-1.92l-16.94-6.4L173.66,441.92z"/>
		
			<radialGradient id="path_x5F_5_11_" cx="198.0858" cy="73.7128" r="65.642" gradientTransform="matrix(-0.9854 0.3643 -0.3513 -0.9999 586.0151 409.211)" gradientUnits="userSpaceOnUse">
			<stop  offset="0" style="stop-color:#FFDE94"/>
			<stop  offset="0.1723" style="stop-color:#FDCA79"/>
			<stop  offset="0.4206" style="stop-color:#FBB155"/>
			<stop  offset="0.6496" style="stop-color:#F9A03B"/>
			<stop  offset="0.8501" style="stop-color:#F8962C"/>
			<stop  offset="1" style="stop-color:#F79226"/>
		</radialGradient>
		<path id="path_x5F_5" fill="url(#path_x5F_5_11_)" d="M285.38,457.97l4.52-3.14c0.11-0.02,0.61-0.1,1.43-0.32l9.04-2.21
			c4.62-1.1,10.36-2.47,16.69-4.93l13.09-4.92l14.24-6.57l14.58-8.47c1.95-1.04,3.69-2.3,5.53-3.65l8.51-6.14
			c16.01-12.03,32.08-28.62,44-45.44c3.09-4.65,5.74-8.97,8.08-12.79c1.21-1.99,2.31-3.77,3.29-5.31c0.6-1.07,1.16-2.26,1.63-3.24
			c0.31-0.65,0.59-1.23,0.84-1.72l0.87-1.78l11.19,5.6l-0.95,1.93c-0.27,0.52-0.48,0.96-0.71,1.45c-0.58,1.21-1.29,2.69-2.23,4.34
			c-1.11,1.75-2.16,3.48-3.33,5.39c-2.28,3.71-5.11,8.33-8.44,13.35c-12.75,18.01-29.82,35.63-46.95,48.49l-8.57,6.19
			c-2.11,1.54-4.29,3.12-6.82,4.46l-15.14,8.77l-21.97,9.71l-6.54,2.28c-6.93,2.71-13.4,4.25-18.11,5.37l-8.87,2.16
			c-1.4,0.37-2.32,0.52-2.53,0.55l-0.97-6.27L285.38,457.97z"/>
	</g>
	<g id="Main_x5F_path_x5F_2">
		
			<linearGradient id="path_x5F_2_4_" gradientUnits="userSpaceOnUse" x1="931.7893" y1="-337.2797" x2="-461.1663" y2="583.0656" gradientTransform="matrix(0.9817 0.1906 -0.1906 0.9817 52.6028 -43.3628)">
			<stop  offset="0" style="stop-color:#FFFFFF"/>
			<stop  offset="0.1401" style="stop-color:#FAFAFA"/>
			<stop  offset="0.3034" style="stop-color:#ECECEC"/>
			<stop  offset="0.4782" style="stop-color:#D5D5D5"/>
			<stop  offset="0.6613" style="stop-color:#B4B5B5"/>
			<stop  offset="0.8487" style="stop-color:#8A8C8C"/>
			<stop  offset="1" style="stop-color:#636566"/>
		</linearGradient>
		<path id="path_x5F_2_3_" fill="url(#path_x5F_2_4_)" d="M171.84,41.54l0.8,1.95l-7.7,3.3l-0.8-1.95L171.84,41.54z M156.44,48.16
			l0.82,1.95l-0.49,0.21l-6.79,3.77l-0.99-1.86L156.44,48.16z M141.65,56.3l0.98,1.86l-3.21,1.78c-1.18,0.62-2.38,1.37-3.94,2.43
			l-1.15-1.75c1.61-1.11,2.88-1.9,4.12-2.55L141.65,56.3z M127.43,65.43l1.17,1.75l-6.9,4.81l-1.16-1.75L127.43,65.43z
			 M113.87,75.53l1.33,1.62l-6.37,5.42l-1.35-1.61L113.87,75.53z M101.03,86.56l1.44,1.52c-0.79,0.78-1.58,1.6-2.35,2.42
			c-0.61,0.64-1.21,1.28-1.84,1.9l-1.66,1.72l-1.48-1.48l1.67-1.73c0.62-0.63,1.23-1.26,1.82-1.88
			C99.43,88.2,100.22,87.36,101.03,86.56z M89.29,98.72l1.48,1.48l-3.01,3.12c-0.83,0.98-1.7,2.03-2.57,3.09l-1.6-1.35
			c0.87-1.07,1.75-2.13,2.64-3.18L89.29,98.72z M78.32,111.73l1.64,1.3c-1.7,2.22-3.36,4.47-5.01,6.77l-1.68-1.24
			C74.93,116.23,76.62,113.96,78.32,111.73z M68.43,125.54l1.73,1.18c-1.56,2.33-3.08,4.69-4.57,7.08l-1.76-1.12
			C65.34,130.27,66.87,127.89,68.43,125.54z M59.48,139.98l1.79,1.07c-1.4,2.43-2.76,4.89-4.08,7.38l-1.83-0.99
			C56.69,144.91,58.06,142.43,59.48,139.98z M51.46,155.05l1.89,0.89l-0.6,1.24c-0.96,2.13-1.89,4.29-2.8,6.47l-1.92-0.81
			c0.91-2.2,1.85-4.38,2.83-6.56L51.46,155.05z M44.91,170.75l1.95,0.74c-0.99,2.64-1.93,5.3-2.84,7.96l-1.97-0.67
			C42.97,176.09,43.92,173.42,44.91,170.75z M39.47,186.89l2,0.61c-0.82,2.71-1.58,5.42-2.31,8.13l-2.01-0.54
			C37.88,192.35,38.65,189.62,39.47,186.89z M35.08,203.35l2.03,0.47c-0.64,2.76-1.23,5.52-1.78,8.26l-2.05-0.4
			C33.85,208.91,34.45,206.13,35.08,203.35z M31.87,220.14l2.07,0.21l-0.89,8.43l-2.07-0.21L31.87,220.14z M30.09,237.01l2.07,0.22
			c-0.15,1.34-0.28,2.68-0.35,4.01l-0.03,4.35l-2.08,0l0.03-4.38C29.79,239.78,29.93,238.4,30.09,237.01z M29.62,254.06l2.08,0
			l-0.04,8.37l-2.07,0.22l-0.03-1.42L29.62,254.06z M30.33,271.08l2.08-0.2l0.36,4.12c0.16,1.44,0.27,2.9,0.39,4.33l-2.08,0.18
			c-0.11-1.41-0.22-2.84-0.38-4.28L30.33,271.08z M32.17,288.02l2.04-0.41l1.58,8.31l-2.04,0.42L32.17,288.02z M35.33,304.65
			l2.04-0.42l0.42,2.21l1.73,5.85l-2,0.62l-1.75-5.95L35.33,304.65z M39.92,321.02l2-0.62l2.4,8.11l-1.99,0.62L39.92,321.02z"/>
		
			<linearGradient id="path_x5F_2_5_" gradientUnits="userSpaceOnUse" x1="2957.2253" y1="-1668.895" x2="-896.4145" y2="877.259" gradientTransform="matrix(0.9817 0.1906 -0.1906 0.9817 52.6028 -43.3628)">
			<stop  offset="0" style="stop-color:#FFFFFF"/>
			<stop  offset="0.1401" style="stop-color:#FAFAFA"/>
			<stop  offset="0.3034" style="stop-color:#ECECEC"/>
			<stop  offset="0.4782" style="stop-color:#D5D5D5"/>
			<stop  offset="0.6613" style="stop-color:#B4B5B5"/>
			<stop  offset="0.8487" style="stop-color:#8A8C8C"/>
			<stop  offset="1" style="stop-color:#636566"/>
		</linearGradient>
		<path id="path_x5F_2_2_" fill="url(#path_x5F_2_5_)" d="M177.12,39.28l7.98-2.5l0.6,2.03l-7.98,2.5L177.12,39.28z M193.09,34.29
			l5.87-1.82l2.28-0.47l0.39,2.08l-2.18,0.44l-5.76,1.8L193.09,34.29z M209.42,30.33l8.18-1.67l0.39,2.08l-8.18,1.66L209.42,30.33z
			 M225.98,27.49c1.38-0.12,2.79-0.24,4.21-0.42l4.08-0.4l0.18,2.11l-4.05,0.4c-1.42,0.18-2.85,0.3-4.26,0.42L225.98,27.49z
			 M242.56,25.86l1.4-0.03l7.04,0.01l-0.01,2.12l-8.22,0.01L242.56,25.86z M259.34,25.85l4.31,0.01c1.39,0.05,2.76,0.19,4.12,0.34
			l-0.23,2.11c-1.32-0.14-2.63-0.27-3.94-0.32l-4.27-0.01L259.34,25.85z M276.05,27.04l8.28,0.85L284.12,30l-8.29-0.84L276.05,27.04
			z M292.65,29.29c2.71,0.54,5.44,1.13,8.17,1.76l-0.48,2.06c-2.71-0.63-5.42-1.21-8.11-1.75L292.65,29.29z M308.93,33.09
			c2.68,0.72,5.36,1.49,8.04,2.31l-0.61,2.03c-2.65-0.81-5.31-1.57-7.97-2.29L308.93,33.09z M324.93,37.98
			c2.64,0.9,5.26,1.85,7.87,2.84l-0.75,1.99c-2.59-0.99-5.19-1.93-7.8-2.82L324.93,37.98z M340.56,43.95
			c2.15,0.91,4.29,1.85,6.42,2.83l1.21,0.59l-0.88,1.93l-1.21-0.6c-2.08-0.96-4.21-1.89-6.34-2.79L340.56,43.95z M355.65,51.27
			c2.46,1.34,4.89,2.72,7.29,4.14l-1.06,1.83c-2.38-1.41-4.79-2.78-7.22-4.1L355.65,51.27z M370.09,59.81
			c2.37,1.51,4.69,3.05,6.99,4.63l-1.18,1.76c-2.28-1.56-4.59-3.1-6.94-4.59L370.09,59.81z M383.92,69.3
			c2.26,1.67,4.49,3.37,6.67,5.09l-1.29,1.68c-2.16-1.71-4.37-3.4-6.62-5.05L383.92,69.3z M397.1,79.71
			c1.04,0.88,2.08,1.76,3.1,2.66l3.1,3.09l-1.46,1.51l-3.05-3.04c-0.97-0.84-1.99-1.72-3.03-2.59L397.1,79.71z M409.23,91.38
			l1.68,1.68c0.62,0.63,1.23,1.23,1.84,1.84c0.82,0.8,1.63,1.6,2.41,2.42l-1.51,1.48c-0.76-0.81-1.56-1.59-2.36-2.37
			c-0.62-0.62-1.24-1.23-1.85-1.86l-1.69-1.68L409.23,91.38z M420.62,103.84l-0.83,0.66L420.62,103.84l5.31,6.46l-1.6,1.37
			l-5.29-6.44L420.62,103.84z M431.08,117.05l4.68,6.99l-1.72,1.2l-4.69-6.98L431.08,117.05z M440.45,131.02
			c1.08,1.64,1.85,2.92,2.48,4.18l1.72,3.23l-1.83,1.02l-1.73-3.26c-0.61-1.19-1.33-2.41-2.37-3.98L440.45,131.02z M448.6,145.87
			l3.94,7.55l-1.92,0.84l-0.2-0.5l-3.67-6.88L448.6,145.87z M455.76,161.24l3.19,7.81l-1.92,0.82l-3.19-7.81L455.76,161.24z"/>
		
			<linearGradient id="path_x5F_2_6_" gradientUnits="userSpaceOnUse" x1="1283.8137" y1="-290.4292" x2="-109.1232" y2="629.9038" gradientTransform="matrix(0.9817 0.1906 -0.1906 0.9817 52.6028 -43.3628)">
			<stop  offset="0" style="stop-color:#FFFFFF"/>
			<stop  offset="0.1401" style="stop-color:#FAFAFA"/>
			<stop  offset="0.3034" style="stop-color:#ECECEC"/>
			<stop  offset="0.4782" style="stop-color:#D5D5D5"/>
			<stop  offset="0.6613" style="stop-color:#B4B5B5"/>
			<stop  offset="0.8487" style="stop-color:#8A8C8C"/>
			<stop  offset="1" style="stop-color:#636566"/>
		</linearGradient>
		<path id="path_x5F_2_1_" fill="url(#path_x5F_2_6_)" d="M459.13,175.03l1.99-0.62l2.4,8.11l-2,0.63L459.13,175.03z M463.93,191.24
			l1.99-0.62l1.76,5.96l0.44,2.31l-2.05,0.43l-0.42-2.21L463.93,191.24z M467.66,207.62l2.04-0.42l1.58,8.31l-2.05,0.41
			L467.66,207.62z M470.3,224.21l2.07-0.18c0.11,1.41,0.22,2.84,0.38,4.28l0.37,4.14l-2.08,0.21l-0.37-4.12
			C470.52,227.1,470.41,225.64,470.3,224.21z M471.79,241.11l2.08-0.22l0.02,1.43l-0.05,7.16l-2.09,0L471.79,241.11z M471.67,257.95
			l2.09,0l-0.04,4.39c-0.06,1.41-0.21,2.8-0.36,4.19l-2.07-0.22c0.15-1.34,0.29-2.68,0.35-4.01L471.67,257.95z M470.4,274.75
			l2.07,0.21l-0.89,8.44l-2.07-0.21L470.4,274.75z M468.11,291.45l2.04,0.41c-0.55,2.77-1.14,5.54-1.79,8.33l-2.03-0.47
			C466.97,296.95,467.57,294.19,468.11,291.45z M464.29,307.91l2,0.54c-0.72,2.73-1.5,5.46-2.32,8.19l-2-0.61
			C462.8,313.33,463.57,310.62,464.29,307.91z M459.41,324.09l1.97,0.67c-0.9,2.69-1.86,5.36-2.85,8.02l-1.95-0.74
			C457.58,329.4,458.52,326.75,459.41,324.09z M453.49,339.9l1.92,0.81c-0.91,2.2-1.85,4.38-2.83,6.55l-0.59,1.23l-1.89-0.89
			l0.6-1.24C451.65,344.23,452.59,342.07,453.49,339.9z M446.26,355.11l1.83,1c-1.33,2.51-2.71,4.99-4.12,7.44l-1.8-1.07
			C443.58,360.06,444.95,357.6,446.26,355.11z M437.86,369.73l1.75,1.13c-1.49,2.41-3.03,4.79-4.6,7.14l-1.72-1.18
			C434.84,374.49,436.37,372.12,437.86,369.73z M428.5,383.75l1.68,1.24c-1.66,2.32-3.34,4.59-5.05,6.83l-1.65-1.3
			C425.19,388.3,426.86,386.04,428.5,383.75z M418.26,397.11l1.59,1.35c-0.87,1.07-1.75,2.13-2.63,3.18l-3.06,3.17l-1.48-1.48
			l3-3.12C416.53,399.23,417.4,398.17,418.26,397.11z M406.83,409.4l1.48,1.48l-1.67,1.73c-0.63,0.63-1.22,1.26-1.82,1.89
			c-0.8,0.84-1.59,1.67-2.4,2.47l-1.44-1.52c0.79-0.78,1.57-1.6,2.35-2.42c0.6-0.64,1.21-1.28,1.84-1.91L406.83,409.4z
			 M394.62,420.96l1.35,1.61l-6.38,5.44l-1.33-1.62L394.62,420.96z M381.75,431.55l1.17,1.75l-6.91,4.81l-1.17-1.75L381.75,431.55z
			 M367.96,441.17l1.16,1.75c-1.62,1.11-2.88,1.9-4.12,2.55l-3.19,1.77l-0.99-1.86l3.22-1.78
			C365.21,442.98,366.42,442.23,367.96,441.17z M353.48,449.45l0.98,1.86l-7.45,4.07l-0.81-1.94l0.48-0.21L353.48,449.45z
			 M338.52,456.75l0.79,1.95l-7.7,3.3l-0.79-1.95L338.52,456.75z"/>
		
			<linearGradient id="path_x5F_2_7_" gradientUnits="userSpaceOnUse" x1="2283.105" y1="-957.2924" x2="-1570.7723" y2="1589.0184" gradientTransform="matrix(0.9817 0.1906 -0.1906 0.9817 52.6028 -43.3628)">
			<stop  offset="0" style="stop-color:#FFFFFF"/>
			<stop  offset="0.1401" style="stop-color:#FAFAFA"/>
			<stop  offset="0.3034" style="stop-color:#ECECEC"/>
			<stop  offset="0.4782" style="stop-color:#D5D5D5"/>
			<stop  offset="0.6613" style="stop-color:#B4B5B5"/>
			<stop  offset="0.8487" style="stop-color:#8A8C8C"/>
			<stop  offset="1" style="stop-color:#636566"/>
		</linearGradient>
		<path id="path_x5F_2" fill="url(#path_x5F_2_7_)" d="M46.43,333.66l3.19,7.81l-1.92,0.82l-3.19-7.81L46.43,333.66z M52.82,349.27
			l0.2,0.49l3.67,6.88l-1.83,1.02l-3.96-7.55L52.82,349.27z M60.64,364.08l1.73,3.26c0.61,1.2,1.33,2.42,2.36,3.99l-1.73,1.19
			c-1.09-1.64-1.84-2.93-2.48-4.18l-1.72-3.23L60.64,364.08z M69.42,378.29l4.68,6.99l-1.73,1.2l-4.68-6.99L69.42,378.29z
			 M79.13,391.87l5.29,6.44l-1.58,1.39l0.82-0.66l-0.82,0.65l-5.31-6.46L79.13,391.87z M89.79,404.73c0.77,0.8,1.57,1.59,2.36,2.38
			c0.62,0.62,1.25,1.23,1.86,1.86l1.68,1.67l-1.47,1.52l-1.68-1.68c-0.61-0.63-1.23-1.23-1.85-1.84c-0.81-0.8-1.63-1.6-2.41-2.43
			L89.79,404.73z M101.62,416.56l3.05,3.04c0.96,0.84,1.98,1.72,3.02,2.6l-1.34,1.63c-1.05-0.88-2.07-1.77-3.1-2.66l-3.1-3.09
			L101.62,416.56z M114.14,427.46c2.16,1.71,4.37,3.39,6.62,5.05l-1.23,1.72c-2.27-1.67-4.49-3.37-6.68-5.09L114.14,427.46z
			 M127.55,437.34c2.27,1.56,4.58,3.1,6.93,4.6l-1.12,1.8c-2.36-1.51-4.7-3.06-6.99-4.63L127.55,437.34z M141.57,446.28
			c2.37,1.41,4.78,2.78,7.22,4.11l-0.99,1.87c-2.46-1.34-4.89-2.72-7.28-4.14L141.57,446.28z M156.15,454.23l1.21,0.6
			c2.09,0.96,4.21,1.89,6.34,2.79l-0.81,1.96c-2.15-0.91-4.28-1.85-6.42-2.83l-1.21-0.59L156.15,454.23z M171.4,460.73
			c2.59,0.99,5.19,1.93,7.8,2.82l-0.68,2.01c-2.63-0.9-5.25-1.85-7.87-2.84L171.4,460.73z M187.09,466.11
			c2.65,0.81,5.31,1.58,7.97,2.29l-0.54,2.05c-2.68-0.72-5.36-1.49-8.04-2.3L187.09,466.11z M203.11,470.42
			c2.72,0.63,5.42,1.21,8.11,1.75l-0.41,2.08c-2.72-0.54-5.44-1.13-8.17-1.77L203.11,470.42z M219.33,473.54l8.29,0.85l-0.22,2.11
			l-8.29-0.85L219.33,473.54z M235.92,475.23c1.32,0.14,2.63,0.27,3.93,0.33l4.27,0l-0.01,2.12l-4.31-0.01
			c-1.4-0.05-2.76-0.19-4.12-0.33L235.92,475.23z M252.46,475.58l8.23-0.01l0.2,2.11l-1.4,0.03l-7.05-0.01L252.46,475.58z
			 M269,474.75l4.05-0.4c1.42-0.17,2.85-0.3,4.25-0.42l0.17,2.11c-1.39,0.12-2.79,0.24-4.21,0.42l-4.07,0.4L269,474.75z
			 M285.45,472.8l8.19-1.67l0.39,2.08l-8.18,1.67L285.45,472.8z M301.81,469.47l2.18-0.45l5.76-1.79l0.6,2.03l-5.87,1.82l-2.27,0.47
			L301.81,469.47z M317.74,464.73l7.99-2.5l0.6,2.03l-7.98,2.5L317.74,464.73z"/>
	</g>
	<g id="Main_x5F_path_x5F_1_x5F_First">
		
			<radialGradient id="path_x5F_1_4_" cx="30.4165" cy="288.1919" r="56.9364" gradientTransform="matrix(0.9817 0.1906 -0.1906 0.9817 52.6028 -43.3628)" gradientUnits="userSpaceOnUse">
			<stop  offset="0" style="stop-color:#FFFFFF"/>
			<stop  offset="1.636088e-03" style="stop-color:#FFFEFD"/>
			<stop  offset="0.119" style="stop-color:#FEE2C4"/>
			<stop  offset="0.2381" style="stop-color:#FDCC9A"/>
			<stop  offset="0.3597" style="stop-color:#FCBA78"/>
			<stop  offset="0.4824" style="stop-color:#FAAB5C"/>
			<stop  offset="0.6066" style="stop-color:#F9A044"/>
			<stop  offset="0.7327" style="stop-color:#F89834"/>
			<stop  offset="0.8622" style="stop-color:#F7942A"/>
			<stop  offset="1" style="stop-color:#F79226"/>
		</radialGradient>
		<path id="path_x5F_1_2_" fill="url(#path_x5F_1_4_)" d="M31.2,165.87c0.39-0.15,0.79-0.16,1.15-0.02
			c0.37,0.18,0.65,0.48,0.84,0.86c0.14,0.4,0.15,0.84-0.01,1.26l-0.68,1.6c-0.11,0.31-0.23,0.58-0.35,0.9
			c-0.22,0.48-0.42,1.06-0.69,1.7c-0.26,0.77-1.21,1.21-2.02,0.93c-0.77-0.3-1.17-1.19-0.89-2.01c0.28-0.73,0.54-1.37,0.75-1.9
			c0.13-0.27,0.21-0.53,0.3-0.78l0.71-1.66C30.47,166.32,30.81,166.01,31.2,165.87z M20.71,202.2L20.71,202.2
			c0.28-0.1,0.57-0.17,0.86-0.1c0.38,0.09,0.72,0.32,0.99,0.67c0.21,0.37,0.31,0.79,0.2,1.23c-0.16,0.82-1.01,1.41-1.84,1.22
			c-0.85-0.14-1.36-0.98-1.22-1.84c-0.01-0.04,0.03-0.05,0.03-0.05C19.86,202.78,20.25,202.37,20.71,202.2z M15.6,242.44
			c0.16-0.06,0.36-0.09,0.54-0.11c0.41,0.03,0.82,0.19,1.1,0.49c0.29,0.3,0.46,0.69,0.47,1.09c-0.01,0.45,0.01,0.9,0.01,1.43
			l-0.11,14.94c-0.1,2.24,0.1,4.46,0.31,6.82l0.05,0.25c0.22,2.26,0.38,4.49,0.57,6.67l0.06,0.43c0.15,1.7,0.3,3.4,0.44,5.06
			c0.26,2.87,0.47,5.63,0.84,8.19c0.56,2.86,1.09,5.63,1.57,8.25l0.83,4.28c0.63,3.41,1.25,6.56,1.77,9.34
			c0.46,1.81,0.97,3.51,1.44,4.96c0.26,0.85,0.49,1.66,0.72,2.43c1.2,4.19,1.91,6.58,1.91,6.58c0.24,0.81-0.17,1.64-0.96,1.93
			l-0.08,0.03c-0.84,0.27-1.67-0.19-1.92-1.05c0,0-0.75-2.51-1.96-6.57c-0.21-0.73-0.44-1.5-0.68-2.31
			c-0.49-1.53-1.03-3.31-1.54-5.28l0.01-0.1c-0.41-2.05-0.82-4.24-1.26-6.6l-2.95-15.34c-0.41-2.82-0.62-5.67-0.88-8.68
			c-0.15-1.56-0.27-3.18-0.45-4.83c-0.09-1.27-0.22-2.53-0.31-3.8l-0.32-3.57c-0.24-2.3-0.45-4.69-0.34-7.16
			c0.03-3.57,0.05-7.18,0.09-10.74l0.02-4.1c0.02-0.46-0.02-0.94-0.02-1.43C14.57,243.27,14.98,242.67,15.6,242.44z"/>
		
			<radialGradient id="path_x5F_1_5_" cx="233.0959" cy="102.0541" r="162.7404" gradientTransform="matrix(0.9817 0.1906 -0.1906 0.9817 52.6028 -43.3628)" gradientUnits="userSpaceOnUse">
			<stop  offset="0" style="stop-color:#FFFFFF"/>
			<stop  offset="1.636088e-03" style="stop-color:#FFFEFD"/>
			<stop  offset="0.119" style="stop-color:#FEE2C4"/>
			<stop  offset="0.2381" style="stop-color:#FDCC9A"/>
			<stop  offset="0.3597" style="stop-color:#FCBA78"/>
			<stop  offset="0.4824" style="stop-color:#FAAB5C"/>
			<stop  offset="0.6066" style="stop-color:#F9A044"/>
			<stop  offset="0.7327" style="stop-color:#F89834"/>
			<stop  offset="0.8622" style="stop-color:#F7942A"/>
			<stop  offset="1" style="stop-color:#F79226"/>
		</radialGradient>
		<path id="path_x5F_1_3_" fill="url(#path_x5F_1_5_)" d="M172.05,25.11c19.9-7.36,40.63-12,61.64-13.79
			c0.38-0.05,0.78,0.07,1.1,0.36c0.33,0.29,0.54,0.66,0.57,1.1c0.06,0.83-0.59,1.62-1.44,1.7c-20.67,1.79-41.16,6.35-60.74,13.59
			l-0.32,0.12c-4.63,1.71-9.28,3.61-13.89,5.68l-0.26,0.14c-0.46,0.21-0.93,0.39-1.39,0.6c-0.85,0.36-1.73,0.01-2.06-0.81
			c-0.18-0.38-0.19-0.78-0.02-1.21c0.13-0.37,0.45-0.71,0.84-0.9c0.49-0.22,1.04-0.43,1.58-0.67l0.08-0.03
			C162.36,28.87,167.18,26.91,172.05,25.11z M149.54,34.79c0.79-0.29,1.63,0.07,1.97,0.8c0.36,0.77,0.04,1.74-0.77,2.13l-0.04,0.01
			c-0.72,0.35-1.67,0.03-2.03-0.73c-0.36-0.77-0.02-1.7,0.68-2.1C149.42,34.83,149.5,34.8,149.54,34.79z M121.16,51.36
			c0.67-0.25,1.43,0.01,1.81,0.59c0.26,0.35,0.32,0.78,0.25,1.21c-0.09,0.39-0.32,0.75-0.67,1.01c-0.72,0.49-1.73,0.28-2.2-0.44
			c-0.47-0.73-0.24-1.71,0.47-2.2l0.04-0.02C120.96,51.43,121.04,51.4,121.16,51.36z M89.84,76.71c0.58-0.22,1.23-0.05,1.65,0.43
			c0.29,0.3,0.42,0.7,0.43,1.1c-0.03,0.42-0.2,0.84-0.49,1.13c-0.93,0.88-1.82,1.75-2.72,2.62c-17.09,16.36-27.97,33.25-35.92,45.6
			l-1.5,2.31l-0.04,0.01c-2.34,4.19-4.27,7.92-5.83,10.93c-0.54,1.1-1.07,2.11-1.56,3.01c0,0,0,0-0.02,0.05
			c-0.38,0.68-1.38,1-2.1,0.6c-0.76-0.39-1.02-1.38-0.63-2.16c0.48-0.9,0.98-1.89,1.53-2.95c1.58-3.06,3.54-6.85,5.97-11.17
			l0.02-0.05c0.55-0.83,1.06-1.65,1.61-2.49c8.01-12.42,18.98-29.43,36.28-45.96c0.92-0.92,1.81-1.8,2.74-2.68
			C89.45,76.9,89.64,76.78,89.84,76.71z M273.18,11.45c0.2-0.07,0.46-0.08,0.68-0.07c0.41,0.03,0.8,0.24,1.04,0.56
			c0.26,0.35,0.4,0.75,0.36,1.17c-0.1,0.85-0.89,1.5-1.71,1.44c-0.41-0.03-0.8-0.25-1.04-0.56c-0.29-0.34-0.4-0.76-0.36-1.17
			C272.2,12.22,272.59,11.67,273.18,11.45z M305.39,16.64c0.31-0.12,0.61-0.14,0.9-0.06c0.82,0.19,1.34,1.03,1.16,1.91
			c-0.21,0.8-1.07,1.39-1.89,1.2c-0.82-0.19-1.36-1.08-1.16-1.91C304.53,17.24,304.91,16.82,305.39,16.64z M312.44,18.4
			c0.31-0.12,0.61-0.14,0.95-0.08c12.42,3.28,24.5,7.64,35.95,12.82c12.68,5.66,25.04,12.66,36.72,20.77
			c0.34,0.23,0.6,0.59,0.66,1.01c0.06,0.43-0.01,0.86-0.25,1.18c-0.46,0.71-1.49,0.91-2.19,0.45
			c-11.51-7.99-23.68-14.88-36.22-20.51c-11.24-5.11-23.21-9.38-35.49-12.63c-0.39-0.13-0.74-0.36-0.93-0.74
			c-0.22-0.37-0.28-0.8-0.15-1.2C311.62,18.98,311.97,18.58,312.44,18.4z M38.55,148.16L38.55,148.16c0.4-0.15,0.88-0.14,1.27,0.07
			c0.76,0.39,1.02,1.38,0.62,2.15c-0.36,0.72-1.36,1.05-2.12,0.65c-0.71-0.41-1-1.34-0.65-2.1c0,0-0.01-0.04,0.02-0.05
			C37.88,148.54,38.2,148.29,38.55,148.16z M415.49,77.26c0.55-0.2,1.17-0.07,1.59,0.36c0.62,0.62,0.61,1.62,0.04,2.24
			c-0.59,0.62-1.6,0.64-2.2,0.05c-0.62-0.62-0.61-1.62-0.04-2.24C415.03,77.48,415.26,77.35,415.49,77.26z M437.33,101.78
			c0.63-0.23,1.32-0.04,1.72,0.49c0.3,0.34,0.4,0.75,0.37,1.17c-0.03,0.42-0.25,0.81-0.56,1.06c-0.65,0.55-1.67,0.44-2.21-0.22
			c0,0-0.01-0.04-0.05-0.03c-0.21-0.33-0.35-0.73-0.3-1.11c0.07-0.43,0.24-0.81,0.58-1.11
			C437.02,101.94,437.17,101.84,437.33,101.78z M441.69,107.64c0.68-0.25,1.43,0.01,1.82,0.63c1.38,2.06,2.71,4.04,4,5.95l2.78,4.15
			c0.37,0.54,0.7,1.09,1.06,1.63c2.06,3.07,3.99,5.95,5.43,8.89l8.01,15.09c1.09,1.98,1.73,3.41,2.02,4.25l0.26,0.63
			c0.17,0.48,0.3,0.7,0.34,0.82l0,0c0.14,0.4,0.14,0.8-0.02,1.22c-0.14,0.36-0.46,0.71-0.85,0.85c-0.81,0.34-1.7-0.05-2.02-0.83
			c0,0-0.22-0.5-0.62-1.48c-0.3-0.84-0.84-2.17-1.85-3.87c-1.53-2.85-3.63-6.8-6.26-11.77l-1.83-3.42
			c-1.28-2.77-3.24-5.69-5.35-8.78l-2.34-3.5c-1.69-2.53-3.47-5.2-5.35-8.02c0,0,0,0-0.01-0.04c-0.48-0.72-0.29-1.69,0.42-2.18
			C441.47,107.77,441.57,107.68,441.69,107.64z"/>
		
			<radialGradient id="path_x5F_1_6_" cx="473.0351" cy="215.3361" r="56.9358" gradientTransform="matrix(0.9817 0.1906 -0.1906 0.9817 52.6028 -43.3628)" gradientUnits="userSpaceOnUse">
			<stop  offset="0" style="stop-color:#FFFFFF"/>
			<stop  offset="1.636088e-03" style="stop-color:#FFFEFD"/>
			<stop  offset="0.119" style="stop-color:#FEE2C4"/>
			<stop  offset="0.2381" style="stop-color:#FDCC9A"/>
			<stop  offset="0.3597" style="stop-color:#FCBA78"/>
			<stop  offset="0.4824" style="stop-color:#FAAB5C"/>
			<stop  offset="0.6066" style="stop-color:#F9A044"/>
			<stop  offset="0.7327" style="stop-color:#F89834"/>
			<stop  offset="0.8622" style="stop-color:#F7942A"/>
			<stop  offset="1" style="stop-color:#F79226"/>
		</radialGradient>
		<path id="path_x5F_1_1_" fill="url(#path_x5F_1_6_)" d="M476.28,178.04c0.04-0.01,0.04-0.01,0.07-0.03
			c0.84-0.26,1.72,0.22,1.92,1.05l0,0c0,0,0.07,0.2,0.21,0.6l1.74,5.97c0.22,0.73,0.44,1.5,0.69,2.31c0.51,1.57,1.03,3.32,1.54,5.28
			l-0.01,0.09c0.56,2.99,1.22,6.35,1.93,10.04c0.39,1.97,0.75,4.04,1.15,6.19l1.12,5.71c0.42,2.82,0.63,5.71,0.9,8.72
			c0.15,1.56,0.27,3.18,0.44,4.79c0.2,2.36,0.41,4.71,0.63,7.11l0.02,0.31c0.23,2.3,0.45,4.69,0.34,7.17l-0.12,14.81
			c0.04,0.48,0.02,0.94,0.01,1.44c0.04,0.84-0.73,1.57-1.56,1.61c-0.84-0.01-1.53-0.7-1.58-1.58c0.02-0.46,0.01-0.86,0.01-1.36
			l-0.02-0.8c0.02-4.74,0.08-9.48,0.11-14.22c0.14-2.26-0.09-4.56-0.31-6.95l-0.04-0.12c-0.1-1.27-0.23-2.53-0.32-3.8l-0.31-3.26
			c-0.16-1.74-0.31-3.4-0.44-5.06c-0.27-2.92-0.47-5.63-0.85-8.24l-2.39-12.48c-0.66-3.4-1.24-6.56-1.78-9.38
			c-0.47-1.81-0.97-3.51-1.45-5c-0.25-0.85-0.48-1.62-0.71-2.39c-1.19-4.15-1.93-6.49-1.94-6.53
			C475.08,179.2,475.49,178.33,476.28,178.04z M481.7,298.38c0.27-0.1,0.53-0.11,0.81-0.08c0.43,0.07,0.79,0.34,0.99,0.67
			c0.26,0.36,0.32,0.78,0.25,1.21c-0.2,0.84-1.05,1.42-1.87,1.23c-0.38-0.08-0.73-0.31-0.99-0.67c-0.22-0.37-0.32-0.78-0.2-1.19
			C480.8,298.98,481.18,298.57,481.7,298.38z M472.91,330.43c0.36-0.13,0.75-0.14,1.11,0c0.78,0.3,1.19,1.22,0.9,2.05
			c-0.25,0.68-0.49,1.26-0.7,1.79c-0.15,0.32-0.28,0.6-0.36,0.85l-0.7,1.66c-0.31,0.79-1.27,1.19-2.04,0.89
			c-0.78-0.34-1.16-1.28-0.82-2.08l0.67-1.64c0.13-0.27,0.24-0.58,0.35-0.89c0.23-0.49,0.46-1.07,0.69-1.7
			C472.15,330.94,472.48,330.59,472.91,330.43z"/>
		
			<radialGradient id="path_x5F_1_7_" cx="270.351" cy="401.4858" r="162.7543" gradientTransform="matrix(0.9817 0.1906 -0.1906 0.9817 52.6028 -43.3628)" gradientUnits="userSpaceOnUse">
			<stop  offset="0" style="stop-color:#FFFFFF"/>
			<stop  offset="1.636088e-03" style="stop-color:#FFFEFD"/>
			<stop  offset="0.119" style="stop-color:#FEE2C4"/>
			<stop  offset="0.2381" style="stop-color:#FDCC9A"/>
			<stop  offset="0.3597" style="stop-color:#FCBA78"/>
			<stop  offset="0.4824" style="stop-color:#FAAB5C"/>
			<stop  offset="0.6066" style="stop-color:#F9A044"/>
			<stop  offset="0.7327" style="stop-color:#F89834"/>
			<stop  offset="0.8622" style="stop-color:#F7942A"/>
			<stop  offset="1" style="stop-color:#F79226"/>
		</radialGradient>
		<path id="path_x5F_1" fill="url(#path_x5F_1_7_)" d="M36.94,351.77c0.82-0.3,1.67,0.06,1.98,0.84c0.01,0.04,0.24,0.54,0.63,1.52
			c0.27,0.76,0.81,2.04,1.85,3.87c1.85,3.5,4.58,8.61,8.08,15.15c1.26,2.73,3.2,5.57,5.19,8.61c0.35,0.5,0.72,1.04,1.09,1.58
			c2.13,3.17,4.39,6.57,6.76,10.15c0.26,0.35,0.32,0.78,0.23,1.17c-0.07,0.43-0.29,0.79-0.65,1.05c-0.68,0.48-1.68,0.26-2.18-0.41
			l-0.49-0.76c-2.19-3.34-4.31-6.46-6.27-9.38c-0.38-0.58-0.76-1.17-1.14-1.74c-2.04-3.03-3.97-5.87-5.35-8.78l-8-15.09
			c-1.07-1.9-1.71-3.33-2.03-4.25l-0.28-0.66c-0.15-0.44-0.28-0.66-0.3-0.74c0,0,0,0-0.01-0.04c-0.32-0.78,0.05-1.73,0.87-2.08
			L36.94,351.77z M65.07,398.76c0.63-0.23,1.32-0.04,1.73,0.49c0.28,0.3,0.4,0.75,0.36,1.17c-0.07,0.43-0.24,0.81-0.6,1.07
			c-0.61,0.54-1.67,0.43-2.17-0.23c-0.54-0.65-0.46-1.68,0.19-2.23C64.73,398.93,64.92,398.81,65.07,398.76z M86.95,423.26
			c0.54-0.2,1.17-0.07,1.58,0.36c0.32,0.29,0.48,0.73,0.49,1.13c0.02,0.44-0.15,0.82-0.45,1.11c-0.57,0.66-1.6,0.64-2.2,0.05
			c-0.33-0.28-0.47-0.68-0.49-1.12c-0.01-0.4,0.16-0.82,0.46-1.11C86.5,423.51,86.71,423.35,86.95,423.26z M117.75,448.83
			c0.47-0.17,0.99-0.1,1.41,0.2c11.54,7.98,23.71,14.87,36.23,20.45c11.21,5.13,23.16,9.35,35.49,12.63
			c0.83,0.23,1.31,1.09,1.12,1.93c-0.24,0.85-1.11,1.4-1.94,1.17c-12.47-3.31-24.55-7.63-35.96-12.82
			c-12.68-5.67-25.03-12.67-36.71-20.77c-0.69-0.46-0.91-1.46-0.41-2.19C117.19,449.12,117.44,448.94,117.75,448.83z M463.86,352.42
			c0.43-0.16,0.88-0.14,1.27,0.07c0.33,0.19,0.63,0.53,0.77,0.93c0.1,0.41,0.07,0.83-0.15,1.22c0,0,0,0-0.02,0.05
			c-0.38,0.68-1.38,1-2.1,0.6c-0.76-0.39-1.02-1.38-0.63-2.15C463.2,352.8,463.51,352.55,463.86,352.42z M460.44,358.95
			c0.39-0.14,0.87-0.14,1.27,0.07c0.77,0.43,1.06,1.37,0.62,2.15c-0.51,0.95-1.03,2-1.64,3.17c-1.56,3-3.49,6.74-5.86,10.94
			l-0.03,0.06c-0.51,0.82-1.02,1.6-1.58,2.43c-7.99,12.45-18.97,29.47-36.29,46.05c-0.89,0.87-1.82,1.75-2.75,2.64
			c-0.6,0.58-1.63,0.55-2.19-0.05c-0.58-0.64-0.57-1.63,0.06-2.23c0.93-0.89,1.83-1.75,2.7-2.66c17.1-16.36,27.99-33.21,35.9-45.55
			l1.49-2.31c2.38-4.21,4.34-7.99,5.89-11c0.56-1.06,1.09-2.07,1.57-2.97c-0.01-0.04-0.01-0.04-0.01-0.04
			C459.77,359.33,460.09,359.08,460.44,358.95z M197.03,483.93c0.27-0.1,0.58-0.13,0.87-0.05c0.82,0.19,1.34,1.04,1.15,1.87
			c-0.2,0.84-1.07,1.38-1.88,1.23c-0.82-0.19-1.35-1.07-1.16-1.91C196.13,484.53,196.52,484.12,197.03,483.93z M229.22,489.09
			c0.23-0.09,0.44-0.12,0.67-0.12c0.42,0.07,0.79,0.25,1.09,0.59c0.24,0.32,0.38,0.71,0.31,1.15c-0.06,0.83-0.84,1.53-1.71,1.44
			c0,0,0,0-0.04,0.01c-0.37-0.04-0.75-0.26-1-0.58c-0.25-0.31-0.39-0.71-0.35-1.13C228.23,489.81,228.68,489.29,229.22,489.09z
			 M269.13,489.14c0.12-0.04,0.28-0.06,0.4-0.1c25.71-2.21,51-8.64,74.95-19.38c0.53-0.24,1.1-0.5,1.64-0.74
			c0.8-0.38,1.73-0.01,2.06,0.81c0.35,0.77-0.01,1.76-0.78,2.09c-0.31,0.12-0.57,0.26-0.85,0.36c-0.3,0.15-0.57,0.25-0.83,0.4
			c-24.07,10.79-49.91,17.42-75.96,19.67c-0.86,0.05-1.62-0.57-1.66-1.46C268.02,490.05,268.46,489.39,269.13,489.14z
			 M381.25,449.22c0.71-0.26,1.45-0.04,1.85,0.58c0.48,0.72,0.26,1.75-0.47,2.2c-0.7,0.53-1.67,0.3-2.15-0.42
			c-0.47-0.73-0.28-1.7,0.43-2.19C381.02,449.31,381.14,449.26,381.25,449.22z M352.82,465.77c0.79-0.29,1.63,0.07,1.97,0.8
			c0.36,0.77,0.04,1.75-0.76,2.13c-0.74,0.41-1.71,0.05-2.09-0.76c-0.36-0.77-0.03-1.74,0.76-2.12
			C352.74,465.79,352.79,465.78,352.82,465.77z"/>
	</g>
</g>
<g>
</g>
<g>
</g>
<g>
</g>
<g>
</g>
<g>
</g>
<g>
</g>
</svg>
